<svg width="262" height="92" viewBox="0 0 262 92" fill="none" xmlns="http://www.w3.org/2000/svg">
<path d="M224.149 34.4313C228.354 34.4313 229.972 37.4816 230.111 39.7924H218.187C218.51 37.3891 220.22 34.4313 224.149 34.4313ZM211.624 42.0108C211.624 49.7751 217.17 54.7665 224.565 54.7665C228.308 54.7665 232.098 53.6573 234.547 51.3927L231.728 47.2794C230.157 48.8046 227.522 49.6827 225.258 49.6827C221.145 49.6827 218.695 47.1408 218.279 44.0905H236.257V42.704C236.257 34.801 231.358 29.3475 224.102 29.3475C216.8 29.3475 211.624 35.0321 211.624 42.0108ZM206.864 54.1656V29.9483H200.486V46.3551C199.377 47.7416 197.436 49.1281 194.986 49.1281C192.259 49.1281 190.503 48.0189 190.503 44.6451V29.9483H184.125V47.1408C184.125 51.8548 186.621 54.7665 191.936 54.7665C195.911 54.7665 198.822 52.964 200.44 51.1154V54.1656H206.864ZM171.139 54.1656L184.033 20.7051H175.899L166.656 46.4013L157.366 20.7051H149.278L162.219 54.1656H171.139Z" fill="white"/>
<path d="M116.326 37.4824C116.326 47.881 123.998 54.8135 133.519 54.8135C138.972 54.8135 143.547 52.5027 146.644 49.0364V36.974H131.023V40.6713H142.484V47.5113C140.821 49.1751 137.539 51.1162 133.519 51.1162C126.216 51.1162 120.624 45.3854 120.624 37.4824C120.624 29.5332 126.17 23.8948 133.519 23.8948C137.539 23.8948 141.098 25.7897 143.178 28.5164L146.505 26.4829C143.547 22.8318 139.434 20.1975 133.519 20.1975C123.998 20.1513 116.326 27.0837 116.326 37.4824ZM99.4572 54.7673C105.511 54.7673 109.532 51.9481 112.352 48.1583L108.793 46.2173C106.898 49.0827 103.432 51.07 99.4572 51.07C92.2936 51.07 86.7015 45.3854 86.7015 37.4824C86.7015 29.5332 92.2474 23.8948 99.4572 23.8948C103.432 23.8948 106.898 25.9283 108.793 28.7475L112.305 26.8064C109.671 23.0629 105.558 20.1975 99.4572 20.1975C89.9828 20.1975 82.4034 27.2224 82.4034 37.4824C82.4496 47.7424 89.9828 54.7673 99.4572 54.7673ZM77.1809 54.1665V50.4691H59.4339V38.9151H76.8112V35.2178H59.4339V24.4494H77.1809V20.7521H55.2744V54.2127H77.1809V54.1665Z" fill="#0BBBEF"/>
<path d="M8.82715 35.5407H18.3939L24.3096 41.4564L29.8555 6.4707L32.3512 6.51692L36.9266 46.6326L41.7331 30.6418L48.2958 36.0491H62.0221V38.5448H47.3715L43.0734 34.9861L37.6199 53.2416L35.1242 53.0105L30.9185 16.0375L26.0658 46.7713L17.3309 38.0364H8.82715V35.5407Z" fill="#0BBBEF"/>
<path d="M235.518 17.2852V18.4406H238.244V26.9906H239.492V18.4406H242.219V17.2852H235.518ZM251.277 17.2852L248.458 24.31L245.639 17.2852H243.744V26.9444H244.992V18.9489L248.273 26.9444H248.643L251.924 18.9489V26.9444H253.172V17.2852H251.277Z" fill="white"/>
<path d="M141.352 62.7245H142.904V73.8125H141.352V68.6925H135.928V73.8125H134.376V62.7245H135.928V67.3485H141.352V62.7245ZM152.905 69.6525C152.905 70.3138 152.809 70.9112 152.617 71.4445C152.425 71.9778 152.153 72.4365 151.801 72.8205C151.46 73.2045 151.049 73.5032 150.569 73.7165C150.089 73.9192 149.567 74.0205 149.001 74.0205C148.436 74.0205 147.913 73.9192 147.433 73.7165C146.953 73.5032 146.537 73.2045 146.185 72.8205C145.844 72.4365 145.577 71.9778 145.385 71.4445C145.193 70.9112 145.097 70.3138 145.097 69.6525C145.097 69.0018 145.193 68.4098 145.385 67.8765C145.577 67.3325 145.844 66.8685 146.185 66.4845C146.537 66.1005 146.953 65.8072 147.433 65.6045C147.913 65.3912 148.436 65.2845 149.001 65.2845C149.567 65.2845 150.089 65.3912 150.569 65.6045C151.049 65.8072 151.46 66.1005 151.801 66.4845C152.153 66.8685 152.425 67.3325 152.617 67.8765C152.809 68.4098 152.905 69.0018 152.905 69.6525ZM151.353 69.6525C151.353 68.7138 151.14 67.9725 150.713 67.4285C150.297 66.8738 149.727 66.5965 149.001 66.5965C148.276 66.5965 147.7 66.8738 147.273 67.4285C146.857 67.9725 146.649 68.7138 146.649 69.6525C146.649 70.5912 146.857 71.3378 147.273 71.8925C147.7 72.4365 148.276 72.7085 149.001 72.7085C149.727 72.7085 150.297 72.4365 150.713 71.8925C151.14 71.3378 151.353 70.5912 151.353 69.6525ZM157.495 73.9725C156.577 73.9512 155.927 73.7538 155.543 73.3805C155.159 73.0072 154.967 72.4258 154.967 71.6365V61.6525L156.455 61.3965V71.3965C156.455 71.6418 156.476 71.8445 156.519 72.0045C156.561 72.1645 156.631 72.2925 156.727 72.3885C156.823 72.4845 156.951 72.5592 157.111 72.6125C157.271 72.6552 157.468 72.6925 157.703 72.7245L157.495 73.9725ZM160.766 65.4925H163.918V66.7405H160.766V70.5805C160.766 70.9965 160.798 71.3432 160.862 71.6205C160.926 71.8872 161.022 72.1005 161.15 72.2605C161.278 72.4098 161.438 72.5165 161.63 72.5805C161.822 72.6445 162.046 72.6765 162.302 72.6765C162.75 72.6765 163.107 72.6285 163.374 72.5325C163.651 72.4258 163.843 72.3512 163.95 72.3085L164.238 73.5405C164.088 73.6152 163.827 73.7058 163.454 73.8125C163.08 73.9298 162.654 73.9885 162.174 73.9885C161.608 73.9885 161.139 73.9192 160.766 73.7805C160.403 73.6312 160.11 73.4125 159.886 73.1245C159.662 72.8365 159.502 72.4845 159.406 72.0685C159.32 71.6418 159.278 71.1512 159.278 70.5965V63.1725L160.766 62.9165V65.4925ZM165.191 69.6685C165.191 68.9325 165.298 68.2925 165.511 67.7485C165.724 67.1938 166.007 66.7352 166.359 66.3725C166.711 66.0098 167.116 65.7378 167.575 65.5565C168.034 65.3752 168.503 65.2845 168.983 65.2845C170.103 65.2845 170.962 65.6365 171.559 66.3405C172.156 67.0338 172.455 68.0952 172.455 69.5245C172.455 69.5885 172.455 69.6738 172.455 69.7805C172.455 69.8765 172.45 69.9672 172.439 70.0525H166.743C166.807 70.9165 167.058 71.5725 167.495 72.0205C167.932 72.4685 168.615 72.6925 169.543 72.6925C170.066 72.6925 170.503 72.6498 170.855 72.5645C171.218 72.4685 171.49 72.3778 171.671 72.2925L171.879 73.5405C171.698 73.6365 171.378 73.7378 170.919 73.8445C170.471 73.9512 169.959 74.0045 169.383 74.0045C168.658 74.0045 168.028 73.8978 167.495 73.6845C166.972 73.4605 166.54 73.1565 166.199 72.7725C165.858 72.3885 165.602 71.9352 165.431 71.4125C165.271 70.8792 165.191 70.2978 165.191 69.6685ZM170.903 68.8525C170.914 68.1805 170.743 67.6312 170.391 67.2045C170.05 66.7672 169.575 66.5485 168.967 66.5485C168.626 66.5485 168.322 66.6178 168.055 66.7565C167.799 66.8845 167.58 67.0552 167.399 67.2685C167.218 67.4818 167.074 67.7272 166.967 68.0045C166.871 68.2818 166.807 68.5645 166.775 68.8525H170.903ZM177.665 65.3165C177.793 65.3165 177.937 65.3272 178.097 65.3485C178.267 65.3592 178.433 65.3805 178.593 65.4125C178.753 65.4338 178.897 65.4605 179.025 65.4925C179.163 65.5138 179.265 65.5352 179.329 65.5565L179.073 66.8525C178.955 66.8098 178.758 66.7618 178.481 66.7085C178.214 66.6445 177.867 66.6125 177.441 66.6125C177.163 66.6125 176.886 66.6445 176.609 66.7085C176.342 66.7618 176.166 66.7992 176.081 66.8205V73.8125H174.593V65.8445C174.945 65.7165 175.382 65.5992 175.905 65.4925C176.427 65.3752 177.014 65.3165 177.665 65.3165ZM187.14 72.7085C188.761 72.7085 189.572 72.1538 189.572 71.0445C189.572 70.7032 189.497 70.4152 189.348 70.1805C189.209 69.9352 189.017 69.7272 188.772 69.5565C188.526 69.3752 188.244 69.2205 187.924 69.0925C187.614 68.9645 187.284 68.8365 186.932 68.7085C186.526 68.5698 186.142 68.4152 185.78 68.2445C185.417 68.0632 185.102 67.8552 184.836 67.6205C184.569 67.3752 184.356 67.0872 184.196 66.7565C184.046 66.4258 183.972 66.0258 183.972 65.5565C183.972 64.5858 184.302 63.8285 184.964 63.2845C185.625 62.7405 186.537 62.4685 187.7 62.4685C188.372 62.4685 188.98 62.5432 189.524 62.6925C190.078 62.8312 190.484 62.9858 190.74 63.1565L190.244 64.4205C190.02 64.2818 189.684 64.1485 189.236 64.0205C188.798 63.8818 188.286 63.8125 187.7 63.8125C187.401 63.8125 187.124 63.8445 186.868 63.9085C186.612 63.9725 186.388 64.0685 186.196 64.1965C186.004 64.3245 185.849 64.4898 185.732 64.6925C185.625 64.8845 185.572 65.1138 185.572 65.3805C185.572 65.6792 185.63 65.9298 185.748 66.1325C185.865 66.3352 186.03 66.5165 186.244 66.6765C186.457 66.8258 186.702 66.9645 186.98 67.0925C187.268 67.2205 187.582 67.3485 187.924 67.4765C188.404 67.6685 188.841 67.8605 189.236 68.0525C189.641 68.2445 189.988 68.4738 190.276 68.7405C190.574 69.0072 190.804 69.3272 190.964 69.7005C191.124 70.0632 191.204 70.5058 191.204 71.0285C191.204 71.9992 190.846 72.7458 190.132 73.2685C189.428 73.7912 188.43 74.0525 187.14 74.0525C186.702 74.0525 186.297 74.0205 185.924 73.9565C185.561 73.9032 185.236 73.8392 184.948 73.7645C184.66 73.6792 184.409 73.5938 184.196 73.5085C183.993 73.4125 183.833 73.3325 183.715 73.2685L184.18 71.9885C184.425 72.1272 184.798 72.2818 185.299 72.4525C185.801 72.6232 186.414 72.7085 187.14 72.7085ZM192.007 75.3645C192.124 75.4178 192.274 75.4658 192.455 75.5085C192.647 75.5618 192.834 75.5885 193.015 75.5885C193.602 75.5885 194.06 75.4552 194.391 75.1885C194.722 74.9325 195.02 74.5112 195.287 73.9245C194.615 72.6445 193.986 71.2898 193.399 69.8605C192.823 68.4205 192.343 66.9645 191.959 65.4925H193.559C193.676 65.9725 193.815 66.4898 193.975 67.0445C194.146 67.5992 194.332 68.1698 194.535 68.7565C194.738 69.3432 194.956 69.9298 195.191 70.5165C195.426 71.1032 195.671 71.6685 195.927 72.2125C196.332 71.0925 196.684 69.9832 196.983 68.8845C197.282 67.7858 197.564 66.6552 197.831 65.4925H199.367C198.983 67.0605 198.556 68.5698 198.087 70.0205C197.618 71.4605 197.111 72.8098 196.567 74.0685C196.354 74.5485 196.13 74.9592 195.895 75.3005C195.671 75.6525 195.42 75.9405 195.143 76.1645C194.866 76.3885 194.551 76.5538 194.199 76.6605C193.858 76.7672 193.468 76.8205 193.031 76.8205C192.914 76.8205 192.791 76.8098 192.663 76.7885C192.535 76.7778 192.407 76.7565 192.279 76.7245C192.162 76.7032 192.05 76.6765 191.943 76.6445C191.847 76.6125 191.778 76.5858 191.735 76.5645L192.007 75.3645ZM202.872 72.7405C203.48 72.7405 203.928 72.6605 204.216 72.5005C204.515 72.3405 204.664 72.0845 204.664 71.7325C204.664 71.3698 204.52 71.0818 204.232 70.8685C203.944 70.6552 203.47 70.4152 202.808 70.1485C202.488 70.0205 202.179 69.8925 201.88 69.7645C201.592 69.6258 201.342 69.4658 201.128 69.2845C200.915 69.1032 200.744 68.8845 200.616 68.6285C200.488 68.3725 200.424 68.0578 200.424 67.6845C200.424 66.9485 200.696 66.3672 201.24 65.9405C201.784 65.5032 202.526 65.2845 203.464 65.2845C203.699 65.2845 203.934 65.3005 204.168 65.3325C204.403 65.3538 204.622 65.3858 204.824 65.4285C205.027 65.4605 205.203 65.4978 205.352 65.5405C205.512 65.5832 205.635 65.6205 205.72 65.6525L205.448 66.9325C205.288 66.8472 205.038 66.7618 204.696 66.6765C204.355 66.5805 203.944 66.5325 203.464 66.5325C203.048 66.5325 202.686 66.6178 202.376 66.7885C202.067 66.9485 201.912 67.2045 201.912 67.5565C201.912 67.7378 201.944 67.8978 202.008 68.0365C202.083 68.1752 202.19 68.3032 202.328 68.4205C202.478 68.5272 202.659 68.6285 202.872 68.7245C203.086 68.8205 203.342 68.9218 203.64 69.0285C204.035 69.1778 204.387 69.3272 204.696 69.4765C205.006 69.6152 205.267 69.7805 205.48 69.9725C205.704 70.1645 205.875 70.3992 205.992 70.6765C206.11 70.9432 206.168 71.2738 206.168 71.6685C206.168 72.4365 205.88 73.0178 205.304 73.4125C204.739 73.8072 203.928 74.0045 202.872 74.0045C202.136 74.0045 201.56 73.9405 201.144 73.8125C200.728 73.6952 200.446 73.6045 200.296 73.5405L200.568 72.2605C200.739 72.3245 201.011 72.4205 201.384 72.5485C201.758 72.6765 202.254 72.7405 202.872 72.7405ZM209.469 65.4925H212.621V66.7405H209.469V70.5805C209.469 70.9965 209.501 71.3432 209.565 71.6205C209.629 71.8872 209.725 72.1005 209.853 72.2605C209.981 72.4098 210.141 72.5165 210.333 72.5805C210.525 72.6445 210.749 72.6765 211.005 72.6765C211.453 72.6765 211.81 72.6285 212.077 72.5325C212.354 72.4258 212.546 72.3512 212.653 72.3085L212.941 73.5405C212.792 73.6152 212.53 73.7058 212.157 73.8125C211.784 73.9298 211.357 73.9885 210.877 73.9885C210.312 73.9885 209.842 73.9192 209.469 73.7805C209.106 73.6312 208.813 73.4125 208.589 73.1245C208.365 72.8365 208.205 72.4845 208.109 72.0685C208.024 71.6418 207.981 71.1512 207.981 70.5965V63.1725L209.469 62.9165V65.4925ZM213.894 69.6685C213.894 68.9325 214.001 68.2925 214.214 67.7485C214.427 67.1938 214.71 66.7352 215.062 66.3725C215.414 66.0098 215.819 65.7378 216.278 65.5565C216.737 65.3752 217.206 65.2845 217.686 65.2845C218.806 65.2845 219.665 65.6365 220.262 66.3405C220.859 67.0338 221.158 68.0952 221.158 69.5245C221.158 69.5885 221.158 69.6738 221.158 69.7805C221.158 69.8765 221.153 69.9672 221.142 70.0525H215.446C215.51 70.9165 215.761 71.5725 216.198 72.0205C216.635 72.4685 217.318 72.6925 218.246 72.6925C218.769 72.6925 219.206 72.6498 219.558 72.5645C219.921 72.4685 220.193 72.3778 220.374 72.2925L220.582 73.5405C220.401 73.6365 220.081 73.7378 219.622 73.8445C219.174 73.9512 218.662 74.0045 218.086 74.0045C217.361 74.0045 216.731 73.8978 216.198 73.6845C215.675 73.4605 215.243 73.1565 214.902 72.7725C214.561 72.3885 214.305 71.9352 214.134 71.4125C213.974 70.8792 213.894 70.2978 213.894 69.6685ZM219.606 68.8525C219.617 68.1805 219.446 67.6312 219.094 67.2045C218.753 66.7672 218.278 66.5485 217.67 66.5485C217.329 66.5485 217.025 66.6178 216.758 66.7565C216.502 66.8845 216.283 67.0552 216.102 67.2685C215.921 67.4818 215.777 67.7272 215.67 68.0045C215.574 68.2818 215.51 68.5645 215.478 68.8525H219.606ZM223.296 65.7325C223.637 65.6472 224.085 65.5565 224.64 65.4605C225.205 65.3645 225.856 65.3165 226.592 65.3165C227.125 65.3165 227.573 65.3912 227.936 65.5405C228.298 65.6792 228.602 65.8872 228.848 66.1645C228.922 66.1112 229.04 66.0365 229.2 65.9405C229.36 65.8445 229.557 65.7538 229.792 65.6685C230.026 65.5725 230.288 65.4925 230.576 65.4285C230.864 65.3538 231.173 65.3165 231.504 65.3165C232.144 65.3165 232.666 65.4125 233.072 65.6045C233.477 65.7858 233.792 66.0472 234.016 66.3885C234.25 66.7298 234.405 67.1352 234.48 67.6045C234.565 68.0738 234.608 68.5858 234.608 69.1405V73.8125H233.12V69.4605C233.12 68.9698 233.093 68.5485 233.04 68.1965C232.997 67.8445 232.906 67.5512 232.768 67.3165C232.64 67.0818 232.458 66.9112 232.224 66.8045C232 66.6872 231.706 66.6285 231.344 66.6285C230.842 66.6285 230.426 66.6978 230.096 66.8365C229.776 66.9645 229.557 67.0818 229.44 67.1885C229.525 67.4658 229.589 67.7698 229.632 68.1005C229.674 68.4312 229.696 68.7778 229.696 69.1405V73.8125H228.208V69.4605C228.208 68.9698 228.181 68.5485 228.128 68.1965C228.074 67.8445 227.978 67.5512 227.84 67.3165C227.712 67.0818 227.53 66.9112 227.296 66.8045C227.072 66.6872 226.784 66.6285 226.432 66.6285C226.282 66.6285 226.122 66.6338 225.952 66.6445C225.781 66.6552 225.616 66.6712 225.456 66.6925C225.306 66.7032 225.168 66.7192 225.04 66.7405C224.912 66.7618 224.826 66.7778 224.784 66.7885V73.8125H223.296V65.7325Z" fill="white"/>
</svg>
