<svg xmlns="http://www.w3.org/2000/svg" width="46" height="42" fill="none" xmlns:v="https://vecta.io/nano"><g stroke="#e26e6e"><path d="M43.76005.40804l-20.3352 33.99998m37.9998 0h-37.061" stroke-width=".26472" stroke-dasharray="1.06, 2.12"/><g stroke-width=".79417"><path d="M4.39443 12.48422l-3.85064 2.2726 15.14606 25.6629"/><path d="M15.36805 39.88072c1.0588 1.5883 1.0588 1.5883 2.1177 1.5883m-.5294.0015l41.8261.1324m-40.2377-4.2359h40.2377"/><path d="M3.76401 12.35242l15.33974 25.3564"/><g stroke-linecap="round" stroke-linejoin="round"><path d="M32.62325 11.10222c-.5282-.3888-1.8213-.0095-2.1084 1.0778m5.3063-3.9309c.5562-.4456 1.8808-.1873 2.3925-.6454.4947-.443.919.0821 1.2696.488.3064.3547.8716.4619 1.2145.8577.2032.2346 1.6894.4131 1.2831-.1533-.2758-.3845-.4073-.9072-.6793-1.2865-.2021-.2818-.5152-.8033-.6137-1.156-.2312-.828-1.158-2.48527-2.0271-2.68838-1.0325-.24126-2.0866-.55819-3.1109-.14167-.9644.3921-1.4629 1.28605-1.7884 2.15495-.2089.5577-.1594 1.1609-.2099 1.7243-.0664.7406-.2701 1.3075-.5191 1.9721"/><path d="M41.35335 8.23912c-.1327.6682-.3272 1.3959-.7288 1.9281-.2209.2929-.7193.3594-.6172.8337.0832.3862-.126 1.1313-.4004 1.3511-.3395.272-.4994.0981-.8234.2199-.5499.2069-1.0115.8305-1.4777 1.1716-.3057.2236-.9299-.3508-1.3011-.0884-.4385.3101-2.1324 1.2739-1.0035 1.7087m-2.079-5.7956l-.6198.699-1.0845 1.2233"/><path d="M31.32305 11.90212c.2106-.1058 1.9736-.9883 2.245-.7383.4065.3744.7992.8049 1.185 1.2864.4627.5775 1.6219 2.1884 2.3595 1.5974m-8.4284-1.917c.2202-.0842 2.0626-.7861 2.3077-.5101.367.4131.7146.8808 1.0504 1.3984.4026.6209 1.3949 2.3397 2.1879 1.8254m-8.2518 2.8286c.1391.3158.455.3824.7019.5997.1748.1538.3998.2835.6078.4008.478.2697 1.0141.6523 1.3001 1.0933m3.5303-3.8987c-.8702 1.2388-1.6206 2.4612-2.7566 3.4846-.1697.1529-.3945.4368-.5113.6274l-.4262.6275c-.4584.8192-1.1315 1.5028-1.6024 2.2908-.4981.8337-.5038 1.8216-.4456 2.7531l.0532 2.1274-.0032 1.0228c.0031.2151-.0753.4795-.0464.6836.0449.3188-.0475.6676-.0569.9926l-.0298.9296c-.0618.7182-.0682 1.4935-.0119 2.2052.0474.5994.0618 1.1021.3937 1.6141l.6664 1.0275c.3739.5766.4956 1.2692.5299 1.971.014.2847-.1232.6227-.1878.8955-.0319.1347-.1025.229-.2274.31m-4.1965-16.2121c-.5188 1.0473-.5291 1.9678-.3833 3.0177l.1443 1.5527c.0554.4626.0541.9914.1981 1.4284.068.2068.0589.4307.1162.6425l.2134.7707.2296 1.0954c.1748.6009.3207 1.2035.398 1.8348.0747.6111.2688 1.1849.3312 1.7918.0215.2091-.0308.4509-.0077.675.027.2627.0655.4527.1893.6844s.1862.4998.2958.7397.2334.4635.3853.6977c.1653.2549.3214.4954.5298.7188.1349.1446.1755.1851.4443.3283s.145.2236.3965.2813c.135.0949.5337.0681.6576-.0122m7.5486-23.8935c-.2601.6732-.025 1.3406-.0362 2.0203-.0091.5547-.0819 1.1077-.2267 1.6475-.078.2908-.3893.6941-.5634.9418l-.5247.8297c-.387.5971-.6174 1.2721-.9191 1.9078-.2383.5024-.5578.8733-.9209 1.2958-.3304.3846-.7272.7718-.9725 1.2197-.357.6515-.7679 1.0495-.6565 1.8185.0855.5903-.2037 1.2927-.0583 1.87"/><path d="M22.56625 28.40802c.3178.4062 1.3321 6.6867 1.5311 7.1713.7544.8002.6053.8908 1.2386 1.0079.4334.0802 1.4629.0253 1.8035-.168-.2271.0866.6129.0615.8868.1039.3036.0469.6344.0203.941.0627.5436.0749 1.0692.0829 1.6258.0925l.4334.0075c.2277.004.4064-.0909.628-.0978l.7585-.0593.6047.0104c.2829.0049.4911.1172.7768.1222l1.5091.0262c.3693.0064.696-.0131 1.0582-.0541.2895-.0329.506-.1664.78-.224.3517-.0742.609-.1594.9801-.1783l1.4026-.014 3.3346.0215c.8511.0148 1.6971.0431 2.5234.1888 1.5584.2745 3.1691.2361 4.7596.2636l3.9707.0689m-25.6881-8.3519c.3274.2214.4745.2647.8556.2647.1761 0 .383.1343.545.2118.398.1903.8653.2107 1.2775.3706.2177.0844.5221.2033.75.2118.2931.0108.5349.1312.8176.1559.6339.0553 1.2932.0029 1.928.0029h1.3507c.54 0 1.0855.1166 1.6233.1706.7598.0763 1.4701.324 2.2328.3588.1374.0063.2396.1005.3809.1059.0949.0037.226-.0264.3164.0117.1474.0624.3115.0412.4717.0412h1.1897c.434 0 .8268.009 1.2511.0942l1.6761.4117c.3093.0679.61.2883.9229.2883.299 0 .5938.1484.8879.2.3589.0629.6941.2146 1.0459.3029.2899.0728.5951-.0038.8879.0677.5291.1292 1.1026.1219 1.6261.3058l.841.2647c.2335.0671.4712.1676.709.2118.3704.0691.755-.004 1.1282.053.9151.1397 1.8868.1294 2.8158.1294"/><path d="M30.54575 29.43932c.6638.1821 1.3716.4321 2.08.4336l.8165.0017.7995.0016c.2746.0006.5376.087.8135.0876.1913.0004.358.0866.5639.087.2591.0006.5079.0329.7654.0445.292.0132.5587.1299.8644.1306.1795.0003.2791.0864.4677.0868l1.9107.004c.543.0093 1.0587.1309 1.6073.1321l2.713.0486c.5075.0011 1.0182.2596 1.5219.2607.1558.0003.2824.0177.4336.0534l.7538.1542c.5061.143 1.0162.259 1.5445.3156.2608.028.5619.1231.8189.1806.3532.0789.7174.0917 1.0656.1738l1.7883.3377c.5864.0999 1.2905.0252 1.8337.2423.2075.0829.4505.1092.6659.173.2246.0668.3928.1488.6347.1493.3246.0006.6127.13.9438.1307"/></g></g></g><g clip-path="url(#A)" transform="translate(-2.57535 -5.59098)"><path d="M33.3682 17.2486c-2.0844.3116-3.8281 1.1111-4.1783 2.4095-.2394.8879-.2611 1.9605-.991 2.6754-.9421.9225-1.5091 1.6886-1.821 2.8452-.2438.9041-.796 1.8821-.7217 2.8577.0372.4876.2727.9483.3968 1.4363.1026.4035-.1832.8611-.282 1.2275-.0926.3436-.2508.6886-.2707 1.0499-.031.5552.2801 1.2244.1769 1.7513-.1631.8336.7998 1.9413.5717 2.7871-.1273.4722.5454 1.1143.4493 1.6054-.0907.4633-.0252.9104-.1498 1.3728l-1.2301 5.3793-.3601 1.3354c-.1083.4014-.1927.8059-.4256 1.1695-.2757.4301-.8936.7917-1.1008 1.2196-.1768.365-.7422.5897-.9088.9165-.2394.4696-.6858.9403-1.1284 1.3219-.751.6476-1.2505 1.7752-1.4787 2.6213l-.3796 1.4076c-.0897.3327-.5982 1.1079-.2637 1.4777.3205.3543 4.296.4948 4.84.5437 1.3969.1255 3.914 1.1533 4.9987.9092" stroke="#e26e6e" stroke-width=".79" stroke-linecap="round" stroke-linejoin="round"/></g><defs><clipPath id="A"><path transform="translate(8 6)" d="M0 0h41.5361v28H0z" fill="#fff"/></clipPath></defs></svg>