<svg xmlns="http://www.w3.org/2000/svg" width="55.12569" height="12.48076" fill="none" xmlns:v="https://vecta.io/nano"><path d="M4.18716 8.44546c.1048.1786.33457.2385.5132.1337s.23849-.3346.13368-.5132zm-.02196-2.9292l.37238.0442h.00001zm.433-1.8965l.3746.0173v-.0001zm.10707-.8195l.28839.2397.00006-.0001zm.6422.0761l-.122.3546h.00011zm.6714.0878l.14416.3462h.00004zm2.10173-1.3229l-.27545-.2545-.00007.0001zm.26273.3746l.31228-.2076-.00004-.0001zm1.81957.8664l-.3745-.0184v.0001zm-.0594 1.9783c.1616.1296.3976.1037.5272-.0579s.1036-.3976-.058-.5272zm-5.3073-.3974c0 .2071.16789.375.375.375s.375-.1679.375-.375zm.58907-.9483l-.21244-.3091-.00002.0001zm.5988-.5268c0-.2072-.1679-.375-.375-.375s-.375.1678-.375.375zm1.64727 3.207c-.20705-.0049-.37887.159-.38377.366s.15897.3789.36602.3838zm1.04199 1.0305l-.3741.0259v.0001zm.26274.7141l.37453.0184v-.0001zm-1.44987.2049l.08013.3664h.00013zm-1.48387.1171l.09684.3623.00003-.0001zm-1.298-.4038c-.16157-.1295-.39759-.1036-.52715.058s-.10362.3976.05795.5272zm.5523-3.9715c-.20163-.0473-.40345.0778-.45077.2794s.07775.4034.27938.4508zm1.35444 1.4129l-.12185-.3547h-.00006zm-.3698.8253l-.36331-.0929h-.00001zm.9244.3161l-.28839-.2397h-.00003zm1.00746-1.3463c0-.2071-.16789-.375-.375-.375s-.375.1679-.375.375zm-.6382 1.8506c.20711 0 .375-.1679.375-.375s-.16789-.375-.375-.375zm-.52546-.75c-.20711 0-.375.1679-.375.375s.16789.375.375.375zm2.36503 1.9092c.2071 0 .375-.1678.375-.375s-.1679-.375-.375-.375zm-.43797-.75c-.2071 0-.375.1679-.375.375s.1679.375.375.375zm.73037 1.2012c.1072.1773.3377.2341.515.127s.234-.3377.1269-.5149zm-.2726-1.2476l.3517-.13h0zm-.10703-.9717l.37483.012h0zm.94383-1.1356l-.3432-.151h0zm.613-.9716l.2631.2672h0zm.7006-.4215l-.3003-.2246h0zm.6325-.7961l-.2014-.3163h-.0001zm.832-.3454l-.0969-.3622h0zm1.7077-.5735l.3122.2077.0001-.0001zm6.3491.4214l-.1132.3575h0zm.2818.4741c0 .2071.1679.375.375.375s.375-.1679.375-.375zm-8.2953.6788c-.2071 0-.375.1679-.375.375s.1679.375.375.375zm2.1455 1.2705l.1575-.3403h0zm1.7077.6029l.0969-.3623h0zm1.1823.2342l.2563-.2738-.0001-.0001zm.7395-.5151l-.3054-.2176zm1.9315-1.3698l-.1933-.3213h0zm.8368-.398l.1768.3307h.0001zm.4768-.398l.0525.3713h.0001zm2.9775-1.0302l-.2166.3061h0zm.613.4799l.2167-.306-.0001-.0001zm.0916.6941c.0794.1913.2989.2819.4902.2025s.2819-.2989.2024-.4902zm-.4672 5.3351c0 .2071.1679.375.375.375s.375-.1679.375-.375zm.4187-3.0555l-.3695-.064h0zm.3065-1.4986l-.3322-.1738h0zm1.0766-.7904c.1324-.1593.1106-.3958-.0487-.5281s-.3957-.1106-.5281.0487zm-5.6385-1.024c-.2002.0529-.3197.2581-.2668.4584s.2581.3197.4584.2668zm1.2343-.2462l.2499.2796h0zm1.5986.053c.1003.1812.3286.2467.5097.1463s.2467-.3286.1463-.5098zm-4.2378 5.8044c-.153.1395-.164.3767-.0245.5298s.3767.1641.5297.0246zm.7775-.412l.2916.2358v-.0001zm.6329-.7037l.2884.2397zm1.4218-2.2926l.3128.2068h.0001zm.5077-.5407l-.136-.3495-.0001.0001zm.7907-.3632l-.1116-.358h0zm1.3018-.2579l-.0988-.3618-.0001.0001zm.2848-.0475l-.1107-.3583-.0002.0001zm.5623.0242c.0795-.1912-.0111-.4107-.2024-.4902s-.4107.0112-.4902.2024zm-10.8663 5.1634c.1823.0983.4098.0303.5081-.1519s.0303-.4098-.1519-.5081zm-.2232-1.0358l.3749.009h0zm.1234-.3755l-.3404-.1573v.0001zm.2024-.4788l.2125.309h0zm.1441-.26l-.3368-.1648-.0001.0001zm.1801-.2621l-.3182-.1983h0zm.5894-.5922c0-.2071-.1679-.375-.375-.375s-.375.1679-.375.375zM53.2317.35276c-.1306-.1607-.3668-.1852-.5276-.0546s-.1852.3668-.0546.5275zm.3504 1.2022l.3518-.1299-.0001-.0001zm.084.2951l.363-.0943v-.0001zm.0309.2786l-.3508.1324v.0002zm.0789.782l-.372.0476v.0001zm.0223 2.6187l.3483.139v-.0001zm-.1167.4664l.3504.1338h0zm-.1698.65l-.3629-.0943v.0001zm-.108 1.3269l.3348.169v-.0001zm-.9776.0474l.0802-.3663-.0002-.0001zm-.3705-.0681l.0738-.3677h-.0002zm-.4408-.0846l.0558-.3709h-.0001zm-1.9924-.375c-.2071 0-.375.1679-.375.375s.1679.375.375.375zm-.1631-2.319c-.1968.0646-.304.2765-.2394.4732s.2765.304.4732.2394zm1.7222-.5434l.2601.2702h0zm.8988-1.7169l-.3589-.1085h0zm.1972-.7099l-.3678-.0728v.0001zm.1682-.65l.3714.0515v-.0001zm.4808-.6899c.1923-.0771.2856-.2955.2085-.4877s-.2955-.2855-.4877-.2084zm-3.7491 3.3734c-.2012.0495-.3241.2526-.2746.4538s.2526.324.4537.2745zm1.1221-.4282l.2884.2397zm.2778-.9141l.3601.1047h0zm.2401-1.1536l-.3659-.0822h0zm.3087-1.1515l-.3164-.2011h-.0001zm.609-.0908l.3708-.0559v-.0001zm.0325.4334l-.3744.0214v.0001zm.1544.5283l.3661-.0812v-.0001zm-.2207 1.3949c0 .2072.1679.375.375.375s.375-.1678.375-.375zm-20.6655-.1324c-.2071-.0007-.3756.1667-.3763.3738s.1667.3755.3738.3762zm2.3101.5445l-.0072.3749h.0002zm.8164.035l-.0594.3703h.0001zm.3876.0578l.1492-.3441-.0002-.0001zm.3259.0908l.0409-.3728h-.0003zm.9125.1506l.0173-.3746h-.0001zm.5968.1569l-.1396.348.0001.0001zm.9417.2352l-.0558.3709h0zm1.7855.4004l-.1269.3528v.0001zm.8232.1444l-.1287.3522h0zm1.3808.2889l-.071.3683h.0001zm2.6396.1836l.0497-.3717h0zm1.0668.1796l-.0697.3685h.0001zm2.4887.2105l-.0306.3737h.0001zm.8456.0227l-.0801.3663h.0001zm.4219.101l.2471-.282-.0003-.0003zm.7015.0269l.2655.2649.0037-.0038zm-.2807 2.5815c0 .2071.1679.375.375.375s.375-.1679.375-.375zm-8.9784-3.9807c-.2071 0-.375.1678-.375.375s.1679.375.375.375zm2.8472.4492l-.3182.1983v.0001zm1.3172.1114l.0558-.3708h0zm1.554.1032l.0838-.3655v-.0001zm3.1113.0372l.0968.3623h.0001zm-.0501.8957c.1003.1811.3286.2466.5097.1462s.2467-.3286.1463-.5097zm-15.7001 2.4227c-.2071 0-.375.1678-.375.375s.1679.375.375.375zm2.3587-.1535l.0486.3719a.3836.3836 0 0 0 .058-.0123zm5.5608 0l.0112-.3748h0zm1.7906.2889l.0558-.3708h0zm5.6635-.066l.016.3747h.0002zm.3928-.0722l-.0682-.3688h0zm.6412.2615c.1866-.0898.2651-.3139.1752-.5005s-.3139-.2651-.5005-.1753zm-23.8103-5.8176c-.2025-.0433-.4018.0857-.4451.2882s.0857.4019.2882.4452zm5.1939.8586c.2061.0206.3899-.1297.4105-.3357s-.1296-.3899-.3357-.4106zM2.41407 8.84776v-.375h-.375v.375zm52.33663 0h.375v-.375h-.375zm0 3.258v.375h.375v-.375zm-52.33663 0h-.375v.375h.375zm2.41997-4.0398c-.44887-.7651-.41463-1.5103-.29646-2.5055l-.74476-.0884c-.11903 1.0024-.19159 1.9747.39434 2.9734zm-.29645-2.5055c.0135-.1139.06694-.2261.15869-.4298.08055-.1787.18932-.4287.18932-.7207h-.75c0 .1145-.04196.2325-.12313.4127-.06997.1553-.18923.3929-.21966.6494zm.34801-1.1505c0-.0903.01407-.1945.03492-.3314l.05228-.4415-.7492-.0347c-.00502.1085-.02309.2226-.04452.3633-.01988.1305-.04348.2888-.04348.4443zm.0872-.773l.0387-.4054.03149-.2381.01155-.0621c.00129-.0054.00064-.0016-.00253.0075s-.00544.0153-.01199.029-.01963.0399-.04636.0721l-.57678-.4794c-.0493.0593-.06966.1216-.07346.1326-.00837.0241-.01438.0472-.01855.0648l-.02224.1156-.03626.2727-.04277.4563zm.02092-.5971c-.02787.0336-.06045.0538-.08688.0646s-.04047.0109-.04186.011.00374-.0004.01805.0016.03177.0054.05382.0111c.04497.0115.09448.0286.14522.0479l.07185.028.07155.0269.24399-.7092c-.00485-.0017-.20305-.0833-.34608-.1201-.08088-.0207-.18907-.0415-.30195-.035s-.28085.045-.40461.194zm.23186.1911c.07735.0266.22996.0871.37195.118.15557.0339.35622.0486.5655-.0386l-.28833-.6923c-.01625.0067-.0464.0136-.1177-.0019-.08487-.0185-.15519-.0489-.28765-.0944zm.93749.0794c.21794-.0908.37689-.2467.44523-.3029.07399-.0609.09606-.0663.1355-.0663v-.75c-.29329 0-.48235.1305-.61199.2371-.13527.1113-.17242.1545-.25715.1898zm.58073-.3692c.44621 0 .75672-.1333 1.01948-.3573.1208-.103.22669-.221.32416-.334l.30868-.3542-.55104-.5088-.32555.3731c-.09413.1091-.16863.1899-.24286.2532-.12729.1085-.26535.178-.53287.178zm1.65225-1.0455c.01728-.0187.00517.0005-.03626.0193-.05341.0243-.15441.0451-.2613-.0078-.08803-.0435-.12226-.1099-.12823-.1218s-.00786-.022-.00419-.0059c.00766.0337.01247.0789.02001.1486l.01345.1031c.00309.0181.00788.0428.01551.0693.00613.0213.02144.0711.05605.1231l.62448-.4154c.02871.0432.03883.0801.04029.0851l.00289.0112-.00702-.057-.03432-.2342c-.00996-.0438-.02654-.1039-.05662-.1639s-.08873-.1546-.20989-.2145c-.14002-.0692-.28057-.0485-.38149-.0026-.08894.0404-.15654.1029-.20426.1545zm-.32499.3279c.11009.1655.24351.2972.43684.3598.15588.0505.33031.0417.42523.0417v-.75c-.07466 0-.115.0008-.15376-.0011s-.04255-.0048-.0404-.0041.01069.0056.00856.0038-.02256-.0212-.05192-.0654zm.86207.4015c.21088 0 .47627-.007.69107.0508.1034.0279.1555.0616.178.0848.0108.0111.0297.0313.0262.1032l.7491.0367c.0129-.2645-.0715-.4915-.2368-.662-.1536-.1584-.3504-.2407-.5214-.2868-.334-.09-.72005-.0767-.88617-.0767zm.89527.2389c-.0051.1041-.0229.2285-.0448.3893l-.0499.507c-.0117.3385.0329.798.4098 1.1003l.4692-.5851c-.0843-.0676-.1394-.2018-.1295-.4893.0047-.1354.0227-.2788.0436-.4318l.0507-.4538zm-4.2422 1.5992l-.00935-.2917.00133-.2092c.00933-.0975.03058-.1185.05954-.1384l-.42491-.618c-.27331.1879-.35909.4538-.38122.6849-.01044.109-.00779.2178-.00416.3102l.00877.2622zm.0515-.6393c.3161-.2173.38637-.5666.38637-.8358h-.75c0 .0783-.0106.1319-.02376.1658s-.02373.0425-.03748.0519zm2.01589 3.121l.37488.0081c.10694.0061.16972.0186.20855.0339.02888.0113.03943.0216.04976.0382.01521.0245.04279.0871.05245.2264l.7482-.0518c-.0148-.2137-.06262-.408-.16378-.5707-.10604-.1705-.25285-.2775-.41237-.3402-.14957-.0587-.30623-.0769-.43984-.0846l-.4001-.0091zm.68564.3067c.01928.278.15163.4481.2115.535.04769.0692.05333.0826.05078.1349l.74909.0365c.0145-.2963-.09999-.4775-.18228-.5969-.07011-.1018-.07763-.1144-.08089-.1614zm.26229.6697c.00741-.1509.10188-.2329.12903-.254a.2681.2681 0 0 1 .04008-.0259l.01364-.0062c.00086-.0004-.00529.0019-.02135.006l-.06065.0128c-.10498.0192-.25575.0361-.42477.051l-.48364.0371-.34792.0362.16052.7327c-.00584.0012.00895-.0016.0636-.0067l.17872-.0142.49463-.038.49419-.0605c.06804-.0124.14651-.0298.21543-.0563.03279-.0125.08579-.0354.13745-.0755s.15192-.1341.16012-.3017zm-1.15545-.143c-.19836.0434-.40325.0419-.66267.0413-.24465-.0005-.53959 0-.83793.0798l.19373.7245c.18972-.0507.39048-.0548.64263-.0543.23738.0005.53039.0057.8245-.0586zm-1.50057.1211c-.23095.0617-.46963.1094-.68928.1084s-.3866-.0494-.51189-.1499l-.4692.5852c.30112.2414.65661.3132.97771.3147s.63354-.0663.88633-.1338zm-.82026-3.2828c.4477.1051.85529.1153 1.26796.1153v-.75c-.40307 0-.73788-.0113-1.09657-.0955zm1.26796.1153c.1004 0 .20671-.0123.26841-.0178.07819-.007.1066-.0059.11642-.0043.00082.0001-.01269-.0019-.03259-.0128s-.04284-.0298-.05835-.0514c-.02803-.0389-.01209-.0516-.01209.0274h.75c0-.1545-.02698-.3235-.1292-.4655-.11166-.1551-.26743-.2165-.39558-.2377-.11521-.019-.23141-.0094-.30575-.0027l-.20127.0148zm.2818-.0589c0 .1838-.07085.2459-.14578.2716l.2437.7093c.44333-.1523.65208-.5521.65208-.9809zm-.14584.2716c-.31199.1073-.43279.3981-.48788.5702-.03117.0975-.05376.1983-.0721.2845l-.05122.2324.72661.1858.05817-.2621.05286-.212c.04499-.1406.06943-.1074.01737-.0895zm-.61121 1.0871c-.06139.2402-.05731.4883.07326.6956s.34473.2993.52944.3241.36969-.0069.52981-.0669.32348-.1595.44362-.3041l-.57683-.4794c-.01749.0211-.061.0554-.12982.0812s-.12973.0308-.16709.0258-.01408-.0114.0055.0196-.01286.0135.01874-.1101zm1.57611.6487c.17024-.2048.37191-.4146.50183-.6405.14919-.2595.21724-.5454.21724-.9455h-.75c0 .3053-.04965.4537-.11743.5716-.08704.1514-.2016.2621-.42842.535zm.08087-.4854h-.00102-.00103-.00103-.00102-.00103-.00102-.00103-.00103-.00102-.00103-.00103-.00102-.00103-.00102-.00103-.00103-.00102-.00103-.00102-.00103-.00103-.00102-.00103-.00103-.00102-.00103-.00102-.00103-.00103-.00102-.00103-.00103-.00102-.00103-.00102-.00103-.00103-.00102-.00103-.00103-.00102-.00103-.00102-.00103-.00103-.00102-.00103-.00103-.00102-.00103-.00102-.00103-.00103-.00102-.00103-.00103-.00102-.00103-.00102-.00103-.00103-.00102-.00103-.00102-.00103-.00103-.00102-.00103-.00103-.00102-.00103-.00103-.00102-.00103-.00102-.00103-.00103-.00102-.00103-.00103-.00102-.00103-.00102-.00103-.00103-.00102-.00103-.00103-.00102-.00103-.00102-.00103-.00103-.00102-.00103-.00103-.00102-.00103-.00103-.00102-.00103-.00102-.00103-.00103-.00102-.00103-.00103-.00102-.00103-.00102-.00103-.00103-.00102-.00103-.00103-.00102-.00103-.00102-.00103-.00103-.00102-.00103-.00103-.00102-.00103-.00103-.00102-.00103-.00102-.00103-.00103-.00102-.00103-.00103-.00102-.00103-.00102-.00103-.00103-.00102-.00103-.00103-.00102-.00103-.00103-.00102-.00103-.00102-.00103-.00103-.00102-.00103-.00103-.00102-.00103-.00102-.00103-.00103-.00102-.00103-.00103-.00102-.00103-.00103-.00102-.00103-.00102-.00103-.00103-.00102-.00103-.00103-.00102-.00103-.00103-.00102-.00103-.00102-.00103-.00103-.00102-.00103-.00103-.00102-.00103-.00103-.00102-.00103-.00102-.00103-.00103-.00102-.00103-.00103-.00102-.00103-.00103-.00102-.00103-.00102-.00103-.00103-.00102-.00103-.00103-.00102-.00103-.00103-.00102-.00103-.00102-.00103-.00103-.00102-.00103-.00103-.00102-.00103-.00103-.00102-.00103-.00102-.00103-.00103-.00102-.00103-.00103-.00102-.00103-.00103-.00102-.00103-.00102-.00103-.00103-.00102-.00103-.00103-.00102-.00103-.00103-.00102-.00103-.00102-.00103-.00103-.00102-.00103-.00103-.00102-.00103-.00103-.00102-.00103-.00102-.00103-.00103-.00102-.00103-.00103-.00102-.00103-.00103-.00102-.00103-.00102-.00103-.00103-.00102-.00103-.00103-.00102-.00103-.00103-.00102-.00103-.00102-.00103-.00103-.00102-.00103-.00103-.00102-.00103-.00103-.00102-.00103-.00102-.00103-.00103-.00102-.00103-.00103-.00102-.00103-.00103-.00102-.00103-.00102-.00103-.00103-.00102-.00103-.00103-.00102-.00103-.00103-.00102-.00103-.00102-.00103-.00103-.00102-.00103-.00103-.00102-.00103-.00103-.00102-.00103-.00102-.00103-.00103-.00102-.00103-.00103-.00102-.00103-.00103-.00102-.00103-.00102-.00103-.00103-.00102-.00103-.00103-.00102-.00103-.00103-.00102-.00103-.00102-.00103-.00103-.00102-.00103-.00103-.00102-.00103-.00102-.00103-.00103-.00102-.00103-.00103-.00102-.00103-.00103-.00102-.00103-.00102-.00103-.00103-.00102-.00103-.00103-.00102-.00103-.00103-.00102-.00103-.00102-.00103-.00103-.00102-.00103-.00103-.00102-.00103-.00102-.00103-.00103-.00102-.00103-.00103-.00102-.00103-.00103-.00102-.00103-.00102-.00103-.00103-.00102-.00103-.00103-.00102-.00103-.00102-.00103-.00103-.00102-.00103-.00103-.00102-.00103-.00103-.00102-.00103-.00102-.00103-.00103-.00102-.00103-.00103-.00102-.00103-.00102-.00103-.00103-.00102-.00103-.00103-.00102-.00103-.00102-.00103-.00103-.00102-.00103-.00103-.00102-.00103-.00102-.00103-.00103-.00102-.00103-.00103-.00102-.00103-.00102-.00103-.00103-.00102-.00103-.00103-.00102-.00103-.00103-.00102-.00103-.00102-.00103-.00103-.00102-.00103-.00103-.00102-.00103-.00102-.00103-.00103-.00102-.00103-.00102-.00103-.00103-.00102-.00103-.00103-.00102-.00103-.00102-.00103-.00103-.00102-.00103-.00103-.00102-.00103-.00102-.00103-.00103-.00102-.00103-.00103-.00102-.00103-.00102-.00103-.00103-.00102-.00103-.00103-.00102-.00103-.00102-.00103-.00103-.00102-.00103-.00103-.00102-.00103-.00102-.00103-.00103-.00102-.00103-.00102v.75h.00102.00103.00102.00103.00103.00102.00103.00102.00103.00103.00102.00103.00103.00102.00103.00102.00103.00103.00102.00103.00103.00102.00103.00102.00103.00103.00102.00103.00103.00102.00103.00102.00103.00103.00102.00103.00103.00102.00103.00102.00103.00103.00102.00103.00103.00102.00103.00102.00103.00103.00102.00103.00102.00103.00103.00102.00103.00103.00102.00103.00102.00103.00103.00102.00103.00103.00102.00103.00103.00102.00103.00102.00103.00103.00102.00103.00103.00102.00103.00102.00103.00103.00102.00103.00103.00102.00103.00102.00103.00103.00102.00103.00103.00102.00103.00102.00103.00103.00102.00103.00103.00102.00103.00102.00103.00103.00102.00103.00103.00102.00103.00103.00102.00103.00102.00103.00103.00102.00103.00103.00102.00103.00102.00103.00103.00102.00103.00103.00102.00103.00103.00102.00103.00102.00103.00103.00102.00103.00103.00102.00103.00102.00103.00103.00102.00103.00103.00102.00103.00103.00102.00103.00102.00103.00103.00102.00103.00103.00102.00103.00103.00102.00103.00102.00103.00103.00102.00103.00103.00102.00103.00102.00103.00103.00102.00103.00103.00102.00103.00103.00102.00103.00102.00103.00103.00102.00103.00103.00102.00103.00103.00102.00103.00102.00103.00103.00102.00103.00103.00102.00103.00103.00102.00103.00102.00103.00103.00102.00103.00103.00102.00103.00103.00102.00103.00102.00103.00103.00102.00103.00103.00102.00103.00103.00102.00103.00102.00103.00103.00102.00103.00103.00102.00103.00103.00102.00103.00102.00103.00103.00102.00103.00103.00102.00103.00103.00102.00103.00102.00103.00103.00102.00103.00103.00102.00103.00103.00102.00103.00102.00103.00103.00102.00103.00103.00102.00103.00103.00102.00103.00102.00103.00103.00102.00103.00103.00102.00103.00103.00102.00103.00102.00103.00103.00102.00103.00103.00102.00103.00103.00102.00103.00102.00103.00103.00102.00103.00103.00102.00103.00103.00102.00103.00102.00103.00103.00102.00103.00103.00102.00103.00103.00102.00103.00102.00103.00103.00102.00103.00103.00102.00103.00103.00102.00103.00102.00103.00103.00102.00103.00103.00102.00103.00103.00102.00103.00102.00103.00103.00102.00103.00103.00102.00103.00103.00102.00103.00102.00103.00103.00102.00103.00103.00102.00103.00103.00102.00103.00102.00103.00103.00102.00103.00103.00102.00103.00102.00103.00103.00102.00103.00103.00102.00103.00103.00102.00103.00102.00103.00103.00102.00103.00103.00102.00103.00102.00103.00103.00102.00103.00103.00102.00103.00103.00102.00103.00102.00103.00103.00102.00103.00103.00102.00103.00102.00103.00103.00102.00103.00103.00102.00103.00102.00103.00103.00102.00103.00103.00102.00103.00103.00102.00103.00102.00103.00103.00102.00103.00103.00102.00103.00102.00103.00103.00102.00103.00103.00102.00103.00102.00103.00103.00102.00103.00103.00102.00103.00103.00102.00103.00102.00103.00103.00102.00103.00102.00103.00103.00102.00103.00103.00102.00103.00102.00103.00103.00102.00103.00103.00102.00103.00102.00103.00103.00102.00103.00103.00102.00103.00102.00103.00103.00102.00103.00103.00102.00103.00102.00103.00103.00102.00103.00103.00102.00103.00102.00103.00103.00102.00103.00102.00103.00103.00102.00103.00103.00102.00103.00102.00103.00103.00102zm1.83957 1.1592h-.0009-.0008-.0009-.0009-.0008-.0009-.0008-.0009-.0008-.0009-.0008-.0009-.0009-.0008-.0009-.0008-.0009-.0008-.0009-.0008-.0009-.0009-.0008-.0009-.0008-.0009-.0008-.0009-.0008-.0009-.0009-.0008-.0009-.0008-.0009-.0008-.0009-.0008-.0009-.0009-.0008-.0009-.0008-.0009-.0008-.0009-.0008-.0009-.0008-.0009-.0009H9.37h-.0009-.0008-.0009-.0008-.0009-.0008-.0009-.0009-.0008-.0009-.0008-.0009-.0008-.0009-.0008-.0009-.0009-.0008-.0009-.0008-.0009-.0008-.0009-.0008-.0009-.0009-.0008-.0009-.0008-.0009-.0008-.0009-.0008-.0009H9.34h-.0008-.0009-.0008-.0009-.0008-.0009-.0008-.0009-.00085-.00086-.00085-.00086-.00085-.00086-.00085-.00086-.00086-.00085-.00086-.00085-.00086-.00085-.00086-.00085-.00086-.00085-.00086-.00085-.00086-.00085-.00086-.00086-.00085-.00086-.00085-.00086-.00085-.00086-.00085-.00086-.00085-.00086-.00085-.00086-.00085-.00086-.00086-.00085-.00086-.00085-.00086-.00085-.00086-.00085H9.293h-.00085-.00086-.00085-.00086-.00085-.00086-.00085-.00086-.00086-.00085-.00086-.00085-.00086-.00085-.00086-.00085-.00086-.00085-.00086-.00085-.00086-.00085-.00086-.00086-.00085-.00086-.00085-.00086-.00085-.00086-.00085-.00086-.00085-.00086-.00085-.00086-.00085-.00086-.00085-.00086-.00085-.00086-.00086-.00085-.00086-.00085-.00086-.00085-.00086-.00085-.00086-.00085-.00086-.00085-.00086-.00085-.00086-.00086-.00085-.00086-.00085-.00086-.00085-.00086-.00085-.00086-.00085-.00086-.00085-.00086-.00085-.00086-.00085-.00086-.00085H9.228h-.00086-.00085-.00086-.00085-.00086-.00085-.00086-.00085-.00086-.00085-.00086-.00085-.00086-.00085-.00086-.00085-.00086-.00085-.00086-.00086-.00085-.00086-.00085-.00086-.00085-.00086-.00085-.00086-.00085-.00086-.00085-.00086-.00085-.00086-.00085-.00086-.00086-.00085-.00086-.00085-.00086-.00085-.00086-.00085-.00086-.00085-.00086-.00085-.00086-.00085-.00086-.00085-.00086-.00085-.00086-.00086-.00085-.00086-.00085-.00086-.00085-.00086-.00085-.00086-.00085-.00086-.00085-.00086-.00085-.00086-.00085-.00086-.00086-.00085-.00086H9.163h-.00086-.00085-.00086-.00085-.00086-.00085-.00086-.00085-.00086-.00085-.00086-.00085-.00086-.00086-.00085-.00086-.00085-.00086-.00085-.00086-.00085-.00086-.00085-.00086-.00085-.00086-.00085-.00086-.00085-.00086-.00085-.00086-.00086-.00085-.00086-.00085-.00086-.00085-.00086-.00085-.00086-.00085-.00086-.00085-.00086-.00085-.00086-.00085-.00086-.00086-.00085-.00086-.00085-.00086-.00085-.00086-.00085-.00086-.00085-.00086-.00085-.00086-.00085-.00086-.00085-.00086-.00086-.00085-.00086-.00085-.00086-.00085-.00086-.00085-.00086H9.098h-.00086-.00085-.00086-.00085-.00086-.00086-.00085-.00086-.00085-.00086-.00085-.00086-.00085-.00086-.00085-.00086-.00085-.00086-.00085-.00086-.00086-.00085-.00086-.00085-.00086-.00085-.00086-.00085-.00086-.00085-.00086-.00085-.00086-.00085-.00086-.00085-.00086-.00086-.00085-.00086-.00085-.00086-.00085-.00086-.00085-.00086-.00085-.00086-.00085-.00086-.00086-.00085-.00086-.00085-.00086-.00085-.00086-.00085-.00086-.00085-.00086-.00085-.00086-.00086-.00085-.00086-.00085-.00086-.00085-.00086-.00085-.00086-.00085-.00086-.00085-.00086-.00085-.00086-.00086-.00085-.00086-.00085H9.027h-.00085-.00086-.00085-.00086-.00085-.00086-.00085-.00086-.00086-.00085-.00086-.00085-.00086-.00085-.00086-.00085-.00086-.00085-.00086-.00086-.00085-.00086-.00085-.00086-.00085-.00086-.00085-.00086-.00085-.00086-.00085-.00086-.00086-.00085-.00086-.00085-.00086-.00085-.00086-.00085-.00086-.00085-.00086-.00086-.00085-.00086-.00085-.00086-.00085-.00086-.00085-.00086-.00085-.00086-.00086-.00085-.00086-.00085-.00086v.75h.00086.00085.00086.00085.00086.00086.00085.00086.00085.00086.00085.00086.00085.00086.00085.00086.00086.00085.00086.00085.00086.00085.00086.00085.00086.00085.00086.00086.00085.00086.00085.00086.00085.00086.00085.00086.00085.00086.00085.00086.00086.00085.00086.00085.00086.00085.00086.00085.00086.00085.00086.00086.00085.00086.00085.00086.00085.00086.00085.00086.00085.00086.00085.00086.00086.00085.00086.00085.00086.00085.00086.00085.00086.00085.00086.00085.00086.00085.00086.00086.00085.00086.00085.00086.00085.00086.00085.00086.00085.00086.00085.00086.00086.00085.00086.00085.00086.00085.00086.00085.00086.00085.00086.00085.00086.00086.00085.00086.00085.00086.00085.00086.00085.00086.00085.00086.00085.00086.00085.00086.00085.00086.00086.00085.00086.00085.00086.00085.00086.00085.00086.00085.00086.00085.00086.00085.00086.00086.00085.00086.00085.00086.00085.00086.00085.00086.00085.00086.00085.00086.00085.00086.00086.00085.00086.00085.00086.00085.00086.00085.00086.00085.00086.00085.00086.00085.00086.00085.00086.00086.00085.00086.00085.00086.00085.00086.00085.00086.00085.00086.00085.00086.00085.00086.00085.00086.00086.00085.00086.00085.00086.00085.00086.00085.00086.00085.00086.00085.00086.00085.00086.00085.00086.00085.00086.00086.00085.00086.00085.00086.00085.00086.00085.00086.00085.00086.00085.00086.00085.00086.00085.00086.00086.00085.00086.00085.00086.00085.00086.00085.00086.00085.00086.00085.00086.00085.00086.00085.00086.00086.00085.00086.00085.00086.00085.00086.00085.00086.00085.00086.00085.00086.00085.00086.00085.00086.00085.00086.00086.00085.00086.00085.00086.00085.00086.00085.00086.00085.00086.00085.00086.00085.00086.00085.00086.00086.00085.00086.00085.00086.00085.00086.00085.00086.00085.00086.00085.00086.00085.00086.00085.00086.00085.00086.00086.00085.00086.00085.00086.00085.00086.00085.00086.00085.00086.00085.00086.00085.00086.00085.00086.00085.00086.00086.00085.00086.00085.00086.00085.00086.00085.00086.00085.00086.00085.00086.00085.00086.00086.00085.00086.00085.00086.00085.00086.00085.00086.00085.00086.00085.00086.00085.00086.00085.00086.00085.00086.00086.00085.00086.00085.00086.00085.00086.00085.00086.00085.00086.00085.00086.00085.00086.00086.00085.00086.00085.00086.00085.00086.00085.00086.00085.00086.00085.00086.00085.00086.00085.00086.00086.00085.00086.00085.00086.00085.00086.00085.00086.00085.00086.00085.00086.00085.00086.00086.00085.00086.00085.00086.00085.00086.00085.00086.00085.00086.00085.00086.00085.00086.00086.00085.00086.00085.00086.00085.00086.00085.0009.0008.0009.0008.0009.0008.0009.0008.0009.0009.0008.0009.0008.0009.0008.0009.0008.0009.0009.0008.0009.0008.0009.0008.0009.0008.0009.0009.0008.0009.0008.0009.0008.0009.0008.0009.0009.0008.0009.0008.0009.0008.0009.0008.0009.0009.0008.0009.0008.0009.0008.0009.0008.0009.0008.0009.0009.0008.0009.0008.0009.0008.0009.0008.0009.0009.0008.0009.0008.0009.0008.0009.0008.0009.0009.0008.0009.0008.0009.0008.0009.0008.0009.0009.0008.0009.0008.0009.0008.0009.0008.0009.0009.0008.0009zm.9343.8133c-.2461-.4071-.4353-.6447-.5628-.9897l-.7035.2599c.16042.4343.4304.7967.6244 1.1177zm-.5628-.9897c-.0748-.2024-.0924-.2971-.0974-.3793-.0067-.1102.0053-.1946.0135-.4504l-.74964-.024-.01247.5201c.01119.1831.05411.3542.14252.5935zm-.0839-.8297c.0038-.1192.0321-.1734.0537-.2035.0271-.0376.0708-.0751.1607-.1306.1487-.0917.5208-.2602.6979-.6624l-.6865-.3021c-.0585.1329-.1467.1668-.4052.3262-.1137.0702-.2603.1706-.37561.3308-.12069.1677-.18677.3713-.19463.6176zm.9123-.9965c.1803-.4098.2771-.6038.5328-.8555l-.5261-.5345c-.3617.356-.5047.6596-.6932 1.0879zm.5328-.8555c.0287-.0282.0724-.0469.2343-.1129.1283-.0524.3478-.143.5035-.3512l-.6006-.4492c-.0188.0252-.0552.0524-.1863.106-.0976.0398-.3168.1151-.477.2728zm.7378-.4641l.1606-.2358.1367-.21c.0905-.1317.1634-.2121.2364-.2586l-.403-.6326c-.2033.1295-.3455.3121-.4517.4668l-.1497.2295-.1299.1915zm.5336-.7044c.2348-.1495.4086-.2141.7275-.2994l-.1938-.7245c-.3604.0964-.6138.1858-.9365.3913zm.7275-.2994c.2159-.0577.4383-.2.5704-.2758.1737-.0996.2541-.127.296-.127v-.75c-.27 0-.5165.1389-.6691.2264-.1941.1113-.2974.1768-.3911.2019zm.8664-.4028c.0883 0 .2808-.0186.454-.0475.0885-.0148.1866-.0347.2726-.0609.0425-.013.0926-.0306.1409-.055.0374-.0188.1256-.0665.1891-.1619l-.6244-.4155c.0266-.04.0549-.0634.0687-.0739s.026-.0169.0287-.0183-.0006.0007-.0217.0072c-.0412.0125-.103.0261-.1776.0385l-.2114.0283-.0814.0071-.0268.0015-.0081.0003-.0026.0001zm1.0567-.3254c-.042.0632-.0892.0737-.0676.0659.0151-.0055.0504-.0146.1128-.0216.1239-.014.2928-.0136.4853-.0038l.5601.0434.4361.0308v-.75c-.0609 0-.1834-.0109-.3679-.0277l-.5902-.0455c-.2037-.0104-.4215-.0134-.6073.0075-.0924.0104-.1928.0283-.2857.0622-.0864.0315-.2139.0937-.3002.2236zm1.5267.1147c.4906 0 .9807.074 1.5056.1538.5154.0783 1.0647.1623 1.6276.1623v-.75c-.4969 0-.9906-.0741-1.5149-.1538-.515-.0783-1.0615-.1623-1.6183-.1623zm3.1332.3161c.4911 0 .8515.01 1.2637.1405l.2264-.715c-.5323-.1685-.9954-.1755-1.4901-.1755zm1.2637.1405c.147.0465.2769.0557.3706.059l.1082.0032.0269.0018c-.0079-.0019-.0341-.0093-.064-.0318s-.0486-.0501-.056-.0655.0093.0108.0093.1499h.75c0-.1649-.0152-.3335-.0838-.4758-.0867-.1797-.234-.2719-.3847-.3071-.1043-.0244-.237-.0227-.2792-.0242-.0668-.0024-.1186-.008-.1709-.0245zm-7.9003 1.5454c.3422 0 .63.1079.9396.2745l.4879.2841.5605.3022.315-.6806c-.1672-.0774-.3268-.1682-.493-.2667l-.515-.2994c-.3633-.1956-.7781-.3641-1.295-.3641zm1.988.8608l.4265.1871c.1566.0582.3439.111.5435.111v-.75c-.0722 0-.1638-.02-.2818-.0639s-.2361-.1013-.3732-.1648zm.97.2981c.0706 0 .1481.026.2834.0964.1126.0585.3079.1751.515.2304l.1937-.7246c-.1033-.0275-.1887-.0808-.3627-.1712-.1513-.0787-.3662-.181-.6294-.181zm.7984.3268c.136.0364.271.0468.3851.0511l.1665.0035.1462.0035c.1908.0084.2722.0381.3251.0876l.5124-.5477c-.2597-.243-.578-.2792-.8045-.2892l-.1689-.0041-.1488-.0031c-.0945-.0035-.164-.0113-.2194-.0262zm1.0228.1456c.1954.1829.4319.1491.5704.0958.1322-.0508.2474-.1405.3316-.2155.1746-.1558.3299-.3543.3992-.4515l-.6108-.4352c-.0528.074-.1712.2231-.2877.327-.0277.0247-.0518.0438-.0717.0574s-.0306.0181-.0299.0178.0072-.0027.0181-.0047.0285-.0038.0508-.0019c.0508.0043.1031.0263.1426.0633zm1.3012-.5712c.199-.2794.4744-.4945.798-.6926l.5035-.2842.5179-.2892-.3866-.6427-.4876.2719-.5388.3045c-.3625.2219-.7344.5-1.0172.8971zm1.8194-1.266c.1127-.0678.2343-.1229.3748-.1835l.4455-.2052-.3536-.6613c-.1171.0626-.2398.1136-.3889.1778-.1425.0615-.3048.1335-.4644.2295zm.8204-.3887c.0977-.0523.1696-.1214.2191-.1752l.1169-.1389c.0696-.0834.0631-.0499.0164-.0433l-.105-.7426c-.2622.037-.4173.2215-.4874.3055l-.0929.1115c-.0231.0251-.0288.0259-.0209.0217zm.3525-.3574c.2481-.0352.4445-.1772.588-.3076s.2824-.2958.3959-.4275c.1231-.1428.2238-.2544.3211-.3322s.1492-.088.1749-.088v-.75c-.2668 0-.4829.1239-.6434.2523s-.3023.2909-.4206.4282l-.3321.362c-.1038.0943-.1629.1165-.189.1202zm1.4799-1.1553l.3812-.0184.3636-.0175c.2441-.0011.3954.0334.4836.0958l.4333-.6122c-.2895-.2049-.6444-.2348-.9203-.2335l-.4123.0192-.3291.0166zm1.2284.0599c.0909.0643.1774.1355.2788.2191l.3342.2609.4332-.6123-.2905-.2274-.3225-.2526zm.6129.4799c.0431.0305.108.0923.1737.1747s.1127.1607.1346.2133l.6926-.2877c-.0571-.1374-.1478-.2765-.2409-.3933s-.2077-.2349-.3266-.3191zm.5911 5.7231l-.0407-1.5398c-.0097-.5152.0018-1.0067.0789-1.4517l-.739-.128c-.0895.5168-.0998 1.0655-.0898 1.5939l.0406 1.5256zm.0382-2.9915l.0544-.4.0464-.3787c.0356-.2466.084-.4484.1685-.61l-.6645-.3477c-.1444.276-.2071.5792-.2463.8503l-.0492.4006-.0483.3575zm.2693-1.3887c.1816-.3471.4422-.6008.7443-.9643l-.5768-.4794c-.2426.2919-.6013.6551-.832 1.096zm-4.7026-1.2631c.5029-.1329.8896-.3317 1.2926-.6918l-.4998-.5592c-.31.2771-.5896.4216-.9844.5258zm1.2926-.6918c.0927-.0828.2133-.1777.3344-.2496.1321-.0783.2158-.0998.2476-.0998v-.75c-.2386 0-.4662.1075-.6303.2048-.1751.1039-.3352.2314-.4516.3354zm.582-.3494l.3217-.0131c.098-.0047.1731-.0051.2367.0027.1031.0127.1568.0404.2083.1332l.656-.3635c-.1933-.3487-.4887-.4791-.7727-.514-.1299-.016-.2579-.0127-.364-.0076l-.286.0123zm-2.9659 6.4816c.1468-.1338.2497-.276.3337-.4004l.2302-.3302-.5832-.4717c-.1097.1358-.2004.2811-.2687.3823-.0736.109-.1369.1925-.2172.2656zm.5639-.7307l.2961-.3311.3336-.3686-.5768-.4794-.3022.3333-.3339.3743zm.6297-.6997c.3032-.3648.5499-.7778.7755-1.1765l.6707-1.149-.6256-.4136c-.2544.3848-.4804.8088-.6979 1.1933-.2227.3937-.442.7566-.6995 1.0664zm1.4463-2.3255l.1976-.2819c.065-.0778.1089-.1067.1333-.1161l-.2722-.6989c-.1948.0758-.3366.2144-.4367.3342s-.1862.256-.2477.3491zm.3308-.398c.1579-.0614.3077-.1425.4275-.2045.1283-.0664.2332-.1172.3389-.1502l-.2233-.716c-.1743.0544-.3304.1329-.4603.2001l-.3548.1716zm.7664-.3547c.1851-.0577.378-.0896.5972-.1229l.6918-.1313-.1978-.7234c-.1876.0513-.381.079-.6065.1132-.2174.033-.4621.0717-.708.1484zm1.2889-.2542c.0123-.0033.027-.0054.0822-.0111.0457-.0048.1273-.0128.2147-.0399l-.2218-.7164c-.0082.0025-.0215.0052-.0705.0103-.0395.0041-.1193.011-.2022.0336zm.2966-.0509c.0455-.014.1135-.0408.1754-.0714.0312-.0154.0716-.0371.1106-.0644.0195-.0136.0454-.0334.0715-.0594s.0653-.0693.0942-.1389l-.6926-.2878c.013-.0313.0282-.0547.0395-.0701s.0223-.0273.0298-.0347c.0143-.0142.0253-.0219.0275-.0235s.0013-.0005-.0131.0066l-.0416.0185-.0225.0085zm-10.0584 4.1693l-.0586-.0305-.0542-.0283c-.0361-.0195-.0651-.0371-.0874-.0536s-.028-.0252-.0248-.0206.0206.0351.0206.075h-.75c0 .288.1973.4664.3078.5483s.262.1544.2904.1697zm-.2044-.058l-.0001-.3088-.7498-.018-.0001.3268zm-.0001-.3088c-.0002.0072-.001.0041.003-.0121s.0099-.0349.019-.0596c.0187-.0506.0426-.1027.067-.1556l-.6809-.3144-.0898.2105c-.0282.0765-.0652.1923-.0681.3133zm.089-.2273c.0243-.0527.0443-.1148.0577-.1573l.0439-.1386.0342-.0892c.0038-.0078.0035-.0058-.002.0018s-.0227.0311-.0594.0563l-.4249-.618c-.1073.0738-.1632.1809-.1869.2291-.0303.0619-.0542.1281-.0722.1818l-.0479.1508-.0168.0513-.0066.0175zm.0744-.327c.0706-.0485.1167-.1077.1446-.1494s.0507-.0868.0661-.12l.0383-.0895.0195-.0455-.6738-.3293-.0392.0894-.0257.0603-.0085.0175c.0006-.001.0167-.026.0537-.0515zm.2684-.4042c-.0001.0002.0008-.0015.003-.0053l.0098-.0153.0364-.0505.1124-.1574-.6365-.3967c-.0151.0242-.0349.0495-.076.1043-.0321.0428-.0845.1132-.1227.1913zm.1616-.2285c.0569-.0914.1211-.2134.1721-.3426.0484-.1223.099-.2854.099-.448h-.75c0 .0224-.0106.0817-.0465.1724-.0331.0837-.0761.1654-.1111.2215zM52.6495.82566c.264.3249.4637.5424.5808.8592l.7035-.2599c-.1709-.4626-.4761-.794-.7021-1.0722zm.5808.8591c.0252.0685.0441.1487.0729.2596l.7259-.1887-.0952-.3306zm.0729.2595c-.0022-.0084-.001-.0131.0001.0526.0006.0433.0006.1524.0429.2642l.7016-.2648c.0099.026.0062.0409.0054-.011l-.0026-.0888c-.0023-.0372-.0074-.0865-.0215-.1407zm.043.317c.023.0609.0338.1408.0377.2658l.02.4312.7439-.0951c-.0132-.1036-.0092-.1971-.0143-.3594-.0044-.1416-.0168-.3254-.0857-.5077zm.0577.6971l.0589.3451c.018.1016.029.1847.029.2655h.75c0-.1471-.0202-.2815-.0405-.3963l-.0535-.3096zm.0879.6106v.0031.003.0031.0031.003.0031.003.0031.0031.003.0031.0031.003.0031.0031.003.0031.003.0031.0031.003.0031.0031.003.0031.003.0031.0031.003.0031.0031.003.0031.0031.003.0031.003.0031.0031.003.0031.0031.003.0031.0031.003.0031.003.0031.0031.003.0031.0031.003.0031.003.0031.0031.003.0031.0031.003.0031.0031.003.0031.003.0031.0031.003.0031.0031.003.0031.003.0031.0031.003.0031.0031.003.0031.0031.003.0031.003.0031.0031.003.0031.0031.003.0031.0031.003.0031.003.0031.0031.003.0031.0031.003.0031.003.0031.0031.003.0031.0031.003.0031.0031.003.0031.003.0031.0031.003.0031.0031.003.0031.003.0031.0031.003.0031.0031.003.0031.0031.003.0031.003.0031.0031.003.0031.0031.003.0031.0031.003.0031.003.0031.0031.003.0031.0031.003.0031.003.0031.0031.003.0031.0031.003.0031.0031.003.0031.003.0031.0031.003.0031.0031.003.0031.003.0031.0031.003.0031.0031.003.0031.0031.003.0031.003.0031.0031.003.0031.0031.003.0031.003.0031.0031.003.0031.0031.003.0031.0031.003.0031.003.0031.0031.003.0031.0031.003.0031.003.0031.0031.003.0031.0031.003.0031.0031.003.0031.003.0031.0031.003.0031.0031.003.0031.003.0031.0031.003.0031.0031.003.0031.0031.003.0031.003.0031.0031.003.0031.0031.003.0031.003.0031.0031.003.0031.0031.003.0031.0031.003.0031.003.0031.0031.003.0031.0031.003.0031.003.0031.0031.003.0031.0031.003.0031.0031.003.0031.003.0031.0031.003.0031.0031.003.0031.003.0031.0031.003.0031.0031.003.0031.0031.003.0031.003.0031.0031.003.0031.0031.003.0031.003.0031.0031.003.0031.0031.003.0031.0031.003.0031.003.0031.0031.003.0031.0031.003.0031.003.0031.0031.003.0031.0031.003.0031.0031.003.0031.003.0031.0031.003.0031.0031.003.0031.003.0031.0031.003.0031.0031.003.0031.003.0031.0031.003.0031.0031.003.0031.0031.003.0031.003.0031.0031.003.0031.0031.003.0031.003.0031.0031.003.0031.0031.003.0031.0031.003.0031.003.0031.0031.003.0031.0031.003.0031.003.0031.0031.003.0031.0031.003.0031.003.0031.0031.003.0031.0031.003.0031.0031.003.0031.003.0031.0031.003.0031.0031.003.0031.003.0031.0031.003.0031.0031.003.0031.003.0031.0031.003.0031.0031.003.0031.0031.003.0031.003.0031.0031.003.0031.0031.003.0031.003.0031.0031.003.0031.0031.003.0031.003.0031.0031.003.0031.0031.003.0031.0031.003.0031.003.0031.0031.003.0031.0031.003.0031.003.0031.0031.003.0031.0031.003.0031.003.0031.0031.003.0031.0031.003.0031.003.0031.0031.003.0031.0031.003.0031.0031.003.0031.003.0031.0031.003.0031.0031.003.0031.003.0031.0031.003.0031.0031.003h.75v-.003-.0031-.0031-.003-.0031-.0031-.003-.0031-.003-.0031-.0031-.003-.0031-.0031-.003-.0031-.003-.0031-.0031-.003-.0031-.0031-.003-.0031-.0031-.003-.0031-.003-.0031-.0031-.003-.0031-.0031-.003-.0031-.003-.0031-.0031-.003-.0031-.0031-.003-.0031-.003-.0031-.0031-.003-.0031-.0031-.003-.0031-.003-.0031-.0031-.003-.0031-.0031-.003-.0031-.0031-.003-.0031-.003-.0031-.0031-.003-.0031-.0031-.003-.0031-.003-.0031-.0031-.003-.0031-.0031-.003-.0031-.003-.0031-.0031-.003-.0031-.0031-.003-.0031-.0031-.003-.0031-.003-.0031-.0031-.003-.0031-.0031-.003-.0031-.003-.0031-.0031-.003-.0031-.0031-.003-.0031-.003-.0031-.0031-.003-.0031-.0031-.003-.0031-.0031-.003-.0031-.003-.0031-.0031-.003-.0031-.0031-.003-.0031-.003-.0031-.0031-.003-.0031-.0031-.003-.0031-.003-.0031-.0031-.003-.0031-.0031-.003-.0031-.0031-.003-.0031-.003-.0031-.0031-.003-.0031-.0031-.003-.0031-.003-.0031-.0031-.003-.0031-.0031-.003-.0031-.0031-.003-.0031-.003-.0031-.0031-.003-.0031-.0031-.003-.0031-.003-.0031-.0031-.003-.0031-.0031-.003-.0031-.003-.0031-.0031-.003-.0031-.0031-.003-.0031-.0031-.003-.0031-.003-.0031-.0031-.003-.0031-.0031-.003-.0031-.003-.0031-.0031-.003-.0031-.0031-.003-.0031-.0031-.003-.0031-.003-.0031-.0031-.003-.0031-.0031-.003-.0031-.003-.0031-.0031-.003-.0031-.0031-.003-.0031-.0031-.003-.0031-.003-.0031-.0031-.003-.0031-.0031-.003-.0031-.003-.0031-.0031-.003-.0031-.0031-.003-.0031-.0031-.003-.0031-.003-.0031-.0031-.003-.0031-.0031-.003-.0031-.003-.0031-.0031-.003-.0031-.0031-.003-.0031-.0031-.003-.0031-.003-.0031-.0031-.003-.0031-.0031-.003-.0031-.003-.0031-.0031-.003-.0031-.0031-.003-.0031-.0031-.003-.0031-.003-.0031-.0031-.003-.0031-.0031-.003-.0031-.003-.0031-.0031-.003-.0031-.0031-.003-.0031-.0031-.003-.0031-.003-.0031-.0031-.003-.0031-.0031-.003-.0031-.003-.0031-.0031-.003-.0031-.0031-.003-.0031-.0031-.003-.0031-.003-.0031-.0031-.003-.0031-.0031-.003-.0031-.003-.0031-.0031-.003-.0031-.0031-.003-.0031-.0031-.003-.0031-.003-.0031-.0031-.003-.0031-.0031-.003-.0031-.003-.0031-.0031-.003-.0031-.0031-.003-.0031-.0031-.003-.0031-.003-.0031-.0031-.003-.0031-.0031-.003-.0031-.003-.0031-.0031-.003-.0031-.0031-.003-.0031-.0031-.003-.0031-.003-.0031-.0031-.003-.0031-.0031-.003-.0031-.0031-.003-.0031-.003-.0031-.0031-.003-.0031-.0031-.003-.0031-.003-.0031-.0031-.003-.0031-.0031-.003-.0031-.0031-.003-.0031-.003-.0031-.0031-.003-.0031-.0031-.003-.0031-.003-.0031-.0031-.003-.0031-.0031-.003-.0031-.0031-.003-.0031-.003-.0031-.0031-.003-.0031-.0031-.003-.0031-.0031-.003-.0031-.003-.0031-.0031-.003-.0031-.0031-.003-.0031-.003-.0031-.0031-.003-.0031-.0031-.003-.0031-.0031-.003-.0031-.003-.0031-.0031-.003-.0031-.0031-.003-.0031-.003-.0031-.0031-.003-.0031-.0031-.003-.0031-.0031-.003-.0031-.003-.0031-.0031-.003-.0031-.0031-.003-.0031-.0031-.003-.0031-.003-.0031-.0031-.003-.0031-.0031-.003-.0031-.003-.0031-.0031-.003-.0031-.0031-.003-.0031-.0031-.003-.0031-.003-.0031-.0031-.003-.0031zm0 1.5683c0 .0842-.0204.1993-.0419.2531l.6966.2779c.0646-.162.0953-.3755.0953-.531zm-.0419.253c-.0465.1166-.0662.2304-.0795.3042-.0152.0837-.0239.1275-.0392.1675l.7007.2676c.0443-.1161.0634-.2293.0765-.3016.0149-.0823.0237-.1236.0381-.1596zm-.1187.4717c-.0485.127-.0815.2553-.1082.3699l-.0742.3196.7259.1886.0786-.3377c.0246-.1052.0485-.1941.0786-.2728zm-.1824.6896c-.0698.2687-.044.583-.0363.7865.0094.2482-.0019.3831-.0436.4657l.6696.3378c.1414-.2801.1319-.6078.1235-.8318-.0102-.2689-.0219-.4367.0127-.5698zm-.0798 1.2521c.0019-.0039.0155-.0277.0482-.0502s.0614-.028.071-.0293c.0039-.0005.0039-.0002-.002-.0002s-.0152-.0002-.03-.001l-.0241-.0015-.0299-.0018-.0758-.0023v.75l.0885.0044c.039.0022.1036.0051.1738-.0044s.1652-.0353.2532-.0957.152-.1417.1966-.23zm-.0426-.0863h-.0007-.0007-.0006-.0007-.0007-.0007-.0006-.0007-.0007-.0007-.0007-.0006-.0007-.0007-.0007-.0006-.0007-.0007-.0007-.0006-.0007-.0007-.0007-.0007-.0006-.0007-.0007-.0007-.0006-.0007-.0007-.0007-.0006-.0007-.0007-.0007-.0007-.0006H53h-.0007-.0007-.0006-.0007-.0007-.0007-.0006-.0007-.0007-.0007-.0007-.0006-.0007-.0007-.0007-.0006-.0007-.0007-.0007-.0006-.0007-.0007-.0007-.0007-.0006-.0007-.0007-.0007-.0006-.0007-.0007-.0007-.0006-.0007-.0007-.0007-.0007-.0006-.0007-.0007-.0007-.0006-.0007-.0007-.0007-.0006-.0007-.0007-.0007-.0006-.0007-.0007-.0007-.0007-.0006-.0007-.0007-.0007-.0006-.0007-.0007-.0007-.0006-.0007-.0007-.0007-.0007-.0006-.0007-.0007-.0007-.0006-.0007-.0007-.0007-.0006-.0007-.0007-.0007-.0007-.0006-.0007-.0007-.0007-.0006-.0007-.0007-.0007-.0006-.0007-.0007-.0007-.0007-.0006-.0007-.0007-.0007-.0006-.0007-.0007-.0007-.0006-.0007-.0007-.0007-.0007-.0006-.0007-.0007-.0007-.0006-.0007-.0007-.0007-.0006-.0007-.0007-.0007-.0006-.0007-.0007-.0007-.0007-.0006-.0007-.0007-.0007-.0006-.0007-.0007-.0007-.0006-.0007-.0007-.0007-.0007-.0006-.0007-.0007-.0007-.0006-.0007-.0007-.0007-.0006-.0007-.0007-.0007-.0006-.0007-.0007-.0007-.0007-.0006-.0007-.0007-.0007-.0006-.0007-.0007-.0007-.0006-.0007-.0007-.0007-.0007-.0006-.0007-.0007-.0007-.0006-.0007-.0007-.0007-.0006-.0007-.0007-.0007-.0007-.0006-.0007-.0007-.0007-.0006-.0007-.0007-.0007-.0006-.0007-.0007-.0007-.0006-.0007-.0007-.0007-.0007-.0006-.0007-.0007-.0007-.0006-.0007-.0007-.0007-.0006-.0007-.0007-.0007-.0006-.0007-.0007-.0007-.0007-.0006-.0007-.0007-.0007-.0006-.0007-.0007-.0007-.0006-.0007-.0007-.0007-.0007-.0006-.0007-.0007-.0007-.0006-.0007-.0007-.0007-.0006-.0007-.0007-.0007-.0007-.0006-.0007-.0007-.0007-.0006-.0007-.0007-.0007-.0006-.0007-.0007-.0007-.0006-.0007-.0007-.0007-.0007-.0006-.0007-.0007-.0007-.0006-.0007-.0007-.0007-.0006-.0007-.0007-.0007-.0006-.0007-.0007-.0007-.0007-.0006-.0007-.0007-.0007-.0006-.0007-.0007-.0007-.0006-.0007-.0007-.0007-.0007-.0006-.0007-.0007-.0007-.0006-.0007-.0007-.0007-.0006-.0007-.0007-.0007-.0006-.0007-.0007-.0007-.0007-.0006-.0007-.0007-.0007-.0006-.0007-.0007-.0007-.0006-.0007-.0007-.0007-.0007-.0006-.0007-.0007-.0007-.0006-.0007-.0007-.0007-.0006-.0007-.0007-.0007-.0006-.0007-.0007-.0007-.0007-.0006-.0007-.0007-.0007-.0006-.0007-.0007-.0007-.0006-.0007-.0007-.0007-.0006-.0007-.0007-.0007-.0007-.0006-.0007-.0007-.0007-.0006-.0007-.0007-.0007-.0006-.0007-.0007-.0007-.0007-.0006-.0007-.0007-.0007-.0006-.0007-.0007-.0007-.0006-.0007-.0007-.0007-.0006-.0007-.0007-.0007-.0007-.0006-.0007-.0007-.0007-.0006-.0007-.0007-.0007-.0006-.0007-.0007-.0007-.0006-.0007-.0007-.0007-.0007-.0006-.0007-.0007-.0007-.0006-.0007-.0007-.0007-.0006-.0007-.0007-.0007-.0006-.0007-.0007-.0007-.0007-.0006-.0007-.0007-.0007-.0006-.0007-.0007-.0007-.0006-.0007-.0007-.0007-.0007-.0006-.0007-.0007-.0007-.0006-.0007-.0007-.0007-.0006-.0007-.0007-.0007-.0006-.0007-.0007-.0007-.0007-.0006-.0007-.0007-.0007-.0006-.0007-.0007-.0007-.0006-.0007-.0007-.0007-.0006-.0007-.0007-.0007-.0007-.0006-.0007-.0007-.0007-.0006-.0007-.0007-.0007-.0006-.0007-.0007-.0007v.75h.0007.0007.0007.0006.0007.0007.0007.0006.0007.0007.0007.0006.0007.0007.0007.0007.0006.0007.0007.0007.0006.0007.0007.0007.0006.0007.0007.0007.0006.0007.0007.0007.0007.0006.0007.0007.0007.0006.0007.0007.0007.0006.0007.0007.0007.0006.0007.0007.0007.0007.0006.0007.0007.0007.0006.0007.0007.0007.0006.0007.0007.0007.0007.0006.0007.0007.0007.0006.0007.0007.0007.0006.0007.0007.0007.0006.0007.0007.0007.0007.0006.0007.0007.0007.0006.0007.0007.0007.0006.0007.0007.0007.0006.0007.0007.0007.0007.0006.0007.0007.0007.0006.0007.0007.0007.0006.0007.0007.0007.0006.0007.0007.0007.0007.0006.0007.0007.0007.0006.0007.0007.0007.0006.0007.0007.0007.0007.0006.0007.0007.0007.0006.0007.0007.0007.0006.0007.0007.0007.0006.0007.0007.0007.0007.0006.0007.0007.0007.0006.0007.0007.0007.0006.0007.0007.0007.0006.0007.0007.0007.0007.0006.0007.0007.0007.0006.0007.0007.0007.0006.0007.0007.0007.0007.0006.0007.0007.0007.0006.0007.0007.0007.0006.0007.0007.0007.0006.0007.0007.0007.0007.0006.0007.0007.0007.0006.0007.0007.0007.0006.0007.0007.0007.0007.0006.0007.0007.0007.0006.0007.0007.0007.0006.0007.0007.0007.0006.0007.0007.0007.0007.0006.0007.0007.0007.0006.0007.0007.0007.0006.0007.0007.0007.0006.0007.0007.0007.0007.0006.0007.0007.0007.0006.0007.0007.0007.0006.0007.0007.0007.0007.0006.0007.0007.0007.0006.0007.0007.0007.0006.0007.0007.0007.0007.0006.0007.0007.0007.0006.0007.0007.0007.0006.0007.0007.0007.0006.0007.0007.0007.0007.0006.0007.0007.0007.0006.0007.0007.0007.0006.0007.0007.0007.0006.0007.0007.0007.0007.0006.0007.0007.0007.0006.0007.0007.0007.0006.0007.0007.0007.0007.0006.0007.0007.0007.0006.0007.0007.0007.0006.0007.0007.0007.0007.0006.0007.0007.0007.0006.0007.0007.0007.0006.0007.0007.0007.0006.0007.0007.0007.0007.0006.0007.0007.0007.0006.0007.0007.0007.0006.0007.0007.0007.0007.0006.0007.0007.0007.0006.0007.0007.0007.0006.0007.0007.0007.0006.0007.0007.0007.0007.0006.0007.0007.0007.0006.0007.0007.0007.0006.0007.0007.0007.0007.0006.0007.0007.0007.0006.0007.0007.0007.0006.0007.0007.0007.0007.0006.0007.0007.0007.0006.0007.0007.0007.0006.0007.0007.0007.0007.0006.0007.0007.0007.0006.0007.0007.0007.0006.0007.0007.0007.0007.0006.0007.0007.0007.0006.0007.0007.0007.0006.0007.0007.0007.0006.0007.0007.0007.0007.0006.0007.0007.0007.0006.0007.0007.0007.0006.0007.0007.0007.0007.0006.0007.0007.0007.0006.0007.0007.0007.0006.0007.0007.0007.0007.0006.0007.0007.0007.0006.0007H53h.0007.0006.0007.0007.0007.0007.0006.0007.0007.0007.0006.0007.0007.0007.0006.0007.0007.0007.0007.0006.0007.0007.0007.0006.0007.0007.0007.0006.0007.0007.0007.0007.0006.0007.0007.0007.0006.0007.0007zm-.3465 0c.0165 0 .0256.0057.0041-.0028l-.0237-.0097-.037-.015c-.0289-.0113-.069-.0256-.117-.0361l-.1605.7326c-.0051-.0011-.0052-.0017.0053.0023l.0216.0088.0352.0144c.0579.023.1511.0555.272.0555zm-.1738-.0637l-.2026-.0382-.1741-.0312-.1476.7354.1951.035.1692.0318zm-.3769-.0694l-.4586-.0878-.1116.7417.423.0815zm-.4587-.0878l-.3582-.067c-.1313-.0242-.2804-.0465-.447-.0465v.75c.1003 0 .1981.0133.3109.0341l.3829.0711zm-.8052-.1135c-.1963 0-.4523.031-.6724.0574l-.5705.052v.75c.1881 0 .441-.0312.6596-.0573l.5833-.0521zm-1.1722-1.497c.6088-.1998 1.211-.4685 1.7485-.9858l-.5201-.5404c-.4225.4067-.9048.6306-1.4622.8136zm1.7485-.9858c.5417-.5215.8007-1.2269.9977-1.8787l-.7179-.2169c-.1941.6421-.4094 1.1793-.7999 1.5552zm.9977-1.8786l.2061-.7456-.7357-.1455c-.0444.2243-.1143.429-.1883.6741zm.2061-.7456c.0167-.0845.0445-.173.0802-.291.0326-.1078.0725-.2428.0915-.3803l-.7429-.103c-.01.0722-.033.1551-.0666.2663l-.0979.3624zm.1717-.6714l.0882-.5447c.0228-.0958.0468-.1673.0691-.2123.0286-.0578.0243-.0133-.0479.0157l-.2792-.6961c-.1911.0766-.2931.2426-.3452.348-.0585.1183-.0982.252-.1265.3715-.0565.2382-.0856.501-.1014.6151zm-3.4606 3.3604c.2723-.0669.512-.2197.7094-.383s.3765-.3588.522-.5338l-.5768-.4794c-.1307.1572-.274.3117-.4235.4354s-.2903.203-.4102.2325zm1.2314-.9168c.1683-.2025.2301-.4212.2652-.6014l.0843-.4477-.7201-.2095c-.0527.1812-.0807.4127-.1004.5137-.0252.1292-.0548.2041-.1058.2655zm.3495-1.0491c.06-.2063.1013-.4145.1373-.6105l.1086-.5656-.7318-.1644-.1144.5943-.1199.5368zm.2459-1.176l.0587-.3087.0535-.2932c.0401-.1931.086-.3345.1471-.4307l-.633-.4023c-.1367.2152-.2042.4671-.2485.6806l-.0583.3184-.0513.2714zm.2593-1.0326c-.0216.034-.0401.047-.0314.0397s.0139-.0109.0307-.0212c.0345-.0213.0763-.0409.1116-.052.0171-.0054.0268-.0069.0291-.0071s-.0118.002-.0391-.0046-.0774-.0269-.119-.072-.0563-.0929-.0602-.1187l.7416-.1121c-.0144-.0947-.0532-.1944-.1307-.2783s-.1704-.1272-.2542-.1476c-.1524-.0371-.2994-.0043-.3918.0247-.1029.0323-.2012.0801-.281.1293-.0403.0249-.0809.0531-.1178.084s-.0816.072-.1207.1336zm-.0783-.236c.0189.1257.019.2258.0289.3988l.7488-.0428-.0361-.4679zm.0289.3989c.0085.148.0562.2834.0891.373l.0736.215.7322-.1625c-.0261-.1176-.0764-.2418-.1018-.3108-.0323-.0881-.0428-.1312-.0443-.1576zm.1627.5879c.0915.413.1454.8927.1454 1.3138h.75c0-.4773-.0602-1.0114-.1632-1.4761zm-20.5226 1.9314l.2965.0039c.0573.0022.0239.0047-.0212-.0092-.0342-.0105.0191.0067.0469.0125s.0619.0088.0832.0101l.2332.0036v-.75c-.1226 0-.1715-.0013-.19-.0024-.0096-.0005.0033-.0004.0245.004l.0225.0053c-.0612-.0188-.1215-.0215-.1699-.0233l-.3232-.0045zm.6386.0209h.0012.0012.0013.0012.0012.0012.0013.0012.0012.0013.0012.0012.0013.0012.0012.0012.0013.0012.0012.0013.0012.0012.0013.0012.0012.0012.0013.0012.0012.0013.0012.0012.0012.0013.0012.0012.0013.0012.0012.0013.0012.0012.0012.0013.0012.0012.0013.0012.0012.0013.0012.0012.0012.0013.0012.0012.0013.0012.0012.0012.0013.0012.0012.0013.0012.0012.0013.0012.0012.0012.0013.0012.0012.0013.0012.0012.0013.0012.0012.0012.0013.0012.0012.0013.0012.0012.0012.0013.0012.0012.0013.0012.0012.0013.0012.0012.0012.0013.0012.0012.0013.0012.0012.0012.0013.0012.0012.0013.0012.0012.0013.0012.0012.0012.0013.0012.0012.0013.0012.0012.0013.0012.0012.0012.0013.0012.0012.0013.0012.0012.0012.0013.0012.0012.0013.0012.0012.0013.0012.0012.0012.0013.0012.0012.0013.0012.0012.0012.0013.0012.0012.0013.0012.0012.0013.0012.0012.0012.0013.0012.0012.0013.0012.0012.0012.0013.0012.0012.0013.0012.0012.0013.0012.0012.0012.0013.0012.0012.0013.0012.0012.0012.0013.0012.0012.0013.0012.0012.0013.0012.0012.0012.0013.0012.0012.0013.0012.0012.0012.0013.0012.0012.0013.0012.0012.0013.0012.0012.0012.0013.0012.0012.0013.0012.0012.0013.0012.0012.0012.0013.0012.0012.0013.0012.0012.0012.0013.0012.0012.0013.0012.0012.0013.0012.0012.0012.0013.0012.0012.0013.0012.0012.0012.0013.0012.0012.0013.0012.0012.0013.0012.0012.0012.0013.0012.0012.0013.0012.0012.0012.0013.0012.0012.0013.0012.0012.0013.0012.0012.0012.0013.0012.0012.0013.0012.0012.0012.0013.0012.0012.0013.0012.0012.0012.0013.0012.0012.0013.0012.0012.0013.0012.0012.0012.0013.0012.0012.0013.0012.0012.0012.0013.0012.0012.0013.0012.0012.0013.0012.0012.0012.0013.0012.0012.0013.0012.0012.0012.0013.0012.0012.0013.0012.0012.0013.0012.0012.0012.0013.0012.0012.0013.0012.0012.0012.0013.0012.0012.0013.0012.0012.0013.0012.0012.0012.0013.0012.0012.0013.0012.0012.0012.0013.0012.0012.0013.0012.0012.0013.0012.0012.0012.0013.0012.0012.0013.0012.0012.0012.0013.0012.0012.0013.0012.0012.0012.0013.0012.0012.0013.0012.0012.0013.0012.0012.0012.0013.0012.0012.0013.0012.0012.0012.0013.0012.0012.0013.0012.0012.0013.0012.0012.0012.0013.0012.0012.0013.0012.0012.0012.0013.0012.0012.0013.0012.0012.0013.0012.0012.0012.0013.0012.0012.0013.0012.0012.0012.0013.0012.0012.0013.0012.0012.0012.0013.0012.0012.0013.0012.0012.0013.0012.0012.0012.0013.0012.0012.0013.0012.0012.0012.0013.0012.0012.0013.0012.0012.0013.0012.0012.0012.0013.0012.0012.0013.0012.0012.0012.0013.0012.0012.0013.0012.0012.0012.0013.0012.0012.0013.0012.0012.0013.0012.0012.0012.0013.0012.0012.0013.0012.0012.0012.0013.0012.0012.0013.0012.0012.0013.0012.0012.0012.0013.0012.0012.0013.0012.0012.0012.0013.0012.0012v-.75h-.0012-.0012-.0013-.0012-.0012-.0012-.0013-.0012-.0012-.0013-.0012-.0012-.0012-.0013-.0012-.0012-.0013-.0012-.0012-.0013-.0012-.0012-.0012-.0013-.0012-.0012-.0013-.0012-.0012-.0012-.0013-.0012-.0012-.0013-.0012-.0012-.0013-.0012-.0012-.0012-.0013-.0012-.0012-.0013-.0012-.0012-.0012-.0013-.0012-.0012-.0013-.0012-.0012-.0012-.0013-.0012-.0012-.0013-.0012-.0012-.0013-.0012-.0012-.0012-.0013-.0012-.0012-.0013-.0012-.0012-.0012-.0013-.0012-.0012-.0013-.0012-.0012-.0013-.0012-.0012-.0012-.0013-.0012-.0012-.0013-.0012-.0012-.0012-.0013-.0012-.0012-.0013-.0012-.0012-.0012-.0013-.0012-.0012-.0013-.0012-.0012-.0013-.0012-.0012-.0012-.0013-.0012-.0012-.0013-.0012-.0012-.0012-.0013-.0012-.0012-.0013-.0012-.0012-.0013-.0012-.0012-.0012-.0013-.0012-.0012-.0013-.0012-.0012-.0012-.0013-.0012-.0012-.0013-.0012-.0012-.0013-.0012-.0012-.0012-.0013-.0012-.0012-.0013-.0012-.0012-.0012-.0013-.0012-.0012-.0013-.0012-.0012-.0012-.0013-.0012-.0012-.0013-.0012-.0012-.0013-.0012-.0012-.0012-.0013-.0012-.0012-.0013-.0012-.0012-.0012-.0013-.0012-.0012-.0013-.0012-.0012-.0013-.0012-.0012-.0012-.0013-.0012-.0012-.0013-.0012-.0012-.0012-.0013-.0012-.0012-.0013-.0012-.0012-.0013-.0012-.0012-.0012-.0013-.0012-.0012-.0013-.0012-.0012-.0012-.0013-.0012-.0012-.0013-.0012-.0012-.0013-.0012-.0012-.0012-.0013-.0012-.0012-.0013-.0012-.0012-.0012-.0013-.0012-.0012-.0013-.0012-.0012-.0013-.0012-.0012-.0012-.0013-.0012-.0012-.0013-.0012-.0012-.0012-.0013-.0012-.0012-.0013-.0012-.0012-.0012-.0013-.0012-.0012-.0013-.0012-.0012-.0013-.0012-.0012-.0012-.0013-.0012-.0012-.0013-.0012-.0012-.0012-.0013-.0012-.0012-.0013-.0012-.0012-.0013-.0012-.0012-.0012-.0013-.0012-.0012-.0013-.0012-.0012-.0012-.0013-.0012-.0012-.0013-.0012-.0012-.0013-.0012-.0012-.0012-.0013-.0012-.0012-.0013-.0012-.0012-.0012-.0013-.0012-.0012-.0013-.0012-.0012-.0013-.0012-.0012-.0012-.0013-.0012-.0012-.0013-.0012-.0012-.0013-.0012-.0012-.0012-.0013-.0012-.0012-.0013-.0012-.0012-.0012-.0013-.0012-.0012-.0013-.0012-.0012-.0013-.0012-.0012-.0012-.0013-.0012-.0012-.0013-.0012-.0012-.0012-.0013-.0012-.0012-.0013-.0012-.0012-.0013-.0012-.0012-.0012-.0013-.0012-.0012-.0013-.0012-.0012-.0012-.0013-.0012-.0012-.0013-.0012-.0012-.0013-.0012-.0012-.0012-.0013-.0012-.0012-.0013-.0012-.0012-.0012-.0013-.0012-.0012-.0013-.0012-.0012-.0013-.0012-.0012-.0012-.0013-.0012-.0012-.0013-.0012-.0012-.0012-.0013-.0012-.0012-.0013-.0012-.0012-.0013-.0012-.0012-.0012-.0013-.0012-.0012-.0013-.0012-.0012-.0013-.0012-.0012-.0012-.0013-.0012-.0012-.0013-.0012-.0012-.0012-.0013-.0012-.0012-.0013-.0012-.0012-.0013-.0012-.0012-.0012-.0013-.0012-.0012-.0013-.0012-.0012-.0012-.0013-.0012-.0012-.0013-.0012-.0012-.0013-.0012-.0012-.0012-.0013-.0012-.0012-.0013-.0012-.0012-.0013-.0012-.0012-.0012-.0013-.0012-.0012-.0013-.0012-.0012-.0012-.0013-.0012-.0012-.0013-.0012-.0012-.0013-.0012-.0012-.0012-.0013-.0012-.0012-.0013-.0012-.0012-.0013-.0012-.0012-.0012-.0013-.0012-.0012-.0013-.0012-.0012-.0012-.0013-.0012-.0012-.0013-.0012-.0012-.0013-.0012-.0012-.0012-.0013-.0012-.0012-.0013-.0012-.0012-.0013-.0012-.0012-.0012-.0013-.0012-.0012zm.6294 0c-.074 0-.1267-.0386-.0806-.0122.0272.0155.1403.0864.295.0864v-.75c.0679 0 .1146.0338.0768.0122-.019-.0108-.1354-.0864-.2912-.0864zm.2144.0742h.0005.0005.0004.0005.0005.0005.0004.0005.0005.0004.0005.0005.0004.0005.0005.0004.0005.0005.0004.0005.0005.0005.0004.0005.0005.0004.0005.0005.0004.0005.0005.0004.0005.0005.0005.0004.0005.0005.0004.0005.0005.0004.0005.0005.0004.0005.0005.0005.0004.0005.0005.0004.0005.0005.0004.0005.0005.0004.0005.0005.0004.0005.0005.0005.0004.0005.0005.0004.0005.0005.0004.0005.0005.0004.0005.0005.0005.0004.0005.0005.0004.0005.0005.0004.0005.0005.0004.0005.0005.0005.0004.0005.0005.0004.0005.0005.0004.0005.0005.0004.0005.0005.0005.0004.0005.0005.0004.0005.0005.0004.0005.0005.0004.0005.0005.0004.0005.0005.0005.0004.0005.0005.0004.0005.0005.0004.0005.0005.0004.0005.0005.0005.0004.0005.0005.0004.0005.0005.0004.0005.0005.0004.0005.0005.0004.0005.0005.0005.0004.0005.0005.0004.0005.0005.0004.0005.0005.0004.0005.0005.0005.0004.0005.0005.0004.0005.0005.0004.0005.0005.0004.0005.0005.0004.0005.0005.0005.0004.0005.0005.0004.0005.0005.0004.0005.0005.0004.0005.0005.0005.0004.0005.0005.0004.0005.0005.0004.0005.0005.0004.0005.0005.0004.0005.0005.0005.0004.0005.0005.0004.0005.0005.0004.0005.0005.0004.0005.0005.0005.0004.0005.0005.0004.0005.0005.0004.0005.0005.0004.0005.0005.0004.0005.0005.0005.0004.0005.0005.0004.0005.0005.0004.0005.0005.0004.0005.0005.0005.0004.0005.0005.0004.0005.0005.0004.0005.0005.0004.0005.0005.0004.0005.0005.0005.0004.0005.0005.0004.0005.0005.0004.0005.0005.0004.0005.0005.0005.0004.0005.0005.0004.0005.0005.0004.0005.0005.0004.0005.0005.0004.0005.0005.0005.0004.0005.0005.0004.0005.0005.0004.0005.0005.0004.0005.0005.0005.0004.0005.0005.0004.0005.0005.0004.0005.0005.0004.0005.0005.0004.0005.0005.0005.0004.0005.0005.0004.0005.0005.0004.0005.0005.0004.0005.0005.0004.0005.0005.0005.0004.0005.0005.0004.0005.0005.0004.0005.0005.0004.0005.0005.0005.0004.0005.0005.0004.0005.0005.0004.0005.0005.0004.0005.0005.0004.0005.0005.0005.0004.0005.0005.0004.0005.0005.0004.0005.0005.0004.0005.0005.0005.0004.0005.0005.0004.0005.0005.0004.0005.0005.0004.0005.0005.0005.0004.0005.0005.0004.0005.0005.0004.0005.0005.0004.0005.0005.0004.0005.0005.0005.0004.0005.0005.0004.0005.0005.0004.0005.0005.0004.0005.0005.0005.0004.0005.0005.0004.0005.0005.0004.0005.0005.0004.0005.0005.0004.0005.0005.0005.0004.0005.0005.0004.0005.0005.0004.0005.0005.0004.0005.0005.0005.0004.0005.0005.0004.0005.0005.0004.0005.0005.0004.0005.0005.0005.0004.0005.0005.0004.0005.0005.0004.0005.0005.0004.0005.0005.0005.0004.0005.0005.0004.0005.0005.0004.0005.0005.0004.0005.0005.0004.0005.0005.0005.0004.0005.0005.0004.0005.0005.0004.0005.0005.0004.0005.0005.0005.0004.0005.0005.0004.0005.0005v-.75h-.0005-.0005-.0004-.0005-.0005-.0004-.0005-.0005-.0005-.0004-.0005-.0005-.0004-.0005-.0005-.0004-.0005-.0005-.0004-.0005-.0005-.0005-.0004-.0005-.0005-.0004-.0005-.0005-.0004-.0005-.0005-.0004-.0005-.0005-.0004-.0005-.0005-.0005-.0004-.0005-.0005-.0004-.0005-.0005-.0004-.0005-.0005-.0004-.0005-.0005-.0005-.0004-.0005-.0005-.0004-.0005-.0005-.0004-.0005-.0005-.0004-.0005-.0005-.0005-.0004-.0005-.0005-.0004-.0005-.0005-.0004-.0005-.0005-.0004-.0005-.0005-.0005-.0004-.0005-.0005-.0004-.0005-.0005-.0004-.0005-.0005-.0004-.0005-.0005-.0004-.0005-.0005-.0005-.0004-.0005-.0005-.0004-.0005-.0005-.0004-.0005-.0005-.0004-.0005-.0005-.0005-.0004-.0005-.0005-.0004-.0005-.0005-.0004-.0005-.0005-.0004-.0005-.0005-.0004-.0005-.0005-.0005-.0004-.0005-.0005-.0004-.0005-.0005-.0004-.0005-.0005-.0004-.0005-.0005-.0005-.0004-.0005-.0005-.0004-.0005-.0005-.0004-.0005-.0005-.0004-.0005-.0005-.0005-.0004-.0005-.0005-.0004-.0005-.0005-.0004-.0005-.0005-.0004-.0005-.0005-.0004-.0005-.0005-.0005-.0004-.0005-.0005-.0004-.0005-.0005-.0004-.0005-.0005-.0004-.0005-.0005-.0005-.0004-.0005-.0005-.0004-.0005-.0005-.0004-.0005-.0005-.0004-.0005-.0005-.0004-.0005-.0005-.0005-.0004-.0005-.0005-.0004-.0005-.0005-.0004-.0005-.0005-.0004-.0005-.0005-.0004-.0005-.0005-.0005-.0004-.0005-.0005-.0004-.0005-.0005-.0004-.0005-.0005-.0004-.0005-.0005-.0005-.0004-.0005-.0005-.0004-.0005-.0005-.0004-.0005-.0005-.0004-.0005-.0005-.0004-.0005-.0005-.0005-.0004-.0005-.0005-.0004-.0005-.0005-.0004-.0005-.0005-.0004-.0005-.0005-.0005-.0004-.0005-.0005-.0004-.0005-.0005-.0004-.0005-.0005-.0004-.0005-.0005-.0004-.0005-.0005-.0005-.0004-.0005-.0005-.0004-.0005-.0005-.0004-.0005-.0005-.0004-.0005-.0005-.0005-.0004-.0005-.0005-.0004-.0005-.0005-.0004-.0005-.0005-.0004-.0005-.0005-.0004-.0005-.0005-.0005-.0004-.0005-.0005-.0004-.0005-.0005-.0004-.0005-.0005-.0004-.0005-.0005-.0005-.0004-.0005-.0005-.0004-.0005-.0005-.0004-.0005-.0005-.0004-.0005-.0005-.0004-.0005-.0005-.0005-.0004-.0005-.0005-.0004-.0005-.0005-.0004-.0005-.0005-.0004-.0005-.0005-.0005-.0004-.0005-.0005-.0004-.0005-.0005-.0004-.0005-.0005-.0004-.0005-.0005-.0004-.0005-.0005-.0005-.0004-.0005-.0005-.0004-.0005-.0005-.0004-.0005-.0005-.0004-.0005-.0005-.0005-.0004-.0005-.0005-.0004-.0005-.0005-.0004-.0005-.0005-.0004-.0005-.0005-.0004-.0005-.0005-.0005-.0004-.0005-.0005-.0004-.0005-.0005-.0004-.0005-.0005-.0004-.0005-.0005-.0005-.0004-.0005-.0005-.0004-.0005-.0005-.0004-.0005-.0005-.0004-.0005-.0005-.0004-.0005-.0005-.0005-.0004-.0005-.0005-.0004-.0005-.0005-.0004-.0005-.0005-.0004-.0005-.0005-.0005-.0004-.0005-.0005-.0004-.0005-.0005-.0004-.0005-.0005-.0004-.0005-.0005-.0005-.0004-.0005-.0005-.0004-.0005-.0005-.0004-.0005-.0005-.0004-.0005-.0005-.0005-.0004-.0005-.0005-.0004-.0005-.0005-.0004-.0005-.0005-.0004-.0005-.0005-.0004-.0005-.0005-.0005-.0004-.0005-.0005-.0004-.0005-.0005-.0004-.0005-.0005-.0004-.0005-.0005-.0005-.0004-.0005-.0005-.0004-.0005-.0005-.0004-.0005-.0005-.0004-.0005-.0005-.0005-.0004-.0005-.0005-.0004-.0005-.0005-.0004-.0005-.0005-.0004-.0005-.0005-.0004-.0005-.0005-.0005-.0004-.0005-.0005zm.2402 0c.0613 0 .1256.0106.226.0294.0906.0169.219.0423.3568.0449l.0143-.7499c-.0644-.0012-.13-.013-.2334-.0323-.0935-.0174-.2231-.0421-.3637-.0421zm.583.0743l.764.0304.1188-.7405c-.2907-.0467-.629-.0353-.8689-.0398zm.7641.0304c.0513.0082.098.0119.1355.0141l.0915.0051c.0457.0033.0608.008.071.0124l.2979-.6883c-.1222-.0528-.2335-.0662-.3149-.0721l-.1625-.0118zm.2977.0315c.1325.0575.2724.1019.4345.1196l.0812-.7456c-.0691-.0075-.1348-.0263-.2173-.0621zm.4342.1195c.1296.0142.2595.0433.4206.0769.1521.0318.3303.0671.5155.0756l.0345-.7492c-.1191-.0055-.2449-.0288-.3968-.0605l-.492-.0883zm.936.1525c.1296.006.292.0571.4746.1303l.2793-.696c-.1909-.0766-.4541-.1712-.7192-.1835zm.4747.1304c.3451.1383.6948.2083 1.0254.258l.1116-.7417c-.3085-.0464-.592-.1059-.8579-.2125zm1.0254.258c.6016.0904 1.1742.1881 1.7144.3823l.2538-.7057c-.6165-.2217-1.2546-.3278-1.8566-.4183zm1.7144.3824c.1891.0679.3776.082.509.0932.147.0125.2347.0221.3124.0505l.2575-.7044c-.1871-.0684-.3756-.0823-.5062-.0934-.1463-.0125-.2369-.0222-.319-.0517zm.8214.1437c.4844.1771 1.0342.2271 1.4385.305l.1419-.7365c-.5169-.0996-.9123-.1228-1.323-.2729zm1.4386.305c.3887.0748.814.1553 1.2526.1553v-.75c-.3566 0-.7142-.0655-1.1109-.1418zm1.2526.1553c.5156 0 .9612-.028 1.4082.0317l.0994-.7434c-.5129-.0685-1.0525-.0383-1.5076-.0383zm1.4081.0317c.022.003.0433.0111.1339.0444.0721.0265.1986.0724.3481.0724v-.75c-.0042 0-.0204-.001-.0893-.0263-.0504-.0185-.1683-.0671-.2932-.0839zm.482.1168c.1804 0 .3713.023.5649.0596l.1393-.737c-.2232-.0421-.4629-.0726-.7042-.0726zm.565.0596c.847.1598 1.7468.1519 2.5277.2157l.0612-.7475c-.8823-.0721-1.6497-.0542-2.4498-.2052zm2.5278.2157c.1624.0133.3393.0026.4656-.0012.1423-.0044.2456-.002.3304.0165l.1602-.7327c-.1829-.04-.3673-.0379-.5134-.0335l-.3818.0034zm.7961.0153c.0435.0096.0932.0165.1291.0215l.1112.0164.068.0146c.0053.0017.0032.0014-.0038-.002s-.0257-.0127-.0493-.0334l.4935-.5647c-.0789-.069-.1688-.1009-.2185-.1163-.0577-.0179-.1165-.0294-.1642-.0376l-.1332-.0198-.0728-.0114zm.2548.0168c.0646.0565.1356.0846.1722.0978.0448.0161.0911.0278.1334.0365.0851.0176.181.0287.2725.0335s.1903.0042.2813-.0068c.0451-.0055.0978-.0147.1504-.0313.0446-.0141.1303-.0458.2043-.1201l-.531-.5296c.0287-.0288.0557-.0448.0704-.0524s.0266-.0118.0303-.013.0032-.0004-.0147.0018c-.035.0042-.0888.0058-.1514.0025s-.1194-.0106-.1603-.0191l-.0232-.0054-.0085-.0025c.0001.0001.0014.0005.0037.0015a.1699.1699 0 0 1 .0111.0053c.0083.0043.0292.0157.0537.0372zm1.2178.0059c-.0372.0335-.1368.0897-.1989.1073-.0674.0066-.189-.0127-.2405-.0343-.096-.0489-.1411-.1246-.1483-.1362-.0257-.0414-.0371-.0789-.038-.0817-.0063-.0193-.0095-.0349-.0098-.0363l-.002-.01-.0006-.0035c-.0001-.0009.0002.0008.001.0068l.0069.0513.0211.1728.0206.1876.0062.0692.0016.0216h.75c0-.0721-.0193-.245-.0334-.3656l-.0223-.1817-.0081-.0608-.0037-.0238-.004-.0213c-.0005-.0023-.0038-.0185-.0102-.0382-.001-.003-.0124-.0406-.0382-.0821-.0072-.0117-.0523-.0874-.1483-.1363-.0515-.0216-.1731-.0409-.2405-.0343-.0622.0176-.1618.0738-.199.1074zm-.5807.3146l.0155 1.0126.0153.9932h.75l-.0155-1.0106-.0153-.9952zm-8.9476-1.2249l.7027.0182.7329.0189v-.75c-.2321 0-.4638-.009-.7038-.0183l-.7318-.0188zm1.4356.0371h.0014.0013.0014.0013.0013.0014.0013.0014.0013.0014.0013.0014.0013.0013.0014.0013.0014.0013.0014.0013.0013.0014.0013.0014.0013.0014.0013.0013.0014.0013.0014.0013.0014.0013.0013.0014.0013.0014.0013.0014.0013.0013.0014.0013.0014.0013.0014.0013.0014.0013.0013.0014.0013.0014.0013.0014.0013.0013.0014.0013.0014.0013.0014.0013.0013.0014.0013.0014.0013.0014.0013.0014.0013.0013.0014.0013.0014.0013.0014.0013.0013.0014.0013.0014.0013.0014.0013.0013.0014.0013.0014.0013.0014.0013.0013.0014.0013.0014.0013.0014.0013.0014.0013.0013.0014.0013.0014.0013.0014.0013.0013.0014.0013.0014.0013.0014.0013.0013.0014.0013.0014.0013.0014.0013.0013.0014.0013.0014.0013.0014.0013.0014.0013.0013.0014.0013.0014.0013.0014.0013.0013.0014.0013.0014.0013.0014.0013.0013.0014.0013.0014.0013.0014.0013.0014.0013.0013.0014.0013.0014.0013.0014.0013.0013.0014.0013.0014.0013.0014.0013.0013.0014.0013.0014.0013.0014.0013.0013.0014.0013.0014.0013.0014.0013.0014.0013.0013.0014.0013.0014.0013.0014.0013.0013.0014.0013.0014.0013.0014.0013.0013.0014.0013.0014.0013.0014.0013.0013.0014.0013.0014.0013.0014.0013.0014.0013.0013.0014.0013.0014.0013.0014.0013.0013.0014.0013.0014.0013.0014.0013.0013.0014.0013.0014.0013.0014.0013.0014.0013.0013.0014.0013.0014.0013.0014.0013.0013.0014.0013.0014.0013.0014.0013.0013.0014.0013.0014.0013.0014.0013.0013.0014.0013.0014.0013.0014.0013.0013.0014.0013.0014.0013.0014.0013.0014.0013.0013.0014.0013.0014.0013.0014.0013.0013.0014.0013.0014.0013.0014.0013.0013.0014.0013.0014.0013.0014.0013.0014.0013.0013.0014.0013.0014.0013.0014.0013.0013.0014.0013.0014.0013.0014.0013.0013.0014.0013.0014.0013.0014.0013.0014.0013.0013.0014.0013.0014.0013.0014.0013.0013.0014.0013.0014.0013.0014.0013.0013.0014.0013.0014.0013.0014.0013.0013.0014.0013.0014.0013.0014.0013.0013.0014.0013.0014.0013.0014.0013.0014.0013.0013.0014.0013.0014.0013.0014.0013.0013.0014.0013.0014.0013.0014.0013.0013.0014.0013.0014.0013.0014.0013.0014.0013.0013.0014.0013.0014.0013.0014.0013.0013.0014.0013.0014.0013.0014.0013.0013.0014.0013.0014.0013.0014.0013.0013.0014.0013.0014.0013.0014.0013.0013.0014.0013.0014.0013.0014.0013.0014.0013.0013.0014.0013.0014.0013.0014.0013.0013.0014.0013.0014.0013.0014.0013.0013.0014.0013.0014.0013.0014.0013.0014.0013.0013.0014.0013.0014.0013.0014.0013.0013.0014.0013.0014.0013.0014.0013.0013.0014.0013.0014.0013.0014.0013.0014.0013.0013.0014.0013.0014.0013.0014.0013.0013.0014.0013.0014.0013.0014.0013.0013.0014.0013.0014.0013.0014.0013.0013.0014.0013.0014.0013.0014.0013.0013.0014.0013.0014.0013.0014.0013.0014.0013.0013.0014.0013.0014.0013.0014.0013.0013.0014.0013v-.75h-.0013-.0014-.0013-.0013-.0014-.0013-.0014-.0013-.0014-.0013-.0013-.0014-.0013-.0014-.0013-.0014-.0013-.0014-.0013-.0013-.0014-.0013-.0014-.0013-.0014-.0013-.0013-.0014-.0013-.0014-.0013-.0014-.0013-.0013-.0014-.0013-.0014-.0013-.0014-.0013-.0013-.0014-.0013-.0014-.0013-.0014-.0013-.0013-.0014-.0013-.0014-.0013-.0014-.0013-.0014-.0013-.0013-.0014-.0013-.0014-.0013-.0014-.0013-.0013-.0014-.0013-.0014-.0013-.0014-.0013-.0013-.0014-.0013-.0014-.0013-.0014-.0013-.0014-.0013-.0013-.0014-.0013-.0014-.0013-.0014-.0013-.0013-.0014-.0013-.0014-.0013-.0014-.0013-.0013-.0014-.0013-.0014-.0013-.0014-.0013-.0014-.0013-.0013-.0014-.0013-.0014-.0013-.0014-.0013-.0013-.0014-.0013-.0014-.0013-.0014-.0013-.0013-.0014-.0013-.0014-.0013-.0014-.0013-.0013-.0014-.0013-.0014-.0013-.0014-.0013-.0013-.0014-.0013-.0014-.0013-.0014-.0013-.0014-.0013-.0013-.0014-.0013-.0014-.0013-.0014-.0013-.0013-.0014-.0013-.0014-.0013-.0014-.0013-.0013-.0014-.0013-.0014-.0013-.0014-.0013-.0014-.0013-.0013-.0014-.0013-.0014-.0013-.0014-.0013-.0013-.0014-.0013-.0014-.0013-.0014-.0013-.0013-.0014-.0013-.0014-.0013-.0014-.0013-.0013-.0014-.0013-.0014-.0013-.0014-.0013-.0013-.0014-.0013-.0014-.0013-.0014-.0013-.0014-.0013-.0013-.0014-.0013-.0014-.0013-.0014-.0013-.0013-.0014-.0013-.0014-.0013-.0014-.0013-.0013-.0014-.0013-.0014-.0013-.0014-.0013-.0014-.0013-.0013-.0014-.0013-.0014-.0013-.0014-.0013-.0013-.0014-.0013-.0014-.0013-.0014-.0013-.0013-.0014-.0013-.0014-.0013-.0014-.0013-.0014-.0013-.0013-.0014-.0013-.0014-.0013-.0014-.0013-.0013-.0014-.0013-.0014-.0013-.0014-.0013-.0013-.0014-.0013-.0014-.0013-.0014-.0013-.0013-.0014-.0013-.0014-.0013-.0014-.0013-.0013-.0014-.0013-.0014-.0013-.0014-.0013-.0014-.0013-.0013-.0014-.0013-.0014-.0013-.0014-.0013-.0013-.0014-.0013-.0014-.0013-.0014-.0013-.0013-.0014-.0013-.0014-.0013-.0014-.0013-.0014-.0013-.0013-.0014-.0013-.0014-.0013-.0014-.0013-.0013-.0014-.0013-.0014-.0013-.0014-.0013-.0013-.0014-.0013-.0014-.0013-.0014-.0013-.0013-.0014-.0013-.0014-.0013-.0014-.0013-.0014-.0013-.0013-.0014-.0013-.0014-.0013-.0014-.0013-.0013-.0014-.0013-.0014-.0013-.0014-.0013-.0013-.0014-.0013-.0014-.0013-.0014-.0013-.0013-.0014-.0013-.0014-.0013-.0014-.0013-.0014-.0013-.0013-.0014-.0013-.0014-.0013-.0014-.0013-.0013-.0014-.0013-.0014-.0013-.0014-.0013-.0013-.0014-.0013-.0014-.0013-.0014-.0013-.0014-.0013-.0013-.0014-.0013-.0014-.0013-.0014-.0013-.0013-.0014-.0013-.0014-.0013-.0014-.0013-.0013-.0014-.0013-.0014-.0013-.0014-.0013-.0013-.0014-.0013-.0014-.0013-.0014-.0013-.0014-.0013-.0013-.0014-.0013-.0014-.0013-.0014-.0013-.0013-.0014-.0013-.0014-.0013-.0014-.0013-.0013-.0014-.0013-.0014-.0013-.0014-.0013-.0013-.0014-.0013-.0014-.0013-.0014-.0013-.0014-.0013-.0013-.0014-.0013-.0014-.0013-.0014-.0013-.0013-.0014-.0013-.0014-.0013-.0014-.0013-.0013-.0014-.0013-.0014-.0013-.0014-.0013-.0014-.0013-.0013-.0014-.0013-.0014-.0013-.0014-.0013-.0013-.0014-.0013-.0014-.0013-.0014-.0013-.0013-.0014-.0013-.0014-.0013-.0014-.0013-.0013-.0014-.0013-.0014-.0013-.0014-.0013-.0013-.0014-.0013-.0014-.0013-.0014-.0013-.0014-.0013-.0013-.0014-.0013-.0014zm.6878 0c.059 0 .1407-.0084.1987-.0139l.2042-.016c.0688-.003.1134-.001.1362.0026.0111.0017.0018.0017-.0182-.0074s-.0732-.0372-.1153-.1049l.6365-.3966c-.0621-.0997-.1491-.1533-.2115-.1816s-.1257-.0426-.1748-.0504c-.0978-.0154-.2019-.0146-.286-.0109l-.2424.0186-.0882.008-.0285.0021-.0107.0004zm.4056-.1395c.1076.1726.2872.2162.3649.2302.0948.0172.1926.0161.2675.0123l.2145-.0188.0756-.0078.0234-.0018.0069-.0003v-.75c-.06 0-.1369.0089-.1867.0143l-.1716.0154c-.0565.0028-.0865.0005-.0965-.0013-.004-.0008.0103.0011.0336.0129s.0693.0412.1048.0981zm.9528.2138c.2022 0 .3759.0323.6268.0701l.1116-.7417c-.2193-.033-.465-.0784-.7384-.0784zm.6268.0701c.2902.0436.5837.0394.8321.0409.2604.0015.4833.0086.694.0569l.1675-.7311c-.2995-.0685-.5967-.0743-.8572-.0758-.2726-.0016-.501.0011-.7248-.0326zm1.526.0978c.3983.0913.856.0549 1.1575.0549v-.75c-.3983 0-.7016.0301-.9899-.0359zm1.1575.0549h.0029.003.0029.003.0029.0029.003.0029.003.0029.003.0029.0029.003.0029.003.0029.0029.003.0029.003.0029.0029.003.0029.003.0029.0029.003.0029.003.0029.003.0029.0029.003.0029.003.0029.0029.003.0029.003.0029.0029.003.0029.003.0029.003.0029.0029.003.0029.003.0029.0029.003.0029.003.0029.0029.003.0029.003.0029.003.0029.0029.003.0029.003.0029.0029.003.0029.003.0029.0029.003.0029.003.0029.003.0029.0029.003.0029.003.0029.0029.003.0029.003.0029.0029.003.0029.003.0029.003.0029.0029.003.0029.003.0029.0029.003.0029.003.0029.0029.003.0029.003.0029.003.0029.0029.003.0029.003.0029.0029.003.0029.003.0029.0029.003.0029.003.0029.003.0029.0029.003.0029.003.0029.0029.003.0029.003.0029.0029.003.0029.003.0029.0029.003.0029.003.0029.003.0029.0029.003.0029.003.0029.0029.003.0029.003.0029.003.0029.0029.003.0029.003.0029.0029.003.0029.003.0029.0029.003.0029.003.0029.003.0029.0029.003.0029.003.0029.0029.003.0029.003.0029.0029.003.0029.003.0029.003.0029.0029.003.0029.003.0029.0029.003.0029.003.0029.0029.003.0029.003.0029.003.0029.0029.003.0029.003.0029.0029.003.0029.003.0029.0029.003.0029.003.0029.003.0029.0029.003.0029.003.0029.0029.003.0029.003.0029.003.0029.0029.003.0029.003.0029.0029.003.0029.003.0029.0029.003.0029.003.0029.003.0029.0029.003.0029.003.0029.0029.003.0029.003.0029.0029.003.0029.003.0029.003.0029.0029.003.0029.003.0029.0029.003.0029.003.0029.003.0029.0029.003.0029.003.0029.0029.003.0029.003.0029.0029.003.0029.003.0029.003.0029.0029.003.0029.003.0029.0029.003.0029.003.0029.003.0029.0029.003.0029.003.0029.0029.003.0029.003.0029.0029.003.0029.003.0029.003.0029.0029.003.0029.003.0029.0029.003.0029.003.0029.0029.003.0029.003.0029.003.0029.0029.003.0029.003.0029.0029.003.0029.003.0029.003.0029.0029.003.0029.003.0029.0029.003.0029.003.0029.0029.003.0029.003.0029.003.0029.0029.003.0029.003.0029.0029.003.0029.003.0029.003.0029.0029.003.0029.003.0029.0029.003.0029.003.0029.0029.003.0029.003.0029.003.0029.0029.003.0029.003.0029.0029.003.0029.003.0029.003.0029.0029.003.0029.003.0029.0029.003.0029.003.0029.0029.003.0029.003.0029.003.0029.0029.003.0029.003.0029.0029.003.0029.003.0029.003.0029.0029.003.0029.003.0029.0029.003.0029.003.0029.0029.003.0029.003.0029.003.0029.0029.003.0029.003.0029.0029.003.0029.003.0029.003.0029.0029.003.0029.003.0029.0029.003.0029.003.0029.0029.003.0029.003.0029.003.0029.0029.003.0029.003.0029.0029.003.0029v-.75h-.0029-.003-.0029-.0029-.003-.0029-.003-.0029-.0029-.003-.0029-.003-.0029-.003-.0029-.0029-.003-.0029-.003-.0029-.0029-.003-.0029-.003-.0029-.0029-.003-.0029-.003-.0029-.003-.0029-.0029-.003-.0029-.003-.0029-.0029-.003-.0029-.003-.0029-.003-.0029-.0029-.003-.0029-.003-.0029-.0029-.003-.0029-.003-.0029-.0029-.003-.0029-.003-.0029-.003-.0029-.0029-.003-.0029-.003-.0029-.0029-.003-.0029-.003-.0029-.003-.0029-.0029-.003-.0029-.003-.0029-.0029-.003-.0029-.003-.0029-.0029-.003-.0029-.003-.0029-.003-.0029-.0029-.003-.0029-.003-.0029-.0029-.003-.0029-.003-.0029-.003-.0029-.0029-.003-.0029-.003-.0029-.0029-.003-.0029-.003-.0029-.0029-.003-.0029-.003-.0029-.003-.0029-.0029-.003-.0029-.003-.0029-.0029-.003-.0029-.003-.0029-.003-.0029-.0029-.003-.0029-.003-.0029-.0029-.003-.0029-.003-.0029-.0029-.003-.0029-.003-.0029-.003-.0029-.0029-.003-.0029-.003-.0029-.0029-.003-.0029-.003-.0029-.003-.0029-.0029-.003-.0029-.003-.0029-.0029-.003-.0029-.003-.0029-.0029-.003-.0029-.003-.0029-.003-.0029-.0029-.003-.0029-.003-.0029-.0029-.003-.0029-.003-.0029-.0029-.003-.0029-.003-.0029-.003-.0029-.0029-.003-.0029-.003-.0029-.0029-.003-.0029-.003-.0029-.003-.0029-.0029-.003-.0029-.003-.0029-.0029-.003-.0029-.003-.0029-.0029-.003-.0029-.003-.0029-.003-.0029-.0029-.003-.0029-.003-.0029-.0029-.003-.0029-.003-.0029-.003-.0029-.0029-.003-.0029-.003-.0029-.0029-.003-.0029-.003-.0029-.0029-.003-.0029-.003-.0029-.003-.0029-.0029-.003-.0029-.003-.0029-.0029-.003-.0029-.003-.0029-.0029-.003-.0029-.003-.0029-.003-.0029-.0029-.003-.0029-.003-.0029-.0029-.003-.0029-.003-.0029-.003-.0029-.0029-.003-.0029-.003-.0029-.0029-.003-.0029-.003-.0029-.0029-.003-.0029-.003-.0029-.003-.0029-.0029-.003-.0029-.003-.0029-.0029-.003-.0029-.003-.0029-.0029-.003-.0029-.003-.0029-.003-.0029-.0029-.003-.0029-.003-.0029-.0029-.003-.0029-.003-.0029-.0029-.003-.0029-.003-.0029-.003-.0029-.0029-.003-.0029-.003-.0029-.0029-.003-.0029-.003-.0029-.0029-.003-.0029-.003-.0029-.003-.0029-.0029-.003-.0029-.003-.0029-.0029-.003-.0029-.003-.0029-.003-.0029-.0029-.003-.0029-.003-.0029-.0029-.003-.0029-.003-.0029-.0029-.003-.0029-.003-.0029-.0029-.003-.0029-.003-.0029-.003-.0029-.0029-.003-.0029-.003-.0029-.0029-.003-.0029-.003-.0029-.0029-.003-.0029-.003-.0029-.003-.0029-.0029-.003-.0029-.003-.0029-.0029-.003-.0029-.003-.0029-.0029-.003-.0029-.003-.0029-.003-.0029-.0029-.003-.0029-.003-.0029-.0029-.003-.0029-.003-.0029-.0029-.003-.0029-.003-.0029-.003-.0029-.0029-.003-.0029-.003-.0029-.0029-.003-.0029-.003-.0029-.0029-.003-.0029-.003-.0029-.003-.0029-.0029-.003-.0029-.003-.0029-.0029-.003-.0029-.003-.0029-.0029-.003-.0029-.003-.0029-.003-.0029-.0029-.003-.0029-.003-.0029-.0029-.003-.0029-.003-.0029-.0029-.003-.0029-.003-.0029-.003-.0029-.0029-.003-.0029-.003-.0029-.0029-.003-.0029-.003-.0029-.0029-.003-.0029-.003-.0029-.0029-.003-.0029-.003-.0029-.003-.0029-.0029-.003-.0029-.003-.0029zm1.5059 0l.2533.012c.1004.0038.2374.0039.3752-.0329l-.1936-.7246c-.0258.0069-.071.0111-.1536.008l-.2813-.0125zm.6286-.0209c.0708-.019.1268-.0475.1561-.0629l.028-.0148c.0057-.0029-.0079.0046-.0306.0119s-.0868.0258-.1738.0065c-.1054-.0233-.1805-.0895-.2223-.1569-.0338-.0544-.0412-.1011-.0426-.1103s-.0014-.0179-.0014-.0069h.75c0-.0314-.0014-.0696-.0077-.1093s-.0191-.1013-.061-.1689c-.05-.0805-.1352-.1538-.2526-.1799-.0991-.0219-.1801-.0005-.2155.0108s-.0698.028-.0834.0349l-.0355.0188c-.0166.0087-.0132.0056-.0015.0024zm-.2866-.3334l.008.3861c.0117.1411.0413.3177.1316.4807l.656-.3635c-.0153-.0276-.0321-.0816-.0402-.1795s-.0054-.198-.0054-.3238zm-15.5605 4.0395c.1668 0 .3795-.0373.5868-.0821l.6898-.1707 1.1307-.2788-.0971-.7437c-.2772.0362-.782.1795-1.2263.2976l-.6557.1626c-.2045.0442-.3486.0651-.4282.0651zm2.4653-.5439c.2738-.0812.4067-.0907.4947-.0884.0501.0014.093.0065.1617.014l.2492.0156v-.75c-.0587 0-.108-.0046-.1677-.0112l-.2237-.0181c-.1888-.0049-.4026.0227-.7273.119zm.9056-.0588h.0014.0013.0013.0013.0013.0014.0013.0013.0013.0013.0014.0013.0013.0013.0013.0014.0013.0013.0013.0013.0014.0013.0013.0013.0013.0014.0013.0013.0013.0013.0014.0013.0013.0013.0013.0013.0014.0013.0013.0013.0013.0014.0013.0013.0013.0013.0014.0013.0013.0013.0013.0014.0013.0013.0013.0013.0014.0013.0013.0013.0013.0014.0013.0013.0013.0013.0014.0013.0013.0013.0013.0014.0013.0013.0013.0013.0014.0013.0013.0013.0013.0014.0013.0013.0013.0013.0014.0013.0013.0013.0013.0014.0013.0013.0013.0013.0014.0013.0013.0013.0013.0014.0013.0013.0013.0013.0014.0013.0013.0013.0013.0014.0013.0013.0013.0013.0014.0013.0013.0013.0013.0014.0013.0013.0013.0013.0014.0013.0013.0013.0013.0014.0013.0013.0013.0013.0014.0013.0013.0013.0013.0014.0013.0013.0013.0013.0013.0014.0013.0013.0013.0013.0014.0013.0013.0013.0013.0014.0013.0013.0013.0013.0014.0013.0013.0013.0013.0014.0013.0013.0013.0013.0014.0013.0013.0013.0013.0014.0013.0013.0013.0013.0014.0013.0013.0013.0013.0014.0013.0013.0013.0013.0014.0013.0013.0013.0013.0014.0013.0013.0013.0013.0014.0013.0013.0013.0013.0014.0013.0013.0013.0013.0014.0013.0013.0013.0013.0013.0014.0013.0013.0013.0013.0014.0013.0013.0013.0013.0014.0013.0013.0013.0013.0014.0013.0013.0013.0013.0014.0013.0013.0013.0013.0014.0013.0013.0013.0013.0014.0013.0013.0013.0013.0014.0013.0013.0013.0013.0014.0013.0013.0013.0013.0014.0013.0013.0013.0013.0014.0013.0013.0013.0013.0014.0013.0013.0013.0013.0014.0013.0013.0013.0013.0014.0013.0013.0013.0013.0014.0013.0013.0013.0013.0013.0014.0013.0013.0013.0013.0014.0013.0013.0013.0013.0014.0013.0013.0013.0013.0014.0013.0013.0013.0013.0014.0013.0013.0013.0013.0014.0013.0013.0013.0013.0014.0013.0013.0013.0013.0014.0013.0013.0013.0013.0014.0013.0013.0013.0013.0014.0013.0013.0013.0013.0014.0013.0013.0013.0013.0014.0013.0013.0013.0013.0014.0013.0013.0013.0013.0014.0013.0013.0013.0013.0014.0013.0013.0013.0013.0013.0014.0013.0013.0013.0013.0014.0013.0013.0013.0013.0014.0013.0013.0013.0013.0014.0013.0013.0013.0013.0014.0013.0013.0013.0013.0014.0013.0013.0013.0013.0014.0013.0013.0013.0013.0014.0013.0013.0013.0013.0014.0013.0013.0013.0013.0014.0013.0013.0013.0013.0014.0013.0013.0013.0013.0014.0013.0013.0013.0013.0014.0013.0013.0013.0013.0014.0013.0013.0013.0013.0014.0013.0013.0013.0013.0014.0013.0013.0013.0013.0014.0013.0013.0013.0013.0014.0013.0013.0013.0013.0014.0013.0013.0013.0013.0014.0013.0013.0013.0013.0014.0013.0013.0013.0013.0013.0014.0013.0013.0013.0013.0014.0013.0013.0013.0013.0014.0013.0013.0013.0013.0014.0013.0013.0013.0013.0014.0013.0013.0013.0013.0014.0013.0013.0013.0013.0014.0013.0013.0013.0013.0014v-.75h-.0014-.0013-.0013-.0013-.0013-.0014-.0013-.0013-.0013-.0013-.0014-.0013-.0013-.0013-.0013-.0014-.0013-.0013-.0013-.0013-.0014-.0013-.0013-.0013-.0013-.0014-.0013-.0013-.0013-.0013-.0014-.0013-.0013-.0013-.0013-.0014-.0013-.0013-.0013-.0013-.0013-.0014-.0013-.0013-.0013-.0013-.0014-.0013-.0013-.0013-.0013-.0014-.0013-.0013-.0013-.0013-.0014-.0013-.0013-.0013-.0013-.0014-.0013-.0013-.0013-.0013-.0014-.0013-.0013-.0013-.0013-.0014-.0013-.0013-.0013-.0013-.0014-.0013-.0013-.0013-.0013-.0014-.0013-.0013-.0013-.0013-.0014-.0013-.0013-.0013-.0013-.0014-.0013-.0013-.0013-.0013-.0014-.0013-.0013-.0013-.0013-.0014-.0013-.0013-.0013-.0013-.0014-.0013-.0013-.0013-.0013-.0014-.0013-.0013-.0013-.0013-.0014-.0013-.0013-.0013-.0013-.0014-.0013-.0013-.0013-.0013-.0014-.0013-.0013-.0013-.0013-.0014-.0013-.0013-.0013-.0013-.0014-.0013-.0013-.0013-.0013-.0014-.0013-.0013-.0013-.0013-.0013-.0014-.0013-.0013-.0013-.0013-.0014-.0013-.0013-.0013-.0013-.0014-.0013-.0013-.0013-.0013-.0014-.0013-.0013-.0013-.0013-.0014-.0013-.0013-.0013-.0013-.0014-.0013-.0013-.0013-.0013-.0014-.0013-.0013-.0013-.0013-.0014-.0013-.0013-.0013-.0013-.0014-.0013-.0013-.0013-.0013-.0014-.0013-.0013-.0013-.0013-.0014-.0013-.0013-.0013-.0013-.0014-.0013-.0013-.0013-.0013-.0014-.0013-.0013-.0013-.0013-.0014-.0013-.0013-.0013-.0013-.0014-.0013-.0013-.0013-.0013-.0013-.0014-.0013-.0013-.0013-.0013-.0014-.0013-.0013-.0013-.0013-.0014-.0013-.0013-.0013-.0013-.0014-.0013-.0013-.0013-.0013-.0014-.0013-.0013-.0013-.0013-.0014-.0013-.0013-.0013-.0013-.0014-.0013-.0013-.0013-.0013-.0014-.0013-.0013-.0013-.0013-.0014-.0013-.0013-.0013-.0013-.0014-.0013-.0013-.0013-.0013-.0014-.0013-.0013-.0013-.0013-.0014-.0013-.0013-.0013-.0013-.0014-.0013-.0013-.0013-.0013-.0014-.0013-.0013-.0013-.0013-.0014-.0013-.0013-.0013-.0013-.0013-.0014-.0013-.0013-.0013-.0013-.0014-.0013-.0013-.0013-.0013-.0014-.0013-.0013-.0013-.0013-.0014-.0013-.0013-.0013-.0013-.0014-.0013-.0013-.0013-.0013-.0014-.0013-.0013-.0013-.0013-.0014-.0013-.0013-.0013-.0013-.0014-.0013-.0013-.0013-.0013-.0014-.0013-.0013-.0013-.0013-.0014-.0013-.0013-.0013-.0013-.0014-.0013-.0013-.0013-.0013-.0014-.0013-.0013-.0013-.0013-.0014-.0013-.0013-.0013-.0013-.0014-.0013-.0013-.0013-.0013-.0013-.0014-.0013-.0013-.0013-.0013-.0014-.0013-.0013-.0013-.0013-.0014-.0013-.0013-.0013-.0013-.0014-.0013-.0013-.0013-.0013-.0014-.0013-.0013-.0013-.0013-.0014-.0013-.0013-.0013-.0013-.0014-.0013-.0013-.0013-.0013-.0014-.0013-.0013-.0013-.0013-.0014-.0013-.0013-.0013-.0013-.0014-.0013-.0013-.0013-.0013-.0014-.0013-.0013-.0013-.0013-.0014-.0013-.0013-.0013-.0013-.0014-.0013-.0013-.0013-.0013-.0014-.0013-.0013-.0013-.0013-.0014-.0013-.0013-.0013-.0013-.0014-.0013-.0013-.0013-.0013-.0014-.0013-.0013-.0013-.0013-.0014-.0013-.0013-.0013-.0013-.0014-.0013-.0013-.0013-.0013-.0014-.0013-.0013-.0013-.0013-.0014-.0013-.0013-.0013-.0013-.0014-.0013-.0013-.0013-.0013-.0013-.0014-.0013-.0013-.0013-.0013-.0014-.0013-.0013-.0013-.0013-.0014-.0013-.0013-.0013-.0013-.0014-.0013-.0013-.0013-.0013-.0014-.0013-.0013-.0013-.0013-.0014-.0013-.0013-.0013-.0013-.0014zm.6758 0h.0037.0037.0037.0037.0037.0037.0037.0037.0037.0037.0037.0037.0037.0037.0037.0037.0038.0037.0037.0037.0037.0037.0037.0037.0037.0037.0037.0037.0037.0037.0037.0037.0037.0037.0037.0038.0037.0037.0037.0037.0037.0037.0037.0037.0037.0037.0037.0037.0037.0037.0037.0037.0037.0037.0037.0038.0037.0037.0037.0037.0037.0037.0037.0037.0037.0037.0037.0037.0037.0037.0037.0037.0037.0037.0037.0038.0037.0037.0037.0037.0037.0037.0037.0037.0037.0037.0037.0037.0037.0037.0037.0037.0037.0037.0037.0038.0037.0037.0037.0037.0037.0037.0037.0037.0037.0037.0037.0037.0037.0037.0037.0037.0037.0037.0037.0038.0037.0037.0037.0037.0037.0037.0037.0037.0037.0037.0037.0037.0037.0037.0037.0037.0037.0037.0038.0037.0037.0037.0037.0037.0037.0037.0037.0037.0037.0037.0037.0037.0037.0037.0037.0037.0037.0037.0038.0037.0037.0037.0037.0037.0037.0037.0037.0037.0037.0037.0037.0037.0037.0037.0037.0037.0037.0037.0038.0037.0037.0037.0037.0037.0037.0037.0037.0037.0037.0037.0037.0037.0037.0037.0037.0037.0037.0037.0038.0037.0037.0037.0037.0037.0037.0037.0037.0037.0037.0037.0037.0037.0037.0037.0037.0037.0038.0037.0037.0037.0037.0037.0037.0037.0037.0037.0037.0037.0037.0037.0037.0037.0037.0037.0037.0037.0038.0037.0037.0037.0037.0037.0037.0037.0037.0037.0037.0037.0037.0037.0037.0037.0037.0037.0037.0037.0038.0037.0037.0037.0037.0037.0037.0037.0037.0037.0037.0037.0037.0037.0037.0037.0037.0037.0037.0037.0038.0037.0037.0037.0037.0037.0037.0037.0037.0037.0037.0037.0037.0037.0037.0037.0037.0037.0037.0038.0037.0037.0037.0037.0037.0037.0037.0037.0037.0037.0037.0037.0037.0037.0037.0037.0037.0037.0037.0038.0037.0037.0037.0037.0037.0037.0037.0037.0037.0037.0037.0037.0037.0037.0037.0037.0037.0037.0037.0038.0037.0037.0037.0037.0037.0037.0037.0037.0037.0037.0037.0037.0037.0037.0037.0037.0037.0037.0037.0038.0037.0037.0037.0037.0037.0037.0037.0037.0037.0037.0037.0037.0037.0037.0037.0037.0037.0037.0038.0037.0037.0037.0037.0037.0037.0037.0037.0037.0037.0037.0037.0037.0037.0037.0037.0037.0037.0038.0037.0037.0037.0037.0037.0037.0037.0037.0037.0037.0037.0037.0037.0037.0037.0037.0037.0037.0037.0038.0037.0037.0037.0037.0037.0037.0037.0037.0037.0037.0037.0037.0037.0037.0037.0037.0037.0037.0037.0038.0037.0037.0037.0037.0037.0037.0037.0037.0037.0037.0037.0037.0037.0037.0037.0037.0037.0037.0037.0038.0037.0037.0037.0037.0037.0037.0037.0037.0037.0037.0037.0037.0037.0037.0037.0037.0037.0037.0038.0037.0037.0037.0037.0037.0037.0037.0037.0037.0037.0037.0037.0037.0037.0037.0037.0037.0037.0037.0038.0037.0037.0037.0037.0037.0037.0037.0037.0037.0037.0037.0037.0037.0037.0037.0037.0037.0037.0037.0038.0037.0037.0037v-.75h-.0037-.0037-.0037-.0038-.0037-.0037-.0037-.0037-.0037-.0037-.0037H39.2h-.0037-.0037-.0037-.0037-.0037-.0037-.0037-.0037-.0037-.0037-.0037-.0038-.0037-.0037-.0037-.0037-.0037-.0037-.0037-.0037-.0037-.0037-.0037-.0037-.0037-.0037H39.1h-.0037-.0037-.0037-.0037-.0038-.0037-.0037-.0037-.0037-.0037-.0037-.0037-.0037-.0037-.0037-.0037-.0037-.0037-.0037-.0037-.0037-.0037-.0037-.0038-.0037-.0037-.0037-.0037-.0037-.0037-.0037-.0037-.0037-.0037-.0037-.0037-.0037-.0037-.0037-.0037-.0037-.0037-.0037-.0038-.0037-.0037-.0037-.0037-.0037-.0037-.0037-.0037-.0037-.0037-.0037-.0037-.0037-.0037-.0037-.0037-.0037-.0037-.0037-.0038-.0037-.0037-.0037-.0037-.0037-.0037-.0037-.0037-.0037-.0037-.0037-.0037-.0037-.0037-.0037-.0037-.0037-.0037-.0037-.0038-.0037-.0037-.0037-.0037-.0037-.0037-.0037-.0037-.0037-.0037-.0037-.0037-.0037-.0037-.0037-.0037-.0037-.0037-.0038-.0037-.0037-.0037-.0037-.0037-.0037-.0037-.0037-.0037-.0037-.0037-.0037-.0037-.0037-.0037-.0037-.0037-.0037-.0038-.0037-.0037-.0037-.0037-.0037-.0037-.0037-.0037-.0037-.0037-.0037-.0037-.0037-.0037-.0037-.0037-.0037-.0037-.0037-.0038-.0037-.0037-.0037-.0037-.0037-.0037-.0037-.0037-.0037-.0037-.0037-.0037-.0037-.0037-.0037-.0037-.0037-.0037-.0037-.0038-.0037-.0037-.0037-.0037-.0037-.0037-.0037-.0037-.0037-.0037-.0037-.0037-.0037-.0037-.0037-.0037-.0037-.0037-.0037-.0038-.0037-.0037-.0037-.0037-.0037-.0037-.0037-.0037-.0037-.0037-.0037-.0037-.0037-.0037-.0037-.0037-.0037-.0037-.0038-.0037-.0037-.0037-.0037-.0037-.0037-.0037-.0037-.0037-.0037-.0037-.0037-.0037-.0037-.0037-.0037-.0037-.0037-.0037-.0038-.0037-.0037-.0037-.0037-.0037-.0037-.0037-.0037-.0037-.0037-.0037-.0037-.0037-.0037-.0037-.0037-.0037-.0037-.0037-.0038-.0037-.0037-.0037-.0037-.0037-.0037-.0037-.0037-.0037-.0037-.0037-.0037-.0037-.0037-.0037-.0037-.0037-.0037-.0037-.0038-.0037-.0037-.0037-.0037-.0037-.0037-.0037-.0037-.0037-.0037-.0037-.0037-.0037-.0037-.0037-.0037-.0037-.0038-.0037-.0037-.0037-.0037-.0037-.0037-.0037-.0037-.0037-.0037-.0037-.0037-.0037-.0037-.0037-.0037-.0037-.0037-.0037-.0038-.0037-.0037-.0037-.0037-.0037-.0037-.0037-.0037-.0037-.0037-.0037-.0037-.0037-.0037-.0037-.0037-.0037-.0037-.0037-.0038-.0037-.0037-.0037-.0037-.0037-.0037-.0037-.0037-.0037-.0037-.0037-.0037-.0037-.0037-.0037-.0037-.0037-.0037-.0037-.0038-.0037-.0037-.0037-.0037-.0037-.0037-.0037-.0037-.0037-.0037-.0037-.0037-.0037-.0037-.0037-.0037-.0037-.0037-.0038-.0037-.0037-.0037-.0037-.0037-.0037-.0037-.0037-.0037-.0037-.0037-.0037-.0037-.0037-.0037-.0037-.0037-.0037-.0037-.0038-.0037-.0037-.0037-.0037-.0037-.0037-.0037-.0037-.0037-.0037-.0037-.0037-.0037-.0037-.0037-.0037-.0037-.0037-.0037-.0038-.0037-.0037-.0037-.0037-.0037-.0037-.0037-.0037-.0037-.0037-.0037-.0037-.0037-.0037-.0037-.0037-.0037-.0037-.0037-.0038-.0037-.0037-.0037-.0037-.0037-.0037-.0037-.0037-.0037-.0037-.0037-.0037-.0037-.0037-.0037-.0037-.0037-.0037-.0037-.0038-.0037-.0037-.0037-.0037-.0037-.0037-.0037-.0037-.0037-.0037-.0037-.0037-.0037-.0037-.0037-.0037-.0037-.0037-.0038-.0037-.0037-.0037-.0037-.0037-.0037-.0037-.0037-.0037-.0037-.0037-.0037-.0037-.0037-.0037-.0037zm1.897 0h.0024.0025.0025.0025.0025.0024.0025.0025.0025.0025.0024.0025.0025.0025.0025.0024.0025.0025.0025.0024.0025.0025.0025.0025.0024.0025.0025.0025.0025.0024.0025.0025.0025.0025.0024.0025.0025.0025.0024.0025.0025.0025.0025.0024.0025.0025.0025.0025.0024.0025.0025.0025.0025.0024.0025.0025.0025.0024.0025.0025.0025.0025.0024.0025.0025.0025.0025.0024.0025.0025.0025.0025.0024.0025.0025.0025.0024.0025.0025.0025.0025.0024.0025.0025.0025.0025.0024.0025.0025.0025.0025.0024.0025.0025.0025.0024.0025.0025.0025.0025.0024.0025.0025.0025.0025.0024.0025.0025.0025.0024.0025.0025.0025.0025.0024.0025.0025.0025.0025.0024.0025.0025.0025.0025.0024.0025.0025.0025.0024.0025.0025.0025.0025.0024.0025.0025.0025.0025.0024.0025.0025.0025.0025.0024.0025.0025.0025.0024.0025.0025.0025.0025.0024.0025.0025.0025.0025.0024.0025.0025.0025.0024.0025.0025.0025.0025.0024.0025.0025.0025.0025.0024.0025.0025.0025.0025.0024.0025.0025.0025.0024.0025.0025.0025.0025.0024.0025.0025.0025.0025.0024.0025.0025.0025.0025.0024.0025.0025.0025.0024.0025.0025.0025.0025.0024.0025.0025.0025.0025.0024.0025.0025.0025.0025.0024.0025.0025.0025.0024.0025.0025.0025.0025.0024.0025.0025.0025.0025.0024.0025.0025.0025.0025.0024.0025.0025.0025.0024.0025.0025.0025.0025.0024.0025.0025.0025.0025.0024.0025.0025.0025.0025.0024.0025.0025.0025.0024.0025.0025.0025.0025.0024.0025.0025.0025.0025.0024.0025.0025.0025.0025.0024.0025.0025.0025.0024.0025.0025.0025.0025.0024.0025.0025.0025.0025.0024.0025.0025.0025.0025.0024.0025.0025.0025.0024.0025.0025.0025.0025.0024.0025.0025.0025.0025.0024.0025.0025.0025.0024.0025.0025.0025.0025.0024.0025.0025.0025.0025.0024.0025.0025.0025.0025.0024.0025.0025.0025.0024.0025.0025.0025.0025.0024.0025.0025.0025.0025.0024.0025.0025.0025.0025.0024.0025.0025.0025.0024.0025.0025.0025.0025.0024.0025.0025.0025.0025.0024.0025.0025.0025.0025.0024.0025.0025.0025.0024.0025.0025.0025.0025.0024.0025.0025.0025.0025.0024.0025.0025.0025.0025.0024.0025.0025.0025.0024.0025.0025.0025.0025.0024.0025.0025.0025.0025.0024.0025.0025.0025.0025.0024.0025.0025.0025.0024.0025.0025.0025.0025.0024.0025.0025.0025.0025.0024.0025.0025.0025.0025.0024.0025.0025.0025.0024.0025.0025.0025.0025.0024.0025.0025.0025.0025.0024.0025.0025.0025.0025.0024.0025.0025.0025.0024.0025.0025.0025.0025.0024.0025.0025.0025.0025.0024.0025.0025.0025.0025.0024.0025.0025.0025.0024.0025.0025.0025.0025.0024.0025.0025.0025.0025.0024.0025.0025.0025.0024.0025.0025.0025.0025.0024.0025.0025.0025.0025.0024.0025.0025.0025.0025.0024.0025.0025.0025.0024.0025.0025.0025.0025.0024.0025.0025.0025.0025.0024.0025.0025.0025.0025.0024.0025.0025.0025v-.75h-.0025-.0025-.0025-.0024-.0025-.0025-.0025-.0025-.0024-.0025-.0025-.0025-.0025-.0024-.0025-.0025-.0025-.0025-.0024-.0025-.0025-.0025-.0024-.0025-.0025-.0025-.0025-.0024-.0025-.0025-.0025-.0025-.0024-.0025-.0025-.0025-.0025-.0024-.0025-.0025-.0025-.0024-.0025-.0025-.0025-.0025-.0024-.0025-.0025-.0025-.0025-.0024-.0025-.0025-.0025-.0024-.0025-.0025-.0025-.0025-.0024-.0025-.0025-.0025-.0025-.0024-.0025-.0025-.0025-.0025-.0024-.0025-.0025-.0025-.0024-.0025-.0025-.0025-.0025-.0024-.0025-.0025-.0025-.0025-.0024-.0025-.0025-.0025-.0025-.0024-.0025-.0025-.0025-.0024-.0025-.0025-.0025-.0025-.0024-.0025-.0025-.0025-.0025-.0024-.0025-.0025-.0025-.0025-.0024-.0025-.0025-.0025-.0024-.0025-.0025-.0025-.0025-.0024-.0025-.0025-.0025-.0025-.0024-.0025-.0025-.0025-.0025-.0024-.0025-.0025-.0025-.0024-.0025-.0025-.0025-.0025-.0024-.0025-.0025-.0025-.0025-.0024-.0025-.0025-.0025-.0025-.0024-.0025-.0025-.0025-.0024-.0025-.0025-.0025-.0025-.0024-.0025-.0025-.0025-.0025-.0024-.0025-.0025-.0025-.0025-.0024-.0025-.0025-.0025-.0024-.0025-.0025-.0025-.0025-.0024-.0025-.0025-.0025-.0025-.0024-.0025-.0025-.0025-.0025-.0024-.0025-.0025-.0025-.0024-.0025-.0025-.0025-.0025-.0024-.0025-.0025-.0025-.0025-.0024-.0025-.0025-.0025-.0025-.0024-.0025-.0025-.0025-.0024-.0025-.0025-.0025-.0025-.0024-.0025-.0025-.0025-.0025-.0024-.0025-.0025-.0025-.0024-.0025-.0025-.0025-.0025-.0024-.0025-.0025-.0025-.0025-.0024-.0025-.0025-.0025-.0025-.0024-.0025-.0025-.0025-.0024-.0025-.0025-.0025-.0025-.0024-.0025-.0025-.0025-.0025-.0024-.0025-.0025-.0025-.0025-.0024-.0025-.0025-.0025-.0024-.0025-.0025-.0025-.0025-.0024-.0025-.0025-.0025-.0025-.0024-.0025-.0025-.0025-.0025-.0024-.0025-.0025-.0025-.0024-.0025-.0025-.0025-.0025-.0024-.0025-.0025-.0025-.0025-.0024-.0025-.0025-.0025-.0025-.0024-.0025-.0025-.0025-.0024-.0025-.0025-.0025-.0025-.0024-.0025-.0025-.0025-.0025-.0024-.0025-.0025-.0025-.0025-.0024-.0025-.0025-.0025-.0024-.0025-.0025-.0025-.0025-.0024-.0025-.0025-.0025-.0025-.0024-.0025-.0025-.0025-.0025-.0024-.0025-.0025-.0025-.0024-.0025-.0025-.0025-.0025-.0024-.0025-.0025-.0025-.0025-.0024-.0025-.0025-.0025-.0025-.0024-.0025-.0025-.0025-.0024-.0025-.0025-.0025-.0025-.0024-.0025-.0025-.0025-.0025-.0024-.0025-.0025-.0025-.0024-.0025-.0025-.0025-.0025-.0024-.0025-.0025-.0025-.0025-.0024-.0025-.0025-.0025-.0025-.0024-.0025-.0025-.0025-.0024-.0025-.0025-.0025-.0025-.0024-.0025-.0025-.0025-.0025-.0024-.0025-.0025-.0025-.0025-.0024-.0025-.0025-.0025-.0024-.0025-.0025-.0025-.0025-.0024-.0025-.0025-.0025-.0025-.0024-.0025-.0025-.0025-.0024-.0025-.0025-.0025-.0025-.0024-.0025-.0025-.0025-.0025-.0024-.0025-.0025-.0025-.0025-.0024-.0025-.0025-.0025-.0024-.0025-.0025-.0025-.0025-.0024-.0025-.0025-.0025-.0025-.0024-.0025-.0025-.0025-.0025-.0024-.0025-.0025-.0025-.0024-.0025-.0025-.0025-.0025-.0024-.0025-.0025-.0025-.0025-.0024-.0025-.0025-.0025-.0025-.0024-.0025-.0025-.0025-.0024-.0025-.0025-.0025-.0025-.0024-.0025-.0025-.0025-.0025-.0024-.0025-.0025-.0025-.0025-.0024-.0025-.0025-.0025-.0024-.0025-.0025-.0025-.0025-.0024-.0025-.0025-.0025-.0025-.0024-.0025-.0025-.0025-.0025-.0024zm1.2692 0c.0886 0 .1794.0123.2975.0302l.398.0439.0223-.7497c-.0926-.0028-.1849-.0171-.3078-.0357-.1151-.0175-.2578-.0387-.41-.0387zm.6954.0741l.8663.0001v-.75l-.8439.0002zm.8663.0001c.1575 0 .2308.0328.321.0796.1089.0565.2835.1638.5587.2052l.1116-.7417c-.1272-.0191-.1844-.0563-.3248-.1292-.159-.0825-.3522-.1639-.6665-.1639zm.8797.2848c.2029.0305.4066.0319.591.0274l.518-.015v-.75l-.5363.0152c-.1715.0042-.3234.0014-.4611-.0193zm1.109.0124h.0071.007.0071.0071.0071.0071.0071.0071.0071.0071.007.0071.0071.0071.0071.0071.0071.0071.007.0071.0071.0071.0071.0071.0071.0071.0071.007.0071.0071.0071.0071.0071.0071.0071.007.0071.0071.0071.0071.0071.0071.0071.0071.007.0071.0071.0071.0071.0071.0071.0071.007.0071.0071.0071.0071.0071.0071.0071.0071.007.0071.0071.0071.0071.0071.0071.0071.007.0071.0071.0071.0071.0071.0071.0071.0071.007.0071.0071.0071.0071.0071.0071.0071.0071.007.0071.0071.0071.0071.0071.0071.0071.007.0071.0071.0071.0071.0071.0071.0071.0071.007.0071.0071.0071.0071.0071.0071.0071.0071.007.0071.0071.0071.0071.0071.0071.0071.007.0071.0071.0071.0071.0071.0071.0071.0071.007.0071.0071.0071.0071.0071.0071.0071.0071.007.0071.0071.0071.0071.0071.0071.0071.007.0071.0071.0071.0071.0071.0071.0071.0071.007.0071.0071.0071.0071.0071.0071.0071.0071.007.0071.0071.0071.0071.0071.0071.0071.007.0071.0071.0071.0071.0071.0071.0071.0071.007.0071.0071.0071.0071.0071.0071.0071.007.0071.0071.0071.0071.0071.0071.0071.0071.007.0071.0071.0071.0071.0071.0071.0071.0071.007.0071.0071.0071.0071.0071.0071.0071.007.0071.0071.0071.0071.0071.0071.0071.0071.007.0071.0071.0071.0071.0071.0071.0071.0071.007.0071.0071.0071.0071.0071.0071.0071.007.0071.0071.0071.0071.0071.0071.0071.0071.007.0071.0071.0071.0071.0071.0071.0071.0071.007.0071.0071.0071.0071.0071.0071.0071.0071.007.0071.0071.0071.0071.0071.0071.0071.007.0071.0071.0071.0071.0071.0071.0071.0071.007.0071.0071.0071.0071.0071.0071.0071.0071.007.0071.0071.0071.0071.0071.0071.0071.007.0071.0071.0071.0071.0071.0071.0071.0071.007.0071.0071.0071.0071.0071.0071.0071.0071.007.0071.0071.0071.0071.0071.0071.0071.007.0071.0071.0071.0071.0071.0071.0071.0071.007.0071.0071.0071.0071.0071.0071.0071.0071.007.0071.0071.0071.0071.0071.0071.0071.007.0071.0071.0071.0071.0071.0071.0071.0071.007.0071.0071.0071.0071.0071.0071.0071.007.0071.0071.0071.0071.0071.0071.0071.0071.007.0071.0071.0071.0071.0071.0071.0071.0071.007.0071.0071.0071.0071.0071.0071.0071.007.0071.0071.0071.0071.0071.0071.0071.0071.007.0071.0071.0071.0071.0071.0071.0071.0071.007.0071.0071.0071.0071.0071.0071.0071.007.0071.0071.0071.0071.0071.0071.0071.0071.007.0071.0071.0071.0071.0071.0071.0071.0071.007.0071.0071.0071.0071.0071.0071.0071.007.0071.0071.0071.0071.0071.0071.0071.0071.007.0071.0071.0071.0071.0071.0071.0071.007.0071.0071.0071.0071.0071.0071.0071.0071.007.0071.0071.0071.0071.0071.0071.0071.007.0071.0071.0071.0071.0071.0071.0071.0071.007.0071.0071.0071.0071.0071.0071.0071.007.0071.0071.0071.0071.0071.0071.0071.0071.007.0071v-.75h-.0071-.007-.0071-.0071-.0071-.0071-.0071-.0071-.0071-.0071-.007-.0071-.0071-.0071-.0071-.0071-.0071-.0071-.007-.0071-.0071-.0071-.0071-.0071-.0071-.0071-.0071-.007-.0071-.0071-.0071-.0071-.0071-.0071-.0071-.007-.0071-.0071-.0071-.0071-.0071-.0071-.0071-.0071-.007-.0071-.0071-.0071-.0071-.0071-.0071-.0071-.007-.0071-.0071-.0071-.0071-.0071-.0071-.0071-.0071-.007-.0071-.0071-.0071-.0071-.0071-.0071-.0071-.007-.0071-.0071-.0071-.0071-.0071-.0071-.0071-.0071-.007-.0071-.0071-.0071-.0071-.0071-.0071-.0071-.0071-.007-.0071-.0071-.0071-.0071-.0071-.0071-.0071-.007-.0071-.0071-.0071-.0071-.0071-.0071-.0071-.0071-.007-.0071-.0071-.0071-.0071-.0071-.0071-.0071-.0071-.007-.0071-.0071-.0071-.0071-.0071-.0071-.0071-.007-.0071-.0071-.0071-.0071-.0071-.0071-.0071-.0071-.007-.0071-.0071-.0071-.0071-.0071-.0071-.0071-.0071-.007-.0071-.0071-.0071-.0071-.0071-.0071-.0071-.007-.0071-.0071-.0071-.0071-.0071-.0071-.0071-.0071-.007-.0071-.0071-.0071-.0071-.0071-.0071-.0071-.007-.0071-.0071-.0071-.0071-.0071-.0071-.0071-.0071-.007-.0071-.0071-.0071-.0071-.0071-.0071-.0071-.0071-.007-.0071-.0071-.0071-.0071-.0071-.0071-.0071-.007-.0071-.0071-.0071-.0071-.0071-.0071-.0071-.0071-.007-.0071-.0071-.0071-.0071-.0071-.0071-.0071-.0071-.007-.0071-.0071-.0071-.0071-.0071-.0071-.0071-.007-.0071-.0071-.0071-.0071-.0071-.0071-.0071-.0071-.007-.0071-.0071-.0071-.0071-.0071-.0071-.0071-.0071-.007-.0071-.0071-.0071-.0071-.0071-.0071-.0071-.007-.0071-.0071-.0071-.0071-.0071-.0071-.0071-.0071-.007H45.9h-.0071-.0071-.0071-.0071-.0071-.0071-.0071-.007-.0071-.0071-.0071-.0071-.0071-.0071-.0071-.0071-.007-.0071-.0071-.0071-.0071-.0071-.0071-.0071-.007-.0071-.0071-.0071-.0071-.0071-.0071-.0071-.0071-.007-.0071-.0071-.0071-.0071-.0071-.0071-.0071-.0071-.007-.0071-.0071-.0071-.0071-.0071-.0071-.0071-.007-.0071-.0071-.0071-.0071-.0071-.0071-.0071-.0071-.007-.0071-.0071-.0071-.0071-.0071-.0071-.0071-.0071-.007-.0071-.0071-.0071-.0071-.0071-.0071-.0071-.007-.0071-.0071-.0071-.0071-.0071-.0071-.0071-.0071-.007-.0071-.0071-.0071-.0071-.0071-.0071-.0071-.007-.0071-.0071-.0071-.0071-.0071-.0071-.0071-.0071-.007-.0071-.0071-.0071-.0071-.0071-.0071-.0071-.0071-.007-.0071-.0071-.0071-.0071-.0071-.0071-.0071-.007-.0071-.0071-.0071-.0071-.0071-.0071-.0071-.0071-.007-.0071-.0071-.0071-.0071-.0071-.0071-.0071-.0071-.007-.0071-.0071-.0071-.0071-.0071-.0071-.0071-.007-.0071-.0071-.0071-.0071-.0071-.0071-.0071-.0071-.007-.0071-.0071-.0071-.0071-.0071-.0071-.0071-.0071-.007-.0071-.0071-.0071-.0071-.0071-.0071-.0071-.007-.0071-.0071-.0071-.0071-.0071-.0071-.0071-.0071-.007-.0071-.0071-.0071-.0071-.0071-.0071-.0071-.0071-.007-.0071-.0071-.0071-.0071-.0071-.0071-.0071-.007-.0071-.0071-.0071-.0071-.0071-.0071-.0071-.0071-.007-.0071-.0071-.0071-.0071-.0071-.0071-.0071-.007-.0071-.0071-.0071-.0071-.0071-.0071-.0071-.0071-.007-.0071-.0071-.0071-.0071-.0071-.0071-.0071-.007-.0071-.0071-.0071-.0071-.0071-.0071-.0071-.0071-.007-.0071-.0071-.0071-.0071-.0071-.0071-.0071-.007-.0071-.0071-.0071-.0071-.0071-.0071-.0071-.0071-.007-.0071zm3.6292 0c.1898 0 .3688-.0169.5317-.0338l.4654-.0408-.0321-.7493-.5108.0441-.4542.0298zm.9973-.0746c.0979-.0042.1893-.022.2608-.0376l.184-.0406-.1364-.7375-.2077.0453c-.0603.0132-.1011.0197-.1331.0211zm.4448-.0782c.0553-.0102.0863-.0074.2006-.0157.0964-.007.2302-.0231.3724-.0915l-.3253-.6758c-.0162.0078-.0394.0147-.1015.0193l-.0522.0031-.0648.0036c-.0466.0031-.1037.0081-.1656.0195zm-23.3942-5.1914c.5338.1141 1.0918.1301 1.6265.1202l1.5443-.0455v-.75l-1.5581.0457c-.5166.0095-1.0066-.0078-1.4558-.1038zm3.1708.0747c.9774 0 1.0726-.0605 2.18.0505l.0748-.7463c-1.157-.116-1.3349-.0542-2.2548-.0542zM2.41407 9.22276H54.7507v-.75H2.41407zm51.96163-.375v3.258h.75v-3.258zm.375 2.883H2.41407v.75H54.7507zm-51.96163.375v-3.258h-.75v3.258z" fill="#e26e6e"/><path d="M0 5.83496h53.403" stroke="#e26e6e" stroke-width=".75" stroke-dasharray="1, 2"/></svg>