<svg xmlns="http://www.w3.org/2000/svg" width="50.60009" height="11.40359" fill="none" xmlns:v="https://vecta.io/nano"><path d="M8.0679 9.52879c.1656 0 .3-.1343.3-.3s-.1344-.3-.3-.3zm-1.25-.3l-.2212.2028a.3003.3003 0 0 0 .2212.0972zm-.761-1.2741c-.112-.1221-.3018-.1304-.4239-.0184s-.1304.3017-.0184.4238zm1.386 2.0776l-.0152.2997c.1441.0073.273-.089.3068-.2293a.2999.2999 0 0 0-.1685-.3439zm41.9643-1.1609l-.172-.2457c-.1164.0814-.1597.2333-.1037.3639zm.8929-.625l.172.2458a.2999.2999 0 0 0 .1174-.3247zm-.2679-.9821l.2896-.079-.0022-.0072zm-.2678-.8929l.2873-.0862a.3003.3003 0 0 0-.2428-.2105zm-1.7857-.2678l.0445-.2967a.3019.3019 0 0 0-.0445-.0033zm-.5358 0l-.0727.291c.0238.006.0482.009.0727.009zm-1.4285-.3572l.0727-.291c-.0147-.0037-.0296-.0062-.0447-.0077zm-2.8572-.2678l.028-.2987a.29.29 0 0 0-.028-.0013zm-2.1428 0l-.1114.2785c.0354.0142.0732.0215.1114.0215zm-.8929-.3572l.1114-.2785c-.0191-.0077-.039-.0133-.0592-.0169zm-3.0357-.5357l.0521-.2954c-.0172-.0031-.0346-.0046-.0521-.0046zm-3.5714 0l-.24.18c.0566.0756.1455.12.24.12zm-.5357-.7143l.24-.18a.3003.3003 0 0 0-.1706-.1118zm-1.875-.4464l.0694-.2918c-.0227-.0055-.046-.0082-.0694-.0082zm-1.25 0l-.1342.2683a.2993.2993 0 0 0 .1342.0317zm-1.4286-.7143l.1342-.2685-.0101-.0046zm-.9822-.4464l.1242-.2731c-.0202-.0092-.0413-.0161-.063-.0206zm-2.1428-.4464l.0612-.2937c-.0201-.0042-.0407-.0063-.0612-.0063zm-2.5 0v-.3a.2985.2985 0 0 0-.1077.02zm-1.1607.4464l-.1077-.28c-.0392.0151-.0748.0382-.1045.0679zm-1.1607 1.1607l-.2122.2121c.0563.0563.1326.0879.2122.0879s.1558-.0316.2121-.0879zm-.4465-.4464l.2122-.2122c-.0369-.0369-.0829-.0635-.1332-.0773zm-.9821-.2679l-.1077.28c.0094.0036.019.0068.0288.0094zm-1.1607-.4464l-.2035.2204a.299.299 0 0 0 .0958.0596zm-1.1607-1.0714l.2034-.2205c-.025-.0231-.0539-.0418-.0853-.0553zm-1.25-.5358l.1181-.2757c-.0265-.0114-.0545-.0188-.0831-.0222zm-3.0358-.3571l.0351-.2979c-.0455-.0054-.0917-.0003-.1349.015zm-1.5178.5357l-.0999-.2829c-.0467.0165-.0887.0444-.1221.0811zm-.8929.9822l-.2219-.2018c-.0126.0137-.0238.0287-.0336.0445zm-.7143 1.1607l-.2555-.1573-.0017.0029zm-.8035 1.3393l-.2573-.1544a.3007.3007 0 0 0-.0427.1544zm0 .9821l.2972.0405a.2881.2881 0 0 0 .0028-.0405zm-.2679 1.9643l-.2972-.0405a.2881.2881 0 0 0-.0028.0405zm0 2.0536h-.3c0 .0292.0043.0582.0127.0862zm.2679.8928l-.2874.0862c.0229.0762.0751.1402.1451.178zm1.1607.625l-.1422.2642c.0379.0204.0797.0324.1227.0352zm4.1071.2679l-.0195.2993.0195.0007zm2.9465 0v.3a.2997.2997 0 0 0 .0674-.0077zm1.1607-.2679v-.3c-.0227 0-.0454.0026-.0675.0077zm2.1428 0v.3c.0125 0 .0249-.0008.0372-.0023zm1.4286-.1786l.1342-.2683a.2995.2995 0 0 0-.1714-.0293zm.8929.4465l-.1342.2683a.3006.3006 0 0 0 .1342.0317zm6.4285 0v.3l.017-.0005zm4.7322-.2679v-.3l-.017.0005zm6.6071 0v.3l.015-.0004zm3.5714-.1786v-.3l-.0149.0004zm2.6786 0l.0285-.2986-.0285-.0014zm1.875.1786l.0675-.2923c-.0129-.003-.0259-.0051-.039-.0063zm1.1607.2679l-.0674.2923c.0891.0205.1827-.0006.2542-.0576a.3.3 0 0 0 .1132-.2347zm0-.8929l-.2809-.1053c-.0126.0337-.0191.0693-.0191.1053zm.2679-.7143l.2809.1054c.0271-.0724.0253-.1525-.0052-.2235zm-2.5999-3.4848l.0727-.291zm0 2.5309l.127.2717zm2.3599 1.3124c.0994.1325.2875.1594.42.06s.1594-.2875.06-.42zm-.2957-.8943l.24-.18a.3001.3001 0 0 0-.24-.12zm-1.25 0l-.1512.2591a.2999.2999 0 0 0 .1512.0409zm-1.0714-.625l.1511-.2591c-.0676-.0395-.1479-.0509-.2239-.0319zm-1.0714.2679v.3c.0245 0 .0489-.003.0727-.009zm-4.1072 0l-.0553.2948a.2942.2942 0 0 0 .0553.0052zm-1.4286-.2679l.0553-.2948c-.0182-.0035-.0367-.0052-.0553-.0052zm-.2678 0l-.0197.2994.0197.0006zm-11.1429-1.0351l-.0727.291.0234.0049zm-3.5948-.2846c-.1572.0523-.2422.2222-.1898.3794s.2223.2422.3795.1898zm-4.248-3.68c0-.1657-.1343-.3-.3-.3s-.3.1343-.3.3zm-.3 2.4107h-.3c0 .0137.0009.0274.0028.041zm.3571 2.5893h.3c0-.0137-.0009-.0274-.0028-.041zm-.3 2.3214c0 .1657.1344.3.3.3s.3-.1343.3-.3zm-.5037-7.2004c.1657 0 .3-.1343.3-.3s-.1343-.3-.3-.3zm-2.9464-.3l-.0998.2829c.032.0113.0658.0171.0998.0171zm-1.5178-.5357l-.1078.2801.0079.0028zm-1.1608-.4465l-.1218.2742.0141.0058zm-.8035-.3571l.1218-.2742c-.0384-.017-.0799-.0258-.1218-.0258zm-1.875-.3c-.1657 0-.3.1343-.3.3s.1343.3.3.3zm-4.3749 3.3363l-.2622.1457c.0529.0953.1532.1543.2622.1543zm-.4464-.8036l.2622-.1456c-.0529-.0953-.1533-.1544-.2622-.1544zm-1.25.8036h-.3a.2996.2996 0 0 0 .06.18zm.5357.7143l-.24.18a.2992.2992 0 0 0 .1058.0883zm.7143.3571h.3c0-.1136-.0642-.2175-.1659-.2683zm0 1.9643v.3c.1657 0 .3-.1343.3-.3zm-.8929 0v-.3a.3033.3033 0 0 0-.057.0055zm-2.76785.5357l-.19523.2278a.2999.2999 0 0 0 .25224.0668zm-.625-.5357l-.29896.0249a.2998.2998 0 0 0 .10373.2029zm-.17857-2.1428l-.29417-.0589c-.00551.0276-.00712.0558-.00479.0838zm.17857-.8929l-.16222-.2523c-.06839.0439-.11601.1138-.13195.1935zm1.25-.8036l-.12414-.2731c-.01318.006-.02591.013-.03808.0208zm.98215-.4464l.1457-.2622a.3001.3001 0 0 0-.2698-.0109zm-2.23883 4.5309c.13573-.095.16874-.2821.07373-.4178s-.28208-.1687-.41781-.0737zM.83571 9.13899l-.17203-.2457a.3017.3017 0 0 0-.06797.0657zM.3 9.85329l-.24-.18c-.08.1067-.08.2534 0 .36zm.53571.7143l-.24.18a.3004.3004 0 0 0 .20036.1174zm1.33929.1786l-.03965.2974c.01315.0017.02639.0026.03965.0026zm4.1071 0v.3a.3004.3004 0 0 0 .1242-.0269zm.9822-.4464l.1241.2731a.3001.3001 0 0 0 .0989-.0725zm.8036-.8929l.2229.2007c.0723-.0803.0958-.1931.0617-.2956zM7.8 8.60329l.2846-.0948a.301.301 0 0 0-.0503-.0926zm-.48-1.0802c-.1035-.1294-.2923-.1504-.4217-.0469s-.1503.2923-.0468.4217zm.7479 1.4057h-1.25v.6h1.25zm-1.0289.0973l-.9821-1.0714-.4423.4054.9821 1.0715zm-6.66485.9487l7.05355.3572.0304-.5993-7.05361-.3571zm7.19185-.216l-1.7857-.8036-.2462.5472 1.7857.8035zm42.0133-.6416l.8928-.625-.3441-.4915-.8928.625zm1.0102-.9497l-.2678-.9821-.5789.1578.2679.9822zm-.2699-.9894l-.2679-.8929-.5747.1724.2679.8929zm-.5107-1.1034l-1.7857-.2678-.089.5934 1.7857.2678zm-1.8302-.2711h-.5358v.6h.5358zm-1.9363-.3559l-2.8572-.2678-.056.5974 2.8572.2678zm-2.8852-.2691h-2.1428v.6h2.1428zm-2.0314.0214l-.8929-.3571-.2228.5571.8929.3571zm-.9521-.374l-3.0358-.5357-.1042.5908 3.0357.5358zm-6.4193-.4203l-.5357-.7143-.48.36.5357.7143zm-.7063-.8261l-1.875-.4464-.1389.5836 1.875.4465zm-1.9444-.4546h-1.25v.6h1.25zm-1.1159.0317l-1.4285-.7143-.2684.5366 1.4286.7143zm-1.4386-.7191l-.9821-.4464-.2483.5462.9821.4464zm-1.0451-.467l-2.1428-.4464-.1224.5874 2.1429.4464zm-2.204-.4527h-2.5v.6h2.5zm-2.6077.02l-1.1607.4464.2154.56 1.1607-.4464zm-1.2652.5143l-1.1607 1.1607.4243.4242 1.1607-1.1607zm-.7364 1.1607l-.4464-.4465-.4243.4243.4464.4464zm-.5796-.5238l-.9822-.2678-.1578.5788.9821.2679zm-.9534-.2584l-1.1607-.4464-.2154.56 1.1607.4464zm-1.0649-.3869L16.9321.97239l-.4069.4409 1.1607 1.0714zM16.8468.91709l-1.25-.5357-.2363.5515 1.25.5357zm-1.3331-.5579L12.478.00209l-.0701.5958 3.0357.3572zm-3.1706-.3421l-1.5179.5357.1997.5658 1.5179-.5357zm-1.64.6168l-.8928.9822.4439.4036.8929-.9822zm-.9264 1.0267l-.7142 1.1607.5109.3145.7143-1.1607zm-.716 1.1636l-.8036 1.3393.5145.3087.8036-1.3393zm-.8463 1.4937v.9821h.6v-.9821zm.0027.9416l-.2678 1.9643.5945.081.2678-1.9643zm-.2706 2.0048v2.0536h.6v-2.0536zm.0127 2.1398l.2678.8928.5747-.1724-.2678-.8928zm.4129 1.0708l1.1608.625.2844-.5283-1.1607-.625zm1.2835.6602l4.1071.2678.0391-.5987-4.1072-.2678zm4.1266.2685h2.9465v-.6h-2.9465zm3.0139-.0077l1.1607-.2679-.1349-.5846-1.1607.2679zm1.0933-.2602h2.1428v-.6h-2.1428zm2.18-.0023l1.4286-.1786-.0744-.5953-1.4286.1785zm1.2572-.2079l.8929.4464.2683-.5367-.8928-.4464zm1.0271.4781h6.4285v-.6h-6.4285zm6.4455-.0005l4.7321-.2679-.0339-.599-4.7321.2679zm4.7152-.2674h6.6071v-.6h-6.6071zm6.6221-.0004l3.5714-.1785-.0299-.5993-3.5715.1786zm6.2066-.1795l1.875.1786.0569-.5973-1.875-.1786zm1.836.1722l1.1607.2679.1349-.5846-1.1607-.2679zm1.5281-.0244v-.8929h-.6v.8929zm-.0191-.7875l.2679-.7143-.5618-.2107-.2679.7143zm.2627-.9378l-.2678-.625-.5515.2363.2678.625zm-2.4351-3.5658l-.3678-.0919-.1455.5821.3678.0919zm-.3678-.0919l-1.0608-.2652-.1455.5821 1.0608.2652zm-.3585.3824c.1131.3537.2472.897.2858 1.3748.0195.2405.0129.4446-.0217.5935s-.086.1903-.1054.1994l.2541.5435c.2621-.1225.3819-.3759.4357-.607s.057-.5102.0354-.7778c-.0435-.5384-.1908-1.1289-.3123-1.5091zm-3.0965 4.8541h2.3215v-.6h-2.3215zm2.3215 0h.3571v-.6h-.3571zm.9337-2.6864c-.3344.1563-.929.4238-1.2881.8233-.1875.2087-.3339.4775-.3263.8038s.1655.6453.4608.9634l.4398-.4081c-.2351-.2533-.2978-.4409-.3007-.5692s.0503-.2527.1726-.3888c.2606-.2898.7268-.5082 1.096-.6809zm2.967 1.2242l-.5357-.7143-.48.36.5357.7143zm-.7757-.8343h-1.25v.6h1.25zm-1.0988.0409l-1.0715-.625-.3023.5182 1.0714.625zm-1.2954-.6569l-1.0714.2678.1455.5821 1.0714-.2678zm-.9986.2589h-4.1072v.6h4.1072zm-4.0519.0051l-1.4286-.2678-.1105.5897 1.4285.2678zm-1.4839-.273h-.2678v.6h.2678zm-.2481.0007c-2.7192-.1787-8.7311-.6347-11.1133-1.0318l-.0986.5919c2.4179.403 8.4631.8605 11.1725 1.0386zm-11.0898-1.0269c-.3524-.0881-.9472-.191-1.6092-.2211s-1.4089.011-2.0584.2276l.1897.5692c.5504-.1835 1.2172-.2258 1.8415-.1975s1.1766.1253 1.4909.2039zm5.9033 2.0301l-.625.3572.2977.5209.625-.3571zm.0595-3.0395H34.3v.6h.5357zm-14.4784-2.6641v2.4107h.6v-2.4107zm.0028 2.4517l.3572 2.5893.5943-.082-.3571-2.5893zm.3543 2.5483v2.3214h.6v-2.3214zm-3.3502-5.4619l-1.5179-.5357-.1997.5658 1.5179.5357zm-1.5101-.5328l-1.1607-.4465-.2154.56 1.1608.4465zm-1.1465-.4406l-.8036-.3572-.2437.5483.8036.3572zm-.9254-.383h-1.875v.6h1.875zm-5.2678 3.0363h-.9821v.6h.9821zm-.7199.1543l-.4464-.8035-.5245.2913.4465.8036zm-.7086-.9579h-1.25v.6h1.25zm-1.55.3v.8036h.6v-.8036zm.06.9836l.5357.7143.48-.36-.5357-.7143zm.6415.8026l.7143.3572.2683-.5367-.7143-.3571zm.8485 1.7531H6.193v.6h.8929zm-.9499.0055l-2.76785.5357.11401.5891L6.25 8.18419zm-2.51561.6025l-.625-.5357-.39047.4555.625.5357zm-.52127-.3329l-.17857-2.1428-.59793.0498.17857 2.1428zm-.18336-2.0591l.17857-.8928-.58835-.1177-.17857.8928zm.04662-.6993l1.25-.8036-.32445-.5047-1.25.8036zm1.21191-.7828l.98211-.4465-.2482-.5462-.98219.4464zm.71231-.4573l.8036.4464.2914-.5245-.8036-.4464zm-2.43721 3.7771l-1.78571 1.25.34407.4915 1.78572-1.25zM.59571 8.95899L.06 9.67329l.48.36.53571-.7143zM.06 10.03329l.53571.7143.48-.36L.54 9.67329zm.73607.8317l1.33928.1786.0793-.5948-1.33929-.1786zm5.61023.1543l.9821-.4464-.2483-.5463-.9821.4465zm1.081-.5189l.8035-.8928-.4459-.4014-.8036.8929zm.8652-1.1884l-.2679-.8035-.5692.1897.2679.8036zm-.3182-.8961l-.7143-.8928-.4685.3748.7142.8928zm29.0515-4.1302h-3.5714v.6h3.5714zm-16.8751-1.4288h-2.9464v.6h2.9464zM6.7859 5.92529v1.9643h.6v-1.9643zm-4.6109 5.1209h4.1071v-.6H2.175z" fill="#e26e6e"/></svg>