<svg xmlns="http://www.w3.org/2000/svg" width="53.08663" height="13.4886" fill="none" xmlns:v="https://vecta.io/nano"><path d="M15.29443 9.8557h37.4172v3.2579H.375V9.8557h2.91943" stroke="#e26e6e" stroke-width=".75"/><path d="M5.20506 6.4787c.10652.1269.29575.1435.42265.0369s.14343-.2957.03691-.4226zm-.06928-.5491h-.3c0 .0705.02486.1388.07021.1928zm0-.9977l-.27488-.1202c-.01657.0379-.02512.0788-.02512.1202zm.37383-.8551l-.16089-.2532a.2998.2998 0 0 0-.11399.133zm.67289-.4276l-.09824-.2834c-.02198.0076-.04301.0177-.06265.0302zm.82243-.285l.09084-.2859c-.06164-.0196-.12797-.0188-.18908.0024zm.4486.1425l-.0908.2859a.2997.2997 0 0 0 .3844-.2243zm.0748-.3563v-.3c-.142 0-.26449.0995-.29364.2384zm.7476 0l.0405-.2973c-.0134-.0018-.0269-.0027-.0405-.0027zm.5234.0713l.2358-.1856a.3005.3005 0 0 0-.1953-.1117zm-.0757.4988c0 .1657.1343.3.3.3s.3-.1343.3-.3zm1.4963.0712l-.0696.2919c.0144.0034.029.0058.0437.007zm.8224.0713l-.0259.2989.0259.0011zm1.271-.9264l.2612.1476.0142-.0286zm.5234-1.2114l-.2231-.2006c-.0217.0242-.0394.0518-.0523.0816zm.4486-.4988l.2231.2006.0027-.0032zm.3738-.4276l-.0788-.2894a.2992.2992 0 0 0-.147.092zm1.0467-.285l-.0527-.2953-.0261.0058zM15.90213.3V0c-.0177 0-.0354.0016-.0528.0047zm3.8131 0l.117-.2762c-.037-.0157-.0768-.0238-.117-.0238zm.6729.285l.2803-.1069c-.0291-.0763-.0881-.1374-.1633-.1693zm.299.7839l.299-.0251c-.0024-.028-.0086-.0556-.0187-.0818zm.1496 1.7815l-.299.0251c.0011.0123.0028.0245.0054.0365zm.1495.7126l-.2936.0616c.0049.0234.0126.046.0228.0675zm.3738.7839l.2862-.0901c-.0042-.0134-.0094-.0264-.0154-.0391zm.2243.7126l.2936-.0617-.0074-.0284zm.2096.9976l.2651.1406a.2996.2996 0 0 0 .0285-.2023zm-.5.9429l.2001.2236a.2986.2986 0 0 0 .065-.0831zm-.3077.2753l.0489.296a.3002.3002 0 0 0 .1511-.0724zm-.8224.1358l-.2975.039a.3002.3002 0 0 0 .1187.2019c.0653.0484.1474.0683.2276.055zm-.1496-1.1402l.2975-.039c-.0027-.0205-.0075-.0406-.0143-.06zm-.1495-.4276l-.2902.0761.007.023zm-.1495-.57l.2902-.0762c-.0356-.1356-.1603-.2284-.3004-.2237a.3001.3001 0 0 0-.2845.2436zm-.1496.7838l.1609.2532a.2999.2999 0 0 0 .1338-.197zm-.2243.1425l-.2966.0445c.015.1004.0798.1863.1721.2285s.1998.0347.2854-.0198zm-.0747-.4988l-.2989-.0261a.3034.3034 0 0 0 .0022.0706zm.0747-.8551l-.2736-.123c-.0138.0306-.0223.0634-.0252.0969zm.2243-.4988l-.2656-.1394-.008.0163zm.2991-.5701l.2657.1394c.0323-.0618.0422-.1328.0279-.201zm-.1495-.7126l.2936-.0616c-.0049-.0234-.0126-.046-.0228-.0676zm-.3739-.7839l-.2719.1268.0012.0024zm-.299-.6413l-.2902.0761a.3037.3037 0 0 0 .0183.0507zm.1406-.6462c-.042-.1603-.206-.2561-.3663-.2141s-.2561.2061-.214.3663zm-7.9449 4.9774c-.1268.1067-.143.296-.0362.4227s.296.1429.4227.0362zM16.61243.3V0zm.2187 1.3742c-.1463.0778-.2017.2595-.1238.4058s.2595.2017.4057.1238zm-1.9824 6.5213c-.1656.0034-.2971.1405-.2937.3061s.1405.2972.3062.2937zm6.8847.1574l.0063.2999.0205-.0004.0203-.0032zm.8972-.1425l.0641-.2931-.0553-.0121-.0558.0089zm3.5888.7838l-.064.2933.0109.002zm3.9626.7126l.0609-.2938-.0078-.0014zm1.7197.3563l-.0609.2938.0301.0062h.0308zm2.4673 0v.3h.0102l.0101-.0007zm5.2336-.3563l.0204.2996.0122-.0014zm4.5607-.4988l-.0219-.2994-.0107.0012zm2.9907-.1425l.0825-.2885-.0405-.0115h-.042zm.7477.2138l-.0825.2884.01.0029.0103.0021zm.6728.1425l-.0621.2935.0633.0134.0633-.0139zm.972-.2138l.0645.293.0714-.0157.0563-.0469zm.5981-.4988l.1922.2304.0562-.0469.0283-.0674zm.1496-.3563l.2766.1161.0927-.2209-.1949-.1393zm-.5982-.4276l.1745-.244-.0604-.0432-.0736-.01zm-.5233-.0712l.0405-.2973-.0202-.0027h-.0203zm-.5982 0l-.1744.244.0782.056h.0962zm-.299-.2138l.1744-.2441-.1564-.1118-.1669.0954zm-.3738.2138v.3h.0797l.0692-.0396zm-1.1963 0l-.0204.2993.0102.0007h.0102zm-2.0935-.1426l.0204-.2993-.0102-.0007h-.0102zm-1.4205 0v-.3h-.0204l-.0201.0028zm-1.0468.1426v.3h.0204l.0201-.0028zm-1.1962 0l-.0512.2955.0254.0045h.0258zm-.8224-.1426l.0512-.2956-.0098-.0017-.0098-.001zm-.6729-.0712l-.0789.2894.0233.0064.024.0025zm-.5234-.1425l.0788-.2895-.0136-.0037-.014-.0024zm-1.6449-.2851l.0513-.2956-.0189-.0033-.0192-.0008zm-4.8598-.2138l-.0237.2993.0105.0004zm-2.6916-.2137l-.0585.2942.0173.0034.0175.0014zm-2.439-.4852l.0585-.2942-.029-.0058h-.0295zm-2-.3c-.1657 0-.3.1343-.3.3s.1343.3.3.3zm-9.573-3.991c-.1607.0401-.2584.203-.2183.3638s.2031.2584.3638.2182zm2.073-.209v-.3h-.0369l-.0359.009zm1 .3c.1657 0 .3-.1343.3-.3s-.1343-.3-.3-.3zM5.61024 6.1209c-.09085-.1386-.27683-.1772-.41538-.0864s-.17722.2769-.08636.4154zm.12296.7346l-.25087.1645.06014.0917.1051.0313zm1.19626.3563l-.08563.2875.04191.0125h.04372zm1.79437 0v.3h.0168l.0167-.0019zm1.2711-.1425l.0334.2981.0566-.0064.0503-.0266zm.6728-.3563l.1404.2651.0821-.0435.0432-.0823zm.2243-.4276l.2657.1394.0103-.0195.0072-.0209zm.1496-.4276l.2832.0991.038-.1088-.0446-.1064zm-.1496-.3563l.2767-.1161-.0071-.0169-.0092-.016zm-.4486-.7838l.2604-.149-.0368-.0644-.0627-.0398zm-.8971-.5701l.1608-.2532-.0329-.0209-.0371-.0118zm-.3578-.4284c-.1579-.0502-.3266.0371-.3768.195s.0372.3266.1951.3768zM5.64519 6.7846c.11776-.1166.11874-.3065.00219-.4243s-.3065-.1187-.42426-.0022zM3.49023 8.4954l-.21104-.2132-.25292.2503.2895.207zm.8972.6413l-.17446.2441.08823.0631.10816-.008zm6.8037-.4988l.022.2992.278-.0204v-.2788zm0-1.2114l-.2889-.0808-.0111.0396v.0412zm.2991-1.0689l.2889.0808.0928-.3316-.3412-.0465zm-.4829-.3685c-.1642-.0224-.3154.0926-.3377.2568s.0926.3153.2568.3377zm-7.5348 3.3526c-.16276-.0311-.31985.0757-.35087.2385s.07576.3198.23852.3509zm.31766.3659l-.05618.2947.09653.0184.08871-.0423zm.74766-.3563l-.02712-.2987-.05347.0048-.04847.0231zm1.57009-.1425l.02713.2989.00836-.001zm2.99069-.3563l-.0347-.298-.0008.0001zm3.0654-.3563l.0346.2981.0078-.0011zm1.4953-.2138l.0645-.293-.0531-.0116-.0538.0076zm.972.2138l.1404-.2651-.0361-.0191-.0399-.0088zm.6729.3563l.2979-.0347-.0182-.1566-.1393-.0738zm.0747.6413l.2736.1231.034-.0755-.0096-.0823zm-.2243.4989l.0191.2994.1804-.0115.0741-.1649zm-1.1215.0712v.3h.0096l.0095-.0006zm-2.8411 0v-.3l-.0062.0001zm-3.4392.0713v.3001l.0062-.0002zm-1.64489 0v-.3h-.07332l-.06506.0338zm-.82243.4275l.09084.286.02462-.0079.02292-.0119zm-1.34579.4276l.03549.2979.02824-.0034.0271-.0086zm-.59813.0713l-.02847.2986.03202.0031.03194-.0038zm-.74767-.0713l-.23576.1855.07943.101.12787.0122zm-.22429-.285v-.3h-.61782l.38206.4855zm1.04672.3c.16569 0 .3-.1343.3-.3s-.13431-.3-.3-.3zm-1.42192-.3724c0 .1657.13431.3.3.3s.3-.1343.3-.3zm.3-.3563l.01784-.2995-.31784-.0189v.3184zm1.17842.3707c.16539.0098.30746-.1162.31731-.2816s-.11624-.3075-.28163-.3173zm-1.39683-.5744c-.03403.1622.06984.3212.232.3552s.32118-.0698.35521-.232zm.44314-.651l-.18659-.2349-.08478.0674-.02224.1059zm.4486-.3563h.3v-.6214l-.48659.3865zm0 .2851l.27662.1161.02338-.0557v-.0604zm-.14954.3563l-.27662-.1161-.02338.0557v.0604zm0 .285h-.3v.2482l.24383.0465zm.69149.4372c.16276.031.31985-.0757.35087-.2385s-.07576-.3198-.23852-.3509zm-.59678-1.5641c-.14957.0712-.21304.2503-.14176.3998s.25031.2131.39988.1418zm.42812.1283l.26567-.1394-.13412-.2557-.26061.1242zm.14954.285l.26566.1394.07311-.1394-.07311-.1394zm-.14954.285l-.26566-.1393-.14483.276.28143.1342zm.02048.3421c.14957.0713.3286.0078.39988-.1417s.00781-.3286-.14176-.3999zm17.4329-8.9052c-.1657 0-.3.1343-.3.3s.1343.3.3.3zm2.5.3l.2121-.2121-.0878-.0879h-.1243zm9.0565 2.2784l-.0366.2977zm2.3177.285l-.0366.2978.0074.0009.0073.0005zm2.9159.2138l.0967-.284-.0364-.0124-.0383-.0028zm2.0935.7126l.1049-.2812-.0082-.0028zm1.7196.6413l.1291-.2708-.0119-.0057-.0124-.0046zm1.4953.7126l-.129.2708.0808.0386.0887-.0121zm2.0935-.285l.0378-.2976-.0392-.005-.0391.0053zm2.243.285l.2231-.2006-.0746-.0829-.1107-.0141zm.8972.9977h.3v-.1151l-.077-.0855zm-.3.7126c0 .1657.1343.3.3.3s.3-.1343.3-.3zm-24.0322-6.054l-.2122.2122.0058.0055zm0 2l-.2466-.1709zm-1.1342 4.2314c-.1482.0741-.2082.2543-.1341.4025s.2543.2082.4025.1341zm22.1179-.5313c-.1654.009-.2922.1504-.2833.3159s.1504.2922.3159.2833zM28.29443 1.8l.0949-.2846zM5.66462 6.093l-.29906-.3563-.45957.3857.29907.3563zm-.22884-.1634v-.9977h-.6v.9977zm-.02512-.8775l.37383-.8551-.54976-.2404-.37383.8551zM5.6705 4.33l.67289-.4276-.32178-.5064-.67289.4276zm.61025-.3973l.82243-.2851-.19649-.5669-.82243.2851zm.63335-.2826l.44863.1425.1816-.5718-.44856-.1425zm.83303-.0818l.0748-.3563-.58724-.1232-.07476.3563zm-.2188-.1179h.7476v-.6h-.7476zm.7072-.0027l.5233.0712.081-.5945-.5234-.0713zm.328-.0405l.2243.285.4716-.371-.2243-.2851zm.1601.0995v.2138h.6v-.2138zm.2305.2918l1.1962.2851.1391-.5837-1.1963-.285zm1.2399.2921l.8224.0713.0518-.5978-.8224-.0712zm.8483.0724h.7476v-.6h-.7476zm1.0088-.1524l.5234-.9264-.5224-.2951-.5234.9263zm.5376-.955l.5234-1.2114-.5508-.238-.5234 1.2114zm.471-1.1298l.4486-.4988-.4461-.4012-.4486.4988zm.4514-.502l.3739-.4275-.4517-.3949-.3739.4275zm.2268-.3355l1.0468-.2851-.1577-.5789-1.0467.2851zm1.0207-.2792l1.1963-.2138-.1056-.5906-1.1962.2138zm4.8396-.2329l.6729.2851.234-.5525-.6729-.285zm.5096.1158l.299.7838.5606-.2138-.299-.7839zm.2804.702l.1495 1.7815.5979-.0502-.1495-1.7815zm.1549 1.818l.1495.7126.5872-.1232-.1495-.7126zm.1723.7801l.3739.7839.5415-.2583-.3738-.7838zm.3585.7448l.2243.7126.5723-.1801-.2243-.7126zm.2168.6843l.2097.9976.5871-.1234-.2096-.9976zm.2382.7954l-.5.9429.5301.281.5-.9428zm-.435.8598l-.3077.2753.4.4472.3078-.2753zm-.6327.5956l-.1495-1.1401-.5949.078.1495 1.1402zm-.1638-1.2001l-.1495-.4276-.5664.1981.1496.4275zm-.1425-.4047l-.1495-.5701-.5804.1523.1495.57zm-.7344-.5502l-.1495.7839.5893.1124.1496-.7838zm-.0157.5869l-.2243.1425.3217.5064.2243-.1425zm.2332.3513l-.0747-.4989-.5934.089.0748.4988zm-.0726-.4283l.0748-.8551-.5977-.0522-.0748.8551zm.0496-.7582l.2243-.4988-.5473-.2461-.2243.4989zm.2163-.4825l.2991-.57-.5314-.2788-.299.5701zm.327-.771l-.1495-.7126-.5872.1232.1495.7126zm-.1723-.7802l-.3739-.7838-.5415.2583.3738.7838zm-.3728-.7815l-.299-.6413-.5438.2536.2991.6413zm-.2807-.5906l-.1496-.5701-.5803.1522.1495.5701zm1.6048 5.4164l-.8224.1358.0977.5919.8225-.1357zm-9.275-3.1448c.2431.1143.4797.3422.5137.6448.0333.2964-.1133.7962-.938 1.4909l.3865.4589c.8851-.7456 1.2143-1.4247 1.1477-2.0169-.0659-.5859-.5048-.9562-.8546-1.1207zM15.90213.6h.7103V0h-.7103zm.4774-.1109c.1617.1992.3647.5067.4634.7828.0498.1394.0625.2422.0534.3075-.0067.0477-.022.0718-.0652.0948l.2819.5296c.2281-.1214.3467-.3212.3775-.5413.0283-.2026-.0179-.4115-.0826-.5925-.1303-.3647-.3784-.7323-.5626-.9591zm-1.5183 8.3062l6.8785-.1425-.0125-.5999-6.8785.1426zm6.9193-.1461l.8972-.1426-.0941-.5925-.8972.1425zm.7861-.1458l3.5888.7839.128-.5862-3.5887-.7838zm3.5997.7861l3.9626.7126.1062-.5905-3.9626-.7126zm3.9549.7111l1.7196.3563.1217-.5875-1.7196-.3563zm1.7805.3625h2.4673v-.6h-2.4673zm2.4876-.0007l5.2337-.3563-.0408-.5986-5.2336.3563zm5.2459-.3574l4.5608-.4988-.0653-.5964-4.5607.4988zm4.5501-.4978l1.9439-.1425-.0439-.5984-1.9439.1425zm1.922-.1417h1.0467v-.6h-1.0467zm.9642-.0116l.7477.2138.1649-.5769-.7476-.2138zm.768.2188l.6729.1426.1243-.587-.6729-.1425zm.7995.1421l.972-.2138-.1289-.586-.972.2138zm1.0997-.2764l.5981-.4988-.3843-.4608-.5981.4988zm.6826-.6131l.1495-.3563-.5533-.2322-.1495.3563zm.0473-.7165l-.5981-.4275-.3489.4881.5981.4275zm-.7321-.4807l-.5233-.0713-.081.5945.5234.0713zm-.5638-.074h-.5982v.6h.5982zm-.4237.0559l-.2991-.2138-.3489.4881.2991.2138zm-.6224-.2302l-.3739.2138.2979.5209.3738-.2138zm-.2249.1743h-1.1963v.6h1.1963zm-4.7508-.1398l-1.0467.1425.0809.5945 1.0468-.1425zm-1.0063.1398h-1.1962v.6h1.1962zm-1.145.0044l-.8224-.1426-.1025.5912.8225.1425zm-.842-.1453l-.6729-.0713-.0632.5967.6729.0713zm-.6257-.0624l-.5234-.1425-.1576.5789.5233.1425zm-.551-.1486l-1.6448-.2851-.1025.5912 1.6449.285zm-1.6829-.2892l-4.8598-.2138-.0264.5994 4.8599.2138zm-4.8492-.2131l-2.6916-.2138-.0475.5981 2.6916.2138zm-2.6568-.209l-2.4391-.4851-.117.5884 2.439.4852zm16.9338 1.0638l-.2195-.0149-.0407.5986.2194.015zm-.2195-.0149l-1.874-.1276-.0407.5986 1.874.1276zm-.2978 1.8081c.1877-.0673.4237-.2299.5641-.5078.1463-.2893.1696-.6644-.0078-1.1116l-.5577.2212c.1256.3166.0858.5095.0301.6198-.0616.1217-.1665.1904-.2312.2136zM15.86693 2.591l2.0003-.5-.1456-.582-2.0002.5zm1.9275-.491h1v-.6h-1zM5.1085 6.4499l.37383.5701.50174-.329-.37383-.5701zm.53907.6931l1.19626.3563.17127-.575-1.19626-.3563zm1.28189.3688h1.79437v-.6H6.92946zm1.82787-.0019l1.271-.1425-.0669-.5963-1.271.1426zm1.3779-.1755l.6729-.3563-.2807-.5303-.6729.3563zm.7982-.4821l.2243-.4275-.5313-.2788-.2243.4276zm.2418-.4679l.1496-.4275-.5664-.1981-.1495.4276zm.143-.6427l-.1495-.3563-.5533.2322.1496.3563zm-.1658-.3892l-.4486-.7838-.5207.298.4486.7839zm-.5481-.888l-.8972-.5701-.3217.5064.8972.5701zm-.9672-.6028l-.4486-.1425-.1817.5718.4486.1425zM5.22312 6.3581L3.27919 8.2822l.42208.4264 1.94392-1.924zM3.31577 8.7395l.8972.6413.34892-.4881-.8972-.6414zm1.09359.6964l6.80377-.4988-.0439-.5984-6.80374.4988zm7.08177-.798V7.4265h-.6v1.2114zm-.0111-1.1306l.2991-1.0689-.5778-.1616-.2991 1.0689zm.0507-1.447l-.5234-.0712-.0809.5945.5233.0712zM3.36018 9.9311l.37383.0712.11235-.5894-.37383-.0712zm.55907.0473l.74766-.3563-.25812-.5416-.74766.3563zm.64572-.3283l1.57009-.1425-.05424-.5976-1.57009.1426zm1.57846-.1434l2.9907-.3563-.071-.5958-2.99068.3563zm2.9898-.3562l3.0654-.3563-.0693-.596-3.0654.3563zm3.0732-.3573l1.4954-.2138-.0849-.594-1.4954.2138zm1.3885-.2178l.9719.2138.1289-.586-.9719-.2138zm.896.1859l.6729.3563.2808-.5302-.6729-.3563zm.5153.1259l.0748.6414.5959-.0695-.0748-.6413zm.0991.4836l-.2243.4988.5472.2461.2243-.4988zm.0303.3225l-1.1215.0712.0381.5988 1.1215-.0712zm-1.1025.0706h-2.8411v.6h2.8411zm-2.8473.0001l-3.4392.0713.0124.5998 3.4392-.0712zm-3.433.0712H6.10794v.6h1.64489zm-1.78327.0338l-.82243.4276.27676.5323.82243-.4275zm-.77489.4078l-1.34579.4276.18167.5718 1.3458-.4275zm-1.29044.4156l-.59813.0713.07098.5958.59813-.0713zm-.53418.0705l-.74766-.0712-.05693.5973.74766.0712zm-.54037.0419l-.2243-.2851-.47151.3711.22429.285zm-.46005.2005h1.04672v-.6H2.36963zm.2248-.3724v-.3563h-.6v.3563zm-.31784-.0569l1.19626.0713.03568-.5989-1.19626-.0713zm.38664-.3799l.14953-.7126-.58721-.1232-.14953.7126zm.04251-.5393l.4486-.3563-.37317-.4698-.4486.3563zm-.03798-.5912v.2851h.6v-.2851zm.02337.169l-.14953.3563.55325.2322.14953-.3563zm-.17291.4724v.285h.6v-.285zm.24383.5797l.74766.1425.11235-.5894-.74766-.1425zm.409-.88l.29906-.1425-.25812-.5417-.29906.1426zm-.09566-.274l.14953.2851.53133-.2788-.14953-.285zm.14953.0063l-.14953.2851.53133.2787.14953-.285zm-.01293.6953l.14954.0712.25812-.5416-.14954-.0713zm29.10234-5.9579l2.3177.2851.0733-.5956-2.3178-.285zm2.3324.2865l2.9159.2138.0439-.5984-2.9159-.2138zm2.8412.1986l2.0934.7126.1934-.568-2.0935-.7126zm2.0853.7097l1.7196.6413.2096-.5622-1.7196-.6413zm1.6954.631l1.4953.7126.2581-.5416-1.4953-.7126zm3.68.4544l2.243.285.0756-.5952-2.243-.285zm2.0577.188l.8972.9977.4461-.4012-.8971-.9977zm.8203.7971v.7126h.6v-.7126zm-24.7443-5.6293l.5.5.4242-.4242-.5-.5zm.5057.5056c-.0028-.0027.0089.0084.0282.0476s.0373.0873.0554.1515c.0363.1286.0627.2935.0706.4724.0163.3712-.0493.7307-.1944.9399l.4932.3418c.2549-.3678.3192-.8851.3006-1.3081-.0096-.2181-.0419-.4295-.0925-.6089-.0468-.1657-.122-.3519-.2483-.4716zm-.0402 1.6114c-.1829.2639-.2103.5938-.1935.8906.0171.3023.0848.6301.1465.9246l.1348.796c.0149.236-.0269.3208-.0533.3473l.4242.4242c.2236-.2235.2443-.5485.2279-.8091-.0173-.2748-.0855-.5907-.1464-.8813l-.1347-.8357c-.0145-.2551.0206-.418.0877-.5148zm.0345 2.9585c-.3265.3265-.3451.7041-.3914.8893-.0248.0989-.0567.1788-.1215.2586s-.1853.1839-.4092.2959l.2684.5366c.2761-.138.4706-.287.6064-.4541s.2002-.3403.2379-.4914c.0787-.3148.0601-.4372.2336-.6107zm19.3511-.1466l1.5512-.2112-.0809-.5945-1.5512.2112zm1.5512-.2112l.5423-.0739-.081-.5945-.5422.0739zm-.2811-.1181c.2183.293.4842.7194.6006 1.0614.0612.1799.0604.2783.0495.3136-.0021.0071-.0009.0012.0045-.0025s-.0174.0125-.08.0159l.0326.5992c.1374-.0075.2718-.0417.3862-.1199s.1927-.194.2304-.3168c.0688-.2245.0148-.4769-.0552-.6828-.1463-.4297-.4555-.9152-.6874-1.2265zm-20.1939-4.1027c.059-.0607.1921-.1461.4236-.2217.2256-.0737.5237-.1313.8887-.1527.7294-.0427 1.7096.0604 2.8776.4497l.1898-.5692c-1.232-.4107-2.2885-.5271-3.1024-.4795-.4066.0238-.7569.0888-1.0401.1814-.2772.0906-.5133.2151-.6676.374zm4.1899.0753c1.4749.4916 2.137.8847 2.5926 1.1725.4736.2991.7883.5291 1.5222.6193l.0732-.5955c-.5871-.0722-.8007-.2315-1.275-.5311-.4924-.311-1.1981-.726-2.7232-1.2344zM16.61243.6h3.1028V0h-3.1028zm27.9995 6.8115h-1.4205v.6h1.4205zM27.29443 6h-2v.6h2zm-6.5-4.3997h2.5v-.6h-2.5z" fill="#e26e6e"/></svg>