<svg width="17" height="54" viewBox="0 0 17 54" fill="none" xmlns="http://www.w3.org/2000/svg">
  <path d="M7.35645 82.4351V1.1709" stroke="#70F6FF" stroke-opacity="0.67" stroke-width="0.34434" stroke-dasharray="1.38 2.75"/>
  <path d="M13.1828 26.8972C13.1828 27.4262 13.1245 27.888 13.008 28.2826C12.8914 28.6682 12.7345 29.0089 12.5372 29.3049C12.3399 29.5918 12.1113 29.8429 11.8512 30.0581C11.6001 30.2733 11.3356 30.4751 11.0576 30.6634C10.7438 30.8786 10.4299 31.0848 10.1161 31.2821C9.8022 31.4794 9.51974 31.7036 9.26866 31.9547C9.01757 32.1968 8.81133 32.4837 8.64992 32.8155C8.49748 33.1473 8.42126 33.5508 8.42126 34.0261V34.2413H5.42174C5.41277 34.1606 5.4038 34.0619 5.39483 33.9454C5.39483 33.8198 5.39483 33.7212 5.39483 33.6495C5.39483 32.9769 5.48002 32.412 5.6504 31.9547C5.82974 31.4884 6.05392 31.0893 6.32294 30.7575C6.60092 30.4258 6.9058 30.1433 7.23759 29.9101C7.56938 29.668 7.89668 29.4438 8.2195 29.2376C8.44368 29.0852 8.6544 28.9372 8.85168 28.7937C9.05793 28.6413 9.23727 28.4754 9.38971 28.296C9.54215 28.1167 9.66321 27.9194 9.75288 27.7042C9.84255 27.489 9.88739 27.2424 9.88739 26.9644C9.88739 26.3636 9.66769 25.8839 9.2283 25.5252C8.78891 25.1575 8.10292 24.9737 7.17034 24.9737C6.47986 24.9737 5.79836 25.0589 5.12582 25.2293C4.46225 25.3996 3.8749 25.6014 3.36377 25.8346V23.2386C3.63278 23.113 3.93319 22.9964 4.26497 22.8888C4.60572 22.7812 4.95544 22.6916 5.31413 22.6198C5.68178 22.5391 6.05392 22.4763 6.43054 22.4315C6.81613 22.3867 7.18827 22.3643 7.54696 22.3643C8.43471 22.3643 9.2283 22.4719 9.92774 22.6871C10.6272 22.8933 11.2145 23.1937 11.6898 23.5883C12.174 23.9828 12.5417 24.4626 12.7928 25.0275C13.0528 25.5835 13.1828 26.2067 13.1828 26.8972ZM5.17962 37.1063H8.79788V40.6977H5.17962V37.1063Z" fill="#70F6FF"/>
  <path fill-rule="evenodd" clip-rule="evenodd" d="M13.6686 28.477L13.6674 28.4811C13.5338 28.9231 13.3498 29.3269 13.1104 29.6861L13.105 29.6943C12.8739 30.0304 12.6039 30.3278 12.2952 30.584C12.0259 30.8145 11.7426 31.0304 11.4457 31.2317C11.125 31.4516 10.804 31.6625 10.4828 31.8644C10.2106 32.0355 9.96891 32.2278 9.75583 32.4408L9.74697 32.4497C9.55903 32.6309 9.40045 32.8486 9.2729 33.1088C9.17411 33.327 9.11014 33.6246 9.11014 34.0253V34.9292H4.80554L4.73747 34.3166C4.72736 34.2256 4.71772 34.1187 4.70839 33.9974L4.70636 33.971V33.6491C4.70636 32.9233 4.79763 32.2708 5.00525 31.7135L5.00779 31.7066C5.20878 31.1841 5.46672 30.7195 5.7882 30.323L5.79519 30.3144C6.10769 29.9414 6.45467 29.6187 6.83668 29.3495C7.17461 29.1031 7.50921 28.8738 7.84048 28.6619C8.05544 28.5156 8.25677 28.3742 8.4446 28.2376C8.61122 28.1142 8.75032 27.9844 8.86518 27.8492C8.97194 27.7237 9.05537 27.5874 9.11738 27.4386C9.16604 27.3218 9.19891 27.1679 9.19891 26.9636C9.19891 26.5556 9.06158 26.2772 8.793 26.0579L8.78653 26.0526C8.52811 25.8364 8.03606 25.6616 7.17054 25.6616C6.5377 25.6616 5.91331 25.7396 5.2961 25.8958C4.66413 26.0582 4.11672 26.2474 3.64978 26.4604L2.67529 26.9049V22.7992L3.07274 22.6137C3.37131 22.4744 3.69857 22.3478 4.05271 22.233L4.05778 22.2313C4.42084 22.1167 4.79262 22.0213 5.17296 21.945C5.56062 21.8601 5.95278 21.7941 6.34934 21.7469L6.3512 21.7467C6.76106 21.699 7.15983 21.6748 7.54716 21.6748C8.4879 21.6748 9.35032 21.7885 10.1266 22.0269C10.8971 22.2545 11.5698 22.5933 12.1274 23.0556C12.6917 23.5159 13.1246 24.0798 13.4196 24.741C13.7255 25.3975 13.8717 26.1201 13.8717 26.8964C13.8717 27.4737 13.8084 28.004 13.6686 28.477ZM12.793 25.0267C12.5419 24.4618 12.1742 23.9821 11.69 23.5875C11.2147 23.1929 10.6274 22.8925 9.92795 22.6863C9.22851 22.4711 8.43491 22.3635 7.54716 22.3635C7.18847 22.3635 6.81634 22.3859 6.43075 22.4307C6.05413 22.4756 5.68199 22.5383 5.31433 22.619C4.95565 22.6908 4.60593 22.7805 4.26517 22.8881C3.93339 22.9957 3.63299 23.1122 3.36397 23.2378V25.8338C3.57993 25.7353 3.80949 25.6424 4.05265 25.5551C4.38502 25.4357 4.74281 25.3269 5.12602 25.2285C5.79856 25.0581 6.48007 24.9729 7.17054 24.9729C8.10313 24.9729 8.78911 25.1568 9.22851 25.5244C9.6679 25.8831 9.88759 26.3628 9.88759 26.9636C9.88759 27.2416 9.84276 27.4882 9.75309 27.7034C9.66341 27.9186 9.54236 28.1159 9.38991 28.2953C9.23747 28.4746 9.05813 28.6405 8.85188 28.7929C8.65461 28.9364 8.44388 29.0844 8.2197 29.2368C7.89688 29.4431 7.56958 29.6672 7.23779 29.9094C6.90601 30.1425 6.60112 30.425 6.32314 30.7568C6.05413 31.0885 5.82995 31.4876 5.6506 31.9539C5.48023 32.4112 5.39504 32.9761 5.39504 33.6487V33.9446C5.404 34.0612 5.41297 34.1598 5.42194 34.2405H8.42146V34.0253C8.42146 33.55 8.49768 33.1465 8.65012 32.8147C8.81153 32.4829 9.01778 32.196 9.26886 31.9539C9.51994 31.7028 9.8024 31.4786 10.1163 31.2813C10.4301 31.0841 10.744 30.8778 11.0578 30.6626C11.3358 30.4743 11.6003 30.2725 11.8514 30.0573C12.1115 29.8421 12.3401 29.591 12.5374 29.3041C12.7347 29.0082 12.8916 28.6674 13.0082 28.2818C13.1247 27.8873 13.183 27.4255 13.183 26.8964C13.183 26.2059 13.053 25.5827 12.793 25.0267ZM4.49115 36.4168H9.48676V41.3856H4.49115V36.4168ZM5.17983 37.1055V40.6969H8.79808V37.1055H5.17983Z" fill="#606060"/>
  <path d="M8.17822 15.7012C9.53781 16.2317 10.4261 16.962 10.9252 18.3596C11.3515 19.5532 12.2056 20.6273 12.2544 21.9435C12.2778 22.5753 12.5723 23.4612 12.8254 24.0307C13.0428 24.5198 13.495 25.3921 13.495 25.9015C13.495 27.2881 13.6722 28.6893 13.6722 30.0958C13.6722 30.5728 13.4298 31.9791 13.751 32.3605C14.265 32.9709 13.9261 33.8323 14.3024 34.4773C15.0251 35.7161 14.8189 37.2046 15.1293 38.5634C15.2589 39.1299 15.4445 39.7515 15.4445 40.3356C15.4445 41.1497 14.6256 40.8683 14.1153 41.1429C13.2078 41.6316 10.043 41.3604 9.018 41.3604M14.3823 4.71289V7.28263C14.3823 8.11552 15.1137 7.80933 15.426 8.35587C15.8253 9.05446 14.8586 9.43696 14.7467 9.94107C14.6031 10.5868 14.9433 11.3691 14.6383 11.9791C14.3784 12.4991 14.0806 13.0003 13.634 13.3575C13.2423 13.671 12.6363 13.5531 12.2162 13.8893C11.8238 14.2032 11.3615 14.2346 11.0544 14.8147C10.706 15.4727 10.4616 15.3851 10.0005 16M4.4875 14.934C5.24257 14.1789 6.40589 14.0384 6.40589 12.729C6.40589 11.8043 5.70536 11.4573 5.07674 10.8286C3.55434 9.30624 3.57032 7.1705 3.57032 5.0294C3.57032 2.71323 6.46016 2.02194 8.27662 1.69165C8.57178 1.63793 9.23856 1.40777 9.50742 1.25847C10.0307 0.967707 10.5163 1.47885 10.9744 1.66217C11.6958 1.95073 12.412 2.58762 13.239 2.58762C14.3797 2.58762 14.7356 2.36669 14.7356 3.56237C14.7356 4.21152 13.441 4.59112 12.9634 5.06879C12.3748 5.6572 12.2094 6.43307 11.5849 7.0577C11.3235 7.31912 10.9972 7.69183 10.876 8.04223C10.7845 8.30655 10.7601 9.06106 10.551 9.22373C10.4596 9.29494 9.31707 9.46091 9.26129 9.39108C9.06695 9.14825 9.16019 8.42472 8.96585 8.09154C8.82233 7.84541 8.20858 7.49391 7.91231 7.55974C7.41219 7.6709 7.46921 8.56191 7.46921 8.92843C7.46921 9.60416 7.84826 9.62647 8.27662 10.0311C8.41559 10.1624 8.78596 10.8069 8.43418 10.9074C7.65474 11.1301 7.62196 12.1578 6.58315 12.1578M4.63339 14.8135C3.02588 16.1466 1.79782 18.084 1.79782 20.2091C1.79782 21.6624 2.01283 23.3079 1.58117 24.6991C1.02403 26.4942 0.734367 27.8965 0.734367 29.7895C0.734367 31.2692 0.502556 32.9887 0.773758 34.4466C0.90929 35.1752 1.1984 35.7813 1.4039 36.4749C1.57373 37.0483 1.44329 37.8641 1.44329 38.4638C1.44329 39.0262 1.39095 39.6176 1.45321 40.1771C1.54866 41.037 1.94369 41.9301 1.97495 42.7765C2.02454 44.1154 3.03841 45.4094 3.03841 46.7937C3.03841 47.5665 3.71814 48.2695 3.74734 49.0583C3.77489 49.8025 3.92446 50.4579 3.92446 51.2146C3.92446 52.1671 3.94393 53.1247 3.96996 54.0857M1.46777 39.0967C2.4895 39.5694 3.48298 39.8724 4.53253 40.2842C5.01832 40.4747 5.17672 40.4134 5.62065 40.607M14.3805 41.5762C14.3805 43.6607 13.8487 45.6815 13.8487 47.7693C13.8487 49.189 13.8309 51.0115 13.2185 52.3083C12.9551 52.8662 12.8212 53.3346 12.6536 53.9212L12.6475 53.9426M8.66716 30.957C8.66716 33.6469 8.74664 36.3285 8.74664 39.0237C8.74664 40.0541 9.09263 41.0557 9.144 42.0833C9.16701 42.543 9.26384 43.1038 9.3648 43.5581C9.40639 43.745 9.43256 43.9283 9.46631 44.1144C9.53752 44.5057 9.72291 44.756 9.85486 45.1077C9.94081 45.3368 10.119 45.5295 10.1948 45.7567C10.3226 46.1403 10.3849 46.5282 10.4554 46.9224C10.5384 47.3882 10.5745 47.8184 10.5745 48.2911C10.5745 49.0981 10.659 49.8417 10.1153 50.4457C9.89646 50.6889 9.76561 51.0717 9.4619 51.2404C9.23174 51.3682 8.34651 51.6984 8.26318 51.2404M4.48486 30.792C4.48486 31.9407 4.54367 33.0597 4.78981 34.1832C4.88057 34.598 4.9741 35.0279 5.0274 35.4561C5.10646 36.0901 5.21899 36.7073 5.31265 37.3393C5.48592 38.5074 5.66581 39.6593 6.0231 40.7938C6.20077 41.3587 6.3465 41.9387 6.50958 42.5132C6.56329 42.702 6.58354 42.897 6.64952 43.0837C6.70792 43.2491 6.85075 43.4264 6.85075 43.6039C6.85075 44.2982 7.02733 44.9985 7.33186 45.6244C7.42951 45.8252 7.50748 46.0502 7.55555 46.2662C7.62469 46.5761 7.83873 46.8738 7.8576 47.1932C7.86242 47.2747 7.95511 47.2713 7.95828 47.3463C7.96338 47.4659 7.99024 47.5984 8.03652 47.7108C8.12729 47.931 8.10483 48.1554 8.14836 48.3922C8.19932 48.6687 8.15965 48.976 8.15965 49.2585C8.15965 49.395 8.08941 51.2193 8.26034 51.179M2.84424 24.4619C3.27576 25.4646 3.42204 26.3859 3.42204 27.4575C3.42204 28.0415 3.42204 28.6254 3.42204 29.2094C3.42204 29.398 3.30965 30.0472 3.43265 30.2176C3.53485 30.3592 4.46594 30.2391 4.63894 30.2391C5.10793 30.2391 5.57678 30.2391 6.04577 30.2391C6.59589 30.2391 7.14587 30.2391 7.69599 30.2391C8.32021 30.2391 8.95324 30.2872 9.58421 30.2872" stroke="#70F6FF" stroke-opacity="0.67" stroke-width="1.03302" stroke-linecap="round" stroke-linejoin="round"/>
</svg>
