<?xml version="1.0" encoding="UTF-8" standalone="no"?>
<svg
   xmlns:dc="http://purl.org/dc/elements/1.1/"
   xmlns:cc="http://creativecommons.org/ns#"
   xmlns:rdf="http://www.w3.org/1999/02/22-rdf-syntax-ns#"
   xmlns:svg="http://www.w3.org/2000/svg"
   xmlns="http://www.w3.org/2000/svg"
   xmlns:sodipodi="http://sodipodi.sourceforge.net/DTD/sodipodi-0.dtd"
   xmlns:inkscape="http://www.inkscape.org/namespaces/inkscape"
   width="20.319555"
   height="52.41423"
   viewBox="0 0 20.319555 52.41423"
   version="1.1"
   id="svg15"
   sodipodi:docname="upright.svg"
   inkscape:version="0.92.5 (2060ec1f9f, 2020-04-08)"
   style="fill:none">
  <metadata
     id="metadata19">
    <rdf:RDF>
      <cc:Work
         rdf:about="">
        <dc:format>image/svg+xml</dc:format>
        <dc:type
           rdf:resource="http://purl.org/dc/dcmitype/StillImage" />
        <dc:title></dc:title>
      </cc:Work>
    </rdf:RDF>
  </metadata>
  <sodipodi:namedview
     pagecolor="#ffffff"
     bordercolor="#666666"
     borderopacity="1"
     objecttolerance="10"
     gridtolerance="10"
     guidetolerance="10"
     inkscape:pageopacity="0"
     inkscape:pageshadow="2"
     inkscape:window-width="775"
     inkscape:window-height="758"
     id="namedview17"
     showgrid="false"
     inkscape:zoom="3.9333333"
     inkscape:cx="11.664849"
     inkscape:cy="-23.081398"
     inkscape:window-x="0"
     inkscape:window-y="460"
     inkscape:window-maximized="0"
     inkscape:current-layer="svg15"
     fit-margin-top="-2.7755576e-17"
     fit-margin-left="0"
     fit-margin-right="0"
     fit-margin-bottom="-52" />
  <path
     style="stroke:#e26e6e;stroke-width:1.31905997;stroke-linecap:round;stroke-linejoin:round"
     inkscape:connector-curvature="0"
     id="path4"
     d="m 18.209349,5.171837 c 0,1.0938 0,2.1875 0,3.2813 0,1.0635 0.9339,0.6725 1.3326,1.3704 0.5098,0.892 -0.7245,1.3804 -0.8674,2.0241 -0.1833,0.8245 0.2511,1.8235 -0.1385,2.6024 -0.3318,0.664 -0.7121,1.304 -1.2823,1.76 -0.5001,0.4003 -1.274,0.2498 -1.8104,0.6791 -0.5011,0.4008 -1.0913,0.4409 -1.4835,1.1817 -0.4448,0.8401 -0.8192,1.7042 -1.4081,2.4893 m -6.9768,-2.3379 c 0.9642,-0.9641 2.4496,-1.1435 2.4496,-2.8155 0,-1.1807 -0.8945,-1.6239 -1.6972,-2.4266 -1.9439,-1.9439 -1.9235,-4.671 -1.9235,-7.405 0,-2.9575 3.69,-3.84021 6.0094,-4.26196 0.3769,-0.06859 1.2283,-0.36248004 1.5716,-0.55312004 0.6682,-0.37127 1.2883,0.28140004 1.8733,0.51549004 0.921,0.36845 1.8356,1.1817 2.8915,1.1817 1.4566,0 1.9111,-0.28211 1.9111,1.24466 0,0.82889 -1.6531,1.31363 -2.263,1.92353 -0.7515,0.7513 -0.9627,1.742 -1.7601,2.5396 -0.3338,0.3338 -0.7505,0.8098 -0.9053,1.2572 -0.1167,0.3375 -0.1479,1.3009 -0.4149,1.5086 -0.1167,0.091 -1.5756,0.3029 -1.6468,0.2137 -0.2482,-0.31 -0.1291,-1.2339 -0.3773,-1.6594 -0.1833,-0.3142 -0.9669,-0.7631 -1.3453,-0.679 -0.6386,0.1419 -0.5657,1.2797 -0.5657,1.7477 0,0.8628 0.484,0.8913 1.0309,1.408 0.1775,0.1676 0.6504,0.9905 0.2012,1.1189 -0.9952,0.2844 -1.0371,1.5966 -2.3635,1.5966 m -2.4896,3.3927 c -2.0526,1.7023 -3.6207,4.1762 -3.6207,6.8897 0,1.8557 0.2745,3.9569 -0.2767,5.7332 -0.7114,2.2922 -1.08130004,4.0827 -1.08130004,6.5 0,1.8894 -0.296,4.085 0.0503,5.9466 0.17310004,0.9304 0.54220004,1.7042 0.80470004,2.5899 0.2168,0.7322 0.0503,1.7739 0.0503,2.5397 0,0.2887 -0.0109,0.5834 -0.0186,0.8791 m 8.6181,-29.9433 c 1.7361,0.6775 2.8703,1.61 3.5077,3.3946 0.5443,1.5241 1.6349,2.8956 1.6972,4.5762 0.0299,0.8068 0.4059,1.938 0.7291,2.6652 0.2776,0.6246 0.855,1.7384 0.855,2.3888 0,1.7705 0.2263,3.5597 0.2263,5.3557 0,0.609 -0.3095,2.4047 0.1006,2.8917 0.6564,0.7795 0.2236,1.8794 0.704,2.703 0.9229,1.5818 0.6596,3.4825 1.056,5.2175 0.1655,0.7234 0.4024,1.5171 0.4024,2.263 0,1.0394 -1.0456,0.6801 -1.6972,1.0308 -1.1588,0.624 -5.1999,0.2777 -6.5088,0.2777 m -9.6406,-2.8945 c 1.3047,0.6036 2.5733,0.9906 3.9134,1.5164 0.6203,0.2433 0.8226,0.165 1.3894,0.4121 m -2.3573,-24.3545 c -0.5627,1.5 -0.4503,6.198 -0.4503,7.5663 v 2.2369 c 0,0.2408 -0.1435,1.0699 0.0136,1.2874 0.1305,0.1808 1.3194,0.0275 1.5403,0.0275 h 3.9035 c 0.7971,0 1.6054,0.0614 2.4111,0.0614 m 0.0818,-12.1797 c -0.0077,0.436 0.2021,2.8681 0.098,3.2934 -0.0939,0.3837 -0.0753,0.7629 -0.1537,1.1442 -0.1333,0.6476 -0.1502,1.2771 -0.1502,1.9364 v 4.7914 c 0,0.2882 -0.0971,0.8382 0.0614,1.0758 m -6.4484,0.5846 c 0,1.4668 0.0751,2.8956 0.3894,4.3302 0.1159,0.5298 0.2353,1.0787 0.3034,1.6255 0.1009,0.8095 0.2446,1.5976 0.3642,2.4045 0.2212,1.4916 0.4509,2.9624 0.9072,4.4111 0.2268,0.7213 0.4129,1.4619 0.6211,2.1955 0.0686,0.2411 0.0945,0.4901 0.1787,0.7284 0.0746,0.2113 0.257,0.4376 0.257,0.6643 0,0.8866 0.2255,1.7807 0.6143,2.5799 0.1247,0.2564 0.2243,0.5438 0.2856,0.8196 0.0883,0.3957 0.3616,0.7758 0.3857,1.1836 0.0062,0.1041 0.1245,0.0997 0.1286,0.1956 0.0065,0.1527 0.0408,0.3218 0.0999,0.4654 0.1159,0.2812 0.0872,0.5677 0.1428,0.87 0.0651,0.3532 0.0144,0.7455 0.0144,1.1063 0,0.1743 -0.0897,2.5037 0.1286,2.4522 m 0.5198,-25.8239 c 0,3.4346 0.1014,6.8587 0.1014,10.3002 0,1.3158 0.4418,2.5947 0.5074,3.9069 0.0294,0.5869 0.1531,1.3031 0.282,1.8831 0.0531,0.2387 0.0865,0.4728 0.1296,0.7104 0.0909,0.4996 0.3276,0.8192 0.4961,1.2684 0.1098,0.2925 0.3374,0.5385 0.4341,0.8287 0.1632,0.4898 0.2427,0.9851 0.3327,1.4884 0.1061,0.5948 0.1522,1.1441 0.1522,1.7477 0,1.0304 0.1078,1.98 -0.5864,2.7512 -0.2795,0.3106 -0.4465,0.7993 -0.8343,1.0148 -0.2939,0.1632 -1.4243,0.5848 -1.5307,0" />
  <path
     style="stroke:#e26e6e;stroke-width:0.439686;stroke-dasharray:1.76, 3.52"
     inkscape:connector-curvature="0"
     id="path6"
     d="M 9.238549,104.41423 V 0.64823696" />
  <defs
     id="defs13">
    <clipPath
       id="clip0_12320_13186">
      <rect
         width="48"
         height="60"
         id="rect10"
         x="0"
         y="0"
         style="fill:#ffffff" />
    </clipPath>
  </defs>
</svg>
