<?xml version="1.0" encoding="UTF-8" standalone="no"?>
<svg
   xmlns:dc="http://purl.org/dc/elements/1.1/"
   xmlns:cc="http://creativecommons.org/ns#"
   xmlns:rdf="http://www.w3.org/1999/02/22-rdf-syntax-ns#"
   xmlns:svg="http://www.w3.org/2000/svg"
   xmlns="http://www.w3.org/2000/svg"
   xmlns:sodipodi="http://sodipodi.sourceforge.net/DTD/sodipodi-0.dtd"
   xmlns:inkscape="http://www.inkscape.org/namespaces/inkscape"
   width="45.424652"
   height="41.659901"
   viewBox="0 0 45.424652 41.659901"
   version="1.1"
   id="svg56"
   sodipodi:docname="inc-front.svg"
   style="fill:none"
   inkscape:version="0.92.5 (2060ec1f9f, 2020-04-08)">
  <metadata
     id="metadata60">
    <rdf:RDF>
      <cc:Work
         rdf:about="">
        <dc:format>image/svg+xml</dc:format>
        <dc:type
           rdf:resource="http://purl.org/dc/dcmitype/StillImage" />
        <dc:title></dc:title>
      </cc:Work>
    </rdf:RDF>
  </metadata>
  <sodipodi:namedview
     pagecolor="#ffffff"
     bordercolor="#666666"
     borderopacity="1"
     objecttolerance="10"
     gridtolerance="10"
     guidetolerance="10"
     inkscape:pageopacity="0"
     inkscape:pageshadow="2"
     inkscape:window-width="640"
     inkscape:window-height="480"
     id="namedview58"
     showgrid="false"
     fit-margin-top="0"
     fit-margin-left="0"
     fit-margin-right="0"
     fit-margin-bottom="0"
     inkscape:zoom="3.9333333"
     inkscape:cx="21.424653"
     inkscape:cy="17.590981"
     inkscape:window-x="0"
     inkscape:window-y="460"
     inkscape:window-maximized="0"
     inkscape:current-layer="svg56" />
  <g
     clip-path="url(#clip0_11473_12266)"
     id="g46"
     transform="translate(-2.5753472,-5.9310801)">
    <path
       d="M 46.3354,5.99902 26.0002,39.999"
       id="path2"
       inkscape:connector-curvature="0"
       style="stroke:#70f6ff;stroke-width:0.26472199;stroke-dasharray:1.06, 2.12" />
    <path
       d="M 64,39.999 H 26.939"
       id="path4"
       inkscape:connector-curvature="0"
       style="stroke:#70f6ff;stroke-width:0.26472199;stroke-dasharray:1.06, 2.12" />
    <path
       d="M 6.96978,18.0752 3.11914,20.3478 18.2652,46.0107"
       id="path6"
       inkscape:connector-curvature="0"
       style="stroke:#70f6ff;stroke-width:0.79416502" />
    <path
       d="M 17.9434,45.4717 C 19.0022,47.06 19.0022,47.06 20.0611,47.06"
       id="path8"
       inkscape:connector-curvature="0"
       style="stroke:#70f6ff;stroke-width:0.79416502" />
    <path
       d="m 19.5317,47.0615 41.8261,0.1324"
       id="path10"
       inkscape:connector-curvature="0"
       style="stroke:#70f6ff;stroke-width:0.79416502" />
    <path
       d="M 21.1201,42.958 H 61.3578"
       id="path12"
       inkscape:connector-curvature="0"
       style="stroke:#70f6ff;stroke-width:0.79416502" />
    <path
       d="M 6.33936,17.9434 21.6791,43.2998"
       id="path14"
       inkscape:connector-curvature="0"
       style="stroke:#70f6ff;stroke-width:0.79416502" />
    <path
       d="M 35.1986,16.6932 C 34.6704,16.3044 33.3773,16.6837 33.0902,17.771"
       id="path16"
       inkscape:connector-curvature="0"
       style="stroke:#70f6ff;stroke-width:0.79416502;stroke-linecap:round;stroke-linejoin:round" />
    <path
       d="m 38.3965,13.8401 c 0.5562,-0.4456 1.8808,-0.1873 2.3925,-0.6454 0.4947,-0.443 0.919,0.0821 1.2696,0.488 0.3064,0.3547 0.8716,0.4619 1.2145,0.8577 0.2032,0.2346 1.6894,0.4131 1.2831,-0.1533 -0.2758,-0.3845 -0.4073,-0.9072 -0.6793,-1.2865 -0.2021,-0.2818 -0.5152,-0.8033 -0.6137,-1.156 -0.2312,-0.828 -1.158,-2.48527 -2.0271,-2.68838 -1.0325,-0.24126 -2.0866,-0.55819 -3.1109,-0.14167 -0.9644,0.3921 -1.4629,1.28605 -1.7884,2.15495 -0.2089,0.5577 -0.1594,1.1609 -0.2099,1.7243 -0.0664,0.7406 -0.2701,1.3075 -0.5191,1.9721"
       id="path18"
       inkscape:connector-curvature="0"
       style="stroke:#70f6ff;stroke-width:0.79416502;stroke-linecap:round;stroke-linejoin:round" />
    <path
       d="m 43.9287,13.8301 c -0.1327,0.6682 -0.3272,1.3959 -0.7288,1.9281 -0.2209,0.2929 -0.7193,0.3594 -0.6172,0.8337 0.0832,0.3862 -0.126,1.1313 -0.4004,1.3511 -0.3395,0.272 -0.4994,0.0981 -0.8234,0.2199 -0.5499,0.2069 -1.0115,0.8305 -1.4777,1.1716 -0.3057,0.2236 -0.9299,-0.3508 -1.3011,-0.0884 -0.4385,0.3101 -2.1324,1.2739 -1.0035,1.7087"
       id="path20"
       inkscape:connector-curvature="0"
       style="stroke:#70f6ff;stroke-width:0.79416502;stroke-linecap:round;stroke-linejoin:round" />
    <path
       d="m 35.4976,15.1592 c 0,0 -0.0661,0.0745 -0.6198,0.699 -0.3615,0.4078 -0.723,0.8156 -1.0845,1.2233"
       id="path22"
       inkscape:connector-curvature="0"
       style="stroke:#70f6ff;stroke-width:0.79416502;stroke-linecap:round;stroke-linejoin:round" />
    <path
       d="m 33.8984,17.4931 c 0.2106,-0.1058 1.9736,-0.9883 2.245,-0.7383 0.4065,0.3744 0.7992,0.8049 1.185,1.2864 0.4627,0.5775 1.6219,2.1884 2.3595,1.5974"
       id="path24"
       inkscape:connector-curvature="0"
       style="stroke:#70f6ff;stroke-width:0.79416502;stroke-linecap:round;stroke-linejoin:round" />
    <path
       d="m 31.2595,17.7216 c 0.2202,-0.0842 2.0626,-0.7861 2.3077,-0.5101 0.367,0.4131 0.7146,0.8808 1.0504,1.3984 0.4026,0.6209 1.3949,2.3397 2.1879,1.8254"
       id="path26"
       inkscape:connector-curvature="0"
       style="stroke:#70f6ff;stroke-width:0.79416502;stroke-linecap:round;stroke-linejoin:round" />
    <path
       d="m 28.5537,23.2639 c 0.1391,0.3158 0.455,0.3824 0.7019,0.5997 0.1748,0.1538 0.3998,0.2835 0.6078,0.4008 0.478,0.2697 1.0141,0.6523 1.3001,1.0933"
       id="path28"
       inkscape:connector-curvature="0"
       style="stroke:#70f6ff;stroke-width:0.79416502;stroke-linecap:round;stroke-linejoin:round" />
    <path
       d="m 34.6938,21.459 c -0.8702,1.2388 -1.6206,2.4612 -2.7566,3.4846 -0.1697,0.1529 -0.3945,0.4368 -0.5113,0.6274 -0.1316,0.2148 -0.3045,0.4101 -0.4262,0.6275 -0.4584,0.8192 -1.1315,1.5028 -1.6024,2.2908 -0.4981,0.8337 -0.5038,1.8216 -0.4456,2.7531 0.0448,0.7181 0.0773,1.4139 0.0532,2.1274 -0.0116,0.3428 -0.0083,0.6795 -0.0032,1.0228 0.0031,0.2151 -0.0753,0.4795 -0.0464,0.6836 0.0449,0.3188 -0.0475,0.6676 -0.0569,0.9926 -0.0091,0.3105 -0.0032,0.6202 -0.0298,0.9296 -0.0618,0.7182 -0.0682,1.4935 -0.0119,2.2052 0.0474,0.5994 0.0618,1.1021 0.3937,1.6141 0.2221,0.3425 0.4442,0.685 0.6664,1.0275 0.3739,0.5766 0.4956,1.2692 0.5299,1.971 0.014,0.2847 -0.1232,0.6227 -0.1878,0.8955 -0.0319,0.1347 -0.1025,0.229 -0.2274,0.31"
       id="path30"
       inkscape:connector-curvature="0"
       style="stroke:#70f6ff;stroke-width:0.79416502;stroke-linecap:round;stroke-linejoin:round" />
    <path
       d="m 25.835,28.8096 c -0.5188,1.0473 -0.5291,1.9678 -0.3833,3.0177 0.0713,0.5129 0.0824,1.0365 0.1443,1.5527 0.0554,0.4626 0.0541,0.9914 0.1981,1.4284 0.068,0.2068 0.0589,0.4307 0.1162,0.6425 0.0695,0.2573 0.1626,0.5075 0.2134,0.7707 0.071,0.3685 0.1245,0.7341 0.2296,1.0954 0.1748,0.6009 0.3207,1.2035 0.398,1.8348 0.0747,0.6111 0.2688,1.1849 0.3312,1.7918 0.0215,0.2091 -0.0308,0.4509 -0.0077,0.675 0.027,0.2627 0.0655,0.4527 0.1893,0.6844 0.1235,0.2316 0.1862,0.4998 0.2958,0.7397 0.1111,0.2431 0.2334,0.4635 0.3853,0.6977 0.1653,0.2549 0.3214,0.4954 0.5298,0.7188 0.1349,0.1446 0.1755,0.1851 0.4443,0.3283 0.2688,0.1433 0.145,0.2236 0.3965,0.2813 0.135,0.0949 0.5337,0.0681 0.6576,-0.0122"
       id="path32"
       inkscape:connector-curvature="0"
       style="stroke:#70f6ff;stroke-width:0.79416502;stroke-linecap:round;stroke-linejoin:round" />
    <path
       d="m 37.522,21.1631 c -0.2601,0.6732 -0.025,1.3406 -0.0362,2.0203 -0.0091,0.5547 -0.0819,1.1077 -0.2267,1.6475 -0.078,0.2908 -0.3893,0.6941 -0.5634,0.9418 -0.19,0.2703 -0.349,0.5586 -0.5247,0.8297 -0.387,0.5971 -0.6174,1.2721 -0.9191,1.9078 -0.2383,0.5024 -0.5578,0.8733 -0.9209,1.2958 -0.3304,0.3846 -0.7272,0.7718 -0.9725,1.2197 -0.357,0.6515 -0.7679,1.0495 -0.6565,1.8185 0.0855,0.5903 -0.2037,1.2927 -0.0583,1.87"
       id="path34"
       inkscape:connector-curvature="0"
       style="stroke:#70f6ff;stroke-width:0.79416502;stroke-linecap:round;stroke-linejoin:round" />
    <path
       d="m 25.1416,33.999 c 0.3178,0.4062 1.3321,6.6867 1.5311,7.1713 0.7544,0.8002 0.6053,0.8908 1.2386,1.0079 0.4334,0.0802 1.4629,0.0253 1.8035,-0.168 -0.2271,0.0866 0.6129,0.0615 0.8868,0.1039 0.3036,0.0469 0.6344,0.0203 0.941,0.0627 0.5436,0.0749 1.0692,0.0829 1.6258,0.0925 0.1444,0.0025 0.289,0.005 0.4334,0.0075 0.2277,0.004 0.4064,-0.0909 0.628,-0.0978 0.252,-0.0079 0.5106,-0.0636 0.7585,-0.0593 0.2016,0.0034 0.4031,0.0069 0.6047,0.0104 0.2829,0.0049 0.4911,0.1172 0.7768,0.1222 0.503,0.0087 1.006,0.0174 1.5091,0.0262 0.3693,0.0064 0.696,-0.0131 1.0582,-0.0541 0.2895,-0.0329 0.506,-0.1664 0.78,-0.224 0.3517,-0.0742 0.609,-0.1594 0.9801,-0.1783 0.4679,-0.0239 0.9327,-0.0221 1.4026,-0.014 1.1175,0.0194 2.2217,0.0022 3.3346,0.0215 0.8511,0.0148 1.6971,0.0431 2.5234,0.1888 1.5584,0.2745 3.1691,0.2361 4.7596,0.2636 1.3236,0.023 2.6472,0.0459 3.9707,0.0689"
       id="path36"
       inkscape:connector-curvature="0"
       style="stroke:#70f6ff;stroke-width:0.79416502;stroke-linecap:round;stroke-linejoin:round" />
    <path
       d="m 31,33.999 c 0.3274,0.2214 0.4745,0.2647 0.8556,0.2647 0.1761,0 0.383,0.1343 0.545,0.2118 0.398,0.1903 0.8653,0.2107 1.2775,0.3706 0.2177,0.0844 0.5221,0.2033 0.75,0.2118 0.2931,0.0108 0.5349,0.1312 0.8176,0.1559 0.6339,0.0553 1.2932,0.0029 1.928,0.0029 0.4503,0 0.9005,0 1.3507,0 0.54,0 1.0855,0.1166 1.6233,0.1706 0.7598,0.0763 1.4701,0.324 2.2328,0.3588 0.1374,0.0063 0.2396,0.1005 0.3809,0.1059 0.0949,0.0037 0.226,-0.0264 0.3164,0.0117 0.1474,0.0624 0.3115,0.0412 0.4717,0.0412 0.3966,0 0.7931,0 1.1897,0 0.434,0 0.8268,0.009 1.2511,0.0942 0.5618,0.1127 1.1094,0.2873 1.6761,0.4117 0.3093,0.0679 0.61,0.2883 0.9229,0.2883 0.299,0 0.5938,0.1484 0.8879,0.2 0.3589,0.0629 0.6941,0.2146 1.0459,0.3029 0.2899,0.0728 0.5951,-0.0038 0.8879,0.0677 0.5291,0.1292 1.1026,0.1219 1.6261,0.3058 0.2736,0.0962 0.5586,0.1837 0.841,0.2647 0.2335,0.0671 0.4712,0.1676 0.709,0.2118 0.3704,0.0691 0.755,-0.004 1.1282,0.053 0.9151,0.1397 1.8868,0.1294 2.8158,0.1294"
       id="path38"
       inkscape:connector-curvature="0"
       style="stroke:#70f6ff;stroke-width:0.79416502;stroke-linecap:round;stroke-linejoin:round" />
    <path
       d="m 33.1211,35.0303 c 0.6638,0.1821 1.3716,0.4321 2.08,0.4336 0.2722,5e-4 0.5444,0.0011 0.8165,0.0017 0.2666,5e-4 0.533,0.0011 0.7995,0.0016 0.2746,6e-4 0.5376,0.087 0.8135,0.0876 0.1913,4e-4 0.358,0.0866 0.5639,0.087 0.2591,6e-4 0.5079,0.0329 0.7654,0.0445 0.292,0.0132 0.5587,0.1299 0.8644,0.1306 0.1795,3e-4 0.2791,0.0864 0.4677,0.0868 0.6366,0.0013 1.2743,-0.0069 1.9107,0.004 0.543,0.0093 1.0587,0.1309 1.6073,0.1321 0.9037,0.0019 1.8165,0.0467 2.713,0.0486 0.5075,0.0011 1.0182,0.2596 1.5219,0.2607 0.1558,3e-4 0.2824,0.0177 0.4336,0.0534 0.2503,0.059 0.5056,0.084 0.7538,0.1542 0.5061,0.143 1.0162,0.259 1.5445,0.3156 0.2608,0.028 0.5619,0.1231 0.8189,0.1806 0.3532,0.0789 0.7174,0.0917 1.0656,0.1738 0.589,0.139 1.1829,0.2345 1.7883,0.3377 0.5864,0.0999 1.2905,0.0252 1.8337,0.2423 0.2075,0.0829 0.4505,0.1092 0.6659,0.173 0.2246,0.0668 0.3928,0.1488 0.6347,0.1493 0.3246,6e-4 0.6127,0.13 0.9438,0.1307"
       id="path40"
       inkscape:connector-curvature="0"
       style="stroke:#70f6ff;stroke-width:0.79416502;stroke-linecap:round;stroke-linejoin:round" />
    <g
       clip-path="url(#clip1_11473_12266)"
       id="g44">
      <path
         d="m 33.0362,17.2486 c -2.0981,0.3623 -3.8617,1.2354 -4.2336,2.6146 -0.2543,0.9431 -0.2929,2.0783 -1.0371,2.846 -0.9604,0.9907 -1.5419,1.8102 -1.8732,3.0387 -0.2589,0.9603 -0.8287,2.0037 -0.7693,3.0346 0.0297,0.5153 0.259,0.999 0.376,1.5135 0.0966,0.4252 -0.1974,0.9139 -0.3024,1.303 -0.0984,0.365 -0.2626,0.7325 -0.2883,1.115 -0.0398,0.5879 0.2621,1.2911 0.1503,1.8501 -0.1768,0.8845 0.7728,2.0414 0.5305,2.9398 -0.1352,0.5015 0.5302,1.1704 0.4261,1.6914 -0.0983,0.4916 -0.0395,0.9637 -0.1719,1.4548 -0.5031,1.8654 -0.8088,3.8169 -1.3194,5.7105 -0.1275,0.4728 -0.255,0.9456 -0.3825,1.4185 -0.115,0.4263 -0.2061,0.8556 -0.4457,1.2439 -0.2836,0.4594 -0.9097,0.8516 -1.1245,1.3075 -0.1832,0.3889 -0.7545,0.6356 -0.9269,0.9838 -0.2478,0.5007 -0.7035,1.0057 -1.1539,1.4163 -0.7643,0.6968 -1.2835,1.8977 -1.5259,2.7964 -0.1344,0.4984 -0.2688,0.9968 -0.4032,1.4952 -0.0953,0.3534 -0.618,1.1815 -0.288,1.5674 0.3164,0.37 4.3064,0.4564 4.852,0.4997 1.4008,0.1109 3.9124,1.1589 5.0056,0.8837"
         id="path42"
         inkscape:connector-curvature="0"
         style="stroke:#70f6ff;stroke-width:0.79000002;stroke-linecap:round;stroke-linejoin:round" />
    </g>
  </g>
  <defs
     id="defs54">
    <clipPath
       id="clip0_11473_12266">
      <rect
         width="48"
         height="60"
         id="rect48"
         x="0"
         y="0"
         style="fill:#ffffff" />
    </clipPath>
    <clipPath
       id="clip1_11473_12266">
      <rect
         width="42.204102"
         height="28"
         transform="translate(7,6)"
         id="rect51"
         x="0"
         y="0"
         style="fill:#ffffff" />
    </clipPath>
  </defs>
</svg>
