<?xml version="1.0" encoding="UTF-8" standalone="no"?>
<svg
   xmlns:dc="http://purl.org/dc/elements/1.1/"
   xmlns:cc="http://creativecommons.org/ns#"
   xmlns:rdf="http://www.w3.org/1999/02/22-rdf-syntax-ns#"
   xmlns:svg="http://www.w3.org/2000/svg"
   xmlns="http://www.w3.org/2000/svg"
   xmlns:sodipodi="http://sodipodi.sourceforge.net/DTD/sodipodi-0.dtd"
   xmlns:inkscape="http://www.inkscape.org/namespaces/inkscape"
   width="53.438358"
   height="12.56352"
   viewBox="0 0 53.438358 12.56352"
   version="1.1"
   id="svg31"
   sodipodi:docname="lie-down.svg"
   style="fill:none"
   inkscape:version="0.92.5 (2060ec1f9f, 2020-04-08)">
  <metadata
     id="metadata35">
    <rdf:RDF>
      <cc:Work
         rdf:about="">
        <dc:format>image/svg+xml</dc:format>
        <dc:type
           rdf:resource="http://purl.org/dc/dcmitype/StillImage" />
        <dc:title></dc:title>
      </cc:Work>
    </rdf:RDF>
  </metadata>
  <sodipodi:namedview
     pagecolor="#ffffff"
     bordercolor="#666666"
     borderopacity="1"
     objecttolerance="10"
     gridtolerance="10"
     guidetolerance="10"
     inkscape:pageopacity="0"
     inkscape:pageshadow="2"
     inkscape:window-width="640"
     inkscape:window-height="480"
     id="namedview33"
     showgrid="false"
     fit-margin-top="0"
     fit-margin-left="0"
     fit-margin-right="0"
     fit-margin-bottom="0"
     inkscape:zoom="4.9166667"
     inkscape:cx="27.36886"
     inkscape:cy="8.1886"
     inkscape:window-x="0"
     inkscape:window-y="460"
     inkscape:window-maximized="0"
     inkscape:current-layer="svg31" />
  <g
     clip-path="url(#clip0_94_422)"
     id="g8"
     transform="translate(-2.6311404,-19.625079)">
    <path
       d="m 18,28.5557 h 37.4172 v 3.2579 H 3.08057 V 28.5557 H 6"
       id="path2"
       inkscape:connector-curvature="0"
       style="stroke:#70f6ff;stroke-width:0.75" />
    <path
       d="M 6,28.5 H 18"
       id="path4"
       inkscape:connector-curvature="0"
       style="stroke:#70f6ff;stroke-width:0.75" />
    <path
       d="m 2.6665,25.543 h 53.403"
       id="path6"
       inkscape:connector-curvature="0"
       style="stroke:#70f6ff;stroke-width:0.75;stroke-dasharray:1, 2" />
  </g>
  <path
     d="m 42.16786,3.6063206 c -0.064,0.5657 0.3136,0.904 1.0072,1.5108"
     id="path10"
     inkscape:connector-curvature="0"
     style="stroke:#70f6ff;stroke-width:0.75" />
  <path
     d="m 2.0232696,7.6257206 c 0,0 -0.25179,-0.6295 -0.3777,-1.0072 -0.12591,-0.3777 1e-5,-0.6295 0.3777,-1.1331 0.37769,-0.5036 0.9092,-0.2736 1.0072,-0.7554 0.0294,-0.1446 0.0885,-0.2597 0,-0.3777 -0.118,-0.1574 -0.33387,0.0993 -0.5036,0 -0.3314,-0.194 0.25358,-0.6771 0.6295,-0.7554 0.30441,-0.0635 0.61633,-0.0264 0.7554,0.2518 0.08795,0.1759 -0.18154,0.4279 0,0.5036 0.16364,0.0681 0.20179,-0.2299 0.3777,-0.2518 0.21818,-0.0273 0.28372,0.2518 0.5036,0.2518 0.21988,0 0.30336,-0.161 0.5036,-0.2518 0.24111,-0.1094 0.75539,-0.2519 0.6295,-0.2518"
     id="path12"
     inkscape:connector-curvature="0"
     style="stroke:#70f6ff;stroke-width:0.75" />
  <path
     d="m 2.2750396,7.7485206 c -0.44251,-0.0492 -0.75389,0.1074 -1.1331,-0.1259 -0.39507,-0.243 -0.48146,-0.5676 -0.6295,-1.0072 -0.20401,-0.6057 -0.17844,-1.0229 0,-1.6367 0.17897,-0.6156 0.40695,-0.9537 0.8813,-1.3849 0.48809,-0.4437 0.86957,-0.6006 1.5108,-0.7554 0.66912,-0.1615 1.7626,0 1.7626,0 0,0 0.72525,0.8973 1.3849,1.0072 0.24249,0.0404 0.42495,0.1364 0.6295,0 0.18295,-0.122 0.11444,-0.3319 0.2518,-0.5036 0.27471,-0.3434 0.67552,-0.2149 1.00722,-0.5036 0.2374,-0.2067 0.3035,-0.3864 0.5036,-0.6295 0.288,-0.35 0.3919,-0.6104 0.7554,-0.8813 0.4246,-0.3164 0.5918,-0.42479996 1.1154004,-0.50359996 0.3403,-0.0512 0.695,0.0983 1.0249,0 0.3398,-0.1012 0.2588,-0.0778 0.6118,-0.1108 1.5108,-0.141 1.7892,0.0091 3.0216,0.36269996 0.9936,0.2851 1.5079,0.3784 2.5357,0.4885 0.5887,0.063 1.175,0.3507 1.7626,0.015 0.5875,-0.3357 1.8885,-1.00719996 1.8885,-1.00719996 0,0 1.259,-0.6873 3.1475,0.50369996 1.8885,1.191 0.7554,0.5035 0.7554,0.5035 0,0 0.1678,-0.042 0.1259,0 -0.042,0.042 0.2518,0 0.2518,0 l 0.8813,-0.1259 c 0.0724,-0.172 5.036,1.259 5.036,1.259 0,0 2.6477,-0.4336 4.4065,-0.3777 1.7759,0.0564 2.6363,0.9795 4.4065,1.1331 0.9306,0.0808 2.3921,0 2.3921,0 0,0 0.2518,-1.0071 0.5036,-1.0072 0.2517,-1e-4 5.1619,2.2663 5.2878,2.3921 0.1258,0.1258 -0.1878,0.2914 -0.3777,0.3777 -0.3825,0.1738 -1.0072,-0.3777 -1.0072,-0.3777 0,0 -0.9218,-0.0344 -1.5108,0 -1.1459,0.067 -2.518,0.6296 -2.8957,0.5036 -0.3778,-0.126 -0.8965,-0.4066 -1.5108,-0.5036 -0.5828,-0.092 -1.5108,0 -1.5108,0 0,0 -1.6023,-0.3243 -2.6439,-0.3777 -0.5893,-0.0302 -0.9599,-0.211 -1.5108,0 -0.2678,0.1025 -0.3431,0.3647 -0.6295,0.3777 -0.7697,0.035 -2.1403,0 -2.1403,0 0,0 -1.0634,-0.4167 -1.7626,-0.6295 -1.4391,-0.438 -2.3263,-0.3579 -3.777,-0.7554 -0.645,-0.1767 -0.9976,-0.3069 -1.6367,-0.5036"
     id="path14"
     inkscape:connector-curvature="0"
     style="stroke:#70f6ff;stroke-width:0.75" />
  <path
     d="m 20.51286,0.71472064 c 0,0 1.0072,0.88129996 0.8813,2.89569996 -0.1259,2.0144 -0.7377,3.5115 -0.7377,3.5115"
     id="path16"
     inkscape:connector-curvature="0"
     style="stroke:#70f6ff;stroke-width:0.75" />
  <path
     d="m 39.28966,4.8524206 c 1.9666,0.4917 4.9101,1.1331 5.036,1.259 0.1259,0.1259 0.587,-0.7546 1.1331,-0.8813 0.5924,-0.1373 0.9084,0.2939 1.5108,0.3777 0.7791,0.1084 1.3005,-0.3304 2.0144,0 0.8663,0.4011 1.3849,2.0144 1.3849,2.0144 l -0.2518,0.2518 c 0,0 -1.3163,0.2741 -2.1403,0.1259 -0.3523,-0.0633 -0.5297,-0.185 -0.8813,-0.2518 -1.0671,-0.2026 -1.6838,0.2368 -2.7698,0.2518 -1.282,0.0178 -1.9945,-0.1617 -3.2734,-0.2518 0,0 -2.4528,-0.2164 -4.0288,-0.2518 -0.8848,-0.0198 -1.3822,-0.0416 -2.2662,0 0,0 -1.5345,0.1558 -2.518,0.2518 0,0 -1.5108,0.084 -2.6439,0.2518 -1.1331,0.1679 -3.6511,0.5036 -3.6511,0.5036 -0.2015,0 -2.1403,-0.1259 -2.1403,-0.1259"
     id="path18"
     inkscape:connector-curvature="0"
     style="stroke:#70f6ff;stroke-width:0.75" />
  <path
     d="m 2.2751096,7.7487206 c 0.295,0.0491 0.45802,0.0941 0.7554,0.1259 0.53778,0.0574 1.3849,0 1.3849,0 0,0 1.14657,-0.2362 1.7626,-0.6295 0.20719,-0.1324 0.5036,-0.3777 0.5036,-0.3777 v -0.5036 c 0,0 -0.01653,-0.2312 0,-0.3777 0.07163,-0.6352 0.20904,1.0294 0.6295,1.5108 0.53535,0.6129 1.07935,0.7941 1.88845,0.8813 0.643,0.0692 0.9902004,-0.2388 1.6367004,-0.2518 0.7439,-0.015 1.8885,0.2518 1.8885,0.2518 0,0 2.596,0.6078 4.2806,0.8813 1.6133,0.2619 2.5249,0.3815 4.1547,0.5036 1.1778,0.0882 1.8951,-0.2286 3.0216,0.1259 0.7974,0.2508004 1.1444,0.6266004 1.8885,1.0072004 0.3916,0.2002 0.5705,0.4524 1.0072,0.5036 0.5099,0.0597 0.8813,0 1.2742,-0.1259 0.1405,-0.0451 -0.0152,0.1259 -0.0152,0.1259 0,0 0.6595,-0.1623 0.7554,-0.5036 0.04,-0.142 0.0759,-0.2513 0,-0.3777 -0.1043,-0.1739 -0.5036,-0.1259 -0.5036,-0.1259 0,0 -0.6296,-0.0051 -1.0072,-0.1259 -0.3141,-0.1006 -0.6798,-0.0567 -0.7554,-0.3777004 -0.0225,-0.0958 -0.0439,-0.1639 0,-0.2518 0.088,-0.1759 0.428,0.1815 0.5036,0 0.0682,-0.1637 -0.1222,-0.2567 -0.2518,-0.3777 -0.1606,-0.1502 -0.3048,-0.1578 -0.5036,-0.2518 -0.3384,-0.1602 -0.5251,-0.2621 -0.8813,-0.3777 -0.7076,-0.2298 -1.1618,-0.0921 -1.8885,-0.2518 -1.2308,-0.2707 -1.8563,-0.6532 -3.0216,-1.1331 -0.7939,-0.327 -1.1917,-0.6352 -2.0144,-0.8813 -0.906,-0.2711 -1.4608,-0.2128 -2.3921,-0.3777 -1.4337,-0.2539 -2.2202,-0.4859 -3.6511,-0.7554 -1.1279,-0.2126 -1.8612,-0.0062 -2.8957004,-0.5036 -0.418,-0.2011 -0.6433,-0.3419 -1.0072,-0.6295"
     id="path20"
     inkscape:connector-curvature="0"
     style="stroke:#70f6ff;stroke-width:0.75" />
  <path
     d="m 6.8073396,5.6084206 c 0.34417,-0.59 0.53713,-0.9208 0.88132,-1.5108"
     id="path22"
     inkscape:connector-curvature="0"
     style="stroke:#70f6ff;stroke-width:0.75" />
  <path
     d="m 44.18206,6.1259206 c -0.1201,0.7289 0.0317,1.14 0.5036,1.8885"
     id="path24"
     inkscape:connector-curvature="0"
     style="stroke:#70f6ff;stroke-width:0.75" />
  <defs
     id="defs29">
    <clipPath
       id="clip0_94_422">
      <rect
         width="48"
         height="60"
         transform="rotate(90,30,30)"
         id="rect26"
         x="0"
         y="0"
         style="fill:#ffffff" />
    </clipPath>
  </defs>
</svg>
