<?xml version="1.0" encoding="UTF-8" standalone="no"?>
<svg
   xmlns:dc="http://purl.org/dc/elements/1.1/"
   xmlns:cc="http://creativecommons.org/ns#"
   xmlns:rdf="http://www.w3.org/1999/02/22-rdf-syntax-ns#"
   xmlns:svg="http://www.w3.org/2000/svg"
   xmlns="http://www.w3.org/2000/svg"
   xmlns:sodipodi="http://sodipodi.sourceforge.net/DTD/sodipodi-0.dtd"
   xmlns:inkscape="http://www.inkscape.org/namespaces/inkscape"
   width="53.086632"
   height="13.4886"
   viewBox="0 0 53.086632 13.4886"
   version="1.1"
   id="svg13"
   sodipodi:docname="lie-right.svg"
   style="fill:none"
   inkscape:version="0.92.5 (2060ec1f9f, 2020-04-08)">
  <metadata
     id="metadata17">
    <rdf:RDF>
      <cc:Work
         rdf:about="">
        <dc:format>image/svg+xml</dc:format>
        <dc:type
           rdf:resource="http://purl.org/dc/dcmitype/StillImage" />
        <dc:title></dc:title>
      </cc:Work>
    </rdf:RDF>
  </metadata>
  <sodipodi:namedview
     pagecolor="#ffffff"
     bordercolor="#666666"
     borderopacity="1"
     objecttolerance="10"
     gridtolerance="10"
     guidetolerance="10"
     inkscape:pageopacity="0"
     inkscape:pageshadow="2"
     inkscape:window-width="640"
     inkscape:window-height="480"
     id="namedview15"
     showgrid="false"
     fit-margin-top="0"
     fit-margin-left="0"
     fit-margin-right="0"
     fit-margin-bottom="0"
     inkscape:zoom="4.9166667"
     inkscape:cx="27.29443"
     inkscape:cy="8.1886"
     inkscape:window-x="0"
     inkscape:window-y="460"
     inkscape:window-maximized="0"
     inkscape:current-layer="svg13" />
  <g
     clip-path="url(#clip0_10592_10904)"
     id="g6"
     transform="translate(-2.70557,-18.7)">
    <path
       d="m 18,28.5557 h 37.4172 v 3.2579 H 3.08057 V 28.5557 H 6"
       id="path2"
       inkscape:connector-curvature="0"
       style="stroke:#70f6ff;stroke-width:0.75" />
    <path
       d="m 7.91063,25.1787 c 0.10652,0.1269 0.29575,0.1435 0.42265,0.0369 0.12691,-0.1065 0.14343,-0.2957 0.03691,-0.4226 z M 7.84135,24.6296 h -0.3 c 0,0.0705 0.02486,0.1388 0.07021,0.1928 z m 0,-0.9977 -0.27488,-0.1202 C 7.5499,23.5496 7.54135,23.5905 7.54135,23.6319 Z M 8.21518,22.7768 8.05429,22.5236 C 8.0039,22.5556 7.96421,22.6019 7.9403,22.6566 Z M 8.88807,22.3492 8.78983,22.0658 C 8.76785,22.0734 8.74682,22.0835 8.72718,22.096 Z M 9.7105,22.0642 9.80134,21.7783 C 9.7397,21.7587 9.67337,21.7595 9.61226,21.7807 Z m 0.4486,0.1425 -0.0908,0.2859 c 0.0808,0.0257 0.1687,0.016 0.242,-0.0268 0.0732,-0.0427 0.125,-0.1145 0.1424,-0.1975 z m 0.0748,-0.3563 v -0.3 c -0.142,0 -0.26449,0.0995 -0.29364,0.2384 z m 0.7476,0 0.0405,-0.2973 c -0.0134,-0.0018 -0.0269,-0.0027 -0.0405,-0.0027 z m 0.5234,0.0713 0.2358,-0.1856 C 11.6925,21.675 11.6225,21.6349 11.5454,21.6244 Z m -0.0757,0.4988 c 0,0.1657 0.1343,0.3 0.3,0.3 0.1657,0 0.3,-0.1343 0.3,-0.3 z m 1.4963,0.0712 -0.0696,0.2919 c 0.0144,0.0034 0.029,0.0058 0.0437,0.007 z m 0.8224,0.0713 -0.0259,0.2989 c 0.0086,7e-4 0.0172,0.0011 0.0259,0.0011 z m 1.271,-0.9264 0.2612,0.1476 c 0.0052,-0.0093 0.01,-0.0188 0.0142,-0.0286 z m 0.5234,-1.2114 -0.2231,-0.2006 c -0.0217,0.0242 -0.0394,0.0518 -0.0523,0.0816 z m 0.4486,-0.4988 0.2231,0.2006 0.0027,-0.0032 z m 0.3738,-0.4276 -0.0788,-0.2894 c -0.057,0.0155 -0.1082,0.0475 -0.147,0.092 z m 1.0467,-0.285 -0.0527,-0.2953 C 17.3499,18.92 17.3412,18.922 17.3326,18.9243 Z M 18.6077,19 v -0.3 c -0.0177,0 -0.0354,0.0016 -0.0528,0.0047 z m 3.8131,0 0.117,-0.2762 C 22.5008,18.7081 22.461,18.7 22.4208,18.7 Z m 0.6729,0.285 0.2803,-0.1069 c -0.0291,-0.0763 -0.0881,-0.1374 -0.1633,-0.1693 z m 0.299,0.7839 0.299,-0.0251 C 23.6893,20.0158 23.6831,19.9882 23.673,19.962 Z m 0.1496,1.7815 -0.299,0.0251 c 0.0011,0.0123 0.0028,0.0245 0.0054,0.0365 z m 0.1495,0.7126 -0.2936,0.0616 c 0.0049,0.0234 0.0126,0.046 0.0228,0.0675 z m 0.3738,0.7839 0.2862,-0.0901 c -0.0042,-0.0134 -0.0094,-0.0264 -0.0154,-0.0391 z m 0.2243,0.7126 0.2936,-0.0617 c -0.002,-0.0096 -0.0045,-0.0191 -0.0074,-0.0284 z m 0.2096,0.9976 0.2651,0.1406 c 0.0329,-0.062 0.043,-0.1336 0.0285,-0.2023 z m -0.5,0.9429 0.2001,0.2236 C 24.226,26.2 24.248,26.1719 24.2646,26.1405 Z m -0.3077,0.2753 0.0489,0.296 c 0.0562,-0.0093 0.1086,-0.0344 0.1511,-0.0724 z m -0.8224,0.1358 -0.2975,0.039 c 0.0106,0.0806 0.0534,0.1534 0.1187,0.2019 0.0653,0.0484 0.1474,0.0683 0.2276,0.055 z m -0.1496,-1.1402 0.2975,-0.039 c -0.0027,-0.0205 -0.0075,-0.0406 -0.0143,-0.06 z m -0.1495,-0.4276 -0.2902,0.0761 c 0.0021,0.0078 0.0044,0.0154 0.007,0.023 z m -0.1495,-0.57 0.2902,-0.0762 c -0.0356,-0.1356 -0.1603,-0.2284 -0.3004,-0.2237 -0.1401,0.0048 -0.2582,0.1059 -0.2845,0.2436 z m -0.1496,0.7838 0.1609,0.2532 c 0.0699,-0.0444 0.1183,-0.1157 0.1338,-0.197 z m -0.2243,0.1425 -0.2966,0.0445 c 0.015,0.1004 0.0798,0.1863 0.1721,0.2285 0.0924,0.0421 0.1998,0.0347 0.2854,-0.0198 z m -0.0747,-0.4988 -0.2989,-0.0261 c -0.002,0.0235 -0.0013,0.0472 0.0022,0.0706 z m 0.0747,-0.8551 -0.2736,-0.123 c -0.0138,0.0306 -0.0223,0.0634 -0.0252,0.0969 z m 0.2243,-0.4988 -0.2656,-0.1394 c -0.0028,0.0054 -0.0055,0.0108 -0.008,0.0163 z m 0.2991,-0.5701 0.2657,0.1394 c 0.0323,-0.0618 0.0422,-0.1328 0.0279,-0.201 z m -0.1495,-0.7126 0.2936,-0.0616 c -0.0049,-0.0234 -0.0126,-0.046 -0.0228,-0.0676 z m -0.3739,-0.7839 -0.2719,0.1268 0.0012,0.0024 z m -0.299,-0.6413 -0.2902,0.0761 c 0.0046,0.0174 0.0107,0.0344 0.0183,0.0507 z m 0.1406,-0.6462 c -0.042,-0.1603 -0.206,-0.2561 -0.3663,-0.2141 -0.1602,0.0421 -0.2561,0.2061 -0.214,0.3663 z m -7.9449,4.9774 c -0.1268,0.1067 -0.143,0.296 -0.0362,0.4227 0.1067,0.1267 0.296,0.1429 0.4227,0.0362 z M 19.318,19 v -0.3 z m 0.2187,1.3742 c -0.1463,0.0778 -0.2017,0.2595 -0.1238,0.4058 0.0778,0.1462 0.2595,0.2017 0.4057,0.1238 z m -1.9824,6.5213 c -0.1656,0.0034 -0.2971,0.1405 -0.2937,0.3061 0.0034,0.1657 0.1405,0.2972 0.3062,0.2937 z m 6.8847,0.1574 0.0063,0.2999 0.0205,-4e-4 0.0203,-0.0032 z m 0.8972,-0.1425 0.0641,-0.2931 -0.0553,-0.0121 -0.0558,0.0089 z m 3.5888,0.7838 -0.064,0.2933 0.0109,0.002 z m 3.9626,0.7126 0.0609,-0.2938 -0.0078,-0.0014 z m 1.7197,0.3563 -0.0609,0.2938 0.0301,0.0062 h 0.0308 z m 2.4673,0 v 0.3 h 0.0102 l 0.0101,-7e-4 z m 5.2336,-0.3563 0.0204,0.2996 0.0122,-0.0014 z m 4.5607,-0.4988 -0.0219,-0.2994 -0.0107,0.0012 z m 2.9907,-0.1425 0.0825,-0.2885 -0.0405,-0.0115 h -0.042 z m 0.7477,0.2138 -0.0825,0.2884 0.01,0.0029 0.0103,0.0021 z m 0.6728,0.1425 -0.0621,0.2935 0.0633,0.0134 0.0633,-0.0139 z m 0.972,-0.2138 0.0645,0.293 0.0714,-0.0157 0.0563,-0.0469 z m 0.5981,-0.4988 0.1922,0.2304 0.0562,-0.0469 0.0283,-0.0674 z m 0.1496,-0.3563 0.2766,0.1161 0.0927,-0.2209 -0.1949,-0.1393 z m -0.5982,-0.4276 0.1745,-0.244 -0.0604,-0.0432 -0.0736,-0.01 z m -0.5233,-0.0712 0.0405,-0.2973 -0.0202,-0.0027 h -0.0203 z m -0.5982,0 -0.1744,0.244 0.0782,0.056 h 0.0962 z m -0.299,-0.2138 0.1744,-0.2441 -0.1564,-0.1118 -0.1669,0.0954 z m -0.3738,0.2138 v 0.3 h 0.0797 l 0.0692,-0.0396 z m -1.1963,0 -0.0204,0.2993 0.0102,7e-4 h 0.0102 z m -2.0935,-0.1426 0.0204,-0.2993 -0.0102,-7e-4 h -0.0102 z m -1.4205,0 v -0.3 h -0.0204 l -0.0201,0.0028 z m -1.0468,0.1426 v 0.3 h 0.0204 l 0.0201,-0.0028 z m -1.1962,0 -0.0512,0.2955 0.0254,0.0045 h 0.0258 z m -0.8224,-0.1426 0.0512,-0.2956 -0.0098,-0.0017 -0.0098,-0.001 z m -0.6729,-0.0712 -0.0789,0.2894 0.0233,0.0064 0.024,0.0025 z m -0.5234,-0.1425 0.0788,-0.2895 -0.0136,-0.0037 -0.014,-0.0024 z m -1.6449,-0.2851 0.0513,-0.2956 -0.0189,-0.0033 -0.0192,-8e-4 z m -4.8598,-0.2138 -0.0237,0.2993 0.0105,4e-4 z m -2.6916,-0.2137 -0.0585,0.2942 0.0173,0.0034 0.0175,0.0014 z M 30,25 30.0585,24.7058 30.0295,24.7 H 30 Z m -2,-0.3 c -0.1657,0 -0.3,0.1343 -0.3,0.3 0,0.1657 0.1343,0.3 0.3,0.3 z m -9.573,-3.991 c -0.1607,0.0401 -0.2584,0.203 -0.2183,0.3638 0.0402,0.1607 0.2031,0.2584 0.3638,0.2182 z M 20.5,20.5 v -0.3 h -0.0369 l -0.0359,0.009 z m 1,0.3 c 0.1657,0 0.3,-0.1343 0.3,-0.3 0,-0.1657 -0.1343,-0.3 -0.3,-0.3 z M 8.31581,24.8209 C 8.22496,24.6823 8.03898,24.6437 7.90043,24.7345 7.76188,24.8254 7.72321,25.0114 7.81407,25.1499 Z m 0.12296,0.7346 -0.25087,0.1645 0.06014,0.0917 0.1051,0.0313 z m 1.19626,0.3563 -0.08563,0.2875 0.04191,0.0125 h 0.04372 z m 1.79437,0 v 0.3 h 0.0168 l 0.0167,-0.0019 z m 1.2711,-0.1425 0.0334,0.2981 0.0566,-0.0064 0.0503,-0.0266 z m 0.6728,-0.3563 0.1404,0.2651 0.0821,-0.0435 0.0432,-0.0823 z m 0.2243,-0.4276 0.2657,0.1394 0.0103,-0.0195 0.0072,-0.0209 z m 0.1496,-0.4276 0.2832,0.0991 0.038,-0.1088 -0.0446,-0.1064 z m -0.1496,-0.3563 0.2767,-0.1161 -0.0071,-0.0169 -0.0092,-0.016 z m -0.4486,-0.7838 0.2604,-0.149 -0.0368,-0.0644 -0.0627,-0.0398 z m -0.8971,-0.5701 0.1608,-0.2532 -0.0329,-0.0209 -0.0371,-0.0118 z m -0.3578,-0.4284 c -0.1579,-0.0502 -0.3266,0.0371 -0.3768,0.195 -0.0501,0.158 0.0372,0.3266 0.1951,0.3768 z M 8.35076,25.4846 C 8.46852,25.368 8.4695,25.1781 8.35295,25.0603 8.23639,24.9426 8.04645,24.9416 7.92869,25.0581 Z m -2.15496,1.7108 -0.21104,-0.2132 -0.25292,0.2503 0.2895,0.207 z m 0.8972,0.6413 -0.17446,0.2441 0.08823,0.0631 0.10816,-0.008 z m 6.8037,-0.4988 0.022,0.2992 0.278,-0.0204 v -0.2788 z m 0,-1.2114 -0.2889,-0.0808 -0.0111,0.0396 v 0.0412 z m 0.2991,-1.0689 0.2889,0.0808 0.0928,-0.3316 -0.3412,-0.0465 z m -0.4829,-0.3685 c -0.1642,-0.0224 -0.3154,0.0926 -0.3377,0.2568 -0.0224,0.1641 0.0926,0.3153 0.2568,0.3377 z M 6.1781,28.0417 C 6.01534,28.0106 5.85825,28.1174 5.82723,28.2802 5.79621,28.4429 5.90299,28.6 6.06575,28.6311 Z m 0.31766,0.3659 -0.05618,0.2947 0.09653,0.0184 0.08871,-0.0423 z M 7.24342,28.0513 7.2163,27.7526 7.16283,27.7574 7.11436,27.7805 Z m 1.57009,-0.1425 0.02713,0.2989 0.00836,-10e-4 z m 2.99069,-0.3563 -0.0347,-0.298 -8e-4,10e-5 z m 3.0654,-0.3563 0.0346,0.2981 0.0078,-0.0011 z m 1.4953,-0.2138 0.0645,-0.293 -0.0531,-0.0116 -0.0538,0.0076 z m 0.972,0.2138 0.1404,-0.2651 -0.0361,-0.0191 -0.0399,-0.0088 z m 0.6729,0.3563 0.2979,-0.0347 -0.0182,-0.1566 -0.1393,-0.0738 z m 0.0747,0.6413 0.2736,0.1231 0.034,-0.0755 -0.0096,-0.0823 z m -0.2243,0.4989 0.0191,0.2994 0.1804,-0.0115 0.0741,-0.1649 z m -1.1215,0.0712 v 0.3 h 0.0096 l 0.0095,-6e-4 z m -2.8411,0 v -0.3 l -0.0062,10e-5 z m -3.4392,0.0713 v 0.3001 l 0.0062,-2e-4 z m -1.64489,0 v -0.3 H 8.74019 L 8.67513,28.569 Z m -0.82243,0.4275 0.09084,0.286 0.02462,-0.0079 0.02292,-0.0119 z m -1.34579,0.4276 0.03549,0.2979 0.02824,-0.0034 0.0271,-0.0086 z m -0.59813,0.0713 -0.02847,0.2986 0.03202,0.0031 0.03194,-0.0038 z m -0.74767,-0.0713 -0.23576,0.1855 0.07943,0.101 0.12787,0.0122 z M 5.0752,29.4053 v -0.3 H 4.45738 l 0.38206,0.4855 z m 1.04672,0.3 c 0.16569,0 0.3,-0.1343 0.3,-0.3 0,-0.1657 -0.13431,-0.3 -0.3,-0.3 z M 4.7,29.3329 c 0,0.1657 0.13431,0.3 0.3,0.3 0.16569,0 0.3,-0.1343 0.3,-0.3 z M 5,28.9766 5.01784,28.6771 4.7,28.6582 v 0.3184 z m 1.17842,0.3707 C 6.34381,29.3571 6.48588,29.2311 6.49573,29.0657 6.50558,28.9003 6.37949,28.7582 6.2141,28.7484 Z M 4.78159,28.7729 c -0.03403,0.1622 0.06984,0.3212 0.232,0.3552 0.16215,0.0341 0.32118,-0.0698 0.35521,-0.232 z M 5.22473,28.1219 5.03814,27.887 4.95336,27.9544 4.93112,28.0603 Z m 0.4486,-0.3563 h 0.3 v -0.6214 l -0.48659,0.3865 z m 0,0.2851 0.27662,0.1161 0.02338,-0.0557 V 28.0507 Z M 5.52379,28.407 5.24717,28.2909 5.22379,28.3466 v 0.0604 z m 0,0.285 h -0.3 v 0.2482 l 0.24383,0.0465 z m 0.69149,0.4372 C 6.37804,29.1602 6.53513,29.0535 6.56615,28.8907 6.59717,28.7279 6.49039,28.5709 6.32763,28.5398 Z M 5.6185,27.5651 c -0.14957,0.0712 -0.21304,0.2503 -0.14176,0.3998 0.07128,0.1496 0.25031,0.2131 0.39988,0.1418 z M 6.04662,27.6934 6.31229,27.554 6.17817,27.2983 5.91756,27.4225 Z m 0.14954,0.285 0.26566,0.1394 0.07311,-0.1394 -0.07311,-0.1394 z m -0.14954,0.285 -0.26566,-0.1393 -0.14483,0.276 0.28143,0.1342 z m 0.02048,0.3421 c 0.14957,0.0713 0.3286,0.0078 0.39988,-0.1417 0.07127,-0.1496 0.00781,-0.3286 -0.14176,-0.3999 z M 23.5,19.7003 c -0.1657,0 -0.3,0.1343 -0.3,0.3 0,0.1657 0.1343,0.3 0.3,0.3 z m 2.5,0.3 0.2121,-0.2121 -0.0878,-0.0879 H 26 Z m 9.0565,2.2784 -0.0366,0.2977 z m 2.3177,0.285 -0.0366,0.2978 0.0074,9e-4 0.0073,5e-4 z m 2.9159,0.2138 0.0967,-0.284 -0.0364,-0.0124 -0.0383,-0.0028 z m 2.0935,0.7126 0.1049,-0.2812 -0.0082,-0.0028 z m 1.7196,0.6413 0.1291,-0.2708 -0.0119,-0.0057 -0.0124,-0.0046 z m 1.4953,0.7126 -0.129,0.2708 0.0808,0.0386 0.0887,-0.0121 z m 2.0935,-0.285 0.0378,-0.2976 -0.0392,-0.005 -0.0391,0.0053 z m 2.243,0.285 0.2231,-0.2006 -0.0746,-0.0829 -0.1107,-0.0141 z m 0.8972,0.9977 h 0.3 v -0.1151 l -0.077,-0.0855 z m -0.3,0.7126 c 0,0.1657 0.1343,0.3 0.3,0.3 0.1657,0 0.3,-0.1343 0.3,-0.3 z M 26.5,20.5003 l -0.2122,0.2122 0.0058,0.0055 z m 0,2 -0.2466,-0.1709 z m -1.1342,4.2314 c -0.1482,0.0741 -0.2082,0.2543 -0.1341,0.4025 0.0741,0.1482 0.2543,0.2082 0.4025,0.1341 z m 22.1179,-0.5313 c -0.1654,0.009 -0.2922,0.1504 -0.2833,0.3159 0.009,0.1654 0.1504,0.2922 0.3159,0.2833 z M 31,20.5 31.0949,20.2154 Z M 8.37019,24.793 8.07113,24.4367 7.61156,24.8224 7.91063,25.1787 Z M 8.14135,24.6296 v -0.9977 h -0.6 v 0.9977 z M 8.11623,23.7521 8.49006,22.897 7.9403,22.6566 7.56647,23.5117 Z M 8.37607,23.03 9.04896,22.6024 8.72718,22.096 8.05429,22.5236 Z M 8.98632,22.6327 9.80875,22.3476 9.61226,21.7807 8.78983,22.0658 Z m 0.63335,-0.2826 0.44863,0.1425 0.1816,-0.5718 -0.44856,-0.1425 z M 10.4527,22.2683 10.5275,21.912 9.94026,21.7888 9.8655,22.1451 Z m -0.2188,-0.1179 h 0.7476 v -0.6 h -0.7476 z m 0.7072,-0.0027 0.5233,0.0712 0.081,-0.5945 -0.5234,-0.0713 z m 0.328,-0.0405 0.2243,0.285 0.4716,-0.371 -0.2243,-0.2851 z m 0.1601,0.0995 v 0.2138 h 0.6 v -0.2138 z m 0.2305,0.2918 1.1962,0.2851 0.1391,-0.5837 -1.1963,-0.285 z m 1.2399,0.2921 0.8224,0.0713 0.0518,-0.5978 -0.8224,-0.0712 z m 0.8483,0.0724 h 0.7476 v -0.6 h -0.7476 z m 1.0088,-0.1524 0.5234,-0.9264 -0.5224,-0.2951 -0.5234,0.9263 z m 0.5376,-0.955 0.5234,-1.2114 -0.5508,-0.238 -0.5234,1.2114 z m 0.471,-1.1298 0.4486,-0.4988 -0.4461,-0.4012 -0.4486,0.4988 z m 0.4514,-0.502 0.3739,-0.4275 -0.4517,-0.3949 -0.3739,0.4275 z m 0.2268,-0.3355 1.0468,-0.2851 -0.1577,-0.5789 -1.0467,0.2851 z m 1.0207,-0.2792 1.1963,-0.2138 -0.1056,-0.5906 -1.1962,0.2138 z m 4.8396,-0.2329 0.6729,0.2851 0.234,-0.5525 -0.6729,-0.285 z m 0.5096,0.1158 0.299,0.7838 0.5606,-0.2138 -0.299,-0.7839 z m 0.2804,0.702 0.1495,1.7815 0.5979,-0.0502 -0.1495,-1.7815 z m 0.1549,1.818 0.1495,0.7126 0.5872,-0.1232 -0.1495,-0.7126 z m 0.1723,0.7801 0.3739,0.7839 0.5415,-0.2583 -0.3738,-0.7838 z m 0.3585,0.7448 0.2243,0.7126 0.5723,-0.1801 -0.2243,-0.7126 z m 0.2168,0.6843 0.2097,0.9976 0.5871,-0.1234 -0.2096,-0.9976 z m 0.2382,0.7954 -0.5,0.9429 0.5301,0.281 0.5,-0.9428 z m -0.435,0.8598 -0.3077,0.2753 0.4,0.4472 0.3078,-0.2753 z m -0.6327,0.5956 -0.1495,-1.1401 -0.5949,0.078 0.1495,1.1402 z m -0.1638,-1.2001 -0.1495,-0.4276 -0.5664,0.1981 0.1496,0.4275 z m -0.1425,-0.4047 -0.1495,-0.5701 -0.5804,0.1523 0.1495,0.57 z m -0.7344,-0.5502 -0.1495,0.7839 0.5893,0.1124 0.1496,-0.7838 z m -0.0157,0.5869 -0.2243,0.1425 0.3217,0.5064 0.2243,-0.1425 z m 0.2332,0.3513 -0.0747,-0.4989 -0.5934,0.089 0.0748,0.4988 z m -0.0726,-0.4283 0.0748,-0.8551 -0.5977,-0.0522 -0.0748,0.8551 z m 0.0496,-0.7582 0.2243,-0.4988 -0.5473,-0.2461 -0.2243,0.4989 z m 0.2163,-0.4825 0.2991,-0.57 -0.5314,-0.2788 -0.299,0.5701 z m 0.327,-0.771 -0.1495,-0.7126 -0.5872,0.1232 0.1495,0.7126 z m -0.1723,-0.7802 -0.3739,-0.7838 -0.5415,0.2583 0.3738,0.7838 z m -0.3728,-0.7815 -0.299,-0.6413 -0.5438,0.2536 0.2991,0.6413 z m -0.2807,-0.5906 -0.1496,-0.5701 -0.5803,0.1522 0.1495,0.5701 z m 1.6048,5.4164 -0.8224,0.1358 0.0977,0.5919 0.8225,-0.1357 z m -9.275,-3.1448 c 0.2431,0.1143 0.4797,0.3422 0.5137,0.6448 0.0333,0.2964 -0.1133,0.7962 -0.938,1.4909 l 0.3865,0.4589 c 0.8851,-0.7456 1.2143,-1.4247 1.1477,-2.0169 C 15.4119,22.8263 14.973,22.456 14.6232,22.2915 Z M 18.6077,19.3 h 0.7103 v -0.6 h -0.7103 z m 0.4774,-0.1109 c 0.1617,0.1992 0.3647,0.5067 0.4634,0.7828 0.0498,0.1394 0.0625,0.2422 0.0534,0.3075 -0.0067,0.0477 -0.022,0.0718 -0.0652,0.0948 l 0.2819,0.5296 c 0.2281,-0.1214 0.3467,-0.3212 0.3775,-0.5413 0.0283,-0.2026 -0.0179,-0.4115 -0.0826,-0.5925 -0.1303,-0.3647 -0.3784,-0.7323 -0.5626,-0.9591 z m -1.5183,8.3062 6.8785,-0.1425 -0.0125,-0.5999 -6.8785,0.1426 z m 6.9193,-0.1461 0.8972,-0.1426 -0.0941,-0.5925 -0.8972,0.1425 z m 0.7861,-0.1458 3.5888,0.7839 0.128,-0.5862 -3.5887,-0.7838 z m 3.5997,0.7861 3.9626,0.7126 0.1062,-0.5905 -3.9626,-0.7126 z m 3.9549,0.7111 1.7196,0.3563 0.1217,-0.5875 -1.7196,-0.3563 z m 1.7805,0.3625 h 2.4673 v -0.6 h -2.4673 z m 2.4876,-7e-4 5.2337,-0.3563 -0.0408,-0.5986 -5.2336,0.3563 z m 5.2459,-0.3574 4.5608,-0.4988 -0.0653,-0.5964 -4.5607,0.4988 z m 4.5501,-0.4978 1.9439,-0.1425 -0.0439,-0.5984 -1.9439,0.1425 z m 1.922,-0.1417 h 1.0467 v -0.6 h -1.0467 z m 0.9642,-0.0116 0.7477,0.2138 0.1649,-0.5769 -0.7476,-0.2138 z m 0.768,0.2188 0.6729,0.1426 0.1243,-0.587 -0.6729,-0.1425 z m 0.7995,0.1421 0.972,-0.2138 -0.1289,-0.586 -0.972,0.2138 z m 1.0997,-0.2764 0.5981,-0.4988 -0.3843,-0.4608 -0.5981,0.4988 z m 0.6826,-0.6131 0.1495,-0.3563 -0.5533,-0.2322 -0.1495,0.3563 z m 0.0473,-0.7165 -0.5981,-0.4275 -0.3489,0.4881 0.5981,0.4275 z m -0.7321,-0.4807 -0.5233,-0.0713 -0.081,0.5945 0.5234,0.0713 z m -0.5638,-0.074 h -0.5982 v 0.6 h 0.5982 z m -0.4237,0.0559 -0.2991,-0.2138 -0.3489,0.4881 0.2991,0.2138 z m -0.6224,-0.2302 -0.3739,0.2138 0.2979,0.5209 0.3738,-0.2138 z m -0.2249,0.1743 H 49.411 v 0.6 h 1.1963 z m -4.7508,-0.1398 -1.0467,0.1425 0.0809,0.5945 1.0468,-0.1425 z m -1.0063,0.1398 H 43.654 v 0.6 h 1.1962 z m -1.145,0.0044 -0.8224,-0.1426 -0.1025,0.5912 0.8225,0.1425 z m -0.842,-0.1453 -0.6729,-0.0713 -0.0632,0.5967 0.6729,0.0713 z m -0.6257,-0.0624 -0.5234,-0.1425 -0.1576,0.5789 0.5233,0.1425 z m -0.551,-0.1486 -1.6448,-0.2851 -0.1025,0.5912 1.6449,0.285 z m -1.6829,-0.2892 -4.8598,-0.2138 -0.0264,0.5994 4.8599,0.2138 z m -4.8492,-0.2131 -2.6916,-0.2138 -0.0475,0.5981 2.6916,0.2138 z m -2.6568,-0.209 -2.4391,-0.4851 -0.117,0.5884 2.439,0.4852 z m 16.9338,1.0638 -0.2195,-0.0149 -0.0407,0.5986 0.2194,0.015 z m -0.2195,-0.0149 -1.874,-0.1276 -0.0407,0.5986 1.874,0.1276 z m -0.2978,1.8081 c 0.1877,-0.0673 0.4237,-0.2299 0.5641,-0.5078 0.1463,-0.2893 0.1696,-0.6644 -0.0078,-1.1116 l -0.5577,0.2212 c 0.1256,0.3166 0.0858,0.5095 0.0301,0.6198 -0.0616,0.1217 -0.1665,0.1904 -0.2312,0.2136 z m -30.3416,-6.7569 2.0003,-0.5 -0.1456,-0.582 -2.0002,0.5 z M 20.5,20.8 h 1 v -0.6 h -1 z M 7.81407,25.1499 8.1879,25.72 8.68964,25.391 8.31581,24.8209 Z M 8.35314,25.843 9.5494,26.1993 9.72067,25.6243 8.52441,25.268 Z m 1.28189,0.3688 h 1.79437 v -0.6 H 9.63503 Z m 1.82787,-0.0019 1.271,-0.1425 -0.0669,-0.5963 -1.271,0.1426 z m 1.3779,-0.1755 0.6729,-0.3563 -0.2807,-0.5303 -0.6729,0.3563 z m 0.7982,-0.4821 0.2243,-0.4275 -0.5313,-0.2788 -0.2243,0.4276 z m 0.2418,-0.4679 0.1496,-0.4275 -0.5664,-0.1981 -0.1495,0.4276 z m 0.143,-0.6427 -0.1495,-0.3563 -0.5533,0.2322 0.1496,0.3563 z m -0.1658,-0.3892 -0.4486,-0.7838 -0.5207,0.298 0.4486,0.7839 z m -0.5481,-0.888 -0.8972,-0.5701 -0.3217,0.5064 0.8972,0.5701 z m -0.9672,-0.6028 -0.4486,-0.1425 -0.1817,0.5718 0.4486,0.1425 z m -4.41401,2.4964 -1.94393,1.9241 0.42208,0.4264 1.94392,-1.924 z m -1.90735,2.3814 0.8972,0.6413 0.34892,-0.4881 -0.8972,-0.6414 z m 1.09359,0.6964 6.80377,-0.4988 -0.0439,-0.5984 -6.80374,0.4988 z m 7.08177,-0.798 v -1.2114 h -0.6 v 1.2114 z m -0.0111,-1.1306 0.2991,-1.0689 -0.5778,-0.1616 -0.2991,1.0689 z m 0.0507,-1.447 -0.5234,-0.0712 -0.0809,0.5945 0.5233,0.0712 z M 6.06575,28.6311 6.43958,28.7023 6.55193,28.1129 6.1781,28.0417 Z M 6.62482,28.6784 7.37248,28.3221 7.11436,27.7805 6.3667,28.1368 Z M 7.27054,28.3501 8.84063,28.2076 8.78639,27.61 7.2163,27.7526 Z m 1.57846,-0.1434 2.9907,-0.3563 -0.071,-0.5958 -2.99068,0.3563 z m 2.9898,-0.3562 3.0654,-0.3563 -0.0693,-0.596 -3.0654,0.3563 z m 3.0732,-0.3573 1.4954,-0.2138 -0.0849,-0.594 -1.4954,0.2138 z m 1.3885,-0.2178 0.9719,0.2138 0.1289,-0.586 -0.9719,-0.2138 z m 0.896,0.1859 0.6729,0.3563 0.2808,-0.5302 -0.6729,-0.3563 z m 0.5153,0.1259 0.0748,0.6414 0.5959,-0.0695 -0.0748,-0.6413 z m 0.0991,0.4836 -0.2243,0.4988 0.5472,0.2461 0.2243,-0.4988 z m 0.0303,0.3225 -1.1215,0.0712 0.0381,0.5988 1.1215,-0.0712 z m -1.1025,0.0706 h -2.8411 v 0.6 h 2.8411 z m -2.8473,10e-5 -3.4392,0.0713 0.0124,0.5998 3.4392,-0.0712 z m -3.433,0.0712 H 8.81351 v 0.6 H 10.4584 Z M 8.67513,28.569 7.8527,28.9966 8.12946,29.5289 8.95189,29.1014 Z m -0.77489,0.4078 -1.34579,0.4276 0.18167,0.5718 1.3458,-0.4275 z M 6.6098,29.3924 6.01167,29.4637 6.08265,30.0595 6.68078,29.9882 Z M 6.07562,29.4629 5.32796,29.3917 5.27103,29.989 6.01869,30.0602 Z m -0.54037,0.0419 -0.2243,-0.2851 -0.47151,0.3711 0.22429,0.285 z M 5.0752,29.7053 h 1.04672 v -0.6 H 5.0752 Z M 5.3,29.3329 V 28.9766 H 4.7 v 0.3563 z M 4.98216,29.276 6.17842,29.3473 6.2141,28.7484 5.01784,28.6771 Z M 5.3688,28.8961 5.51833,28.1835 4.93112,28.0603 4.78159,28.7729 Z M 5.41131,28.3568 5.85991,28.0005 5.48674,27.5307 5.03814,27.887 Z M 5.37333,27.7656 v 0.2851 h 0.6 v -0.2851 z m 0.02337,0.169 -0.14953,0.3563 0.55325,0.2322 0.14953,-0.3563 z M 5.22379,28.407 v 0.285 h 0.6 v -0.285 z m 0.24383,0.5797 0.74766,0.1425 0.11235,-0.5894 -0.74766,-0.1425 z m 0.409,-0.88 L 6.17568,27.9642 5.91756,27.4225 5.6185,27.5651 Z M 5.78096,27.8327 5.93049,28.1178 6.46182,27.839 6.31229,27.554 Z m 0.14953,0.0063 -0.14953,0.2851 0.53133,0.2787 0.14953,-0.285 z M 5.91756,28.5343 6.0671,28.6055 6.32522,28.0639 6.17568,27.9926 Z m 29.10234,-5.9579 2.3177,0.2851 0.0733,-0.5956 -2.3178,-0.285 z m 2.3324,0.2865 2.9159,0.2138 0.0439,-0.5984 -2.9159,-0.2138 z m 2.8412,0.1986 2.0934,0.7126 0.1934,-0.568 -2.0935,-0.7126 z m 2.0853,0.7097 1.7196,0.6413 0.2096,-0.5622 -1.7196,-0.6413 z m 1.6954,0.631 1.4953,0.7126 0.2581,-0.5416 -1.4953,-0.7126 z m 3.68,0.4544 2.243,0.285 0.0756,-0.5952 -2.243,-0.285 z m 2.0577,0.188 0.8972,0.9977 0.4461,-0.4012 -0.8971,-0.9977 z m 0.8203,0.7971 v 0.7126 h 0.6 v -0.7126 z m -24.7443,-5.6293 0.5,0.5 0.4242,-0.4242 -0.5,-0.5 z m 0.5057,0.5056 c -0.0028,-0.0027 0.0089,0.0084 0.0282,0.0476 0.018,0.0367 0.0373,0.0873 0.0554,0.1515 0.0363,0.1286 0.0627,0.2935 0.0706,0.4724 0.0163,0.3712 -0.0493,0.7307 -0.1944,0.9399 l 0.4932,0.3418 c 0.2549,-0.3678 0.3192,-0.8851 0.3006,-1.3081 -0.0096,-0.2181 -0.0419,-0.4295 -0.0925,-0.6089 -0.0468,-0.1657 -0.122,-0.3519 -0.2483,-0.4716 z m -0.0402,1.6114 c -0.1829,0.2639 -0.2103,0.5938 -0.1935,0.8906 0.0171,0.3023 0.0848,0.6301 0.1465,0.9246 0.0641,0.3067 0.1209,0.5742 0.1348,0.796 0.0149,0.236 -0.0269,0.3208 -0.0533,0.3473 l 0.4242,0.4242 c 0.2236,-0.2235 0.2443,-0.5485 0.2279,-0.8091 -0.0173,-0.2748 -0.0855,-0.5907 -0.1464,-0.8813 -0.0633,-0.3028 -0.1206,-0.586 -0.1347,-0.8357 -0.0145,-0.2551 0.0206,-0.418 0.0877,-0.5148 z m 0.0345,2.9585 c -0.3265,0.3265 -0.3451,0.7041 -0.3914,0.8893 -0.0248,0.0989 -0.0567,0.1788 -0.1215,0.2586 -0.0673,0.0829 -0.1853,0.1839 -0.4092,0.2959 l 0.2684,0.5366 c 0.2761,-0.138 0.4706,-0.287 0.6064,-0.4541 0.1383,-0.1702 0.2002,-0.3403 0.2379,-0.4914 0.0787,-0.3148 0.0601,-0.4372 0.2336,-0.6107 z m 19.3511,-0.1466 1.5512,-0.2112 -0.0809,-0.5945 -1.5512,0.2112 z m 1.5512,-0.2112 0.5423,-0.0739 -0.081,-0.5945 -0.5422,0.0739 z M 46.9091,24.812 c 0.2183,0.293 0.4842,0.7194 0.6006,1.0614 0.0612,0.1799 0.0604,0.2783 0.0495,0.3136 -0.0021,0.0071 -9e-4,0.0012 0.0045,-0.0025 0.0013,-9e-4 -0.0174,0.0125 -0.08,0.0159 l 0.0326,0.5992 c 0.1374,-0.0075 0.2718,-0.0417 0.3862,-0.1199 0.1185,-0.0811 0.1927,-0.194 0.2304,-0.3168 0.0688,-0.2245 0.0148,-0.4769 -0.0552,-0.6828 -0.1463,-0.4297 -0.4555,-0.9152 -0.6874,-1.2265 z M 26.7152,20.7093 c 0.059,-0.0607 0.1921,-0.1461 0.4236,-0.2217 0.2256,-0.0737 0.5237,-0.1313 0.8887,-0.1527 0.7294,-0.0427 1.7096,0.0604 2.8776,0.4497 l 0.1898,-0.5692 c -1.232,-0.4107 -2.2885,-0.5271 -3.1024,-0.4795 -0.4066,0.0238 -0.7569,0.0888 -1.0401,0.1814 -0.2772,0.0906 -0.5133,0.2151 -0.6676,0.374 z m 4.1899,0.0753 c 1.4749,0.4916 2.137,0.8847 2.5926,1.1725 0.4736,0.2991 0.7883,0.5291 1.5222,0.6193 l 0.0732,-0.5955 C 34.506,21.9087 34.2924,21.7494 33.8181,21.4498 33.3257,21.1388 32.62,20.7238 31.0949,20.2154 Z M 19.318,19.3 h 3.1028 V 18.7 H 19.318 Z m 27.9995,6.8115 H 45.897 v 0.6 h 1.4205 z M 30,24.7 h -2 v 0.6 h 2 z M 23.5,20.3003 H 26 v -0.6 h -2.5 z"
       id="path4"
       inkscape:connector-curvature="0"
       style="fill:#70f6ff" />
  </g>
  <defs
     id="defs11">
    <clipPath
       id="clip0_10592_10904">
      <rect
         width="48"
         height="60"
         transform="rotate(90,30,30)"
         id="rect8"
         x="0"
         y="0"
         style="fill:#ffffff" />
    </clipPath>
  </defs>
</svg>
