<?xml version="1.0" encoding="UTF-8" standalone="no"?>
<svg
   xmlns:dc="http://purl.org/dc/elements/1.1/"
   xmlns:cc="http://creativecommons.org/ns#"
   xmlns:rdf="http://www.w3.org/1999/02/22-rdf-syntax-ns#"
   xmlns:svg="http://www.w3.org/2000/svg"
   xmlns="http://www.w3.org/2000/svg"
   xmlns:sodipodi="http://sodipodi.sourceforge.net/DTD/sodipodi-0.dtd"
   xmlns:inkscape="http://www.inkscape.org/namespaces/inkscape"
   width="53.086559"
   height="15.488588"
   viewBox="0 0 53.086559 15.488588"
   version="1.1"
   id="svg13"
   sodipodi:docname="lie-left.svg"
   style="fill:none"
   inkscape:version="0.92.5 (2060ec1f9f, 2020-04-08)">
  <metadata
     id="metadata17">
    <rdf:RDF>
      <cc:Work
         rdf:about="">
        <dc:format>image/svg+xml</dc:format>
        <dc:type
           rdf:resource="http://purl.org/dc/dcmitype/StillImage" />
        <dc:title></dc:title>
      </cc:Work>
    </rdf:RDF>
  </metadata>
  <sodipodi:namedview
     pagecolor="#ffffff"
     bordercolor="#666666"
     borderopacity="1"
     objecttolerance="10"
     gridtolerance="10"
     guidetolerance="10"
     inkscape:pageopacity="0"
     inkscape:pageshadow="2"
     inkscape:window-width="640"
     inkscape:window-height="480"
     id="namedview15"
     showgrid="false"
     fit-margin-top="0"
     fit-margin-left="0"
     fit-margin-right="0"
     fit-margin-bottom="0"
     inkscape:zoom="4.9166667"
     inkscape:cx="25.79216"
     inkscape:cy="8.1886"
     inkscape:window-x="0"
     inkscape:window-y="460"
     inkscape:window-maximized="0"
     inkscape:current-layer="svg13" />
  <g
     clip-path="url(#clip0_10594_10909)"
     id="g4"
     transform="translate(-4.20784,-16.700012)">
    <path
       d="M 4.58284,28.5557 H 56.9194 v 3.2579 H 4.58284 Z"
       id="path2"
       inkscape:connector-curvature="0"
       style="stroke:#70f6ff;stroke-width:0.75" />
  </g>
  <path
     d="m 9.56006,9.528788 c 0.1656,0 0.3,-0.1343 0.3,-0.3 0,-0.1656 -0.1344,-0.3 -0.3,-0.3 z m -1.25,-0.3 -0.2212,0.2028 c 0.0568,0.0619 0.1371,0.0972 0.2212,0.0972 z m -0.761,-1.2741 c -0.112,-0.1221 -0.3018,-0.1304 -0.4239,-0.0184 -0.1221,0.1119 -0.1304,0.3017 -0.0184,0.4238 z m 1.386,2.0776 -0.0152,0.2997 c 0.1441,0.0073 0.273,-0.089 0.3068,-0.2293 0.0339,-0.1402 -0.0369,-0.2847 -0.1685,-0.3439 z m 41.9643,-1.1609 -0.172,-0.2457 c -0.1164,0.0814 -0.1597,0.2333 -0.1037,0.3639 z m 0.8929,-0.625 0.172,0.2458 c 0.1038,-0.0726 0.1507,-0.2025 0.1174,-0.3247 z m -0.2679,-0.9821 0.2896,-0.079 -0.0022,-0.0072 z m -0.2678,-0.8929 0.2873,-0.0862 c -0.0334,-0.1112 -0.128,-0.1932 -0.2428,-0.2105 z m -1.7857,-0.2678 0.0445,-0.2967 c -0.0148,-0.0022 -0.0296,-0.0033 -0.0445,-0.0033 z m -0.5358,0 -0.0727,0.291 c 0.0238,0.006 0.0482,0.009 0.0727,0.009 z m -1.4285,-0.3572 0.0727,-0.291 c -0.0147,-0.0037 -0.0296,-0.0062 -0.0447,-0.0077 z m -2.8572,-0.2678 0.028,-0.2987 c -0.0093,-9e-4 -0.0186,-0.0013 -0.028,-0.0013 z m -2.1428,0 -0.1114,0.2785 c 0.0354,0.0142 0.0732,0.0215 0.1114,0.0215 z m -0.8929,-0.3572 0.1114,-0.2785 c -0.0191,-0.0077 -0.039,-0.0133 -0.0592,-0.0169 z m -3.0357,-0.5357 0.0521,-0.2954 c -0.0172,-0.0031 -0.0346,-0.0046 -0.0521,-0.0046 z m -3.5714,0 -0.24,0.18 c 0.0566,0.0756 0.1455,0.12 0.24,0.12 z m -0.5357,-0.7143 0.24,-0.18 c -0.0421,-0.056 -0.1024,-0.0956 -0.1706,-0.1118 z m -1.875,-0.4464 0.0694,-0.2918 c -0.0227,-0.0055 -0.046,-0.0082 -0.0694,-0.0082 z m -1.25,0 -0.1342,0.2683 c 0.0417,0.0209 0.0876,0.0317 0.1342,0.0317 z m -1.4286,-0.7143 0.1342,-0.2685 -0.0101,-0.0046 z m -0.9822,-0.4464 0.1242,-0.2731 c -0.0202,-0.0092 -0.0413,-0.0161 -0.063,-0.0206 z m -2.1428,-0.4464 0.0612,-0.2937 c -0.0201,-0.0042 -0.0407,-0.0063 -0.0612,-0.0063 z m -2.5,0 v -0.3 c -0.0368,0 -0.0733,0.0067 -0.1077,0.02 z m -1.1607,0.4464 -0.1077,-0.28 c -0.0392,0.0151 -0.0748,0.0382 -0.1045,0.0679 z m -1.1607,1.1607 -0.2122,0.2121 c 0.0563,0.0563 0.1326,0.0879 0.2122,0.0879 0.0795,0 0.1558,-0.0316 0.2121,-0.0879 z m -0.4465,-0.4464 0.2122,-0.2122 c -0.0369,-0.0369 -0.0829,-0.0635 -0.1332,-0.0773 z m -0.9821,-0.2679 -0.1077,0.28 c 0.0094,0.0036 0.019,0.0068 0.0288,0.0094 z m -1.1607,-0.4464 -0.2035,0.2204 c 0.0279,0.0258 0.0604,0.046 0.0958,0.0596 z m -1.1607,-1.0714 0.2034,-0.22050001 c -0.025,-0.0231 -0.0539,-0.0418 -0.0853,-0.0553 z m -1.25,-0.53580001 0.1181,-0.2757 c -0.0265,-0.0114 -0.0545,-0.0188 -0.0831,-0.0222 z m -3.0358,-0.3571 0.0351,-0.2979 c -0.0455,-0.0054 -0.0917,-3e-4 -0.1349,0.015 z m -1.5178,0.5357 -0.0999,-0.2829 c -0.0467,0.0165 -0.0887,0.0444 -0.1221,0.0811 z m -0.8929,0.98220001 -0.2219,-0.2018 c -0.0126,0.0137 -0.0238,0.0287 -0.0336,0.0445 z m -0.7143,1.1607 -0.2555,-0.1573 -0.0017,0.0029 z m -0.8035,1.3393 -0.2573,-0.1544 c -0.0279,0.0466 -0.0427,0.1 -0.0427,0.1544 z m 0,0.9821 0.2972,0.0405 c 0.0019,-0.0134 0.0028,-0.0269 0.0028,-0.0405 z m -0.2679,1.9643 -0.2972,-0.0405 c -0.0019,0.0134 -0.0028,0.0269 -0.0028,0.0405 z m 0,2.0536 h -0.3 c 0,0.0292 0.0043,0.0582 0.0127,0.0862 z m 0.2679,0.8928 -0.2874,0.0862 c 0.0229,0.0762 0.0751,0.1402 0.1451,0.178 z m 1.1607,0.625 -0.1422,0.2642 c 0.0379,0.0204 0.0797,0.0324 0.1227,0.0352 z m 4.1071,0.2679 -0.0195,0.2993 c 0.0065,5e-4 0.013,7e-4 0.0195,7e-4 z m 2.9465,0 v 0.3 c 0.0227,0 0.0453,-0.0026 0.0674,-0.0077 z m 1.1607,-0.2679 v -0.3 c -0.0227,0 -0.0454,0.0026 -0.0675,0.0077 z m 2.1428,0 v 0.3 c 0.0125,0 0.0249,-8e-4 0.0372,-0.0023 z m 1.4286,-0.1786 0.1342,-0.2683 c -0.053,-0.0265 -0.1126,-0.0367 -0.1714,-0.0293 z m 0.8929,0.4465 -0.1342,0.2683 c 0.0417,0.0208 0.0876,0.0317 0.1342,0.0317 z m 6.4285,0 v 0.3 c 0.0057,0 0.0113,-2e-4 0.017,-5e-4 z m 4.7322,-0.2679 v -0.3 c -0.0057,0 -0.0113,2e-4 -0.017,5e-4 z m 6.6071,0 v 0.3 c 0.005,0 0.01,-10e-5 0.015,-4e-4 z m 3.5714,-0.1786 v -0.3 c -0.005,0 -0.0099,2e-4 -0.0149,4e-4 z m 2.6786,0 0.0285,-0.2986 c -0.0095,-9e-4 -0.019,-0.0014 -0.0285,-0.0014 z m 1.875,0.1786 0.0675,-0.2923 c -0.0129,-0.003 -0.0259,-0.0051 -0.039,-0.0063 z m 1.1607,0.2679 -0.0674,0.2923 c 0.0891,0.0205 0.1827,-6e-4 0.2542,-0.0576 0.0715,-0.0569 0.1132,-0.1433 0.1132,-0.2347 z m 0,-0.8929 -0.2809,-0.1053 c -0.0126,0.0337 -0.0191,0.0693 -0.0191,0.1053 z m 0.2679,-0.7143 0.2809,0.1054 c 0.0271,-0.0724 0.0253,-0.1525 -0.0052,-0.2235 z m -2.5999,-3.4848 0.0727,-0.291 z m 0,2.5309 0.127,0.2717 z m 2.3599,1.3124 c 0.0994,0.1325 0.2875,0.1594 0.42,0.06 0.1326,-0.0994 0.1594,-0.2875 0.06,-0.42 z m -0.2957,-0.8943 0.24,-0.18 c -0.0566,-0.0755 -0.1456,-0.12 -0.24,-0.12 z m -1.25,0 -0.1512,0.2591 c 0.0459,0.0268 0.0981,0.0409 0.1512,0.0409 z m -1.0714,-0.625 0.1511,-0.2591 c -0.0676,-0.0395 -0.1479,-0.0509 -0.2239,-0.0319 z m -1.0714,0.2679 v 0.3 c 0.0245,0 0.0489,-0.003 0.0727,-0.009 z m -4.1072,0 -0.0553,0.2948 c 0.0183,0.0035 0.0368,0.0052 0.0553,0.0052 z m -1.4286,-0.2679 0.0553,-0.2948 c -0.0182,-0.0035 -0.0367,-0.0052 -0.0553,-0.0052 z m -0.2678,0 -0.0197,0.2994 c 0.0066,4e-4 0.0131,6e-4 0.0197,6e-4 z m -11.1429,-1.0351 -0.0727,0.291 c 0.0077,0.0019 0.0155,0.0036 0.0234,0.0049 z m -3.5948,-0.2846 c -0.1572,0.0523 -0.2422,0.2222 -0.1898,0.3794 0.0524,0.1572 0.2223,0.2422 0.3795,0.1898 z m -4.248,-3.68 c 0,-0.1657 -0.1343,-0.3 -0.3,-0.3 -0.1657,0 -0.3,0.1343 -0.3,0.3 z m -0.3,2.4107 h -0.3 c 0,0.0137 9e-4,0.0274 0.0028,0.041 z m 0.3571,2.5893 h 0.3 c 0,-0.0137 -9e-4,-0.0274 -0.0028,-0.041 z m -0.3,2.3214 c 0,0.1657 0.1344,0.3 0.3,0.3 0.1657,0 0.3,-0.1343 0.3,-0.3 z m -0.5037,-7.2004 c 0.1657,0 0.3,-0.1343 0.3,-0.3 0,-0.1657 -0.1343,-0.3 -0.3,-0.3 z m -2.9464,-0.3 -0.0998,0.2829 c 0.032,0.0113 0.0658,0.0171 0.0998,0.0171 z m -1.5178,-0.5357 -0.1078,0.2801 0.0079,0.0028 z m -1.1608,-0.4465 -0.1218,0.2742 c 0.0047,0.0021 0.0094,0.004 0.0141,0.0058 z m -0.8035,-0.3571 0.1218,-0.2742 c -0.0384,-0.017 -0.0799,-0.0258 -0.1218,-0.0258 z m -1.875,-0.3 c -0.1657,0 -0.3,0.1343 -0.3,0.3 0,0.1657 0.1343,0.3 0.3,0.3 z m -4.3749,3.3363 -0.2622,0.1457 c 0.0529,0.0953 0.1532,0.1543 0.2622,0.1543 z m -0.4464,-0.8036 0.2622,-0.1456 c -0.0529,-0.0953 -0.1533,-0.1544 -0.2622,-0.1544 z m -1.25,0.8036 h -0.3 c 0,0.0649 0.021,0.1281 0.06,0.18 z m 0.5357,0.7143 -0.24,0.18 c 0.0279,0.0373 0.0642,0.0675 0.1058,0.0883 z m 0.7143,0.3571 h 0.3 c 0,-0.1136 -0.0642,-0.2175 -0.1659,-0.2683 z m 0,1.9643 v 0.3 c 0.1657,0 0.3,-0.1343 0.3,-0.3 z m -0.8929,0 v -0.3 c -0.0191,0 -0.0382,0.0019 -0.057,0.0055 z m -2.76785,0.5357 -0.19523,0.2278 c 0.06949,0.0596 0.16238,0.0842 0.25224,0.0668 z m -0.625,-0.5357 -0.29896,0.0249 c 0.00655,0.0787 0.04382,0.1516 0.10373,0.2029 z m -0.17857,-2.1428 -0.29417,-0.0589 c -0.00551,0.0276 -0.00712,0.0558 -0.00479,0.0838 z m 0.17857,-0.8929 -0.16222,-0.2523 c -0.06839,0.0439 -0.11601,0.1138 -0.13195,0.1935 z m 1.25,-0.8036 -0.12414,-0.2731 c -0.01318,0.006 -0.02591,0.013 -0.03808,0.0208 z m 0.98215,-0.4464 0.1457,-0.2622 c -0.0831,-0.0462 -0.1833,-0.0502 -0.2698,-0.0109 z m -2.23883,4.5309 c 0.13573,-0.095 0.16874,-0.2821 0.07373,-0.4178 -0.09502,-0.1357 -0.28208,-0.1687 -0.41781,-0.0737 z m -1.95776,1.0042 -0.17203,-0.2457 c -0.02599,0.0182 -0.04893,0.0404 -0.06797,0.0657 z m -0.53571,0.7143 -0.24,-0.18 c -0.08,0.1067 -0.08,0.2534 0,0.36 z m 0.53571,0.7143 -0.24,0.18 c 0.04833,0.0644 0.12053,0.1067 0.20036,0.1174 z m 1.33929,0.1786 -0.03965,0.2974 c 0.01315,0.0017 0.02639,0.0026 0.03965,0.0026 z m 4.1071,0 v 0.3 c 0.0429,0 0.0852,-0.0092 0.1242,-0.0269 z m 0.9822,-0.4464 0.1241,0.2731 c 0.0376,-0.0171 0.0713,-0.0418 0.0989,-0.0725 z m 0.8036,-0.8929 0.2229,0.2007 c 0.0723,-0.0803 0.0958,-0.1931 0.0617,-0.2956 z m -0.2679,-0.8036 0.2846,-0.0948 c -0.0112,-0.0336 -0.0282,-0.0649 -0.0503,-0.0926 z m -0.48,-1.0802 c -0.1035,-0.1294 -0.2923,-0.1504 -0.4217,-0.0469 -0.1294,0.1035 -0.1503,0.2923 -0.0468,0.4217 z m 0.7479,1.4057 h -1.25 v 0.6 h 1.25 z m -1.0289,0.0973 -0.9821,-1.0714 -0.4423,0.4054 0.9821,1.0715 z m -6.66485,0.9487 7.05355,0.3572 0.0304,-0.5993 -7.05361,-0.3571 z m 7.19185,-0.216 -1.7857,-0.8036 -0.2462,0.5472 1.7857,0.8035 z m 42.0133,-0.6416 0.8928,-0.625 -0.3441,-0.4915 -0.8928,0.625 z m 1.0102,-0.9497 -0.2678,-0.9821 -0.5789,0.1578 0.2679,0.9822 z m -0.2699,-0.9894 -0.2679,-0.8929 -0.5747,0.1724 0.2679,0.8929 z m -0.5107,-1.1034 -1.7857,-0.2678 -0.089,0.5934 1.7857,0.2678 z m -1.8302,-0.2711 h -0.5358 v 0.6 h 0.5358 z m -1.9363,-0.3559 -2.8572,-0.2678 -0.056,0.5974 2.8572,0.2678 z m -2.8852,-0.2691 h -2.1428 v 0.6 h 2.1428 z m -2.0314,0.0214 -0.8929,-0.3571 -0.2228,0.5571 0.8929,0.3571 z m -0.9521,-0.374 -3.0358,-0.5357 -0.1042,0.5908 3.0357,0.5358 z m -6.4193,-0.4203 -0.5357,-0.7143 -0.48,0.36 0.5357,0.7143 z m -0.7063,-0.8261 -1.875,-0.4464 -0.1389,0.5836 1.875,0.4465 z m -1.9444,-0.4546 h -1.25 v 0.6 h 1.25 z m -1.1159,0.0317 -1.4285,-0.7143 -0.2684,0.5366 1.4286,0.7143 z m -1.4386,-0.7191 -0.9821,-0.4464 -0.2483,0.5462 0.9821,0.4464 z m -1.0451,-0.467 -2.1428,-0.4464 -0.1224,0.5874 2.1429,0.4464 z m -2.204,-0.4527 h -2.5 v 0.6 h 2.5 z m -2.6077,0.02 -1.1607,0.4464 0.2154,0.56 1.1607,-0.4464 z m -1.2652,0.5143 -1.1607,1.1607 0.4243,0.4242 1.1607,-1.1607 z m -0.7364,1.1607 -0.4464,-0.4465 -0.4243,0.4243 0.4464,0.4464 z m -0.5796,-0.5238 -0.9822,-0.2678 -0.1578,0.5788 0.9821,0.2679 z m -0.9534,-0.2584 -1.1607,-0.4464 -0.2154,0.56 1.1607,0.4464 z m -1.0649,-0.3869 -1.1608,-1.07140001 -0.4069,0.44090001 1.1607,1.0714 z m -1.2461,-1.12670001 -1.25,-0.5357 -0.2363,0.5515 1.25,0.53570001 z m -1.3331,-0.5579 -3.0357,-0.3571 -0.0701,0.5958 3.0357,0.3572 z m -3.1706,-0.3421 -1.5179,0.5357 0.1997,0.56580001 1.5179,-0.53570001 z m -1.64,0.6168 -0.8928,0.98220001 0.4439,0.4036 0.8929,-0.9822 z m -0.9264,1.02670001 -0.7142,1.1607 0.5109,0.3145 0.7143,-1.1607 z m -0.716,1.1636 -0.8036,1.3393 0.5145,0.3087 0.8036,-1.3393 z m -0.8463,1.4937 v 0.9821 h 0.6 v -0.9821 z m 0.0027,0.9416 -0.2678,1.9643 0.5945,0.081 0.2678,-1.9643 z m -0.2706,2.0048 v 2.0536 h 0.6 v -2.0536 z m 0.0127,2.1398 0.2678,0.8928 0.5747,-0.1724 -0.2678,-0.8928 z m 0.4129,1.0708 1.1608,0.625 0.2844,-0.5283 -1.1607,-0.625 z m 1.2835,0.6602 4.1071,0.2678 0.0391,-0.5987 -4.1072,-0.2678 z m 4.1266,0.2685 h 2.9465 v -0.6 h -2.9465 z m 3.0139,-0.0077 1.1607,-0.2679 -0.1349,-0.5846 -1.1607,0.2679 z m 1.0933,-0.2602 h 2.1428 v -0.6 h -2.1428 z m 2.18,-0.0023 1.4286,-0.1786 -0.0744,-0.5953 -1.4286,0.1785 z m 1.2572,-0.2079 0.8929,0.4464 0.2683,-0.5367 -0.8928,-0.4464 z m 1.0271,0.4781 h 6.4285 v -0.6 h -6.4285 z m 6.4455,-5e-4 4.7321,-0.2679 -0.0339,-0.599 -4.7321,0.2679 z m 4.7152,-0.2674 h 6.6071 v -0.6 h -6.6071 z m 6.6221,-4e-4 3.5714,-0.1785 -0.0299,-0.5993 -3.5715,0.1786 z m 6.2066,-0.1795 1.875,0.1786 0.0569,-0.5973 -1.875,-0.1786 z m 1.836,0.1722 1.1607,0.2679 0.1349,-0.5846 -1.1607,-0.2679 z m 1.5281,-0.0244 v -0.8929 h -0.6 v 0.8929 z m -0.0191,-0.7875 0.2679,-0.7143 -0.5618,-0.2107 -0.2679,0.7143 z m 0.2627,-0.9378 -0.2678,-0.625 -0.5515,0.2363 0.2678,0.625 z m -2.4351,-3.5658 -0.3678,-0.0919 -0.1455,0.5821 0.3678,0.0919 z m -0.3678,-0.0919 -1.0608,-0.2652 -0.1455,0.5821 1.0608,0.2652 z m -0.3585,0.3824 c 0.1131,0.3537 0.2472,0.897 0.2858,1.3748 0.0195,0.2405 0.0129,0.4446 -0.0217,0.5935 -0.0357,0.1533 -0.086,0.1903 -0.1054,0.1994 l 0.2541,0.5435 c 0.2621,-0.1225 0.3819,-0.3759 0.4357,-0.607 0.0548,-0.2357 0.057,-0.5102 0.0354,-0.7778 -0.0435,-0.5384 -0.1908,-1.1289 -0.3123,-1.5091 z m -3.0965,4.8541 h 2.3215 v -0.6 h -2.3215 z m 2.3215,0 h 0.3571 v -0.6 h -0.3571 z m 0.9337,-2.6864 c -0.3344,0.1563 -0.929,0.4238 -1.2881,0.8233 -0.1875,0.2087 -0.3339,0.4775 -0.3263,0.8038 0.0075,0.324 0.1655,0.6453 0.4608,0.9634 l 0.4398,-0.4081 c -0.2351,-0.2533 -0.2978,-0.4409 -0.3007,-0.5692 -0.003,-0.1259 0.0503,-0.2527 0.1726,-0.3888 0.2606,-0.2898 0.7268,-0.5082 1.096,-0.6809 z m 2.967,1.2242 -0.5357,-0.7143 -0.48,0.36 0.5357,0.7143 z m -0.7757,-0.8343 h -1.25 v 0.6 h 1.25 z m -1.0988,0.0409 -1.0715,-0.625 -0.3023,0.5182 1.0714,0.625 z m -1.2954,-0.6569 -1.0714,0.2678 0.1455,0.5821 1.0714,-0.2678 z m -0.9986,0.2589 h -4.1072 v 0.6 h 4.1072 z m -4.0519,0.0051 -1.4286,-0.2678 -0.1105,0.5897 1.4285,0.2678 z m -1.4839,-0.273 h -0.2678 v 0.6 h 0.2678 z m -0.2481,7e-4 c -2.7192,-0.1787 -8.7311,-0.6347 -11.1133,-1.0318 l -0.0986,0.5919 c 2.4179,0.403 8.4631,0.8605 11.1725,1.0386 z m -11.0898,-1.0269 c -0.3524,-0.0881 -0.9472,-0.191 -1.6092,-0.2211 -0.659,-0.03 -1.4089,0.011 -2.0584,0.2276 l 0.1897,0.5692 c 0.5504,-0.1835 1.2172,-0.2258 1.8415,-0.1975 0.6214,0.0283 1.1766,0.1253 1.4909,0.2039 z m 5.9033,2.0301 -0.625,0.3572 0.2977,0.5209 0.625,-0.3571 z m 0.0595,-3.0395 h -0.5357 v 0.6 h 0.5357 z m -14.4784,-2.6641 v 2.4107 h 0.6 v -2.4107 z m 0.0028,2.4517 0.3572,2.5893 0.5943,-0.082 -0.3571,-2.5893 z m 0.3543,2.5483 v 2.3214 h 0.6 v -2.3214 z m -3.3502,-5.4619 -1.5179,-0.5357 -0.1997,0.5658 1.5179,0.5357 z m -1.5101,-0.5328 -1.1607,-0.4465 -0.2154,0.56 1.1608,0.4465 z m -1.1465,-0.4406 -0.8036,-0.3572 -0.2437,0.5483 0.8036,0.3572 z m -0.9254,-0.383 h -1.875 v 0.6 h 1.875 z m -5.2678,3.0363 h -0.9821 v 0.6 h 0.9821 z m -0.7199,0.1543 -0.4464,-0.8035 -0.5245,0.2913 0.4465,0.8036 z m -0.7086,-0.9579 h -1.25 v 0.6 h 1.25 z m -1.55,0.3 v 0.8036 h 0.6 v -0.8036 z m 0.06,0.9836 0.5357,0.7143 0.48,-0.36 -0.5357,-0.7143 z m 0.6415,0.8026 0.7143,0.3572 0.2683,-0.5367 -0.7143,-0.3571 z m 0.8485,1.7531 h -0.8929 v 0.6 h 0.8929 z m -0.9499,0.0055 -2.76785,0.5357 0.11401,0.5891 2.76784,-0.5357 z m -2.51561,0.6025 -0.625,-0.5357 -0.39047,0.4555 0.625,0.5357 z m -0.52127,-0.3329 -0.17857,-2.1428 -0.59793,0.0498 0.17857,2.1428 z m -0.18336,-2.0591 0.17857,-0.8928 -0.58835,-0.1177 -0.17857,0.8928 z m 0.04662,-0.6993 1.25,-0.8036 -0.32445,-0.5047 -1.25,0.8036 z m 1.21191,-0.7828 0.98211,-0.4465 -0.2482,-0.5462 -0.98219,0.4464 z m 0.71231,-0.4573 0.8036,0.4464 0.2914,-0.5245 -0.8036,-0.4464 z m -2.43721,3.7771 -1.78571,1.25 0.34407,0.4915 1.78572,-1.25 z m -1.85368,1.3157 -0.53571,0.7143 0.48,0.36 0.53571,-0.7143 z m -0.53571,1.0743 0.53571,0.7143 0.48,-0.36 -0.53571,-0.7143 z m 0.73607,0.8317 1.33928,0.1786 0.0793,-0.5948 -1.33929,-0.1786 z m 5.61023,0.1543 0.9821,-0.4464 -0.2483,-0.5463 -0.9821,0.4465 z m 1.081,-0.5189 0.8035,-0.8928 -0.4459,-0.4014 -0.8036,0.8929 z m 0.8652,-1.1884 -0.2679,-0.8035 -0.5692,0.1897 0.2679,0.8036 z m -0.3182,-0.8961 -0.7143,-0.8928 -0.4685,0.3748 0.7142,0.8928 z m 29.0515,-4.1302 h -3.5714 v 0.6 h 3.5714 z m -16.8751,-1.4288 h -2.9464 v 0.6 h 2.9464 z m -13.4248,3.0684 v 1.9643 h 0.6 v -1.9643 z m -4.6109,5.1209 h 4.1071 v -0.6 h -4.1071 z"
     id="path6"
     inkscape:connector-curvature="0"
     style="fill:#70f6ff" />
  <defs
     id="defs11">
    <clipPath
       id="clip0_10594_10909">
      <rect
         width="48"
         height="60"
         transform="matrix(4.37114e-8,1,1,-4.37114e-8,0,0)"
         id="rect8"
         x="0"
         y="0"
         style="fill:#ffffff" />
    </clipPath>
  </defs>
</svg>
