<?xml version="1.0" encoding="UTF-8" standalone="no"?>
<svg
   xmlns:dc="http://purl.org/dc/elements/1.1/"
   xmlns:cc="http://creativecommons.org/ns#"
   xmlns:rdf="http://www.w3.org/1999/02/22-rdf-syntax-ns#"
   xmlns:svg="http://www.w3.org/2000/svg"
   xmlns="http://www.w3.org/2000/svg"
   xmlns:sodipodi="http://sodipodi.sourceforge.net/DTD/sodipodi-0.dtd"
   xmlns:inkscape="http://www.inkscape.org/namespaces/inkscape"
   width="55.125999"
   height="12.482442"
   version="1.1"
   id="svg13"
   sodipodi:docname="lie-up.svg"
   style="fill:none"
   inkscape:version="0.92.5 (2060ec1f9f, 2020-04-08)">
  <metadata
     id="metadata17">
    <rdf:RDF>
      <cc:Work
         rdf:about="">
        <dc:format>image/svg+xml</dc:format>
        <dc:type
           rdf:resource="http://purl.org/dc/dcmitype/StillImage" />
        <dc:title></dc:title>
      </cc:Work>
    </rdf:RDF>
  </metadata>
  <sodipodi:namedview
     pagecolor="#ffffff"
     bordercolor="#666666"
     borderopacity="1"
     objecttolerance="10"
     gridtolerance="10"
     guidetolerance="10"
     inkscape:pageopacity="0"
     inkscape:pageshadow="2"
     inkscape:window-width="640"
     inkscape:window-height="480"
     id="namedview15"
     showgrid="false"
     fit-margin-top="0"
     fit-margin-left="0"
     fit-margin-right="0"
     fit-margin-bottom="0"
     inkscape:zoom="4.9166667"
     inkscape:cx="29.333"
     inkscape:cy="8.189"
     inkscape:window-x="0"
     inkscape:window-y="460"
     inkscape:window-maximized="0"
     inkscape:current-layer="svg13" />
  <g
     clip-path="url(#A)"
     id="g6"
     transform="translate(-0.667,-19.706558)">
    <path
       d="m 4.854,28.154 c 0.105,0.179 0.335,0.238 0.513,0.134 0.178,-0.104 0.238,-0.335 0.134,-0.513 l -0.647,0.38 z m -0.022,-2.929 0.372,0.044 v 0 z m 0.433,-1.896 0.375,0.017 v 0 z m 0.107,-0.82 0.288,0.24 v 0 z m 0.642,0.076 -0.122,0.355 v 0 z m 0.671,0.088 0.144,0.346 v 0 z M 8.787,21.35 8.512,21.095 v 0 l 0.276,0.254 z m 0.263,0.375 0.312,-0.208 v 0 z m 1.82,0.866 -0.375,-0.018 v 0 z m -0.059,1.978 c 0.162,0.13 0.398,0.104 0.527,-0.058 0.129,-0.162 0.104,-0.398 -0.058,-0.527 z M 5.504,24.172 c 0,0.207 0.168,0.375 0.375,0.375 0.207,0 0.375,-0.168 0.375,-0.375 z M 6.093,23.224 5.881,22.915 v 0 z m 0.599,-0.527 c 0,-0.207 -0.168,-0.375 -0.375,-0.375 -0.207,0 -0.375,0.168 -0.375,0.375 z m 1.647,3.207 C 8.132,25.899 7.96,26.063 7.955,26.27 7.95,26.477 8.114,26.649 8.321,26.654 Z m 1.042,1.031 -0.374,0.026 v 0 z m 0.263,0.714 0.375,0.018 v 0 z m -1.45,0.205 0.08,0.366 v 0 z m -1.484,0.117 0.097,0.362 v 0 z M 5.412,27.567 C 5.25,27.437 5.014,27.463 4.885,27.625 4.756,27.787 4.781,28.023 4.943,28.152 Z m 0.552,-3.971 c -0.202,-0.047 -0.403,0.078 -0.451,0.279 -0.048,0.201 0.078,0.403 0.279,0.451 l 0.171,-0.73 z m 1.354,1.413 -0.122,-0.355 v 0 z m -0.37,0.825 -0.363,-0.093 v 0 z M 7.872,26.15 7.584,25.91 v 0 z m 1.007,-1.346 c 0,-0.207 -0.168,-0.375 -0.375,-0.375 -0.207,0 -0.375,0.168 -0.375,0.375 z m -0.638,1.851 c 0.207,0 0.375,-0.168 0.375,-0.375 0,-0.207 -0.168,-0.375 -0.375,-0.375 z m -0.525,-0.75 c -0.207,0 -0.375,0.168 -0.375,0.375 0,0.207 0.168,0.375 0.375,0.375 z m 2.365,1.909 c 0.207,0 0.375,-0.168 0.375,-0.375 0,-0.207 -0.168,-0.375 -0.375,-0.375 z m -0.438,-0.75 c -0.207,0 -0.375,0.168 -0.375,0.375 0,0.207 0.168,0.375 0.375,0.375 z m 0.73,1.201 c 0.107,0.177 0.338,0.234 0.515,0.127 0.177,-0.107 0.234,-0.338 0.127,-0.515 z m -0.273,-1.248 0.352,-0.13 v 0 z m -0.107,-0.972 0.375,0.012 v 0 z m 0.944,-1.136 -0.343,-0.151 v 0 z m 0.613,-0.972 0.263,0.267 v 0 z m 0.701,-0.422 -0.3,-0.225 v 0 z m 0.632,-0.796 -0.201,-0.316 v 0 z m 0.832,-0.345 -0.097,-0.362 v 0 z m 1.708,-0.573 0.312,0.208 v 0 z m 6.349,0.421 -0.113,0.357 v 0 z m 0.282,0.474 c 0,0.207 0.168,0.375 0.375,0.375 0.207,0 0.375,-0.168 0.375,-0.375 z m -8.295,0.679 c -0.207,0 -0.375,0.168 -0.375,0.375 0,0.207 0.168,0.375 0.375,0.375 z m 2.146,1.27 0.158,-0.34 v 0 z m 1.708,0.603 0.097,-0.362 v 0 z m 1.182,0.234 0.256,-0.274 v 0 z m 0.739,-0.515 -0.305,-0.218 z m 1.931,-1.37 -0.193,-0.321 v 0 z m 0.837,-0.398 0.177,0.331 v 0 z m 0.477,-0.398 0.053,0.371 v 0 z m 2.977,-1.03 -0.217,0.306 v 0 z m 0.613,0.48 0.217,-0.306 v 0 z m 0.092,0.694 c 0.079,0.191 0.299,0.282 0.49,0.203 0.191,-0.079 0.282,-0.299 0.202,-0.49 l -0.693,0.288 z m -0.467,5.335 c 0,0.207 0.168,0.375 0.375,0.375 0.207,0 0.375,-0.168 0.375,-0.375 z m 0.419,-3.056 -0.37,-0.064 v 0 z m 0.306,-1.499 -0.332,-0.174 v 0 z m 1.077,-0.79 c 0.132,-0.159 0.111,-0.396 -0.049,-0.528 -0.16,-0.132 -0.396,-0.111 -0.528,0.049 z m -5.639,-1.024 c -0.2,0.053 -0.32,0.258 -0.267,0.458 0.053,0.2 0.258,0.32 0.458,0.267 l -0.192,-0.725 z m 1.234,-0.246 0.25,0.28 v 0 z m 1.599,0.053 c 0.1,0.181 0.329,0.247 0.51,0.146 0.181,-0.101 0.247,-0.329 0.146,-0.51 l -0.656,0.363 z m -4.238,5.804 c -0.153,0.14 -0.164,0.377 -0.024,0.53 0.14,0.153 0.377,0.164 0.53,0.025 l -0.505,-0.554 z m 0.777,-0.412 0.292,0.236 v 0 z m 0.633,-0.704 0.288,0.24 z m 1.422,-2.293 0.313,0.207 v 0 z m 0.508,-0.541 -0.136,-0.35 v 0 l 0.136,0.349 z m 0.791,-0.363 -0.112,-0.358 v 0 z m 1.302,-0.258 -0.099,-0.362 v 0 z m 0.285,-0.047 -0.111,-0.358 v 0 z m 0.562,0.024 c 0.079,-0.191 -0.011,-0.411 -0.202,-0.49 -0.191,-0.079 -0.411,0.011 -0.49,0.202 l 0.693,0.288 z m -10.866,5.163 c 0.182,0.098 0.41,0.03 0.508,-0.152 0.098,-0.182 0.03,-0.41 -0.152,-0.508 z m -0.223,-1.036 0.375,0.009 v 0 z m 0.123,-0.376 -0.34,-0.157 v 0 z m 0.202,-0.479 0.212,0.309 v 0 z m 0.144,-0.26 -0.337,-0.165 v 0 z m 0.18,-0.262 -0.318,-0.198 v 0 z m 0.589,-0.592 c 0,-0.207 -0.168,-0.375 -0.375,-0.375 -0.207,0 -0.375,0.168 -0.375,0.375 z m 36.716,-5.028 c -0.131,-0.161 -0.367,-0.185 -0.528,-0.055 -0.161,0.13 -0.185,0.367 -0.055,0.527 l 0.582,-0.473 z m 0.35,1.202 0.352,-0.13 v 0 z m 0.084,0.295 0.363,-0.094 v 0 z m 0.031,0.279 -0.351,0.132 v 0 l 0.351,-0.133 z m 0.079,0.782 -0.372,0.048 v 0 z m 0.022,2.619 0.348,0.139 v 0 z m -0.117,0.466 0.35,0.134 v 0 z m -0.17,0.65 -0.363,-0.094 v 0 z m -0.108,1.327 0.335,0.169 v 0 z m -0.978,0.047 0.08,-0.366 v 0 z m -0.37,-0.068 0.074,-0.368 v 0 z m -0.441,-0.085 0.056,-0.371 v 0 z m -1.992,-0.375 c -0.207,0 -0.375,0.168 -0.375,0.375 0,0.207 0.168,0.375 0.375,0.375 z m -0.163,-2.319 c -0.197,0.065 -0.304,0.277 -0.239,0.473 0.065,0.196 0.276,0.304 0.473,0.239 l -0.234,-0.713 z m 1.722,-0.543 0.26,0.27 v 0 z m 0.899,-1.717 -0.359,-0.108 v 0 z m 0.197,-0.71 -0.368,-0.073 v 0 z m 0.168,-0.65 0.371,0.052 v 0 L 53.11,21.259 Z m 0.481,-0.69 c 0.192,-0.077 0.286,-0.296 0.208,-0.488 -0.078,-0.192 -0.295,-0.285 -0.488,-0.208 l 0.279,0.696 z m -3.749,3.373 c -0.201,0.049 -0.324,0.253 -0.275,0.454 0.049,0.201 0.253,0.324 0.454,0.274 z m 1.122,-0.428 0.288,0.24 z m 0.278,-0.914 0.36,0.105 v 0 z m 0.24,-1.154 -0.366,-0.082 v 0 z m 0.309,-1.151 -0.316,-0.201 v 0 z m 0.609,-0.091 0.371,-0.056 v 0 z m 0.032,0.433 -0.374,0.021 v 0 z m 0.154,0.528 0.366,-0.081 v 0 z m -0.221,1.395 c 0,0.207 0.168,0.375 0.375,0.375 0.207,0 0.375,-0.168 0.375,-0.375 z M 31.7,22.427 c -0.207,-0.001 -0.376,0.167 -0.376,0.374 0,0.207 0.167,0.375 0.374,0.376 l 0.003,-0.75 z m 2.31,0.544 -0.007,0.375 v 0 z m 0.816,0.035 -0.059,0.37 v 0 z m 0.388,0.058 0.149,-0.344 v 0 z m 0.326,0.091 0.041,-0.373 v 0 z m 0.913,0.151 0.017,-0.375 v 0 z m 0.597,0.157 -0.14,0.348 v 0 l 0.139,-0.348 z m 0.942,0.235 -0.056,0.371 v 0 z m 1.785,0.4 -0.127,0.353 v 0 z m 0.823,0.144 -0.129,0.352 v 0 z m 1.381,0.289 -0.071,0.368 v 0 z m 2.64,0.184 0.05,-0.372 v 0 z m 1.067,0.18 -0.07,0.369 v 0 z m 2.489,0.21 -0.031,0.374 v 0 z m 0.846,0.023 -0.08,0.366 v 0 z m 0.422,0.101 0.247,-0.282 v 0 z m 0.702,0.027 0.265,0.265 0.004,-0.004 z m -0.281,2.582 c 0,0.207 0.168,0.375 0.375,0.375 0.207,0 0.375,-0.168 0.375,-0.375 z m -8.978,-3.981 c -0.207,0 -0.375,0.168 -0.375,0.375 0,0.207 0.168,0.375 0.375,0.375 z m 2.847,0.449 -0.318,0.198 v 0 z m 1.317,0.111 0.056,-0.371 v 0 z m 1.554,0.103 0.084,-0.366 v 0 z m 3.111,0.037 0.097,0.362 v 0 z m -0.05,0.896 c 0.1,0.181 0.329,0.247 0.51,0.146 0.181,-0.101 0.247,-0.329 0.146,-0.51 z m -15.7,2.423 c -0.207,0 -0.375,0.168 -0.375,0.375 0,0.207 0.168,0.375 0.375,0.375 z m 2.359,-0.154 0.049,0.372 c 0.02,-0.003 0.039,-0.007 0.058,-0.012 z m 5.561,0 0.011,-0.375 v 0 z m 1.791,0.289 0.056,-0.371 v 0 z m 5.663,-0.066 0.016,0.375 v 0 z m 0.393,-0.072 -0.068,-0.369 v 0 z m 0.641,0.262 c 0.187,-0.09 0.265,-0.314 0.175,-0.501 -0.09,-0.187 -0.314,-0.265 -0.501,-0.175 l 0.325,0.676 z m -23.81,-5.818 c -0.202,-0.043 -0.402,0.086 -0.445,0.288 -0.043,0.202 0.086,0.402 0.288,0.445 z m 5.194,0.859 c 0.206,0.021 0.39,-0.13 0.41,-0.336 0.02,-0.206 -0.13,-0.39 -0.336,-0.411 l -0.075,0.746 z M 3.081,28.556 V 28.181 H 2.706 v 0.375 z m 52.337,0 h 0.375 v -0.375 h -0.375 z m 0,3.258 v 0.375 h 0.375 v -0.375 z m -52.337,0 H 2.706 v 0.375 h 0.375 z m 2.42,-4.04 C 5.052,27.009 5.086,26.264 5.205,25.268 L 4.46,25.18 c -0.119,1.002 -0.192,1.975 0.394,2.973 l 0.647,-0.38 z M 5.205,25.268 c 0.014,-0.114 0.067,-0.226 0.159,-0.43 0.081,-0.179 0.189,-0.429 0.189,-0.721 h -0.75 c 0,0.115 -0.042,0.233 -0.123,0.413 -0.07,0.155 -0.189,0.393 -0.22,0.649 l 0.745,0.088 z M 5.553,24.117 A 2.31,2.31 0 0 1 5.588,23.786 L 5.64,23.344 4.891,23.309 c -0.005,0.108 -0.023,0.223 -0.045,0.363 a 2.99,2.99 0 0 0 -0.043,0.444 h 0.75 z M 5.64,23.344 5.679,22.939 5.71,22.701 5.722,22.639 C 5.718,22.651 5.714,22.662 5.707,22.676 5.7,22.69 5.687,22.716 5.661,22.748 L 5.084,22.269 c -0.049,0.059 -0.07,0.122 -0.073,0.133 A 0.67,0.67 0 0 0 4.992,22.467 L 4.97,22.583 4.934,22.856 4.891,23.312 5.64,23.346 Z m 0.021,-0.597 c -0.028,0.034 -0.06,0.054 -0.087,0.065 -0.027,0.011 -0.04,0.011 -0.042,0.011 0.032,0.004 0.05,0.007 0.072,0.013 a 1.39,1.39 0 0 1 0.145,0.048 l 0.072,0.028 0.072,0.027 0.244,-0.709 C 6.132,22.228 5.934,22.147 5.791,22.11 5.71,22.089 5.602,22.069 5.489,22.075 5.376,22.081 5.208,22.12 5.084,22.269 l 0.577,0.479 z m 0.232,0.191 c 0.077,0.027 0.23,0.087 0.372,0.118 A 0.93,0.93 0 0 0 6.831,23.017 L 6.543,22.325 C 6.527,22.332 6.497,22.339 6.425,22.323 6.34,22.305 6.27,22.274 6.137,22.229 Z M 6.83,23.017 C 7.048,22.926 7.207,22.77 7.275,22.714 7.349,22.653 7.371,22.648 7.411,22.648 v -0.75 a 0.92,0.92 0 0 0 -0.612,0.237 c -0.135,0.111 -0.172,0.155 -0.257,0.19 z m 0.581,-0.369 c 0.446,0 0.757,-0.133 1.019,-0.357 A 3.05,3.05 0 0 0 8.754,21.957 L 9.063,21.603 8.512,21.094 8.186,21.467 C 8.092,21.576 8.017,21.657 7.943,21.72 7.816,21.828 7.678,21.898 7.41,21.898 v 0.75 z m 1.652,-1.046 c 0.017,-0.019 0.005,0 -0.036,0.019 A 0.31,0.31 0 0 1 8.766,21.613 C 8.678,21.569 8.644,21.503 8.638,21.491 8.632,21.479 8.63,21.469 8.634,21.485 c 0.008,0.034 0.012,0.079 0.02,0.149 l 0.013,0.103 a 0.64,0.64 0 0 0 0.016,0.069 c 0.006,0.021 0.021,0.071 0.056,0.123 l 0.624,-0.415 c 0.029,0.043 0.039,0.08 0.04,0.085 10e-4,0.005 -0.001,-0.014 -0.004,-0.046 L 9.365,21.319 C 9.355,21.275 9.338,21.215 9.308,21.155 A 0.47,0.47 0 0 0 9.098,20.941 0.44,0.44 0 0 0 8.717,20.938 0.65,0.65 0 0 0 8.513,21.092 l 0.551,0.509 z M 8.738,21.93 c 0.11,0.166 0.244,0.297 0.437,0.36 0.156,0.05 0.33,0.042 0.425,0.042 v -0.75 c -0.075,0 -0.115,10e-4 -0.154,-0.001 C 9.407,21.579 9.403,21.576 9.406,21.577 9.409,21.578 9.392,21.56 9.363,21.515 Z M 9.6,22.332 c 0.211,0 0.476,-0.007 0.691,0.051 0.103,0.028 0.155,0.062 0.178,0.085 0.011,0.011 0.03,0.031 0.026,0.103 l 0.749,0.037 c 0.013,-0.264 -0.072,-0.491 -0.237,-0.662 -0.154,-0.158 -0.35,-0.241 -0.521,-0.287 -0.334,-0.09 -0.72,-0.077 -0.886,-0.077 z m 0.895,0.239 C 10.49,22.675 10.472,22.8 10.45,22.96 l -0.05,0.507 c -0.012,0.338 0.033,0.798 0.41,1.1 l 0.469,-0.585 c -0.084,-0.068 -0.139,-0.202 -0.13,-0.489 0.005,-0.135 0.023,-0.279 0.044,-0.432 L 11.244,22.607 10.495,22.57 Z M 6.253,24.17 6.244,23.878 6.245,23.669 C 6.254,23.571 6.276,23.55 6.305,23.531 L 5.88,22.913 c -0.273,0.188 -0.359,0.454 -0.381,0.685 -0.01,0.109 -0.008,0.218 -0.004,0.31 l 0.009,0.262 h 0.75 z M 6.304,23.531 C 6.62,23.314 6.69,22.964 6.69,22.695 H 5.94 a 0.47,0.47 0 0 1 -0.024,0.166 0.1,0.1 0 0 1 -0.037,0.052 z m 2.016,3.121 0.375,0.008 c 0.107,0.006 0.17,0.019 0.209,0.034 0.029,0.011 0.039,0.022 0.05,0.038 0.015,0.024 0.043,0.087 0.052,0.226 L 9.754,26.906 C 9.739,26.692 9.691,26.498 9.59,26.335 9.484,26.164 9.337,26.058 9.178,25.995 9.028,25.936 8.872,25.918 8.738,25.91 l -0.4,-0.009 -0.018,0.75 z m 0.686,0.307 c 0.019,0.278 0.152,0.448 0.212,0.535 0.048,0.069 0.053,0.083 0.051,0.135 l 0.749,0.037 C 10.032,27.37 9.918,27.189 9.836,27.069 9.766,26.967 9.758,26.955 9.755,26.908 L 9.007,26.96 Z m 0.262,0.67 C 9.275,27.478 9.37,27.396 9.397,27.375 9.415,27.361 9.43,27.353 9.437,27.349 L 9.369,27.362 C 9.264,27.381 9.113,27.398 8.944,27.413 L 8.46,27.45 8.112,27.486 8.273,28.219 C 8.267,28.22 8.282,28.217 8.337,28.212 L 8.516,28.198 9.011,28.16 9.505,28.099 c 0.068,-0.012 0.147,-0.03 0.215,-0.056 0.033,-0.012 0.086,-0.035 0.137,-0.075 0.051,-0.04 0.152,-0.134 0.16,-0.302 z M 8.113,27.486 c -0.198,0.043 -0.403,0.042 -0.663,0.041 -0.245,0 -0.54,0 -0.838,0.08 l 0.194,0.725 c 0.19,-0.051 0.39,-0.055 0.643,-0.054 0.237,0 0.53,0.006 0.825,-0.059 L 8.114,27.486 Z M 6.612,27.607 C 6.381,27.669 6.142,27.716 5.923,27.715 5.704,27.714 5.536,27.666 5.411,27.565 L 4.942,28.15 c 0.301,0.241 0.657,0.313 0.978,0.315 A 3.44,3.44 0 0 0 6.806,28.331 L 6.612,27.606 Z m -0.82,-3.283 c 0.448,0.105 0.855,0.115 1.268,0.115 v -0.75 c -0.403,0 -0.738,-0.011 -1.097,-0.096 l -0.171,0.73 z m 1.268,0.115 c 0.1,0 0.207,-0.012 0.268,-0.018 a 0.6,0.6 0 0 1 0.116,-0.004 c 0.001,0 -0.013,-0.002 -0.033,-0.013 C 7.391,24.393 7.368,24.374 7.353,24.353 7.325,24.314 7.341,24.301 7.341,24.38 h 0.75 C 8.091,24.226 8.064,24.057 7.962,23.915 7.85,23.76 7.695,23.699 7.566,23.677 7.451,23.658 7.335,23.668 7.26,23.674 l -0.201,0.015 v 0.75 z M 7.342,24.38 c 0,0.184 -0.071,0.246 -0.146,0.272 L 7.44,25.361 C 7.883,25.209 8.092,24.809 8.092,24.38 Z M 7.196,24.652 C 6.884,24.759 6.763,25.05 6.708,25.222 A 2.97,2.97 0 0 0 6.636,25.507 L 6.585,25.739 7.312,25.925 7.37,25.663 7.423,25.451 C 7.468,25.31 7.492,25.344 7.44,25.361 Z m -0.611,1.087 c -0.061,0.24 -0.057,0.488 0.073,0.696 0.13,0.208 0.345,0.299 0.529,0.324 0.184,0.025 0.37,-0.007 0.53,-0.067 0.16,-0.06 0.323,-0.159 0.444,-0.304 L 7.584,25.909 C 7.567,25.93 7.523,25.964 7.454,25.99 a 0.37,0.37 0 0 1 -0.167,0.026 c -0.035,-0.005 -0.014,-0.011 0.006,0.02 0.02,0.031 -0.013,0.014 0.019,-0.11 L 6.585,25.74 Z m 1.576,0.649 c 0.17,-0.205 0.372,-0.415 0.502,-0.64 0.149,-0.26 0.217,-0.545 0.217,-0.946 H 8.13 c 0,0.305 -0.05,0.454 -0.117,0.572 -0.087,0.151 -0.202,0.262 -0.428,0.535 l 0.577,0.479 z M 8.242,25.903 H 8.221 8.2 8.18 8.159 8.138 8.117 8.096 8.075 8.054 8.033 8.012 7.991 7.97 7.949 7.928 7.907 7.886 7.865 7.844 7.823 7.802 7.781 7.76 7.739 7.718 l -0.012,0.75 H 7.727 7.748 7.769 7.79 7.811 7.832 7.853 7.874 7.895 7.916 7.937 7.958 7.979 8 8.021 8.042 8.063 8.084 8.105 8.126 8.147 8.168 8.189 8.21 8.231 l 0.012,-0.75 z m 1.84,1.159 H 10.061 10.04 10.019 9.998 9.977 9.956 9.935 9.914 9.893 9.872 9.851 9.83 9.809 9.788 9.767 9.746 9.725 9.704 9.683 9.662 9.641 l -0.007,0.75 h 0.021 0.021 0.021 0.021 0.021 0.021 0.021 0.021 0.021 0.021 0.021 0.021 0.021 0.021 0.021 0.021 0.021 0.02 0.021 0.021 0.021 l 0.007,-0.75 z m 0.934,0.813 C 10.77,27.468 10.581,27.23 10.453,26.885 l -0.703,0.26 c 0.16,0.434 0.43,0.797 0.624,1.118 z m -0.563,-0.99 c -0.075,-0.202 -0.092,-0.297 -0.097,-0.379 -0.007,-0.11 0.005,-0.195 0.014,-0.45 l -0.75,-0.024 -0.012,0.52 a 2,2 0 0 0 0.143,0.594 l 0.703,-0.26 z m -0.084,-0.83 c 0.004,-0.119 0.032,-0.173 0.054,-0.204 0.027,-0.038 0.071,-0.075 0.161,-0.131 0.149,-0.092 0.521,-0.26 0.698,-0.662 l -0.687,-0.302 c -0.059,0.133 -0.147,0.167 -0.405,0.326 -0.114,0.07 -0.26,0.171 -0.376,0.331 -0.121,0.168 -0.187,0.371 -0.195,0.618 z m 0.912,-0.997 c 0.18,-0.41 0.277,-0.604 0.533,-0.855 l -0.526,-0.535 c -0.362,0.356 -0.505,0.66 -0.693,1.088 l 0.687,0.302 z m 0.533,-0.855 c 0.029,-0.028 0.072,-0.047 0.234,-0.113 0.128,-0.052 0.348,-0.143 0.504,-0.351 L 11.951,23.29 c -0.019,0.025 -0.055,0.052 -0.186,0.106 -0.098,0.04 -0.317,0.115 -0.477,0.273 l 0.526,0.535 z m 0.738,-0.464 0.161,-0.236 0.137,-0.21 c 0.09,-0.132 0.163,-0.212 0.236,-0.259 l -0.403,-0.633 c -0.203,0.13 -0.345,0.312 -0.452,0.467 l -0.15,0.229 -0.13,0.192 0.601,0.449 z m 0.534,-0.704 c 0.235,-0.149 0.409,-0.214 0.727,-0.299 l -0.194,-0.724 c -0.36,0.096 -0.614,0.186 -0.937,0.391 l 0.403,0.633 z m 0.727,-0.299 c 0.216,-0.058 0.438,-0.2 0.57,-0.276 0.174,-0.1 0.254,-0.127 0.296,-0.127 v -0.75 c -0.27,0 -0.517,0.139 -0.669,0.226 -0.194,0.111 -0.297,0.177 -0.391,0.202 l 0.194,0.724 z m 0.866,-0.403 a 3.42,3.42 0 0 0 0.454,-0.047 2.23,2.23 0 0 0 0.273,-0.061 c 0.043,-0.013 0.093,-0.031 0.141,-0.055 0.037,-0.019 0.126,-0.067 0.189,-0.162 l -0.624,-0.415 c 0.027,-0.04 0.055,-0.063 0.069,-0.074 0.014,-0.011 0.026,-0.017 0.029,-0.018 0.003,-0.001 -0.001,10e-4 -0.022,0.007 a 1.51,1.51 0 0 1 -0.178,0.038 l -0.211,0.028 -0.081,0.007 -0.027,0.002 -0.011,0.75 z m 1.057,-0.325 c -0.042,0.063 -0.089,0.074 -0.068,0.066 a 0.54,0.54 0 0 1 0.113,-0.022 c 0.124,-0.014 0.293,-0.014 0.485,-0.004 l 0.56,0.043 0.436,0.031 v -0.75 c -0.061,0 -0.183,-0.011 -0.368,-0.028 l -0.59,-0.046 c -0.204,-0.01 -0.422,-0.013 -0.607,0.008 a 1.25,1.25 0 0 0 -0.286,0.062 0.6,0.6 0 0 0 -0.3,0.224 l 0.625,0.415 z m 1.527,0.115 c 0.491,0 0.981,0.074 1.506,0.154 0.515,0.078 1.065,0.162 1.628,0.162 v -0.75 c -0.497,0 -0.991,-0.074 -1.515,-0.154 -0.515,-0.078 -1.062,-0.162 -1.618,-0.162 v 0.75 z m 3.133,0.316 c 0.491,0 0.851,0.01 1.264,0.14 l 0.226,-0.715 c -0.532,-0.169 -0.995,-0.175 -1.49,-0.175 z m 1.264,0.14 c 0.147,0.047 0.277,0.056 0.371,0.059 l 0.108,0.003 0.027,0.002 a 0.18,0.18 0 0 1 -0.064,-0.032 c -0.031,-0.024 -0.049,-0.05 -0.056,-0.066 -0.007,-0.016 0.009,0.011 0.009,0.15 h 0.75 c 0,-0.165 -0.015,-0.334 -0.084,-0.476 -0.087,-0.18 -0.234,-0.272 -0.385,-0.307 -0.104,-0.024 -0.237,-0.023 -0.279,-0.024 a 0.62,0.62 0 0 1 -0.171,-0.024 z m -7.9,1.545 c 0.342,0 0.63,0.108 0.94,0.274 l 0.488,0.284 0.56,0.302 0.315,-0.681 C 15.896,24.226 15.736,24.135 15.57,24.036 L 15.055,23.737 C 14.692,23.541 14.277,23.373 13.76,23.373 v 0.75 z m 1.988,0.861 0.427,0.187 c 0.157,0.058 0.344,0.111 0.543,0.111 v -0.75 A 0.84,0.84 0 0 1 16.436,24.469 C 16.316,24.424 16.2,24.368 16.063,24.304 Z m 0.97,0.298 c 0.071,0 0.148,0.026 0.283,0.096 0.113,0.059 0.308,0.175 0.515,0.23 l 0.194,-0.725 c -0.103,-0.027 -0.189,-0.081 -0.363,-0.171 -0.151,-0.079 -0.366,-0.181 -0.629,-0.181 v 0.75 z m 0.798,0.327 a 1.74,1.74 0 0 0 0.385,0.051 l 0.166,0.003 0.146,0.004 c 0.191,0.008 0.272,0.038 0.325,0.088 l 0.512,-0.548 c -0.26,-0.243 -0.578,-0.279 -0.804,-0.289 l -0.169,-0.004 -0.149,-0.003 c -0.095,-0.003 -0.164,-0.011 -0.219,-0.026 l -0.194,0.725 z m 1.023,0.146 c 0.195,0.183 0.432,0.149 0.57,0.096 0.132,-0.051 0.247,-0.14 0.332,-0.216 A 2.97,2.97 0 0 0 19.84,25.185 L 19.229,24.75 a 2.23,2.23 0 0 1 -0.288,0.327 c -0.028,0.025 -0.052,0.044 -0.072,0.057 -0.02,0.013 -0.031,0.018 -0.03,0.018 0.029,-0.007 0.047,-0.009 0.069,-0.007 0.051,0.004 0.103,0.026 0.143,0.063 l -0.513,0.547 z m 1.301,-0.571 c 0.199,-0.279 0.474,-0.494 0.798,-0.693 l 0.503,-0.284 0.518,-0.289 -0.387,-0.643 -0.488,0.272 -0.539,0.305 c -0.363,0.222 -0.734,0.5 -1.017,0.897 l 0.611,0.435 z m 1.819,-1.266 c 0.113,-0.068 0.234,-0.123 0.375,-0.184 l 0.445,-0.205 -0.354,-0.661 c -0.117,0.063 -0.24,0.114 -0.389,0.178 -0.142,0.061 -0.305,0.133 -0.464,0.229 z m 0.82,-0.389 c 0.098,-0.052 0.17,-0.121 0.219,-0.175 l 0.117,-0.139 c 0.07,-0.083 0.063,-0.05 0.016,-0.043 L 22.726,22.43 c -0.262,0.037 -0.417,0.221 -0.487,0.306 l -0.093,0.111 c -0.023,0.025 -0.029,0.026 -0.021,0.022 z m 0.353,-0.357 c 0.248,-0.035 0.444,-0.177 0.588,-0.308 0.144,-0.131 0.282,-0.296 0.396,-0.428 0.123,-0.143 0.224,-0.254 0.321,-0.332 0.097,-0.078 0.149,-0.088 0.175,-0.088 v -0.75 c -0.267,0 -0.483,0.124 -0.643,0.252 -0.16,0.128 -0.302,0.291 -0.421,0.428 l -0.332,0.362 c -0.104,0.094 -0.163,0.117 -0.189,0.12 l 0.105,0.743 z m 1.48,-1.155 0.381,-0.018 0.364,-0.017 c 0.244,-0.001 0.395,0.033 0.484,0.096 l 0.433,-0.612 c -0.289,-0.205 -0.644,-0.235 -0.92,-0.233 l -0.412,0.019 -0.329,0.017 v 0.75 z m 1.228,0.06 c 0.091,0.064 0.177,0.136 0.279,0.219 l 0.334,0.261 0.433,-0.612 -0.291,-0.227 -0.323,-0.253 -0.433,0.612 z m 0.613,0.48 c 0.043,0.03 0.108,0.092 0.174,0.175 0.066,0.083 0.113,0.161 0.135,0.213 l 0.693,-0.288 c -0.057,-0.137 -0.148,-0.276 -0.241,-0.393 a 1.69,1.69 0 0 0 -0.327,-0.319 l -0.433,0.612 z m 0.591,5.723 -0.041,-1.54 c -0.01,-0.515 0.002,-1.007 0.079,-1.452 l -0.739,-0.128 c -0.089,0.517 -0.1,1.066 -0.09,1.594 l 0.041,1.526 z m 0.038,-2.992 0.054,-0.4 0.046,-0.379 c 0.036,-0.247 0.084,-0.448 0.169,-0.61 l -0.665,-0.348 c -0.144,0.276 -0.207,0.579 -0.246,0.85 l -0.049,0.401 -0.048,0.357 0.739,0.128 z M 27.051,23.9 c 0.182,-0.347 0.442,-0.601 0.744,-0.964 l -0.577,-0.479 c -0.243,0.292 -0.601,0.655 -0.832,1.096 l 0.665,0.348 z m -4.703,-1.263 a 2.94,2.94 0 0 0 1.293,-0.692 l -0.5,-0.559 a 2.19,2.19 0 0 1 -0.984,0.526 l 0.192,0.725 z m 1.293,-0.692 a 2.26,2.26 0 0 1 0.334,-0.25 c 0.132,-0.078 0.216,-0.1 0.248,-0.1 v -0.75 c -0.239,0 -0.466,0.107 -0.63,0.205 a 3,3 0 0 0 -0.452,0.335 l 0.5,0.559 z m 0.582,-0.349 0.322,-0.013 c 0.098,-0.005 0.173,-0.005 0.237,0.003 0.103,0.013 0.157,0.04 0.208,0.133 l 0.656,-0.363 c -0.193,-0.349 -0.489,-0.479 -0.773,-0.514 -0.13,-0.016 -0.258,-0.013 -0.364,-0.008 l -0.286,0.012 z m -2.966,6.482 c 0.147,-0.134 0.25,-0.276 0.334,-0.4 l 0.23,-0.33 -0.583,-0.472 c -0.11,0.136 -0.2,0.281 -0.269,0.382 -0.074,0.109 -0.137,0.192 -0.217,0.266 z m 0.564,-0.731 a 5.81,5.81 0 0 1 0.296,-0.331 l 0.334,-0.369 -0.577,-0.479 -0.302,0.333 -0.334,0.374 0.583,0.471 z m 0.63,-0.7 c 0.303,-0.365 0.55,-0.778 0.776,-1.176 l 0.671,-1.149 -0.626,-0.414 c -0.254,0.385 -0.48,0.809 -0.698,1.193 -0.223,0.394 -0.442,0.757 -0.699,1.066 l 0.577,0.479 z m 1.446,-2.325 0.198,-0.282 c 0.065,-0.078 0.109,-0.107 0.133,-0.116 l -0.272,-0.699 c -0.195,0.076 -0.337,0.214 -0.437,0.334 -0.1,0.12 -0.186,0.256 -0.248,0.349 z m 0.331,-0.398 c 0.158,-0.061 0.308,-0.143 0.427,-0.204 0.128,-0.066 0.233,-0.117 0.339,-0.15 l -0.223,-0.716 a 2.85,2.85 0 0 0 -0.46,0.2 l -0.355,0.172 0.272,0.699 z m 0.766,-0.355 c 0.185,-0.058 0.378,-0.09 0.597,-0.123 l 0.692,-0.131 -0.198,-0.723 c -0.188,0.051 -0.381,0.079 -0.607,0.113 -0.217,0.033 -0.462,0.072 -0.708,0.148 l 0.223,0.716 z m 1.289,-0.254 a 0.58,0.58 0 0 1 0.082,-0.011 c 0.046,-0.005 0.127,-0.013 0.215,-0.04 l -0.222,-0.716 c -0.008,0.003 -0.021,0.005 -0.07,0.01 -0.04,0.004 -0.119,0.011 -0.202,0.034 l 0.198,0.723 z m 0.297,-0.051 c 0.045,-0.014 0.113,-0.041 0.175,-0.071 0.031,-0.015 0.072,-0.037 0.111,-0.064 0.02,-0.014 0.045,-0.033 0.072,-0.059 0.027,-0.026 0.065,-0.069 0.094,-0.139 l -0.693,-0.288 c 0.013,-0.031 0.028,-0.055 0.039,-0.07 0.011,-0.015 0.022,-0.027 0.03,-0.035 0.014,-0.014 0.025,-0.022 0.027,-0.023 l -0.055,0.025 -0.023,0.009 0.221,0.717 z m -10.058,4.169 -0.059,-0.03 -0.054,-0.028 C 16.373,27.356 16.344,27.338 16.322,27.321 16.3,27.304 16.294,27.296 16.297,27.3 c 0.003,0.004 0.021,0.035 0.021,0.075 h -0.75 c 0,0.288 0.197,0.466 0.308,0.548 0.111,0.082 0.262,0.154 0.29,0.17 z m -0.204,-0.058 v -0.309 l -0.75,-0.018 v 0.327 z m 0,-0.309 a 0.62,0.62 0 0 1 0.022,-0.072 2.21,2.21 0 0 1 0.067,-0.156 l -0.681,-0.314 -0.09,0.21 a 1,1 0 0 0 -0.068,0.313 l 0.75,0.018 z m 0.089,-0.227 a 1.39,1.39 0 0 0 0.058,-0.157 l 0.044,-0.139 0.034,-0.089 c -0.006,0.008 -0.025,0.033 -0.061,0.058 l -0.425,-0.618 a 0.59,0.59 0 0 0 -0.187,0.229 c -0.03,0.062 -0.054,0.128 -0.072,0.182 l -0.048,0.151 -0.017,0.051 -0.007,0.017 0.681,0.314 z m 0.074,-0.327 a 0.55,0.55 0 0 0 0.145,-0.149 0.89,0.89 0 0 0 0.066,-0.12 l 0.038,-0.09 0.019,-0.045 -0.674,-0.329 -0.039,0.089 -0.026,0.06 -0.009,0.017 c 10e-4,-0.001 0.017,-0.026 0.054,-0.052 l 0.425,0.618 z m 0.268,-0.404 0.013,-0.021 0.036,-0.05 0.112,-0.157 -0.636,-0.397 c -0.015,0.024 -0.035,0.049 -0.076,0.104 -0.032,0.043 -0.084,0.113 -0.123,0.191 z m 0.162,-0.229 a 2.2,2.2 0 0 0 0.172,-0.343 c 0.048,-0.122 0.099,-0.285 0.099,-0.448 h -0.75 a 0.57,0.57 0 0 1 -0.046,0.172 1.45,1.45 0 0 1 -0.111,0.222 z m 36.405,-5.346 c 0.264,0.325 0.464,0.542 0.581,0.859 L 54.6,21.132 C 54.429,20.669 54.124,20.338 53.898,20.06 Z m 0.581,0.859 c 0.025,0.069 0.044,0.149 0.073,0.26 l 0.726,-0.189 -0.095,-0.331 z m 0.073,0.259 c -0.002,-0.008 -10e-4,-0.013 0,0.053 10e-4,0.043 10e-4,0.152 0.043,0.264 l 0.702,-0.265 c 0.01,0.026 0.006,0.041 0.005,-0.011 L 54.717,21.603 C 54.715,21.566 54.71,21.516 54.695,21.462 l -0.726,0.189 z m 0.043,0.317 c 0.023,0.061 0.034,0.141 0.038,0.266 l 0.02,0.431 0.744,-0.095 c -0.013,-0.104 -0.009,-0.197 -0.014,-0.359 -0.004,-0.142 -0.017,-0.325 -0.086,-0.508 z m 0.058,0.697 0.059,0.345 c 0.018,0.102 0.029,0.185 0.029,0.265 h 0.75 a 2.25,2.25 0 0 0 -0.04,-0.396 l -0.053,-0.31 -0.744,0.095 z m 0.088,0.611 v 0.021 0.021 0.021 0.021 0.021 0.021 0.021 0.021 0.021 0.021 0.021 0.021 0.021 0.021 0.021 0.021 0.021 0.021 0.021 0.021 0.021 0.021 0.021 0.021 0.021 0.021 0.022 0.021 0.021 0.021 0.021 0.021 0.021 0.021 0.021 0.021 0.021 0.021 0.021 0.021 0.021 0.022 0.021 0.021 0.021 0.021 0.021 0.021 0.021 0.021 0.021 0.021 0.021 0.021 0.021 0.021 0.021 0.022 0.021 0.021 0.021 0.021 0.021 0.021 0.021 0.021 0.021 0.021 0.021 0.021 0.021 0.021 0.022 l 0.75,0.003 V 24.795 24.774 24.753 24.732 24.711 24.69 24.669 24.648 24.627 24.606 24.585 24.564 24.543 24.522 24.501 24.48 24.458 24.437 24.416 24.395 24.374 24.353 24.332 24.311 24.29 24.269 24.248 24.227 24.206 24.185 24.164 24.142 24.121 24.1 24.079 24.058 24.037 24.016 23.995 23.974 23.953 23.932 23.911 23.89 23.869 23.848 23.827 23.806 23.785 23.764 23.743 23.722 23.701 23.68 23.659 23.638 23.617 23.596 23.575 23.554 23.533 23.511 23.49 23.469 23.448 23.427 23.406 23.385 23.364 23.343 23.322 23.301 23.28 l -0.75,-0.003 z m 0,1.568 a 0.84,0.84 0 0 1 -0.042,0.253 l 0.697,0.278 C 54.879,25.213 54.909,25 54.909,24.844 Z m -0.042,0.253 c -0.047,0.117 -0.066,0.23 -0.079,0.304 a 0.95,0.95 0 0 1 -0.039,0.168 l 0.701,0.268 c 0.044,-0.116 0.063,-0.229 0.077,-0.302 a 0.84,0.84 0 0 1 0.038,-0.16 l -0.697,-0.278 z m -0.119,0.472 a 2.84,2.84 0 0 0 -0.108,0.37 l -0.074,0.32 0.726,0.189 0.079,-0.338 c 0.025,-0.105 0.049,-0.194 0.079,-0.273 l -0.701,-0.268 z m -0.182,0.69 c -0.07,0.269 -0.044,0.583 -0.036,0.787 0.009,0.248 -0.002,0.383 -0.044,0.466 l 0.67,0.338 c 0.141,-0.28 0.132,-0.608 0.123,-0.832 -0.01,-0.269 -0.022,-0.437 0.013,-0.57 L 53.816,26.26 Z m -0.08,1.252 c 0.002,-0.004 0.015,-0.028 0.048,-0.05 0.033,-0.022 0.061,-0.028 0.071,-0.029 l -0.032,-10e-4 -0.024,-0.002 -0.03,-0.002 -0.076,-0.002 v 0.75 c 0.023,0 0.039,0.002 0.088,0.004 a 0.91,0.91 0 0 0 0.174,-0.004 0.58,0.58 0 0 0 0.253,-0.096 c 0.088,-0.061 0.152,-0.142 0.197,-0.23 z m -0.043,-0.086 h -0.02 -0.02 -0.02 -0.02 -0.02 -0.02 -0.02 -0.02 -0.02 -0.02 -0.02 -0.02 -0.02 -0.02 -0.02 -0.02 -0.02 l -0.001,0.75 h 0.02 0.02 0.02 0.02 0.02 0.02 0.02 0.02 0.02 0.02 0.02 0.02 0.02 0.02 0.02 0.02 0.02 z m -0.346,0 c 0.017,0 0.026,0.006 0.004,-0.003 l -0.024,-0.01 -0.037,-0.015 c -0.029,-0.011 -0.069,-0.026 -0.117,-0.036 l -0.16,0.733 0.027,0.011 0.035,0.014 a 0.72,0.72 0 0 0 0.272,0.055 v -0.75 z m -0.174,-0.064 -0.203,-0.038 -0.174,-0.031 -0.148,0.735 0.195,0.035 0.169,0.032 0.16,-0.733 z m -0.377,-0.069 -0.459,-0.088 -0.112,0.742 0.423,0.081 0.147,-0.735 z m -0.459,-0.088 -0.358,-0.067 c -0.131,-0.024 -0.28,-0.046 -0.447,-0.046 v 0.75 a 1.69,1.69 0 0 1 0.311,0.034 l 0.383,0.071 z m -0.805,-0.113 c -0.196,0 -0.452,0.031 -0.672,0.057 L 50.289,27.2 v 0.75 c 0.188,0 0.441,-0.031 0.66,-0.057 l 0.583,-0.052 z M 50.36,25.594 c 0.609,-0.2 1.211,-0.469 1.749,-0.986 l -0.52,-0.54 c -0.422,0.407 -0.905,0.631 -1.462,0.814 l 0.234,0.713 z m 1.749,-0.986 c 0.542,-0.521 0.801,-1.227 0.998,-1.879 l -0.718,-0.217 c -0.194,0.642 -0.409,1.179 -0.8,1.555 l 0.52,0.54 z m 0.998,-1.879 0.206,-0.746 -0.736,-0.146 c -0.044,0.224 -0.114,0.429 -0.188,0.674 l 0.718,0.217 z m 0.206,-0.746 c 0.017,-0.085 0.044,-0.173 0.08,-0.291 0.033,-0.108 0.072,-0.243 0.092,-0.38 l -0.743,-0.103 c -0.01,0.072 -0.033,0.155 -0.067,0.266 l -0.098,0.362 z m 0.172,-0.671 0.088,-0.545 c 0.023,-0.096 0.047,-0.167 0.069,-0.212 0.029,-0.058 0.024,-0.013 -0.048,0.016 l -0.279,-0.696 c -0.191,0.077 -0.293,0.243 -0.345,0.348 -0.059,0.118 -0.098,0.252 -0.127,0.372 -0.056,0.238 -0.086,0.501 -0.101,0.615 l 0.743,0.103 z m -3.461,3.36 c 0.272,-0.067 0.512,-0.22 0.709,-0.383 0.197,-0.163 0.377,-0.359 0.522,-0.534 l -0.577,-0.479 c -0.131,0.157 -0.274,0.312 -0.423,0.435 -0.149,0.123 -0.29,0.203 -0.41,0.233 z m 1.231,-0.917 c 0.168,-0.203 0.23,-0.421 0.265,-0.601 l 0.084,-0.448 -0.72,-0.21 c -0.053,0.181 -0.081,0.413 -0.1,0.514 -0.025,0.129 -0.055,0.204 -0.106,0.266 z m 0.35,-1.049 a 6.17,6.17 0 0 0 0.137,-0.611 l 0.109,-0.566 -0.732,-0.164 -0.114,0.594 -0.12,0.537 0.72,0.209 z m 0.246,-1.176 0.059,-0.309 0.054,-0.293 c 0.04,-0.193 0.086,-0.335 0.147,-0.431 l -0.633,-0.402 c -0.137,0.215 -0.204,0.467 -0.248,0.681 l -0.058,0.318 -0.051,0.271 0.732,0.165 z m 0.259,-1.033 c -0.022,0.034 -0.04,0.047 -0.031,0.04 0.009,-0.007 0.014,-0.011 0.031,-0.021 a 0.53,0.53 0 0 1 0.112,-0.052 c 0.017,-0.005 0.027,-0.007 0.029,-0.007 0.002,0 -0.012,0.002 -0.039,-0.005 -0.027,-0.007 -0.077,-0.027 -0.119,-0.072 a 0.23,0.23 0 0 1 -0.06,-0.119 l 0.742,-0.112 a 0.52,0.52 0 0 0 -0.131,-0.278 c -0.077,-0.083 -0.17,-0.127 -0.254,-0.148 -0.152,-0.037 -0.299,-0.004 -0.392,0.025 a 1.28,1.28 0 0 0 -0.281,0.129 1.02,1.02 0 0 0 -0.118,0.084 0.59,0.59 0 0 0 -0.121,0.134 l 0.633,0.402 z m -0.078,-0.236 c 0.019,0.126 0.019,0.226 0.029,0.399 l 0.749,-0.043 -0.036,-0.468 z m 0.029,0.399 c 0.008,0.148 0.056,0.283 0.089,0.373 l 0.074,0.215 0.732,-0.163 C 52.93,20.967 52.88,20.843 52.854,20.774 52.822,20.686 52.811,20.643 52.81,20.616 l -0.749,0.043 z m 0.163,0.588 a 6.36,6.36 0 0 1 0.145,1.314 h 0.75 c 0,-0.477 -0.06,-1.011 -0.163,-1.476 z m -20.524,1.933 0.297,0.004 c 0.057,0.002 0.024,0.005 -0.021,-0.009 -0.034,-0.011 0.019,0.007 0.047,0.012 a 0.59,0.59 0 0 0 0.083,0.01 l 0.233,0.004 v -0.75 c -0.123,0 -0.172,-0.001 -0.19,-0.002 -0.01,-10e-4 0.003,0 0.024,0.004 l 0.023,0.005 a 0.65,0.65 0 0 0 -0.17,-0.023 l -0.323,-0.004 -0.003,0.75 z m 0.639,0.021 h 0.021 0.021 0.021 0.021 0.021 0.021 0.021 0.021 0.021 0.021 0.021 0.021 0.021 0.021 0.021 0.021 0.021 0.021 0.021 0.021 0.021 0.021 0.021 0.021 0.021 0.021 0.021 0.021 0.021 0.021 l 0.002,-0.75 H 32.95 32.929 32.908 32.887 32.866 32.845 32.824 32.803 32.782 32.761 32.74 32.719 32.698 32.677 32.656 32.635 32.614 32.593 32.572 32.551 32.53 32.509 32.488 32.467 32.446 32.425 32.404 32.383 32.362 32.341 Z m 0.629,0 c -0.074,0 -0.127,-0.039 -0.081,-0.012 0.027,0.015 0.14,0.086 0.295,0.086 v -0.75 c 0.068,0 0.115,0.034 0.077,0.012 -0.019,-0.011 -0.135,-0.086 -0.291,-0.086 z m 0.214,0.074 h 0.02 0.02 0.02 0.02 0.02 0.02 0.02 0.02 0.02 0.02 0.02 l 0.018,-0.75 H 33.4 33.38 33.36 33.34 33.32 33.3 33.28 33.26 33.24 33.22 33.2 Z m 0.24,0 c 0.061,0 0.126,0.011 0.226,0.029 0.091,0.017 0.219,0.042 0.357,0.045 l 0.014,-0.75 c -0.064,-0.001 -0.13,-0.013 -0.233,-0.032 -0.093,-0.017 -0.223,-0.042 -0.364,-0.042 z m 0.583,0.074 0.764,0.03 0.119,-0.741 c -0.291,-0.047 -0.629,-0.035 -0.869,-0.04 l -0.014,0.75 z m 0.764,0.03 c 0.051,0.008 0.098,0.012 0.136,0.014 l 0.091,0.005 c 0.046,0.003 0.061,0.008 0.071,0.012 l 0.298,-0.688 C 35.243,22.67 35.132,22.657 35.05,22.651 l -0.163,-0.012 z m 0.298,0.031 a 1.47,1.47 0 0 0 0.434,0.12 l 0.081,-0.746 c -0.069,-0.008 -0.135,-0.026 -0.217,-0.062 z m 0.434,0.12 c 0.13,0.014 0.26,0.043 0.421,0.077 0.152,0.032 0.33,0.067 0.516,0.076 l 0.035,-0.749 c -0.119,-0.005 -0.245,-0.029 -0.397,-0.06 l -0.492,-0.088 -0.082,0.745 z m 0.936,0.152 c 0.13,0.006 0.292,0.057 0.475,0.13 l 0.279,-0.696 C 37,23.04 36.737,22.946 36.472,22.933 l -0.035,0.749 z m 0.475,0.13 c 0.345,0.138 0.695,0.208 1.025,0.258 l 0.112,-0.742 C 37.74,23.283 37.457,23.223 37.191,23.117 Z m 1.025,0.258 c 0.602,0.09 1.174,0.188 1.714,0.382 l 0.254,-0.706 C 39.288,23.525 38.65,23.419 38.048,23.329 l -0.112,0.742 z m 1.714,0.382 c 0.189,0.068 0.378,0.082 0.509,0.093 0.147,0.013 0.235,0.022 0.312,0.051 L 40.73,23.893 C 40.543,23.825 40.354,23.811 40.224,23.8 40.078,23.788 39.987,23.778 39.905,23.748 l -0.254,0.706 z m 0.821,0.144 c 0.484,0.177 1.034,0.227 1.438,0.305 l 0.142,-0.736 c -0.517,-0.1 -0.912,-0.123 -1.323,-0.273 z m 1.439,0.305 c 0.389,0.075 0.814,0.155 1.253,0.155 v -0.75 c -0.357,0 -0.714,-0.066 -1.111,-0.142 l -0.142,0.736 z m 1.253,0.155 c 0.516,0 0.961,-0.028 1.408,0.032 l 0.099,-0.743 c -0.513,-0.069 -1.053,-0.038 -1.508,-0.038 v 0.75 z m 1.408,0.032 c 0.022,0.003 0.043,0.011 0.134,0.044 0.072,0.027 0.199,0.072 0.348,0.072 v -0.75 c -0.004,0 -0.02,-10e-4 -0.089,-0.026 -0.05,-0.018 -0.168,-0.067 -0.293,-0.084 l -0.099,0.743 z m 0.482,0.117 c 0.18,0 0.371,0.023 0.565,0.06 l 0.139,-0.737 c -0.223,-0.042 -0.463,-0.073 -0.704,-0.073 z m 0.565,0.06 c 0.847,0.16 1.747,0.152 2.528,0.216 l 0.061,-0.748 c -0.882,-0.072 -1.65,-0.054 -2.45,-0.205 z m 2.528,0.216 c 0.162,0.013 0.339,0.003 0.466,-10e-4 a 1.4,1.4 0 0 1 0.33,0.017 l 0.16,-0.733 C 48.92,24.725 48.736,24.727 48.59,24.731 l -0.382,0.003 z m 0.796,0.015 c 0.044,0.01 0.093,0.016 0.129,0.021 l 0.111,0.016 0.068,0.015 c -0.01,-0.005 -0.03,-0.015 -0.053,-0.035 l 0.493,-0.565 a 0.6,0.6 0 0 0 -0.218,-0.116 c -0.058,-0.018 -0.117,-0.029 -0.164,-0.038 l -0.133,-0.02 -0.073,-0.011 z m 0.255,0.017 c 0.065,0.056 0.136,0.085 0.172,0.098 0.045,0.016 0.091,0.028 0.133,0.037 0.085,0.018 0.181,0.029 0.273,0.034 0.092,0.005 0.19,0.004 0.281,-0.007 a 0.84,0.84 0 0 0 0.15,-0.031 c 0.045,-0.014 0.13,-0.046 0.204,-0.12 l -0.531,-0.53 c 0.029,-0.029 0.056,-0.045 0.07,-0.052 a 0.19,0.19 0 0 1 0.03,-0.013 c -0.05,0.006 -0.104,0.008 -0.166,0.004 -0.062,-0.004 -0.119,-0.011 -0.16,-0.019 L 49.631,24.91 c 0.015,0.009 0.035,0.02 0.06,0.042 l -0.494,0.564 z m 1.218,0.006 c -0.037,0.033 -0.137,0.09 -0.199,0.107 a 0.66,0.66 0 0 1 -0.24,-0.034 c -0.096,-0.049 -0.141,-0.125 -0.148,-0.136 -0.026,-0.041 -0.037,-0.079 -0.038,-0.082 -0.006,-0.019 -0.009,-0.035 -0.01,-0.036 0,0.004 0.002,0.022 0.005,0.045 l 0.021,0.173 0.021,0.188 0.006,0.069 0.002,0.022 h 0.75 A 4.62,4.62 0 0 0 50.553,25.47 L 50.531,25.288 50.523,25.227 50.519,25.203 50.515,25.182 C 50.514,25.18 50.511,25.164 50.505,25.144 50.504,25.141 50.493,25.103 50.467,25.062 50.46,25.05 50.415,24.975 50.319,24.926 a 0.66,0.66 0 0 0 -0.24,-0.034 0.66,0.66 0 0 0 -0.199,0.107 l 0.538,0.522 z m -0.581,0.315 0.016,1.013 0.015,0.993 h 0.75 L 50.601,26.83 50.586,25.835 h -0.75 z m -8.948,-1.225 0.703,0.018 0.733,0.019 v -0.75 c -0.232,0 -0.464,-0.009 -0.704,-0.018 L 40.887,23.86 Z m 1.436,0.037 h 0.02 0.02 0.02 0.02 0.02 0.02 0.02 0.02 0.02 0.02 0.02 0.02 0.02 0.02 0.02 0.02 0.02 0.02 0.02 0.02 0.02 0.02 0.02 0.02 0.02 0.02 0.02 0.02 0.02 0.02 0.02 0.02 0.02 0.02 l 0.003,-0.75 h -0.02 -0.02 -0.02 -0.02 -0.02 -0.02 -0.02 -0.02 -0.02 -0.02 -0.02 -0.02 -0.02 -0.02 -0.02 -0.02 -0.02 -0.02 -0.02 -0.02 -0.02 -0.02 -0.02 -0.02 -0.02 -0.02 -0.02 -0.02 -0.02 -0.02 -0.02 -0.02 -0.02 -0.02 z m 0.688,0 c 0.059,0 0.141,-0.008 0.199,-0.014 l 0.204,-0.016 c 0.069,-0.003 0.113,-0.001 0.136,0.003 -0.038,-0.016 -0.091,-0.045 -0.133,-0.112 l 0.636,-0.397 A 0.48,0.48 0 0 0 43.841,23.929 C 43.778,23.9 43.715,23.886 43.666,23.879 43.568,23.864 43.464,23.864 43.38,23.868 l -0.242,0.019 -0.088,0.008 -0.029,0.002 -0.011,0.75 z m 0.406,-0.14 a 0.53,0.53 0 0 0 0.365,0.23 1.19,1.19 0 0 0 0.267,0.012 l 0.215,-0.019 0.076,-0.008 0.023,-0.002 0.007,-0.75 c -0.06,0 -0.137,0.009 -0.187,0.014 l -0.172,0.015 a 0.52,0.52 0 0 1 -0.096,-10e-4 c -0.004,-0.001 0.01,10e-4 0.034,0.013 0.024,0.012 0.069,0.041 0.105,0.098 l -0.636,0.397 z m 0.953,0.214 c 0.202,0 0.376,0.032 0.627,0.07 l 0.112,-0.742 C 44.89,24.016 44.644,23.971 44.371,23.971 v 0.75 z m 0.627,0.07 c 0.29,0.044 0.584,0.039 0.832,0.041 0.26,0.002 0.483,0.009 0.694,0.057 L 46.69,24.158 C 46.391,24.089 46.093,24.084 45.833,24.082 45.56,24.08 45.332,24.083 45.108,24.049 l -0.112,0.742 z m 1.526,0.098 c 0.398,0.091 0.856,0.055 1.158,0.055 v -0.75 c -0.398,0 -0.702,0.03 -0.99,-0.036 z m 1.158,0.055 h 0.021 0.021 0.021 0.02 0.021 0.021 0.021 0.021 0.021 0.021 0.021 0.021 0.02 0.021 0.021 0.021 0.021 0.021 0.021 0.021 0.02 0.021 0.021 0.021 0.021 0.021 0.021 0.021 0.021 0.02 0.021 0.021 0.021 0.021 0.021 0.021 0.021 0.021 0.02 0.021 0.021 0.021 0.021 0.021 0.021 0.021 0.021 0.021 0.021 0.021 0.021 0.021 0.021 0.021 0.021 0.021 0.021 0.021 0.021 0.021 0.021 0.021 0.021 0.021 0.021 0.021 0.02 0.021 0.021 0.021 0.021 0.021 0.021 l 0.003,-0.75 H 49.19 49.169 49.149 49.128 49.107 49.086 49.065 49.044 49.023 49.002 48.981 48.961 48.94 48.919 48.898 48.877 48.856 48.835 48.814 48.793 48.772 48.752 48.731 48.71 48.689 48.668 48.647 48.626 48.605 48.584 48.564 48.543 48.522 48.501 48.48 48.459 48.438 48.417 48.396 48.375 48.355 48.334 48.313 48.292 48.271 48.25 48.229 48.208 48.188 48.167 48.146 48.125 48.104 48.083 48.062 48.041 48.02 48 47.979 47.958 47.937 47.916 47.895 47.874 47.853 47.833 47.812 47.791 47.77 47.749 47.728 47.707 47.686 l -0.003,0.75 z m 1.506,0 0.253,0.012 a 1.27,1.27 0 0 0 0.375,-0.033 l -0.194,-0.725 c -0.026,0.007 -0.071,0.011 -0.154,0.008 l -0.281,-0.012 v 0.75 z m 0.629,-0.021 c 0.071,-0.019 0.127,-0.047 0.156,-0.063 L 50,24.845 c 0.006,-0.003 -0.008,0.005 -0.031,0.012 -0.023,0.007 -0.087,0.026 -0.174,0.006 a 0.35,0.35 0 0 1 -0.222,-0.157 c -0.034,-0.054 -0.041,-0.101 -0.043,-0.11 l 0.749,-0.007 A 0.7,0.7 0 0 0 50.271,24.48 0.45,0.45 0 0 0 50.21,24.311 0.4,0.4 0 0 0 49.957,24.131 c -0.099,-0.022 -0.18,-0.001 -0.215,0.011 -0.035,0.012 -0.07,0.028 -0.083,0.035 l -0.035,0.019 z m -0.287,-0.333 0.008,0.386 a 1.19,1.19 0 0 0 0.132,0.481 l 0.656,-0.364 a 0.47,0.47 0 0 1 -0.04,-0.179 C 50.277,24.815 50.28,24.716 50.28,24.59 h -0.75 z m -15.56,4.04 c 0.167,0 0.38,-0.037 0.587,-0.082 l 0.69,-0.171 1.131,-0.279 -0.097,-0.744 c -0.277,0.036 -0.782,0.18 -1.226,0.298 l -0.656,0.163 c -0.204,0.044 -0.349,0.065 -0.428,0.065 v 0.75 z m 2.465,-0.544 c 0.274,-0.081 0.407,-0.091 0.495,-0.088 0.05,10e-4 0.093,0.007 0.162,0.014 l 0.249,0.016 v -0.75 c -0.059,0 -0.108,-0.005 -0.168,-0.011 l -0.224,-0.018 c -0.189,-0.005 -0.403,0.023 -0.727,0.119 l 0.213,0.719 z m 0.906,-0.059 h 0.021 0.021 0.021 0.021 0.021 0.021 0.021 0.021 0.021 0.021 0.021 0.021 0.021 0.021 0.021 0.021 0.021 0.021 0.021 0.021 0.021 0.021 0.021 0.021 0.021 0.021 0.021 0.021 0.021 0.021 0.021 0.021 v -0.75 H 37.991 37.97 37.949 37.928 37.907 37.886 37.865 37.844 37.823 37.802 37.781 37.76 37.739 37.718 37.697 37.676 37.655 37.634 37.613 37.592 37.571 37.55 37.529 37.508 37.487 37.466 37.445 37.424 37.403 37.382 37.361 37.34 Z m 0.676,0 h 0.022 0.022 0.022 0.022 0.022 0.022 0.022 0.022 0.022 0.022 0.022 0.022 0.022 0.022 0.022 0.022 0.022 0.022 0.022 0.022 0.022 0.022 0.022 0.022 0.022 0.022 0.022 0.022 0.022 0.022 0.022 0.022 0.022 0.022 0.022 0.022 0.022 0.022 0.022 0.022 0.022 0.022 0.022 0.022 0.022 0.022 0.022 0.022 0.022 0.022 0.022 0.022 0.022 0.022 0.022 0.022 0.022 0.022 0.022 0.022 0.022 0.022 0.022 0.022 0.022 0.022 0.022 0.022 0.022 0.022 0.022 0.022 0.022 0.022 0.022 0.022 0.022 0.022 0.022 0.022 0.022 0.022 0.022 0.022 0.022 l 0.007,-0.75 H 39.871 39.849 39.827 39.805 39.783 39.761 39.739 39.717 39.695 39.673 39.651 39.629 39.607 39.585 39.563 39.541 39.519 39.497 39.475 39.453 39.431 39.409 39.387 39.365 39.343 39.321 39.299 39.277 39.255 39.233 39.211 39.189 39.167 39.145 39.123 39.101 39.079 39.057 39.035 39.013 39 38.978 38.956 38.934 38.912 38.89 38.868 38.846 38.824 38.802 38.78 38.758 38.736 38.714 38.692 38.67 38.648 38.626 38.604 38.582 38.56 38.538 38.516 38.494 38.472 38.45 38.428 38.406 38.384 38.362 38.34 38.318 38.296 38.274 38.252 38.23 38.208 38.186 38.164 38.142 38.12 38.098 38.076 38.054 38.032 l -0.007,0.75 z m 1.897,0 h 0.022 0.022 0.022 0.021 0.022 0.022 0.022 0.022 0.022 0.022 0.022 0.022 0.022 0.022 0.022 0.022 0.022 0.022 0.022 0.022 0.022 0.022 0.022 0.022 0.022 0.022 0.022 0.022 0.022 0.022 0.022 0.022 0.022 0.022 0.022 0.022 0.022 0.022 0.022 0.022 0.022 0.022 0.022 0.022 0.022 0.022 0.022 0.022 0.022 0.022 0.022 0.022 0.022 0.022 0.022 0.022 l 0.02,-0.75 H 41.142 41.12 41.098 41.076 41.054 41.032 41.01 40.988 40.966 40.944 40.922 40.9 40.878 40.856 40.834 40.812 40.79 40.768 40.746 40.724 40.702 40.68 40.658 40.636 40.614 40.592 40.57 40.548 40.526 40.504 40.482 40.46 40.438 40.416 40.394 40.372 40.35 40.328 40.306 40.284 40.262 40.24 40.218 40.196 40.174 40.152 40.13 40.108 40.086 40.064 40.042 40.02 39.998 39.976 39.954 39.932 l -0.02,0.75 z m 1.269,0 a 2,2 0 0 1 0.297,0.03 l 0.398,0.044 0.022,-0.75 c -0.093,-0.003 -0.185,-0.017 -0.308,-0.036 -0.115,-0.017 -0.258,-0.039 -0.41,-0.039 v 0.75 z m 0.695,0.074 h 0.866 v -0.75 h -0.844 z m 0.866,0 c 0.157,0 0.231,0.033 0.321,0.08 0.109,0.056 0.284,0.164 0.559,0.205 l 0.112,-0.742 C 43.608,27.625 43.551,27.588 43.41,27.515 43.251,27.433 43.058,27.351 42.744,27.351 v 0.75 z m 0.88,0.285 c 0.203,0.03 0.407,0.032 0.591,0.027 l 0.518,-0.015 v -0.75 l -0.536,0.015 c -0.172,0.004 -0.323,0.001 -0.461,-0.019 z m 1.109,0.012 h 0.021 0.021 0.021 0.021 0.021 0.021 0.021 0.021 0.021 0.021 0.021 0.021 0.021 0.021 0.021 0.021 0.021 0.021 0.021 0.021 0.021 0.021 0.021 0.021 0.021 0.021 0.021 0.021 0.021 0.021 0.021 0.021 0.021 0.021 0.021 0.021 0.021 0.021 0.021 0.021 0.021 0.021 0.021 0.021 0.021 0.021 0.021 0.021 0.021 0.021 0.021 0.021 0.021 0.021 0.021 0.021 0.021 0.021 0.021 0.021 0.021 0.021 0.021 0.021 0.021 0.021 0.021 0.021 0.021 0.021 0.021 0.021 0.021 0.021 0.021 0.021 0.021 0.021 0.021 0.021 0.021 0.021 0.021 0.021 0.021 0.021 0.021 0.021 0.021 0.021 0.021 0.021 0.021 0.021 0.021 0.021 0.021 0.021 0.021 0.021 0.021 0.021 0.021 0.021 0.021 0.021 0.021 0.021 0.021 0.021 0.021 0.021 0.021 0.021 0.021 0.021 0.021 0.021 0.021 0.021 0.021 0.021 0.021 0.021 0.021 0.021 0.021 0.021 0.021 0.021 0.021 0.021 0.021 0.021 0.021 0.021 0.021 0.021 0.021 0.021 0.021 0.021 0.021 0.021 0.021 0.021 0.021 0.021 0.021 0.021 0.021 0.021 0.021 0.021 0.021 0.021 0.021 0.021 0.021 0.021 0.021 0.021 0.021 0.021 0.021 0.021 0.021 0.021 0.021 0.021 l 0.014,-0.75 H 48.295 48.274 48.253 48.232 48.211 48.19 48.169 48.148 48.127 48.106 48.085 48.064 48.043 48.022 48.001 47.98 47.959 47.938 47.917 47.896 47.875 47.854 47.833 47.812 47.791 47.77 47.749 47.728 47.707 47.686 47.665 47.644 47.623 47.602 47.581 47.56 47.539 47.518 47.497 47.476 47.455 47.434 47.413 47.392 47.371 47.35 47.329 47.308 47.287 47.266 47.245 47.224 47.203 47.182 47.161 47.14 47.119 47.098 47.077 47.056 47.035 47.014 46.993 46.972 46.951 46.93 46.909 46.888 46.867 46.846 46.825 46.804 46.783 46.762 46.741 46.72 46.699 46.678 46.657 46.636 46.615 46.594 46.573 46.552 46.531 46.51 46.489 46.468 46.447 46.426 46.405 46.384 46.363 46.342 46.321 46.3 46.279 46.258 46.237 46.216 46.195 46.174 46.153 46.132 46.111 46.09 46.069 46.048 46.027 46.006 45.985 45.964 45.943 45.922 45.901 45.88 45.859 45.838 45.817 45.796 45.775 45.754 45.733 45.712 45.691 45.67 45.649 45.628 45.607 45.586 45.565 45.544 45.523 45.502 45.481 45.46 45.439 45.418 45.397 45.376 45.355 45.334 45.313 45.292 45.271 45.25 45.229 45.208 45.187 45.166 45.145 45.124 45.103 45.082 45.061 45.04 45.019 45 44.979 44.958 44.937 44.916 44.895 44.874 44.853 44.832 44.811 44.79 44.769 44.748 l -0.014,0.75 z m 3.629,0 a 5.09,5.09 0 0 0 0.532,-0.034 l 0.465,-0.041 -0.032,-0.749 -0.511,0.044 -0.454,0.03 z m 0.997,-0.075 c 0.098,-0.004 0.189,-0.022 0.261,-0.038 l 0.184,-0.041 -0.136,-0.738 -0.208,0.045 c -0.06,0.013 -0.101,0.02 -0.133,0.021 l 0.032,0.749 z m 0.445,-0.078 c 0.055,-0.01 0.086,-0.007 0.201,-0.016 0.096,-0.007 0.23,-0.023 0.372,-0.091 l -0.325,-0.676 c -0.016,0.008 -0.039,0.015 -0.102,0.019 l -0.052,0.003 -0.065,0.004 a 1.43,1.43 0 0 0 -0.166,0.019 l 0.136,0.738 z M 26.409,23.054 c 0.534,0.114 1.092,0.13 1.627,0.12 l 1.544,-0.045 v -0.75 l -1.558,0.046 c -0.517,0.009 -1.007,-0.008 -1.456,-0.104 z m 3.171,0.075 c 0.977,0 1.073,-0.061 2.18,0.05 l 0.075,-0.746 C 30.678,22.317 30.5,22.379 29.58,22.379 Z M 3.081,28.931 h 52.337 v -0.75 H 3.081 Z m 51.962,-0.375 v 3.258 h 0.75 v -3.258 z m 0.375,2.883 H 3.081 v 0.75 H 55.418 Z M 3.456,31.814 v -3.258 h -0.75 v 3.258 z"
       id="path2"
       inkscape:connector-curvature="0"
       style="fill:#70f6ff" />
    <path
       d="M 0.667,25.543 H 54.07"
       id="path4"
       inkscape:connector-curvature="0"
       style="stroke:#70f6ff;stroke-width:0.75;stroke-dasharray:1, 2" />
  </g>
  <defs
     id="defs11">
    <clipPath
       id="A">
      <path
         transform="rotate(90,30,30)"
         d="M 0,0 H 48 V 60 H 0 Z"
         id="path8"
         inkscape:connector-curvature="0"
         style="fill:#ffffff" />
    </clipPath>
  </defs>
</svg>
