<svg width="21" height="55" viewBox="0 0 21 55" fill="none" xmlns="http://www.w3.org/2000/svg">
<path d="M18.5445 5.52359C18.5445 6.61735 18.5445 7.71112 18.5445 8.80488C18.5445 9.86839 19.4784 9.47742 19.8771 10.1753C20.3869 11.0673 19.1526 11.5557 19.0097 12.1994C18.8264 13.0239 19.2608 14.0229 18.8712 14.8018C18.5394 15.4658 18.1591 16.1058 17.5889 16.5618C17.0888 16.9621 16.3149 16.8116 15.7785 17.2409C15.2774 17.6417 14.6872 17.6818 14.295 18.4226C13.8502 19.2627 13.4758 20.1268 12.8869 20.9119M5.91013 18.574C6.87427 17.6099 8.3597 17.4305 8.3597 15.7585C8.3597 14.5778 7.46521 14.1346 6.66252 13.3319C4.71858 11.388 4.73898 8.66087 4.73898 5.9269C4.73898 2.9694 8.429 2.08669 10.7484 1.66494C11.1253 1.59635 11.9767 1.30246 12.32 1.11182C12.9882 0.740546 13.6083 1.39322 14.1933 1.62731C15.1143 1.99576 16.0289 2.80901 17.0848 2.80901C18.5414 2.80901 18.9959 2.5269 18.9959 4.05367C18.9959 4.88256 17.3428 5.36727 16.7329 5.97721C15.9814 6.72854 15.7702 7.71924 14.9728 8.51683C14.639 8.85064 14.2223 9.32656 14.0675 9.77398C13.9508 10.1115 13.9196 11.0749 13.6526 11.2826C13.5359 11.3736 12.077 11.5855 12.0058 11.4963C11.7576 11.1863 11.8767 10.2624 11.6285 9.83694C11.4452 9.52266 10.6616 9.07383 10.2832 9.1579C9.64464 9.29983 9.71745 10.4376 9.71745 10.9056C9.71745 11.7684 10.2015 11.7969 10.7484 12.3136C10.9259 12.4812 11.3988 13.3041 10.9496 13.4325C9.95436 13.7169 9.9125 15.0291 8.58606 15.0291M6.09648 18.4218C4.04385 20.1241 2.47575 22.598 2.47575 25.3115C2.47575 27.1672 2.75029 29.2684 2.1991 31.0447C1.48769 33.3369 1.11783 35.1274 1.11783 37.5447C1.11783 39.4341 0.82183 41.6297 1.16813 43.4913C1.34119 44.4217 1.71035 45.1955 1.97275 46.0812C2.18961 46.8134 2.02305 47.8551 2.02305 48.6209C2.02305 48.9096 2.01225 49.2043 2.0045 49.5M10.6226 19.5567C12.3587 20.2342 13.4929 21.1667 14.1303 22.9513C14.6746 24.4754 15.7652 25.8469 15.8275 27.5275C15.8574 28.3343 16.2334 29.4655 16.5566 30.1927C16.8342 30.8173 17.4116 31.9311 17.4116 32.5815C17.4116 34.352 17.6379 36.1412 17.6379 37.9372C17.6379 38.5462 17.3284 40.3419 17.7385 40.8289C18.3949 41.6084 17.9621 42.7083 18.4425 43.5319C19.3654 45.1137 19.1021 47.0144 19.4985 48.7494C19.664 49.4728 19.9009 50.2665 19.9009 51.0124C19.9009 52.0518 18.8553 51.6925 18.2037 52.0432C17.0449 52.6672 13.0038 52.3209 11.6949 52.3209M2.05434 49.4264C3.35897 50.03 4.62755 50.417 5.96771 50.9428C6.58802 51.1861 6.79028 51.1078 7.35712 51.3549M4.99983 27.0004C4.43713 28.5004 4.54953 33.1984 4.54953 34.5667V36.8036C4.54953 37.0444 4.40601 37.8735 4.56307 38.091C4.69357 38.2718 5.88248 38.1185 6.10338 38.1185H10.0069C10.804 38.1185 11.6123 38.1799 12.418 38.1799M12.4998 26.0002C12.4921 26.4362 12.7019 28.8683 12.5978 29.2936C12.5039 29.6773 12.5225 30.0565 12.4441 30.4378C12.3108 31.0854 12.2939 31.7149 12.2939 32.3742V37.1656C12.2939 37.4538 12.1968 38.0038 12.3553 38.2414M5.90689 38.826C5.90689 40.2928 5.98199 41.7216 6.29628 43.1562C6.41218 43.686 6.5316 44.2349 6.59966 44.7817C6.70061 45.5912 6.8443 46.3793 6.9639 47.1862C7.18515 48.6778 7.41484 50.1486 7.87106 51.5973C8.09794 52.3186 8.28401 53.0592 8.49224 53.7928C8.56084 54.0339 8.58669 54.2829 8.67093 54.5212C8.7455 54.7325 8.92789 54.9588 8.92789 55.1855C8.92789 56.0721 9.15336 56.9662 9.54221 57.7654C9.66691 58.0218 9.76646 58.3092 9.82784 58.585C9.91613 58.9807 10.1894 59.3608 10.2135 59.7686C10.2197 59.8727 10.338 59.8683 10.3421 59.9642C10.3486 60.1169 10.3829 60.286 10.442 60.4296C10.5579 60.7108 10.5292 60.9973 10.5848 61.2996C10.6499 61.6528 10.5992 62.0451 10.5992 62.4059C10.5992 62.5802 10.5095 64.9096 10.7278 64.8581M11.2476 39.0342C11.2476 42.4688 11.349 45.8929 11.349 49.3344C11.349 50.6502 11.7908 51.9291 11.8564 53.2413C11.8858 53.8282 12.0095 54.5444 12.1384 55.1244C12.1915 55.3631 12.2249 55.5972 12.268 55.8348C12.3589 56.3344 12.5956 56.654 12.7641 57.1032C12.8739 57.3957 13.1015 57.6417 13.1982 57.9319C13.3614 58.4217 13.4409 58.917 13.5309 59.4203C13.637 60.0151 13.6831 60.5644 13.6831 61.168C13.6831 62.1984 13.7909 63.148 13.0967 63.9192C12.8172 64.2298 12.6502 64.7185 12.2624 64.934C11.9685 65.0972 10.8381 65.5188 10.7317 64.934" stroke="#70F6FF" stroke-width="1.31906" stroke-linecap="round" stroke-linejoin="round"/>
<path d="M9.57373 104.766V1" stroke="#70F6FF" stroke-width="0.439686" stroke-dasharray="1.76 3.52"/>
</svg>
