<?xml version="1.0" encoding="UTF-8" standalone="no"?>
<svg
   xmlns:dc="http://purl.org/dc/elements/1.1/"
   xmlns:cc="http://creativecommons.org/ns#"
   xmlns:rdf="http://www.w3.org/1999/02/22-rdf-syntax-ns#"
   xmlns:svg="http://www.w3.org/2000/svg"
   xmlns="http://www.w3.org/2000/svg"
   xmlns:sodipodi="http://sodipodi.sourceforge.net/DTD/sodipodi-0.dtd"
   xmlns:inkscape="http://www.inkscape.org/namespaces/inkscape"
   width="21.482365"
   height="27.999907"
   viewBox="0 0 21.482365 27.999907"
   version="1.1"
   id="svg9"
   sodipodi:docname="bp.svg"
   inkscape:version="0.92.5 (2060ec1f9f, 2020-04-08)">
  <metadata
     id="metadata13">
    <rdf:RDF>
      <cc:Work
         rdf:about="">
        <dc:format>image/svg+xml</dc:format>
        <dc:type
           rdf:resource="http://purl.org/dc/dcmitype/StillImage" />
        <dc:title></dc:title>
      </cc:Work>
    </rdf:RDF>
  </metadata>
  <sodipodi:namedview
     pagecolor="#ffffff"
     bordercolor="#666666"
     borderopacity="1"
     objecttolerance="10"
     gridtolerance="10"
     guidetolerance="10"
     inkscape:pageopacity="0"
     inkscape:pageshadow="2"
     inkscape:window-width="1920"
     inkscape:window-height="1043"
     id="namedview11"
     showgrid="false"
     fit-margin-left="0"
     fit-margin-top="0"
     fit-margin-right="0"
     fit-margin-bottom="0"
     inkscape:zoom="8.4285714"
     inkscape:cx="10.994363"
     inkscape:cy="14"
     inkscape:window-x="0"
     inkscape:window-y="326"
     inkscape:window-maximized="1"
     inkscape:current-layer="svg9" />
  <defs
     id="defs5">
    <clipPath
       id="clip-bp-icon-small_1">
      <rect
         width="40"
         height="28"
         id="rect2"
         x="0"
         y="0" />
    </clipPath>
  </defs>
  <g
     id="bp-icon-small_1"
     data-name="bp-icon-small – 1"
     clip-path="url(#clip-bp-icon-small_1)"
     transform="translate(-9.0056375,-9.4208337e-5)">
    <path
       id="track-large"
       d="m 8.77,7.89 c 0,-7.09 0.006,-7.151 0.872,-7.629 0.621,-0.343 10.137,-0.35 10.846,-0.008 a 2.2,2.2 0 0 1 0.475,0.274 c 0.531,0.452 0.525,1.5 0.525,7.193 0,6.817 -0.011,6.919 -0.79,7.475 a 1.828,1.828 0 0 1 -0.9,0.241 h -0.562 l -0.048,3.507 c -0.048,3.485 -0.051,3.513 -0.473,4.388 a 5.652,5.652 0 0 1 -1.106,1.492 c -1.173,1.052 -1.6,1.14 -5.881,1.214 L 7.951,26.1 7.374,26.768 A 3.738,3.738 0 0 1 4.152,28 3.661,3.661 0 0 1 2.074,27.567 2.26,2.26 0 0 1 0.518,25.457 c 0,-1.5 1.5,-2.544 3.634,-2.544 a 3.734,3.734 0 0 1 3.234,1.245 l 0.59,0.682 h 3.71 c 4.175,0 4.4,-0.044 5.41,-1.077 0.933,-0.95 1.077,-1.687 1.028,-5.257 L 18.083,15.512 15.8,15.47 13.522,15.428 13.361,16.55 A 5.426,5.426 0 0 1 10.31,20.955 4.089,4.089 0 0 1 8.161,21.367 3.921,3.921 0 0 1 6.023,20.967 5.386,5.386 0 0 1 2.914,16.483 C 2.821,15.466 2.814,15.444 2.291,15.27 A 4.207,4.207 0 0 1 0.27,13.355 3.661,3.661 0 0 1 0.932,9.555 3.514,3.514 0 0 1 5.793,9.396 3.579,3.579 0 0 1 4.478,15.318 l -0.582,0.178 0.1,0.858 a 4.146,4.146 0 0 0 4.089,3.928 3.589,3.589 0 0 0 2.773,-1.048 4.206,4.206 0 0 0 1.389,-2.986 v -0.809 h -1.221 c -1.193,0 -1.241,-0.014 -1.741,-0.524 L 8.77,14.391 Z M 5.741,11.967 A 2.247,2.247 0 0 0 4.527,9.848 2.37,2.37 0 0 0 1.44,10.707 a 2.575,2.575 0 0 0 0,2.512 2.314,2.314 0 0 0 4.301,-1.252 z m -2.782,0.2 c -0.137,-0.221 -0.037,-0.4 0.584,-1.041 0.773,-0.8 1.122,-0.934 1.433,-0.553 0.231,0.284 0.067,0.6 -0.72,1.373 -0.627,0.615 -1.01,0.681 -1.297,0.217 z M 19.8,3.5 c 0,-2.8 -2.664,-2.567 -4,-2.1 a 3.271,3.271 0 0 0 -0.476,0.053 c 0,0.049 2.847,0.1 3.267,2.047 0.167,2.567 0.3,7.98 -0.512,9.1 -0.535,0.739 -2.275,0.908 -3.2,1 -0.827,0.08 -1,0.1 0.922,0.4 a 3.151,3.151 0 0 0 4,-3.293 z"
       transform="translate(9)"
       inkscape:connector-curvature="0"
       style="fill:#ff983a;fill-rule:evenodd" />
  </g>
</svg>
