<?xml version="1.0" encoding="UTF-8" standalone="no"?>
<svg
   xmlns:dc="http://purl.org/dc/elements/1.1/"
   xmlns:cc="http://creativecommons.org/ns#"
   xmlns:rdf="http://www.w3.org/1999/02/22-rdf-syntax-ns#"
   xmlns:svg="http://www.w3.org/2000/svg"
   xmlns="http://www.w3.org/2000/svg"
   xmlns:sodipodi="http://sodipodi.sourceforge.net/DTD/sodipodi-0.dtd"
   xmlns:inkscape="http://www.inkscape.org/namespaces/inkscape"
   width="39.102921"
   height="28"
   version="1.1"
   id="svg4"
   sodipodi:docname="hr.svg"
   inkscape:version="0.92.5 (2060ec1f9f, 2020-04-08)">
  <metadata
     id="metadata10">
    <rdf:RDF>
      <cc:Work
         rdf:about="">
        <dc:format>image/svg+xml</dc:format>
        <dc:type
           rdf:resource="http://purl.org/dc/dcmitype/StillImage" />
        <dc:title></dc:title>
      </cc:Work>
    </rdf:RDF>
  </metadata>
  <defs
     id="defs8" />
  <sodipodi:namedview
     pagecolor="#ffffff"
     bordercolor="#666666"
     borderopacity="1"
     objecttolerance="10"
     gridtolerance="10"
     guidetolerance="10"
     inkscape:pageopacity="0"
     inkscape:pageshadow="2"
     inkscape:window-width="775"
     inkscape:window-height="480"
     id="namedview6"
     showgrid="false"
     fit-margin-top="0"
     fit-margin-left="0"
     fit-margin-right="0"
     fit-margin-bottom="0"
     inkscape:zoom="6.9734729"
     inkscape:cx="19.579995"
     inkscape:cy="13.7"
     inkscape:window-x="0"
     inkscape:window-y="326"
     inkscape:window-maximized="0"
     inkscape:current-layer="svg4" />
  <path
     d="m 27.020156,0 a 8.693,8.693 0 0 1 8.48,8.888 9.051,9.051 0 0 1 -2.68,6.477 h 0.01 l -1.03,1.028 a 7.3,7.3 0 0 1 -1.46,-0.051 0.261,0.261 0 0 0 -0.06,-0.06 c -0.04,-0.028 -0.69,-0.612 -0.87,-0.779 l -0.98,-0.871 a 0.309,0.309 0 0 0 -0.26,-0.09 h -0.08 c -0.14,0.015 -0.26,0.122 -1.22,0.907 l -1.06,0.867 -0.27,0.214 -0.09,0.054 -0.68,-0.027 -1.25,-0.032 -0.62,0.028 a 0.206,0.206 0 0 1 -0.04,0.024 0.7,0.7 0 0 0 -0.12,0.113 2.6,2.6 0 0 0 -0.14,0.824 4.558,4.558 0 0 1 -0.07,0.473 l -0.06,0.429 -0.03,0.232 -0.03,0.265 -0.14,1.078 a 2.056,2.056 0 0 1 -0.06,0.39 c -0.03,0.023 -0.08,-0.214 -0.1,-0.453 l -0.06,-0.677 -0.08,-0.722 -0.04,-0.394 a 1.188,1.188 0 0 1 -0.02,-0.17 l -0.16,-1.534 -0.05,-0.418 c -0.01,-0.068 -0.03,-0.352 -0.06,-0.631 l -0.08,-0.673 a 1.9,1.9 0 0 1 -0.03,-0.343 1.16,1.16 0 0 0 -0.03,-0.286 3.008,3.008 0 0 1 -0.06,-0.526 l -0.07,-0.6 c -0.02,-0.1 -0.04,-0.338 -0.06,-0.53 l -0.14,-1.388 -0.08,-0.755 -0.06,-0.643 a 1.154,1.154 0 0 1 -0.02,-0.212 l -0.06,-0.5 V 8.869 l -0.06,-0.485 c -0.02,-0.119 -0.04,-0.3 -0.08,-0.812 l -0.06,-0.553 a 4.362,4.362 0 0 1 -0.05,-0.44 c -0.03,-0.338 -0.06,-0.435 -0.2,-0.519 a 0.335,0.335 0 0 0 -0.36,-0.024 c -0.15,0.072 -0.18,0.124 -0.21,0.392 l -0.04,0.268 a 2.2,2.2 0 0 0 -0.02,0.233 l -0.06,0.582 a 1.691,1.691 0 0 1 -0.04,0.345 c -0.02,0.007 -0.03,0.1 -0.03,0.215 a 8.4,8.4 0 0 1 -0.09,1.035 l -0.07,0.621 -0.04,0.416 v 0.046 c -0.01,0.054 -0.02,0.213 -0.04,0.387 0,0.047 -0.01,0.1 -0.01,0.144 l -0.07,0.631 c -0.02,0.124 -0.05,0.551 -0.09,0.948 l -0.11,1.128 -0.08,0.756 c 0,0.052 -0.01,0.113 -0.01,0.177 l -0.05,0.488 -0.04,0.373 -0.02,0.248 c -0.01,0.043 -0.01,0.091 -0.02,0.142 l -0.04,0.4 -0.05,0.433 -0.02,0.2 -0.09,-0.045 a 2.313,2.313 0 0 0 -0.57,-0.1 l -0.49,-0.059 -0.05,-0.092 -0.25,-0.42 -0.23,-0.395 c 0,-0.012 -0.02,-0.034 -0.03,-0.062 l -0.12,-0.209 -0.17,-0.293 a 1.294,1.294 0 0 1 -0.08,-0.14 0.537,0.537 0 0 0 -0.29,-0.178 0.462,0.462 0 0 0 -0.48,0.311 c -0.05,0.122 -0.21,0.449 -0.52,1.09 -0.04,0.065 -0.08,0.157 -0.12,0.233 l -0.03,0.067 a 0.332,0.332 0 0 1 -0.1,0.154 c -0.02,0 -0.29,0 -0.61,-0.012 -0.86,-0.031 -0.88,-0.022 -1.07,0.47 -0.02,0.047 -0.04,0.027 -0.13,-0.142 a 1.343,1.343 0 0 0 -0.2,-0.283 l -0.1,-0.081 -0.75,0.007 a 4.821,4.821 0 0 1 -0.8,-0.016 4.231,4.231 0 0 1 -0.45,-0.137 l -0.1,-0.029 -0.16,-0.053 -0.31,-0.1 -0.02,-0.005 -0.31,-0.1 -0.3400005,-0.117 a 0.966,0.966 0 0 0 -0.8,0.007 l -1.3,0.489 -0.08,0.029 -1.07,-1.065 h 0.01 a 9.053,9.053 0 0 1 -2.68,-6.477 8.693,8.693 0 0 1 8.4800005,-8.888 8.4,8.4 0 0 1 7.27,4.309 8.4,8.4 0 0 1 7.27,-4.312 z m -18.8600005,16.859 -0.31,0.122 -0.33,0.124 -2.93,-0.018 -2.92,-0.016 -0.08,0.086 a 0.687,0.687 0 0 1 -0.32,0.214 1.329,1.329 0 0 1 -0.77999997,0 0.853,0.853 0 0 1 -0.4,-0.3 0.572,0.572 0 0 0 -0.07,-0.106 c -0.06,-0.1 0.02,-0.343 0.16,-0.489 a 1.022,1.022 0 0 1 0.79,-0.244 0.9,0.9 0 0 1 0.55999997,0.212 l 0.14,0.109 1.24,0.013 2.83,0.018 h 1.59 l 0.41,-0.149 z m 0,0 1.02,-0.379 0.34,-0.129 0.4,0.127 0.7900005,0.257 0.62,0.205 0.23,0.075 0.6,-0.016 0.61,-0.016 0.14,0.255 0.21,0.345 c 0.03,0.045 0.08,0.147 0.12,0.215 0.16,0.279 0.31,0.367 0.54,0.318 0.21,-0.045 0.29,-0.145 0.38,-0.5 l 0.13,-0.474 c 0.04,-0.122 0.04,-0.124 0.15,-0.133 l 0.58,0.021 a 1.513,1.513 0 0 0 0.62,-0.018 c 0.19,-0.061 0.26,-0.143 0.44,-0.535 l 0.17,-0.35 a 1.228,1.228 0 0 1 0.06,-0.116 0.425,0.425 0 0 1 0.06,-0.128 0.746,0.746 0 0 1 0.12,-0.209 4.517,4.517 0 0 1 0.46,0.758 c 0.18,0.318 0.19,0.327 0.31,0.419 a 0.611,0.611 0 0 0 0.37,0.111 l 0.79,0.122 c 0.04,0.034 0.12,0.144 0.32,0.408 a 0.507,0.507 0 0 0 0.44,0.26 c 0.29,0 0.37,-0.106 0.4,-0.564 l 0.11,-1.151 0.05,-0.5 0.03,-0.38 0.03,-0.263 0.07,-0.733 a 4.376,4.376 0 0 1 0.06,-0.537 1.209,1.209 0 0 0 0.03,-0.309 1.962,1.962 0 0 1 0.03,-0.365 c 0.02,-0.086 0.05,-0.321 0.07,-0.526 l 0.06,-0.654 0.06,-0.61 0.12,-1.139 c 0.03,-0.108 0.02,-0.106 0.04,0.1 v 0.005 l 0.1,0.887 c 0,0.039 0.01,0.075 0.01,0.1 l 0.12,1.1 a 4.569,4.569 0 0 1 0.05,0.519 1.874,1.874 0 0 0 0.03,0.327 4.311,4.311 0 0 1 0.06,0.541 l 0.07,0.564 c 0.02,0.106 0.04,0.375 0.06,0.6 l 0.16,1.523 0.09,0.914 0.05,0.469 0.14,1.234 0.12,1.2 0.13,1.139 a 0.234,0.234 0 0 0 0.01,0.082 l 0.03,0.392 0.01,0.011 0.06,0.621 0.08,0.643 a 2.248,2.248 0 0 1 0.03,0.384 0.684,0.684 0 0 0 0.15,0.5 0.575,0.575 0 0 0 0.17,0.088 l 0.11,0.041 0.13,-0.065 a 0.653,0.653 0 0 0 0.16,-0.113 2.827,2.827 0 0 0 0.14,-0.835 l 0.1,-0.733 0.09,-0.711 0.06,-0.5 0.24,-1.726 v -0.035 l 0.09,-0.687 0.03,-0.206 0.1,-0.753 c 0,-0.046 0.01,-0.094 0.01,-0.143 l 0.04,-0.293 0.02,-0.151 h 0.24 l 1.13,0.025 a 4.049,4.049 0 0 0 1.01,-0.011 2.039,2.039 0 0 0 0.46,-0.312 l 0.21,-0.175 0.43,-0.35 0.22,-0.181 c 0.04,-0.038 0.08,-0.069 0.14,-0.118 l 0.09,-0.074 0.48,-0.39 0.33,-0.266 0.07,0.045 0.2,0.183 1.23,1.105 0.18,0.158 a 1.513,1.513 0 0 0 0.2,0.158 l 0.11,0.057 1.16,0.006 -10.65,10.686 a 1.19,1.19 0 0 1 -0.88,0.4 1.174,1.174 0 0 1 -0.93,-0.459 z m 23.1200005,0.054 0.52,-0.52 2.73,0.019 2.88,-0.015 a 0.978,0.978 0 0 1 0.81,-0.325 0.7,0.7 0 0 1 0.38,0.061 0.883,0.883 0 0 1 0.47,0.453 c 0.06,0.1 0.04,0.151 -0.08,0.332 a 0.71,0.71 0 0 1 -0.27,0.252 1.234,1.234 0 0 1 -0.93,0.064 1.064,1.064 0 0 1 -0.36,-0.255 c -0.03,-0.03 -0.45,-0.036 -3.67,-0.052 z"
     id="path2"
     inkscape:connector-curvature="0"
     style="fill:#3fff91;fill-rule:evenodd" />
</svg>
