<?xml version="1.0" encoding="UTF-8" standalone="no"?>
<svg
   xmlns:dc="http://purl.org/dc/elements/1.1/"
   xmlns:cc="http://creativecommons.org/ns#"
   xmlns:rdf="http://www.w3.org/1999/02/22-rdf-syntax-ns#"
   xmlns:svg="http://www.w3.org/2000/svg"
   xmlns="http://www.w3.org/2000/svg"
   xmlns:sodipodi="http://sodipodi.sourceforge.net/DTD/sodipodi-0.dtd"
   xmlns:inkscape="http://www.inkscape.org/namespaces/inkscape"
   width="21.960001"
   height="30.646"
   version="1.1"
   id="svg6"
   sodipodi:docname="spo2.svg"
   inkscape:version="0.92.5 (2060ec1f9f, 2020-04-08)">
  <metadata
     id="metadata12">
    <rdf:RDF>
      <cc:Work
         rdf:about="">
        <dc:format>image/svg+xml</dc:format>
        <dc:type
           rdf:resource="http://purl.org/dc/dcmitype/StillImage" />
        <dc:title></dc:title>
      </cc:Work>
    </rdf:RDF>
  </metadata>
  <defs
     id="defs10" />
  <sodipodi:namedview
     pagecolor="#ffffff"
     bordercolor="#666666"
     borderopacity="1"
     objecttolerance="10"
     gridtolerance="10"
     guidetolerance="10"
     inkscape:pageopacity="0"
     inkscape:pageshadow="2"
     inkscape:window-width="775"
     inkscape:window-height="480"
     id="namedview8"
     showgrid="false"
     fit-margin-top="0"
     fit-margin-left="0"
     fit-margin-right="0"
     fit-margin-bottom="0"
     inkscape:zoom="7.7008419"
     inkscape:cx="10.98"
     inkscape:cy="15.323"
     inkscape:window-x="0"
     inkscape:window-y="326"
     inkscape:window-maximized="0"
     inkscape:current-layer="svg6" />
  <path
     d="M 12.115,0.584 C 11.854,0.218 11.43,0 10.98,0 10.53,0 10.106,0.217 9.843,0.584 7.035,4.503 0,14.811 0,19.666 c 0,6.064 4.915,10.98 10.979,10.98 6.064,0 10.981,-4.916 10.981,-10.98 C 21.961,14.811 14.923,4.503 12.115,0.584 Z M 7.124,25.881 c -0.3,0.357 -0.732,0.542 -1.167,0.542 -0.345,0 -0.695,-0.118 -0.981,-0.358 -4.329,-3.646 -2.835,-9.031 -2.769,-9.26 0.234,-0.809 1.073,-1.273 1.886,-1.042 0.813,0.231 1.274,1.075 1.045,1.881 -0.047,0.175 -0.982,3.743 1.804,6.089 0.642,0.542 0.725,1.503 0.182,2.148 z m 2.997,3.029 c -0.893,0 -1.62,-0.727 -1.62,-1.62 0,-0.893 0.727,-1.621 1.62,-1.621 0.893,0 1.62,0.726 1.62,1.621 0,0.895 -0.725,1.62 -1.62,1.62 z"
     id="path2"
     inkscape:connector-curvature="0"
     style="fill:#00f0ff" />
  <path
     d="m 20.54672,23.86417 h -3.89078 c 0.04443,-0.38395 0.18001,-0.74512 0.40674,-1.08349 0.22673,-0.33837 0.64941,-0.73828 1.27148,-1.1997 0.38053,-0.28255 0.62321,-0.49674 0.7303,-0.64258 0.10709,-0.14584 0.1595,-0.28597 0.1595,-0.41699 0,-0.14242 -0.05241,-0.26432 -0.15723,-0.36458 -0.10482,-0.10026 -0.23812,-0.15153 -0.39762,-0.15153 -0.1652,0 -0.30078,0.05241 -0.4056,0.15609 -0.10482,0.10368 -0.17546,0.28939 -0.21191,0.55371 l -1.29769,-0.10482 c 0.05127,-0.36572 0.14469,-0.65055 0.28027,-0.85563 0.13558,-0.20508 0.32698,-0.3623 0.57308,-0.47168 0.2461,-0.10938 0.59017,-0.16406 1.02653,-0.16406 0.45573,0 0.81006,0.05241 1.06412,0.15609 0.25406,0.10368 0.45231,0.26318 0.597,0.47851 0.14469,0.21533 0.21875,0.45687 0.21875,0.72461 0,0.28369 -0.08317,0.55485 -0.24951,0.81461 -0.16634,0.25976 -0.4694,0.54346 -0.90918,0.85221 l -0.52409,0.37939 -0.31103,0.28369 h 2.02571 v 1.05615 z M 6.54676,18.14706 c 0,-1.47884 0.41129,-2.63183 1.2373,-3.45442 0.82601,-0.82259 1.97216,-1.2373 3.4453,-1.2373 1.50846,0 2.67171,0.4056 3.4886,1.21338 0.81689,0.80778 1.22363,1.94596 1.22363,3.40429 0,1.05957 -0.17773,1.92659 -0.53434,2.60449 -0.35661,0.6779 -0.87386,1.2054 -1.5472,1.58252 -0.67334,0.37712 -1.5153,0.5651 -2.52245,0.5651 -1.02197,0 -1.86735,-0.16178 -2.5384,-0.48763 C 8.12815,22.01164 7.58582,21.49553 7.16997,20.79029 6.75412,20.08505 6.54676,19.20664 6.54676,18.14707 Z m 2.79817,0.0057 c 0,0.91373 0.1709,1.57226 0.51042,1.97102 0.33952,0.39876 0.80664,0.59928 1.39225,0.59928 0.60156,0 1.06982,-0.19596 1.39908,-0.58675 0.32926,-0.39079 0.4956,-1.09375 0.4956,-2.10774 0,-0.85221 -0.17318,-1.47542 -0.51725,-1.86735 -0.34407,-0.39193 -0.81234,-0.59131 -1.40364,-0.59131 -0.5651,0 -1.02083,0.20052 -1.36377,0.59928 -0.34294,0.39876 -0.51269,1.06185 -0.51269,1.98356 z"
     id="path4"
     inkscape:connector-curvature="0"
     style="fill:#ffffff;fill-rule:evenodd" />
</svg>
