<?xml version="1.0" encoding="UTF-8" standalone="no"?>
<svg
   xmlns:dc="http://purl.org/dc/elements/1.1/"
   xmlns:cc="http://creativecommons.org/ns#"
   xmlns:rdf="http://www.w3.org/1999/02/22-rdf-syntax-ns#"
   xmlns:svg="http://www.w3.org/2000/svg"
   xmlns="http://www.w3.org/2000/svg"
   xmlns:sodipodi="http://sodipodi.sourceforge.net/DTD/sodipodi-0.dtd"
   xmlns:inkscape="http://www.inkscape.org/namespaces/inkscape"
   width="8.7424097"
   height="17.00281"
   viewBox="0 0 8.7424097 17.00281"
   version="1.1"
   id="svg8"
   sodipodi:docname="temp.svg"
   style="fill:none"
   inkscape:version="0.92.5 (2060ec1f9f, 2020-04-08)">
  <metadata
     id="metadata14">
    <rdf:RDF>
      <cc:Work
         rdf:about="">
        <dc:format>image/svg+xml</dc:format>
        <dc:type
           rdf:resource="http://purl.org/dc/dcmitype/StillImage" />
        <dc:title></dc:title>
      </cc:Work>
    </rdf:RDF>
  </metadata>
  <defs
     id="defs12" />
  <sodipodi:namedview
     pagecolor="#ffffff"
     bordercolor="#666666"
     borderopacity="1"
     objecttolerance="10"
     gridtolerance="10"
     guidetolerance="10"
     inkscape:pageopacity="0"
     inkscape:pageshadow="2"
     inkscape:window-width="775"
     inkscape:window-height="480"
     id="namedview10"
     showgrid="false"
     fit-margin-top="0"
     fit-margin-left="0"
     fit-margin-right="0"
     fit-margin-bottom="0"
     inkscape:zoom="13.111111"
     inkscape:cx="4.31543"
     inkscape:cy="8.5909"
     inkscape:window-x="0"
     inkscape:window-y="326"
     inkscape:window-maximized="0"
     inkscape:current-layer="svg8" />
  <path
     d="m 7.28531,9.58381 v -6.75 C 7.28531,1.26875 5.98069,0 4.37121,0 2.76183,0 1.45711,1.26875 1.45711,2.83381 v 6.7499 C 0.56283,10.36211 0,11.49321 0,12.75211 c 0,2.3477 1.95703,4.2507 4.37121,4.2507 2.41417,0 4.3712,-1.903 4.3712,-4.2507 0,-1.2589 -0.56283,-2.39 -1.4571,-3.1683 z m -2.9141,6.0021 c -1.60938,0 -2.9141,-1.2687 -2.9141,-2.8338 0,-0.8182 0.35651,-1.5772 0.97167,-2.1125 l 0.48543,-0.4225 v -7.3833 c 0,-0.78259 0.65231,-1.41691 1.457,-1.41691 0.8048,0 1.4571,0.63432 1.4571,1.41691 v 7.3833 l 0.48532,0.4225 c 0.61528,0.5353 0.97179,1.2943 0.97179,2.1125 -1.1e-4,1.5651 -1.30473,2.8338 -2.91421,2.8338 z"
     id="path2"
     inkscape:connector-curvature="0"
     style="fill:#ffffff" />
  <path
     d="M 4.99602,4.57764 H 3.74707 v 8.50147 h 1.24895 z"
     id="path4"
     inkscape:connector-curvature="0"
     style="fill:#ffffff" />
  <path
     d="m 4.37376,15.04051 c 1.37948,0 2.4979,-1.0247 2.4979,-2.2888 0,-1.2641 -1.11842,-2.2888 -2.4979,-2.2888 -1.37948,0 -2.49778,1.0247 -2.49778,2.2888 0,1.2641 1.1183,2.2888 2.49778,2.2888 z"
     id="path6"
     inkscape:connector-curvature="0"
     style="fill:#ffffff" />
</svg>
