<svg xmlns="http://www.w3.org/2000/svg" width="40" height="40" viewBox="0 0 40 40">
  <g id="Group_355" data-name="Group 355" transform="translate(-1381 -95)">
    <path id="Path_2070" data-name="Path 2070" d="M1376,92a4,4,0,0,1,4-4h32a4,4,0,0,1,4,4v32a4,4,0,0,1-4,4h-32a4,4,0,0,1-4-4Z" transform="translate(5 7)" fill="#262d32" opacity="0.12"/>
    <g id="Group_355-2" data-name="Group 355" transform="translate(5 3.75)">
      <path id="Path_2068" data-name="Path 2068" d="M1396,99.25a5,5,0,1,1-5,5A4.991,4.991,0,0,1,1396,99.25Z" fill="#dadada"/>
      <path id="Path_2069" data-name="Path 2069" d="M1396,123a12.163,12.163,0,0,1-10-5.111c.05-3.159,6.67-4.889,10-4.889s9.95,1.73,10,4.889A12.163,12.163,0,0,1,1396,123Z" fill="#dadada"/>
    </g>
  </g>
</svg>
