<svg xmlns="http://www.w3.org/2000/svg" width="18" height="16" viewBox="0 0 18 16">
  <g id="icons-biosensor" transform="translate(-940 -392)">
    <rect id="Rectangle_13" data-name="Rectangle 13" width="2.571" height="6.531" rx="1.286" transform="translate(947.715 397.225)" fill="#fff"/>
    <ellipse id="Ellipse_1" data-name="Ellipse 1" cx="0.643" cy="0.653" rx="0.643" ry="0.653" transform="translate(942.57 393.959)" fill="#fff"/>
    <ellipse id="Ellipse_2" data-name="Ellipse 2" cx="0.643" cy="0.653" rx="0.643" ry="0.653" transform="translate(942.57 404.081)" fill="#fff"/>
    <ellipse id="Ellipse_3" data-name="Ellipse 3" cx="0.643" cy="0.653" rx="0.643" ry="0.653" transform="translate(954.465 393.959)" fill="#fff"/>
    <ellipse id="Ellipse_4" data-name="Ellipse 4" cx="0.643" cy="0.653" rx="0.643" ry="0.653" transform="translate(954.465 404.081)" fill="#fff"/>
    <path id="Path_79" data-name="Path 79" d="M942.953,397.395a2.447,2.447,0,1,1,1.98-3.893,2.6,2.6,0,0,0,1.036.827,1.972,1.972,0,0,0,1.371.109,6.012,6.012,0,0,1,3.461-.029,2.193,2.193,0,0,0,2.264-.9,2.449,2.449,0,1,1,1.539,3.85,2.084,2.084,0,0,0-1.056.069,1.34,1.34,0,0,0-.84.8,5.525,5.525,0,0,0-.1,3.417,1.363,1.363,0,0,0,.855.906,2.163,2.163,0,0,0,1.143.092,2.533,2.533,0,0,1,.44-.039,2.447,2.447,0,1,1-1.941,3.945,2.121,2.121,0,0,0-2.081-.834,7.4,7.4,0,0,1-3.806-.2,2.118,2.118,0,0,0-2.248.927,2.449,2.449,0,1,1-1.455-3.775,2.175,2.175,0,0,0,1.216-.053,1.305,1.305,0,0,0,.875-.987,6.551,6.551,0,0,0-.276-3.3,1.406,1.406,0,0,0-.855-.866,2.171,2.171,0,0,0-1.117-.1A2.462,2.462,0,0,1,942.953,397.395Z" fill="none" stroke="#fff" stroke-width="1"/>
  </g>
</svg>
