<svg xmlns="http://www.w3.org/2000/svg" xmlns:xlink="http://www.w3.org/1999/xlink" width="40" height="28" viewBox="0 0 40 28">
  <defs>
    <clipPath id="clip-body-icon">
      <rect width="40" height="28"/>
    </clipPath>
  </defs>
  <g id="body-icon" clip-path="url(#clip-body-icon)">
    <g id="Group_71" data-name="Group 71" transform="translate(0.169 -3.265)">
      <path id="Path_454" data-name="Path 454" d="M804.243,333.029V322.209a4.818,4.818,0,0,0-9.62,0v10.819a6.638,6.638,0,0,0-2.406,5.079,7.228,7.228,0,0,0,14.432,0A6.638,6.638,0,0,0,804.243,333.029Zm-4.81,9.621a4.681,4.681,0,0,1-4.81-4.542,4.418,4.418,0,0,1,1.6-3.387l.8-.677V322.209a2.409,2.409,0,0,1,4.811,0v11.835l.8.677a4.419,4.419,0,0,1,1.6,3.387A4.683,4.683,0,0,1,799.433,342.65Z" transform="translate(-785 -314)" fill="#fff"/>
      <path id="Path_455" data-name="Path 455" d="M800.809,324.948a1.2,1.2,0,0,0-2.406,0v14.22h2.406Z" transform="translate(-785.173 -314.171)" fill="#fff"/>
      <path id="Path_456" data-name="Path 456" d="M799.536,341.844a3.556,3.556,0,1,0-3.607-3.555A3.582,3.582,0,0,0,799.536,341.844Z" transform="translate(-785.104 -314.478)" fill="#fff"/>
      <path id="Path_457" data-name="Path 457" d="M816.827,321.4H815.51l-.008-.715h1.106a1.333,1.333,0,0,0,.479-.073.577.577,0,0,0,.279-.219.635.635,0,0,0,.1-.354.708.708,0,0,0-.092-.382.505.505,0,0,0-.278-.212,1.487,1.487,0,0,0-.483-.065h-.732v4.238h-1.058v-5.054h1.789a3.493,3.493,0,0,1,.8.084,1.748,1.748,0,0,1,.6.254,1.132,1.132,0,0,1,.377.431,1.337,1.337,0,0,1,.13.61,1.183,1.183,0,0,1-.145.576,1.059,1.059,0,0,1-.447.431,1.781,1.781,0,0,1-.793.184Zm-.046,2.218h-1.561l.412-.812h1.149a1.025,1.025,0,0,0,.455-.087.6.6,0,0,0,.26-.243.708.708,0,0,0,.085-.35.894.894,0,0,0-.078-.386.523.523,0,0,0-.239-.25.915.915,0,0,0-.437-.09H815.81l.007-.715h1.268l.243.282a1.417,1.417,0,0,1,.754.163,1.014,1.014,0,0,1,.419.434,1.259,1.259,0,0,1,.134.573,1.474,1.474,0,0,1-.216.819,1.3,1.3,0,0,1-.63.5A2.705,2.705,0,0,1,816.782,323.616Zm2.251,4.465v.239a3.145,3.145,0,0,1-.158,1.034,2.273,2.273,0,0,1-.447.782,1.925,1.925,0,0,1-.691.489,2.382,2.382,0,0,1-1.768,0,1.979,1.979,0,0,1-.691-.489,2.287,2.287,0,0,1-.454-.782,3.142,3.142,0,0,1-.159-1.034v-.239a3.128,3.128,0,0,1,.159-1.035,2.25,2.25,0,0,1,.447-.78,1.962,1.962,0,0,1,.69-.494,2.385,2.385,0,0,1,1.769,0,1.918,1.918,0,0,1,.69.494,2.214,2.214,0,0,1,.451.78A3.054,3.054,0,0,1,819.033,328.082Zm-1.067.239v-.247a3.009,3.009,0,0,0-.074-.708,1.53,1.53,0,0,0-.219-.514.936.936,0,0,0-.352-.312,1.1,1.1,0,0,0-.952,0,.942.942,0,0,0-.349.312,1.569,1.569,0,0,0-.215.514,3.012,3.012,0,0,0-.074.708v.247a3.05,3.05,0,0,0,.074.709,1.574,1.574,0,0,0,.219.517.972.972,0,0,0,.352.316,1.112,1.112,0,0,0,.952,0,.947.947,0,0,0,.349-.316,1.633,1.633,0,0,0,.215-.517A3.047,3.047,0,0,0,817.965,328.321Zm-1.572,9.516h-1.117l.008-.813h1.109a1.272,1.272,0,0,0,.7-.184,1.148,1.148,0,0,0,.43-.545,2.269,2.269,0,0,0,.148-.864v-.247a2.494,2.494,0,0,0-.085-.684,1.359,1.359,0,0,0-.243-.5,1.006,1.006,0,0,0-.4-.3,1.324,1.324,0,0,0-.542-.1h-1.149v-.816H816.4a2.473,2.473,0,0,1,.941.174,2.128,2.128,0,0,1,.744.49,2.187,2.187,0,0,1,.482.763,2.668,2.668,0,0,1,.173.983v.24a2.677,2.677,0,0,1-.173.982,2.182,2.182,0,0,1-.482.764,2.147,2.147,0,0,1-.744.49A2.579,2.579,0,0,1,816.394,337.837Zm-.517-5.055v5.055h-1.058v-5.055Zm-.353,7.11,1.071,2.306,1.071-2.306h1.152l-1.687,3.214v1.84h-1.071v-1.84l-1.691-3.214Z" transform="translate(-785.62 -314.025)" fill="#fff"/>
    </g>
  </g>
</svg>
