<svg xmlns="http://www.w3.org/2000/svg" width="31.485" height="25" viewBox="0 0 31.485 25">
  <g id="Group_80" data-name="Group 80" transform="translate(-367 -389)">
    <path id="Path_45" data-name="Path 45" d="M375.162,396.044c0-6.333.006-6.384.812-6.811.579-.307,9.436-.312,10.1-.007a2.069,2.069,0,0,1,.442.245c.494.4.489,1.343.489,6.422,0,6.087-.01,6.178-.735,6.674a1.76,1.76,0,0,1-.837.215H384.9l-.045,3.131c-.044,3.112-.047,3.137-.44,3.918a5.064,5.064,0,0,1-1.029,1.332c-1.092.939-1.493,1.018-5.474,1.084l-3.517.058-.537.6a4.778,4.778,0,0,1-4.933.712c-1.015-.486-1.448-1.051-1.448-1.884,0-1.337,1.391-2.271,3.382-2.271a3.551,3.551,0,0,1,3.01,1.111l.549.609h3.453c3.885,0,4.091-.039,5.035-.961.868-.848,1-1.506.957-4.693l-.039-2.673-2.12-.038-2.121-.038-.15,1a4.856,4.856,0,0,1-2.839,3.934,3.943,3.943,0,0,1-2,.367,3.776,3.776,0,0,1-1.99-.358,4.817,4.817,0,0,1-2.894-4c-.087-.908-.1-.928-.58-1.083a3.853,3.853,0,0,1-1.883-1.708,3.166,3.166,0,0,1,.616-3.4,3.37,3.37,0,0,1,4.524-.142,3.141,3.141,0,0,1-1.224,5.287l-.541.159.095.766a3.793,3.793,0,0,0,3.806,3.507,3.416,3.416,0,0,0,2.581-.936,3.692,3.692,0,0,0,1.293-2.665l0-.723h-1.142c-1.11,0-1.155-.013-1.621-.468l-.479-.468Zm-2.818,3.641a1.994,1.994,0,0,0-1.13-1.892,2.26,2.26,0,0,0-2.874.766,2.22,2.22,0,0,0,0,2.243A2.167,2.167,0,0,0,372.344,399.685Zm-2.59.175c-.127-.2-.034-.356.544-.929.719-.714,1.044-.834,1.334-.494.215.254.062.533-.671,1.227C370.378,400.216,370.021,400.274,369.754,399.86Zm15.674-7.735c0-2.5-2.48-2.292-3.719-1.875a3.027,3.027,0,0,0-.443.048c0,.044,2.65.086,3.04,1.827.155,2.292.277,7.125-.477,8.125-.5.66-2.117.811-2.978.891-.77.072-.933.087.858.359,3.033.461,3.743-1.768,3.719-2.941Z" fill="#ff983a" fill-rule="evenodd"/>
    <path id="Path_46" data-name="Path 46" d="M389.793,409v-4.794h2.1a1.9,1.9,0,0,1,1.2.333,1.185,1.185,0,0,1,.163,1.646,1.281,1.281,0,0,1-.714.4v-.1a1.324,1.324,0,0,1,.81.381,1.087,1.087,0,0,1,.292.8,1.2,1.2,0,0,1-.442.993,1.951,1.951,0,0,1-1.231.347Zm.844-.666h1.237a1.229,1.229,0,0,0,.687-.164.623.623,0,0,0,.245-.55.613.613,0,0,0-.245-.551,1.187,1.187,0,0,0-.687-.17h-1.237Zm0-2.1h1.108a1.146,1.146,0,0,0,.694-.17.611.611,0,0,0,.231-.517.594.594,0,0,0-.231-.51,1.123,1.123,0,0,0-.694-.176h-1.108Zm4.1,2.761v-4.794h2.129a1.716,1.716,0,0,1,1.2.381,1.528,1.528,0,0,1,0,2.094,1.7,1.7,0,0,1-1.2.388h-1.251V409Zm.878-2.625h1.149a.968.968,0,0,0,.653-.19.706.706,0,0,0,.217-.551.684.684,0,0,0-.217-.544.948.948,0,0,0-.653-.2h-1.149Z" fill="#ff983a"/>
  </g>
</svg>
