<svg xmlns="http://www.w3.org/2000/svg" xmlns:xlink="http://www.w3.org/1999/xlink" width="40" height="28" viewBox="0 0 40 28">
  <defs>
    <clipPath id="clip-bp-icon-small_1">
      <rect width="40" height="28"/>
    </clipPath>
  </defs>
  <g id="bp-icon-small_1" data-name="bp-icon-small – 1" clip-path="url(#clip-bp-icon-small_1)">
    <path id="track-large" d="M8.77,7.89C8.77.8,8.776.739,9.642.261c.621-.343,10.137-.35,10.846-.008a2.2,2.2,0,0,1,.475.274c.531.452.525,1.5.525,7.193,0,6.817-.011,6.919-.79,7.475a1.828,1.828,0,0,1-.9.241h-.562l-.048,3.507c-.048,3.485-.051,3.513-.473,4.388a5.652,5.652,0,0,1-1.106,1.492c-1.173,1.052-1.6,1.14-5.881,1.214L7.951,26.1l-.577.668A3.738,3.738,0,0,1,4.152,28a3.661,3.661,0,0,1-2.078-.433,2.26,2.26,0,0,1-1.556-2.11c0-1.5,1.5-2.544,3.634-2.544a3.734,3.734,0,0,1,3.234,1.245l.59.682h3.71c4.175,0,4.4-.044,5.41-1.077.933-.95,1.077-1.687,1.028-5.257l-.041-2.994L15.8,15.47l-2.278-.042-.161,1.122a5.426,5.426,0,0,1-3.051,4.405,4.089,4.089,0,0,1-2.149.412,3.921,3.921,0,0,1-2.138-.4,5.386,5.386,0,0,1-3.109-4.484c-.093-1.017-.1-1.039-.623-1.213A4.207,4.207,0,0,1,.27,13.355a3.661,3.661,0,0,1,.662-3.8,3.514,3.514,0,0,1,4.861-.159,3.579,3.579,0,0,1-1.315,5.922l-.582.178.1.858a4.146,4.146,0,0,0,4.089,3.928,3.589,3.589,0,0,0,2.773-1.048,4.206,4.206,0,0,0,1.389-2.986l0-.809H11.026c-1.193,0-1.241-.014-1.741-.524l-.515-.524ZM5.741,11.967A2.247,2.247,0,0,0,4.527,9.848a2.37,2.37,0,0,0-3.087.859,2.575,2.575,0,0,0,0,2.512A2.314,2.314,0,0,0,5.741,11.967Zm-2.782.2c-.137-.221-.037-.4.584-1.041.773-.8,1.122-.934,1.433-.553.231.284.067.6-.72,1.373C3.629,12.561,3.246,12.627,2.959,12.163ZM19.8,3.5c0-2.8-2.664-2.567-4-2.1a3.271,3.271,0,0,0-.476.053c0,.049,2.847.1,3.267,2.047.167,2.567.3,7.98-.512,9.1-.535.739-2.275.908-3.2,1-.827.08-1,.1.922.4a3.151,3.151,0,0,0,4-3.293Z" transform="translate(9 0)" fill="#ff983a" fill-rule="evenodd"/>
  </g>
</svg>
