<svg xmlns="http://www.w3.org/2000/svg" width="27.002" height="23" viewBox="0 0 27.002 23">
  <g id="bp-waveform-icon" transform="translate(-1208.998 -132)">
    <path id="Path_870" data-name="Path 870" d="M1215.53,141.354c0-4.813,0-4.852.65-5.177a46.881,46.881,0,0,1,8.08-.005,1.617,1.617,0,0,1,.35.186c.39.306.39,1.02.39,4.881,0,4.626-.01,4.7-.59,5.072a1.471,1.471,0,0,1-.67.163h-.42l-.03,2.38c-.04,2.365-.04,2.384-.35,2.978a3.839,3.839,0,0,1-.83,1.012c-.87.714-1.19.774-4.38.824l-2.81.044-.43.453a2.928,2.928,0,0,1-2.4.835,2.97,2.97,0,0,1-1.55-.294c-.81-.37-1.15-.8-1.15-1.432,0-1.016,1.11-1.726,2.7-1.726a2.921,2.921,0,0,1,2.41.845l.44.462h2.76c3.11,0,3.27-.029,4.03-.73.69-.645.8-1.145.76-3.567l-.03-2.031-1.69-.029-1.7-.029-.12.761a3.7,3.7,0,0,1-2.27,2.989,3.307,3.307,0,0,1-1.6.28,3.147,3.147,0,0,1-1.59-.273,3.693,3.693,0,0,1-2.32-3.042c-.07-.69-.08-.706-.46-.824a3.04,3.04,0,0,1-1.51-1.3,2.318,2.318,0,0,1,.49-2.58,2.8,2.8,0,0,1,3.62-.108,2.337,2.337,0,0,1-.98,4.018l-.43.121.08.582a2.979,2.979,0,0,0,3.04,2.666,2.836,2.836,0,0,0,2.07-.711,2.744,2.744,0,0,0,1.03-2.027v-.549h-.91c-.89,0-.92-.009-1.3-.355l-.38-.356Zm-2.25,2.767a1.519,1.519,0,0,0-.91-1.439,1.87,1.87,0,0,0-2.3.583,1.633,1.633,0,0,0,0,1.7A1.752,1.752,0,0,0,1213.28,144.121Zm-2.08.132c-.1-.15-.02-.27.44-.706.57-.542.83-.633,1.07-.375.17.193.05.406-.54.932C1211.7,144.524,1211.42,144.568,1211.2,144.253Zm12.54-5.878c0-1.9-1.98-1.742-2.97-1.425a2.92,2.92,0,0,0-.36.036c0,.034,2.12.066,2.43,1.389.13,1.742.23,5.415-.38,6.175-.39.5-1.69.616-2.38.677-.62.055-.75.066.69.273,2.42.35,2.99-1.344,2.97-2.235Z" fill="#fff" fill-rule="evenodd"/>
    <path id="Path_871" data-name="Path 871" d="M1228.33,136.6h1.75a.336.336,0,0,0,.37-.261l.54-2.424.99,5.839a.332.332,0,0,0,.64,0l.95-4.387.19.934a.346.346,0,0,0,.37.295h1.54a.322.322,0,0,0,.33-.315.317.317,0,0,0-.33-.318h-1.37l-.44-1.921a.328.328,0,0,0-.63.011l-.93,4.084-1-5.9a.307.307,0,0,0-.6,0l-.83,3.73h-1.54a.317.317,0,1,0,0,.633Z" fill="#fff"/>
  </g>
</svg>
