<svg width="21" height="20" viewBox="0 0 21 24" fill="none" xmlns="http://www.w3.org/2000/svg">
    <path d="M6 11.4375V9.5625C6 9.25186 6.25186 9 6.5625 9H8.4375C8.74814 9 9 9.25186 9 9.5625V11.4375C9 11.7481 8.74814 12 8.4375 12H6.5625C6.25186 12 6 11.7481 6 11.4375ZM12.5625 12H14.4375C14.7481 12 15 11.7481 15 11.4375V9.5625C15 9.25186 14.7481 9 14.4375 9H12.5625C12.2519 9 12 9.25186 12 9.5625V11.4375C12 11.7481 12.2519 12 12.5625 12ZM9 15.9375V14.0625C9 13.7519 8.74814 13.5 8.4375 13.5H6.5625C6.25186 13.5 6 13.7519 6 14.0625V15.9375C6 16.2481 6.25186 16.5 6.5625 16.5H8.4375C8.74814 16.5 9 16.2481 9 15.9375ZM12.5625 16.5H14.4375C14.7481 16.5 15 16.2481 15 15.9375V14.0625C15 13.7519 14.7481 13.5 14.4375 13.5H12.5625C12.2519 13.5 12 13.7519 12 14.0625V15.9375C12 16.2481 12.2519 16.5 12.5625 16.5ZM21 22.3125V24H0V22.3125C0 22.0019 0.251859 21.75 0.5625 21.75H1.47656V3.98602C1.47656 3.44147 1.98023 3 2.60156 3H6.75V1.125C6.75 0.503672 7.25367 0 7.875 0H13.125C13.7463 0 14.25 0.503672 14.25 1.125V3H18.3984C19.0198 3 19.5234 3.44147 19.5234 3.98602V21.75H20.4375C20.7481 21.75 21 22.0019 21 22.3125ZM3.72656 21.7031H9V18.5625C9 18.2519 9.25186 18 9.5625 18H11.4375C11.7481 18 12 18.2519 12 18.5625V21.7031H17.2734V5.25H14.25V6.375C14.25 6.99633 13.7463 7.5 13.125 7.5H7.875C7.25367 7.5 6.75 6.99633 6.75 6.375V5.25H3.72656V21.7031ZM12.4688 3H11.25V1.78125C11.25 1.70666 11.2204 1.63512 11.1676 1.58238C11.1149 1.52963 11.0433 1.5 10.9688 1.5H10.0312C9.95666 1.5 9.88512 1.52963 9.83238 1.58238C9.77963 1.63512 9.75 1.70666 9.75 1.78125V3H8.53125C8.45666 3 8.38512 3.02963 8.33238 3.08238C8.27963 3.13512 8.25 3.20666 8.25 3.28125V4.21875C8.25 4.29334 8.27963 4.36488 8.33238 4.41762C8.38512 4.47037 8.45666 4.5 8.53125 4.5H9.75V5.71875C9.75 5.79334 9.77963 5.86488 9.83238 5.91762C9.88512 5.97037 9.95666 6 10.0312 6H10.9688C11.0433 6 11.1149 5.97037 11.1676 5.91762C11.2204 5.86488 11.25 5.79334 11.25 5.71875V4.5H12.4688C12.5433 4.5 12.6149 4.47037 12.6676 4.41762C12.7204 4.36488 12.75 4.29334 12.75 4.21875V3.28125C12.75 3.20666 12.7204 3.13512 12.6676 3.08238C12.6149 3.02963 12.5433 3 12.4688 3Z" fill="#4EA2EF" />
</svg>