<svg xmlns="http://www.w3.org/2000/svg" width="17" height="15" viewBox="0 0 17 15">
  <g id="Group_180" data-name="Group 180" transform="translate(3551 11989)">
    <path id="Path_1514" data-name="Path 1514" d="M617,168.761A4.672,4.672,0,0,0,612.423,164a4.542,4.542,0,0,0-3.923,2.308A4.542,4.542,0,0,0,604.577,164,4.672,4.672,0,0,0,600,168.761a4.839,4.839,0,0,0,1.444,3.47h0L608,178.754a.635.635,0,0,0,.977.032l6.585-6.555h0A4.839,4.839,0,0,0,617,168.761Z" transform="translate(-4151 -12153)" fill="#00ff6d"/>
    <path id="Path_1515" data-name="Path 1515" d="M608.936,164.029c-.114.053-.135.09-.158.284-.012.1-.033.262-.045.362s-.032.286-.039.42a.835.835,0,0,1-.035.249.4.4,0,0,0-.019.155,6.32,6.32,0,0,1-.07.748c-.014.113-.037.313-.049.448s-.027.285-.032.334-.021.222-.035.383-.035.367-.049.456-.042.4-.067.685-.063.653-.082.815-.044.407-.058.545-.035.356-.049.481-.033.328-.044.448-.033.3-.047.391-.028.235-.035.313l-.016.142-.063-.033a1.876,1.876,0,0,0-.424-.075l-.36-.042-.042-.067c-.024-.037-.1-.173-.182-.3s-.153-.259-.17-.285-.07-.116-.116-.2-.1-.176-.126-.211-.049-.082-.058-.1a.382.382,0,0,0-.214-.129.339.339,0,0,0-.354.225c-.04.088-.158.324-.391.787-.033.062-.079.159-.107.216a.275.275,0,0,1-.075.111c-.014,0-.219,0-.451-.008-.641-.023-.652-.016-.794.339-.014.034-.028.02-.1-.1a.879.879,0,0,0-.151-.2l-.075-.059-.556.005a1.811,1.811,0,0,1-.927-.111c-.063-.019-.149-.045-.188-.059l-.231-.071-.242-.077c-.046-.013-.163-.052-.258-.085a.743.743,0,0,0-.594.005c-.235.09-.307.538.044.411l.254-.093.3.091c.165.051.426.134.584.186s.366.119.461.148l.175.054.445-.011.447-.012.109.184c.06.1.128.214.151.25l.093.155c.117.2.226.265.4.229s.214-.1.282-.36c.037-.142.067-.254.1-.342s.032-.09.109-.1c.044,0,.24,0,.431.015a1.136,1.136,0,0,0,.458-.013c.145-.044.193-.1.331-.387.06-.125.116-.239.123-.252s.047-.093.089-.176a.46.46,0,0,1,.093-.152,3.494,3.494,0,0,1,.34.548c.135.23.139.236.232.3a.453.453,0,0,0,.268.08c.526.058.561.063.587.088a3.673,3.673,0,0,1,.24.295.373.373,0,0,0,.328.187c.216,0,.272-.077.3-.407.016-.209.044-.5.079-.831.007-.059.023-.22.035-.359s.035-.349.046-.464.035-.356.049-.53a3.338,3.338,0,0,1,.047-.388.873.873,0,0,0,.023-.223,1.451,1.451,0,0,1,.023-.264c.012-.062.035-.231.049-.38s.035-.36.047-.472.03-.31.042-.44c.046-.5.072-.745.088-.823s.017-.077.035.073c.021.167.061.543.079.717.026.258.059.549.091.791.019.143.035.311.035.374a1.409,1.409,0,0,0,.023.237c.012.067.033.242.047.391s.035.331.046.407.033.271.047.432c.026.31.04.459.116,1.1.026.22.056.516.07.66s.028.3.035.339c.016.1.075.581.1.891.042.419.07.671.093.864.044.335.072.59.093.823.012.125.026.278.033.342s.03.267.049.456.046.4.058.464a1.679,1.679,0,0,1,.023.277.494.494,0,0,0,.109.362.608.608,0,0,0,.126.064l.086.029.093-.047a.421.421,0,0,0,.121-.082,2.092,2.092,0,0,0,.105-.6c.019-.166.051-.4.07-.529s.051-.357.07-.513.039-.318.046-.359c.068-.438.142-.973.173-1.247.014-.107.044-.342.07-.521.053-.38.06-.422.093-.692.014-.113.03-.253.039-.315l.017-.109h.176c.1,0,.475.008.841.018a3.148,3.148,0,0,0,.747-.008,1.532,1.532,0,0,0,.338-.225l.479-.38c.058-.046.131-.1.161-.13s.109-.088.172-.139.226-.176.359-.282l.242-.192.049.033c.025.019.1.078.153.132.1.1.968.855,1.007.878l.187-.3h0v-.073l-.1-.057c.072-.242-1.022-.987-1.07-1.024a.232.232,0,0,0-.193-.065c-.147,0-.133-.01-.968.657-.352.279-.629.5-.783.626-.079.063-.17.133-.2.154l-.061.04-.505-.02c-.279-.01-.7-.02-.931-.023-.422,0-.422,0-.485.038a.426.426,0,0,0-.093.081,2.2,2.2,0,0,0-.1.6,3.408,3.408,0,0,1-.049.342c-.012.054-.033.192-.047.31s-.035.277-.044.358c-.037.266-.068.5-.1.779a1.9,1.9,0,0,1-.044.282c-.023.016-.06-.155-.072-.328-.007-.1-.03-.319-.049-.488s-.046-.406-.058-.522-.033-.3-.044-.407c-.049-.435-.1-.908-.121-1.108-.012-.118-.026-.253-.033-.3s-.025-.254-.046-.456-.047-.42-.061-.486a1.65,1.65,0,0,1-.021-.247.984.984,0,0,0-.021-.207,2.947,2.947,0,0,1-.049-.38c-.014-.166-.035-.36-.046-.432s-.035-.244-.047-.383c-.051-.542-.07-.734-.105-1-.021-.153-.046-.4-.06-.546s-.03-.356-.044-.464-.038-.339-.056-.513-.042-.351-.049-.391c-.012-.087-.026-.219-.058-.587-.014-.148-.035-.327-.047-.4s-.028-.215-.035-.318c-.018-.244-.044-.314-.144-.375A.261.261,0,0,0,608.936,164.029Z" transform="translate(-4151 -12153)" fill="#09478e"/>
  </g>
</svg>
