<svg xmlns="http://www.w3.org/2000/svg" width="22.643" height="19.643" viewBox="0 0 22.643 19.643">
  <g id="Group_2" data-name="Group 2" transform="translate(-802 -496)">
    <path id="Path_12" data-name="Path 12" d="M21.726,60.253a4.031,4.031,0,0,1-3.85-4.184A3.951,3.951,0,0,1,21.726,52a3.983,3.983,0,0,1,3.85,4.087A4.027,4.027,0,0,1,21.726,60.253Zm0-1.538a2.459,2.459,0,0,0,2.241-2.628,2.4,2.4,0,0,0-2.241-2.549,2.377,2.377,0,0,0-2.241,2.531A2.47,2.47,0,0,0,21.726,58.715Zm0,2.558a9.22,9.22,0,0,1,2.857.436c.753.245,1.554,1.1.891,1.532-.467.305-1.12.012-1.656-.144a7.5,7.5,0,0,0-2.092-.287c-3.867,0-6.038,2.5-6.038,3.85,0,.158.079.229.29.229H22.5c.627,0,1.345,0,1.561.59.244.661-.741.948-1.445.948H16.25c-1.521,0-2.25-.483-2.25-1.521C14,64.489,17.015,61.272,21.726,61.272Z" transform="translate(788 444)" fill="#fff"/>
    <path id="Path_13" data-name="Path 13" d="M30.413,60.357a.5.5,0,0,1,.509.412l1.153,6.5.759-1.625a.5.5,0,0,1,.933.071l.466,1.587h1.911a.5.5,0,0,1,0,1H33.857a.5.5,0,0,1-.48-.359l-.2-.676L32.31,69.13a.5.5,0,0,1-.945-.124l-.823-4.643L29.783,71.2a.5.5,0,0,1-.981.069l-.817-3.179a.5.5,0,0,1-.413.218H25.857a.5.5,0,0,1,0-1h1.409l.432-.84a.5.5,0,0,1,.929.1l.463,1.8.841-7.571A.5.5,0,0,1,30.413,60.357Z" transform="translate(788 444)" fill="#fff" fill-rule="evenodd"/>
  </g>
</svg>
