<svg xmlns="http://www.w3.org/2000/svg" xmlns:xlink="http://www.w3.org/1999/xlink" width="40" height="28" viewBox="0 0 40 28">
  <defs>
    <clipPath id="clip-hr-icon">
      <rect width="40" height="28"/>
    </clipPath>
  </defs>
  <g id="hr-icon" clip-path="url(#clip-hr-icon)">
    <g id="Group_69" data-name="Group 69" transform="translate(-282 45.852)">
      <path id="Path_447" data-name="Path 447" d="M95.288,319a6.343,6.343,0,0,1,4.36,10.975h0l-.562.535a10.458,10.458,0,0,1-1.585-.04.313.313,0,0,0-.049-.044c-.028-.02-.51-.442-.645-.563-.212-.19-.654-.575-.724-.629a.234.234,0,0,0-.193-.065.538.538,0,0,0-.058,0c-.1.01-.2.088-.91.655-.352.279-.629.5-.782.626-.079.063-.17.133-.2.154l-.061.04-.505-.02c-.279-.01-.7-.02-.931-.023-.351,0-.41,0-.456.021a.187.187,0,0,0-.028.017.392.392,0,0,0-.093.081,2.156,2.156,0,0,0-.1.6,3.412,3.412,0,0,1-.049.342c-.012.054-.033.192-.047.31-.006.05-.014.11-.021.167-.009.074-.018.145-.024.191-.037.266-.067.5-.1.779a1.982,1.982,0,0,1-.044.282c-.023.016-.061-.155-.072-.328-.007-.1-.03-.319-.049-.488s-.046-.406-.058-.522c-.008-.079-.02-.189-.031-.285-.005-.045-.01-.088-.013-.122-.049-.435-.1-.908-.121-1.108-.012-.118-.026-.253-.033-.3s-.026-.254-.047-.456-.047-.42-.061-.486a1.686,1.686,0,0,1-.021-.247,1.014,1.014,0,0,0-.021-.207,2.925,2.925,0,0,1-.049-.38c-.014-.166-.035-.36-.047-.432s-.035-.244-.047-.383c-.051-.542-.07-.734-.1-1-.021-.153-.047-.4-.061-.546s-.03-.356-.044-.464l-.017-.152c-.012-.112-.027-.248-.039-.361l-.005-.042c-.019-.16-.037-.312-.044-.349-.012-.087-.026-.219-.058-.587-.014-.148-.035-.327-.047-.4s-.028-.215-.035-.318c-.019-.244-.044-.314-.144-.375a.261.261,0,0,0-.27-.018c-.114.053-.135.09-.158.284-.006.053-.015.124-.023.193s-.015.122-.021.169c-.014.1-.033.286-.04.42a.812.812,0,0,1-.035.249.4.4,0,0,0-.019.155,6.5,6.5,0,0,1-.07.748c-.014.113-.037.313-.049.448-.012.111-.023.235-.03.3l0,.033c-.006.039-.015.154-.026.279l-.009.1c-.014.162-.035.367-.049.456s-.042.4-.067.685-.063.653-.081.815-.044.407-.058.545l-.013.128c-.012.123-.026.262-.036.353-.007.074-.017.174-.027.269l-.018.179-.012.1c-.012.1-.024.218-.035.288-.012.1-.028.235-.035.313l-.016.142-.063-.033a1.877,1.877,0,0,0-.424-.075l-.361-.042-.042-.067c-.023-.037-.1-.173-.182-.3s-.154-.259-.17-.285l-.027-.045c-.024-.04-.058-.1-.09-.151-.047-.081-.1-.176-.126-.211s-.049-.082-.058-.1a.383.383,0,0,0-.214-.129.339.339,0,0,0-.354.225c-.04.088-.158.324-.391.787-.024.046-.057.113-.083.168l-.024.048a.271.271,0,0,1-.074.111c-.014,0-.219,0-.452-.008-.64-.023-.652-.016-.794.339-.014.034-.028.02-.1-.1a.869.869,0,0,0-.151-.2l-.075-.059-.556.005a3.509,3.509,0,0,1-.589-.012,2.888,2.888,0,0,1-.338-.1l-.068-.021-.121-.038-.23-.071-.013,0-.229-.073c-.047-.013-.163-.052-.258-.085a.742.742,0,0,0-.594,0c-.235.09-.554.207-.964.354l-.163.059-.625-.6h0a6.358,6.358,0,1,1,9.819-7.9A6.369,6.369,0,0,1,95.288,319ZM80.957,330.879l8.17,7.793a.908.908,0,0,0,1.36.042l8.209-7.83-1.363-.007-.075-.041a1.029,1.029,0,0,1-.151-.114c-.044-.041-.1-.091-.13-.114-.1-.08-.81-.7-.912-.8-.058-.054-.128-.113-.154-.132l-.049-.033-.242.192c-.133.106-.293.233-.358.282l-.067.054-.105.085c-.03.027-.1.084-.161.13-.1.076-.124.1-.32.253l-.16.127a1.519,1.519,0,0,1-.338.225,3.154,3.154,0,0,1-.747.008c-.366-.01-.743-.018-.84-.018h-.177l-.016.109c-.007.044-.017.127-.027.212l-.013.1c-.028.23-.037.295-.072.543l-.021.149c-.024.166-.052.381-.067.5l0,.024c-.03.274-.1.809-.172,1.247-.007.041-.028.2-.047.359s-.051.387-.07.513-.051.363-.07.529a2.122,2.122,0,0,1-.1.6.444.444,0,0,1-.121.082l-.093.047-.086-.029a.575.575,0,0,1-.126-.064.493.493,0,0,1-.109-.362,1.675,1.675,0,0,0-.023-.277c-.012-.066-.037-.277-.058-.464s-.04-.379-.048-.449v-.007c-.006-.054-.017-.172-.027-.284l-.006-.058c-.021-.233-.049-.488-.093-.823-.023-.193-.051-.445-.093-.864-.03-.31-.089-.792-.1-.891-.007-.043-.023-.2-.035-.339s-.044-.44-.07-.66c-.077-.641-.091-.79-.116-1.1-.014-.161-.033-.355-.047-.432s-.033-.259-.047-.407-.035-.324-.047-.391a1.408,1.408,0,0,1-.023-.237c0-.063-.016-.231-.035-.374-.033-.242-.065-.533-.091-.791l-.008-.076c-.02-.191-.053-.5-.071-.641v0c-.018-.147-.018-.148-.035-.07s-.042.323-.088.823c-.012.13-.03.327-.042.44s-.033.324-.047.472-.037.318-.049.38a1.456,1.456,0,0,0-.023.264.874.874,0,0,1-.023.223,3.444,3.444,0,0,0-.047.388c-.014.174-.037.412-.049.53l-.047.464c-.012.139-.028.3-.035.359-.035.329-.063.622-.079.831-.026.33-.082.407-.3.407a.374.374,0,0,1-.328-.187,3.619,3.619,0,0,0-.24-.295c-.026-.025-.061-.03-.587-.088a.448.448,0,0,1-.268-.08c-.093-.067-.1-.073-.233-.3a3.448,3.448,0,0,0-.34-.548.474.474,0,0,0-.093.152c-.016.032-.032.064-.046.092-.021.043-.037.076-.043.084s-.063.127-.123.252c-.137.284-.186.343-.33.387a1.141,1.141,0,0,1-.459.013c-.191-.012-.387-.018-.431-.015-.077.006-.082.01-.109.1s-.061.2-.1.342c-.068.256-.123.328-.282.36s-.279-.027-.4-.229c-.03-.049-.072-.119-.093-.155s-.091-.148-.151-.25l-.109-.184-.447.012-.445.011L83.4,330.9c-.1-.029-.3-.1-.461-.148s-.419-.135-.584-.186l-.3-.091-.254.093C81.507,330.676,81.214,330.784,80.957,330.879Z" transform="translate(209 -360.852)" fill="#3fff91" fill-rule="evenodd"/>
      <path id="Path_448" data-name="Path 448" d="M97.885,338v-4.794h.877v2h2.455v-2h.877V338h-.877v-2.067H98.762V338Zm5.516,0v-4.794h2.1a1.8,1.8,0,0,1,1.217.374,1.3,1.3,0,0,1,.435,1.04,1.389,1.389,0,0,1-.2.755,1.247,1.247,0,0,1-.551.483,2.043,2.043,0,0,1-.85.163l.095-.129h.231a.894.894,0,0,1,.51.15,1.073,1.073,0,0,1,.368.455l.7,1.5h-.966l-.707-1.557a.514.514,0,0,0-.292-.313,1.265,1.265,0,0,0-.463-.075h-.748V338Zm.877-2.591h1.075a1.1,1.1,0,0,0,.7-.19.692.692,0,0,0,.245-.571.672.672,0,0,0-.245-.565,1.1,1.1,0,0,0-.7-.19h-1.075Z" transform="translate(209 -360.852)" fill="#3fff91"/>
    </g>
  </g>
</svg>
