<svg xmlns="http://www.w3.org/2000/svg" width="44.72" height="29" viewBox="0 0 44.72 29">
  <g id="Group_191" data-name="Group 191" transform="translate(823 11250)">
    <path id="Path_1526" data-name="Path 1526" d="M1223.5,496.888a8.693,8.693,0,0,0-8.48-8.888,8.4,8.4,0,0,0-7.27,4.309,8.4,8.4,0,0,0-7.27-4.309,8.693,8.693,0,0,0-8.48,8.888,9.053,9.053,0,0,0,2.68,6.477h-.01l12.15,12.176a1.174,1.174,0,0,0,.93.459,1.19,1.19,0,0,0,.88-.4l12.2-12.235h-.01A9.051,9.051,0,0,0,1223.5,496.888Z" transform="translate(-2015 -11738)" fill="#00f0ff"/>
    <path id="Path_1527" data-name="Path 1527" d="M1223.71,509.88h3.23a2.675,2.675,0,0,1,1.83.57,2.15,2.15,0,0,1,0,3.1,2.71,2.71,0,0,1-1.83.57h-1.67V517h-1.56Zm3.03,3.05c.81,0,1.22-.307,1.22-.92s-.41-.93-1.22-.93h-1.47v1.85Zm9.98,4.07h-1.65l-.91-2.37a.721.721,0,0,0-.34-.39,1.284,1.284,0,0,0-.56-.11h-1.01V517h-1.54v-7.12h3.17a2.867,2.867,0,0,1,1.88.54,1.936,1.936,0,0,1,.64,1.55,2.007,2.007,0,0,1-.38,1.22,2.062,2.062,0,0,1-1.07.73,1.248,1.248,0,0,1,.91.87Zm-3.07-4.06a1.737,1.737,0,0,0,.98-.22.843.843,0,0,0,.31-.71.816.816,0,0,0-.31-.7,1.682,1.682,0,0,0-.98-.23h-1.42v1.86Z" transform="translate(-2015 -11738)" fill="#00f0ff"/>
  </g>
</svg>
