<?xml version="1.0" encoding="UTF-8" standalone="no"?>
<svg
   xmlns:dc="http://purl.org/dc/elements/1.1/"
   xmlns:cc="http://creativecommons.org/ns#"
   xmlns:rdf="http://www.w3.org/1999/02/22-rdf-syntax-ns#"
   xmlns:svg="http://www.w3.org/2000/svg"
   xmlns="http://www.w3.org/2000/svg"
   xmlns:sodipodi="http://sodipodi.sourceforge.net/DTD/sodipodi-0.dtd"
   xmlns:inkscape="http://www.inkscape.org/namespaces/inkscape"
   width="33"
   height="34"
   viewBox="0 0 32.999999 34.000001"
   version="1.1"
   id="svg13"
   sodipodi:docname="large-body-icon.svg"
   inkscape:version="0.92.5 (2060ec1f9f, 2020-04-08)">
  <metadata
     id="metadata17">
    <rdf:RDF>
      <cc:Work
         rdf:about="">
        <dc:format>image/svg+xml</dc:format>
        <dc:type
           rdf:resource="http://purl.org/dc/dcmitype/StillImage" />
        <dc:title></dc:title>
      </cc:Work>
    </rdf:RDF>
  </metadata>
  <sodipodi:namedview
     pagecolor="#ffffff"
     bordercolor="#666666"
     borderopacity="1"
     objecttolerance="10"
     gridtolerance="10"
     guidetolerance="10"
     inkscape:pageopacity="0"
     inkscape:pageshadow="2"
     inkscape:window-width="1920"
     inkscape:window-height="1016"
     id="namedview15"
     showgrid="false"
     units="in"
     fit-margin-top="0"
     fit-margin-left="0"
     fit-margin-right="0"
     fit-margin-bottom="0"
     inkscape:zoom="8.4285714"
     inkscape:cx="5.228"
     inkscape:cy="-0.92328814"
     inkscape:window-x="0"
     inkscape:window-y="27"
     inkscape:window-maximized="1"
     inkscape:current-layer="svg13" />
  <defs
     id="defs5">
    <clipPath
       id="clip-body-icon">
      <rect
         width="40"
         height="28"
         id="rect2"
         x="0"
         y="0" />
    </clipPath>
  </defs>
  <g
     id="body-icon"
     clip-path="url(#clip-body-icon)"
     transform="matrix(1.2475477,0,0,1.2475477,-9.2143873,-0.50342674)">
    <g
       id="Group_71"
       data-name="Group 71"
       transform="translate(0.169,-3.265)">
      <path
         id="Path_454"
         data-name="Path 454"
         d="m 804.243,333.029 v -10.82 a 4.818,4.818 0 0 0 -9.62,0 v 10.819 a 6.638,6.638 0 0 0 -2.406,5.079 7.228,7.228 0 0 0 14.432,0 6.638,6.638 0 0 0 -2.406,-5.078 z m -4.81,9.621 a 4.681,4.681 0 0 1 -4.81,-4.542 4.418,4.418 0 0 1 1.6,-3.387 l 0.8,-0.677 v -11.835 a 2.409,2.409 0 0 1 4.811,0 v 11.835 l 0.8,0.677 a 4.419,4.419 0 0 1 1.6,3.387 4.683,4.683 0 0 1 -4.801,4.542 z"
         transform="translate(-785,-314)"
         inkscape:connector-curvature="0"
         style="fill:#ffffff" />
      <path
         id="Path_455"
         data-name="Path 455"
         d="m 800.809,324.948 a 1.203,1.203 0 0 0 -2.406,0 v 14.22 h 2.406 z"
         transform="translate(-785.173,-314.171)"
         inkscape:connector-curvature="0"
         style="fill:#ffffff" />
      <path
         id="Path_456"
         data-name="Path 456"
         d="m 799.536,341.844 a 3.556,3.556 0 1 0 -3.607,-3.555 3.582,3.582 0 0 0 3.607,3.555 z"
         transform="translate(-785.104,-314.478)"
         inkscape:connector-curvature="0"
         style="fill:#ffffff" />
      <path
         id="Path_457"
         data-name="Path 457"
         d="m 816.827,321.4 h -1.317 l -0.008,-0.715 h 1.106 a 1.333,1.333 0 0 0 0.479,-0.073 0.577,0.577 0 0 0 0.279,-0.219 0.635,0.635 0 0 0 0.1,-0.354 0.708,0.708 0 0 0 -0.092,-0.382 0.505,0.505 0 0 0 -0.278,-0.212 1.487,1.487 0 0 0 -0.483,-0.065 h -0.732 v 4.238 h -1.058 v -5.054 h 1.789 a 3.493,3.493 0 0 1 0.8,0.084 1.748,1.748 0 0 1 0.6,0.254 1.132,1.132 0 0 1 0.377,0.431 1.337,1.337 0 0 1 0.13,0.61 1.183,1.183 0 0 1 -0.145,0.576 1.059,1.059 0 0 1 -0.447,0.431 1.781,1.781 0 0 1 -0.793,0.184 z m -0.046,2.218 h -1.561 l 0.412,-0.812 h 1.149 a 1.025,1.025 0 0 0 0.455,-0.087 0.6,0.6 0 0 0 0.26,-0.243 0.708,0.708 0 0 0 0.085,-0.35 0.894,0.894 0 0 0 -0.078,-0.386 0.523,0.523 0 0 0 -0.239,-0.25 0.915,0.915 0 0 0 -0.437,-0.09 h -1.017 l 0.007,-0.715 h 1.268 l 0.243,0.282 a 1.417,1.417 0 0 1 0.754,0.163 1.014,1.014 0 0 1 0.419,0.434 1.259,1.259 0 0 1 0.134,0.573 1.474,1.474 0 0 1 -0.216,0.819 1.3,1.3 0 0 1 -0.63,0.5 2.705,2.705 0 0 1 -1.007,0.16 z m 2.251,4.465 v 0.239 a 3.145,3.145 0 0 1 -0.158,1.034 2.273,2.273 0 0 1 -0.447,0.782 1.925,1.925 0 0 1 -0.691,0.489 2.382,2.382 0 0 1 -1.768,0 1.979,1.979 0 0 1 -0.691,-0.489 2.287,2.287 0 0 1 -0.454,-0.782 3.142,3.142 0 0 1 -0.159,-1.034 v -0.239 a 3.128,3.128 0 0 1 0.159,-1.035 2.25,2.25 0 0 1 0.447,-0.78 1.962,1.962 0 0 1 0.69,-0.494 2.385,2.385 0 0 1 1.769,0 1.918,1.918 0 0 1 0.69,0.494 2.214,2.214 0 0 1 0.451,0.78 3.054,3.054 0 0 1 0.163,1.034 z m -1.067,0.239 v -0.247 a 3.009,3.009 0 0 0 -0.074,-0.708 1.53,1.53 0 0 0 -0.219,-0.514 0.936,0.936 0 0 0 -0.352,-0.312 1.1,1.1 0 0 0 -0.952,0 0.942,0.942 0 0 0 -0.349,0.312 1.569,1.569 0 0 0 -0.215,0.514 3.012,3.012 0 0 0 -0.074,0.708 v 0.247 a 3.05,3.05 0 0 0 0.074,0.709 1.574,1.574 0 0 0 0.219,0.517 0.972,0.972 0 0 0 0.352,0.316 1.112,1.112 0 0 0 0.952,0 0.947,0.947 0 0 0 0.349,-0.316 1.633,1.633 0 0 0 0.215,-0.517 3.047,3.047 0 0 0 0.074,-0.71 z m -1.572,9.516 h -1.117 l 0.008,-0.813 h 1.109 a 1.272,1.272 0 0 0 0.7,-0.184 1.148,1.148 0 0 0 0.43,-0.545 2.269,2.269 0 0 0 0.148,-0.864 v -0.247 a 2.494,2.494 0 0 0 -0.085,-0.684 1.359,1.359 0 0 0 -0.243,-0.5 1.006,1.006 0 0 0 -0.4,-0.3 1.324,1.324 0 0 0 -0.542,-0.1 h -1.149 v -0.816 h 1.148 a 2.473,2.473 0 0 1 0.941,0.174 2.128,2.128 0 0 1 0.744,0.49 2.187,2.187 0 0 1 0.482,0.763 2.668,2.668 0 0 1 0.173,0.983 v 0.24 a 2.677,2.677 0 0 1 -0.173,0.982 2.182,2.182 0 0 1 -0.482,0.764 2.147,2.147 0 0 1 -0.744,0.49 2.579,2.579 0 0 1 -0.947,0.166 z m -0.517,-5.055 v 5.055 h -1.058 v -5.055 z m -0.353,7.11 1.071,2.306 1.071,-2.306 h 1.152 l -1.687,3.214 v 1.84 h -1.071 v -1.84 l -1.691,-3.214 z"
         transform="translate(-785.62,-314.025)"
         inkscape:connector-curvature="0"
         style="fill:#ffffff" />
    </g>
  </g>
</svg>
