<svg xmlns="http://www.w3.org/2000/svg" width="49.76" height="29" viewBox="0 0 49.76 29">
  <g id="Group_188" data-name="Group 188" transform="translate(-1188 -364)">
    <path id="Path_1087" data-name="Path 1087" d="M1215.02,364a8.693,8.693,0,0,1,8.48,8.888,9.051,9.051,0,0,1-2.68,6.477h.01l-1.03,1.028a7.3,7.3,0,0,1-1.46-.051.261.261,0,0,0-.06-.06c-.04-.028-.69-.612-.87-.779-.29-.264-.88-.8-.98-.871a.309.309,0,0,0-.26-.09c-.03,0-.05,0-.08,0-.14.015-.26.122-1.22.907-.48.386-.85.7-1.06.867-.11.088-.23.185-.27.214l-.09.054-.68-.027c-.37-.013-.94-.027-1.25-.032-.48,0-.56,0-.62.028a.206.206,0,0,1-.04.024.7.7,0,0,0-.12.113,2.6,2.6,0,0,0-.14.824,4.558,4.558,0,0,1-.07.473c-.01.075-.04.267-.06.429-.01.07-.02.152-.03.232-.01.1-.02.2-.03.265-.05.367-.09.694-.14,1.078a2.056,2.056,0,0,1-.06.39c-.03.023-.08-.214-.1-.453-.01-.138-.04-.442-.06-.677s-.06-.562-.08-.722c-.01-.11-.03-.262-.04-.394a1.188,1.188,0,0,1-.02-.17c-.07-.6-.14-1.257-.16-1.534-.02-.163-.04-.35-.05-.418s-.03-.352-.06-.631-.06-.583-.08-.673a1.9,1.9,0,0,1-.03-.343,1.16,1.16,0,0,0-.03-.286,3.008,3.008,0,0,1-.06-.526c-.02-.23-.05-.5-.07-.6s-.04-.338-.06-.53c-.07-.751-.09-1.018-.14-1.388-.03-.212-.06-.55-.08-.755s-.04-.495-.06-.643a1.154,1.154,0,0,1-.02-.212c-.02-.154-.04-.343-.06-.5v-.057c-.03-.222-.05-.433-.06-.485-.02-.119-.04-.3-.08-.812-.02-.2-.05-.453-.06-.553a4.362,4.362,0,0,1-.05-.44c-.03-.338-.06-.435-.2-.519a.335.335,0,0,0-.36-.024c-.15.072-.18.124-.21.392-.01.074-.02.172-.04.268a2.2,2.2,0,0,0-.02.233c-.02.135-.05.4-.06.582a1.691,1.691,0,0,1-.04.345c-.02.007-.03.1-.03.215a8.4,8.4,0,0,1-.09,1.035c-.02.156-.05.434-.07.621-.01.153-.03.324-.04.416v.046c-.01.054-.02.213-.04.387,0,.047-.01.1-.01.144-.02.223-.05.507-.07.631s-.05.551-.09.948-.08.905-.11,1.128-.06.564-.08.756c0,.052-.01.113-.01.177-.02.17-.04.362-.05.488-.01.1-.02.242-.04.373-.01.092-.01.179-.02.248-.01.043-.01.091-.02.142-.01.143-.03.3-.04.4-.02.131-.04.325-.05.433l-.02.2-.09-.045a2.313,2.313,0,0,0-.57-.1l-.49-.059-.05-.092c-.03-.052-.14-.239-.25-.42s-.2-.359-.23-.395c0-.012-.02-.034-.03-.062-.03-.056-.08-.135-.12-.209-.07-.112-.14-.243-.17-.293a1.294,1.294,0,0,1-.08-.14.537.537,0,0,0-.29-.178.462.462,0,0,0-.48.311c-.05.122-.21.449-.52,1.09-.04.065-.08.157-.12.233-.01.024-.02.048-.03.067a.332.332,0,0,1-.1.154c-.02,0-.29,0-.61-.012-.86-.031-.88-.022-1.07.47-.02.047-.04.027-.13-.142a1.343,1.343,0,0,0-.2-.283l-.1-.081-.75.007a4.821,4.821,0,0,1-.8-.016,4.231,4.231,0,0,1-.45-.137c-.03-.009-.06-.019-.1-.029-.06-.021-.12-.041-.16-.053l-.31-.1-.02-.005c-.11-.038-.25-.082-.31-.1s-.22-.072-.34-.117a.966.966,0,0,0-.8.007c-.32.124-.75.286-1.3.489l-.08.029-1.07-1.065h.01a9.053,9.053,0,0,1-2.68-6.477,8.693,8.693,0,0,1,8.48-8.888,8.4,8.4,0,0,1,7.27,4.309A8.4,8.4,0,0,1,1215.02,364Zm-18.86,16.859c-.11.042-.21.083-.31.122l-.33.124-2.93-.018-2.92-.016-.08.086a.687.687,0,0,1-.32.214,1.329,1.329,0,0,1-.78,0,.853.853,0,0,1-.4-.3.572.572,0,0,0-.07-.106c-.06-.1.02-.343.16-.489a1.022,1.022,0,0,1,.79-.244.9.9,0,0,1,.56.212l.14.109,1.24.013c.69.009,1.96.016,2.83.018l1.59,0,.41-.149Zm0,0c.32-.119.66-.249,1.02-.379l.34-.129.4.127c.22.07.57.185.79.257s.49.165.62.205l.23.075.6-.016.61-.016.14.255c.09.14.18.3.21.345s.08.147.12.215c.16.279.31.367.54.318.21-.045.29-.145.38-.5.05-.2.09-.352.13-.474s.04-.124.15-.133c.06,0,.32.005.58.021a1.513,1.513,0,0,0,.62-.018c.19-.061.26-.143.44-.535.08-.174.16-.332.17-.35a1.228,1.228,0,0,1,.06-.116.425.425,0,0,1,.06-.128.746.746,0,0,1,.12-.209,4.517,4.517,0,0,1,.46.758c.18.318.19.327.31.419a.611.611,0,0,0,.37.111c.7.081.75.088.79.122s.12.144.32.408a.507.507,0,0,0,.44.26c.29,0,.37-.106.4-.564.03-.289.06-.7.11-1.151.01-.081.03-.3.05-.5.01-.108.02-.25.03-.38.01-.1.02-.193.03-.263.02-.162.05-.491.07-.733a4.376,4.376,0,0,1,.06-.537,1.209,1.209,0,0,0,.03-.309,1.962,1.962,0,0,1,.03-.365c.02-.086.05-.321.07-.526s.04-.5.06-.654.04-.429.06-.61c.06-.692.09-1.031.12-1.139s.02-.106.04.1v.005c.03.2.07.623.1.887,0,.039.01.075.01.1.03.357.08.761.12,1.1a4.569,4.569,0,0,1,.05.519,1.874,1.874,0,0,0,.03.327,4.311,4.311,0,0,1,.06.541c.02.2.05.458.07.564s.04.375.06.6c.03.429.05.636.16,1.523.03.3.07.715.09.914s.04.41.05.469c.02.138.1.806.14,1.234.06.58.09.93.12,1.2.06.465.1.817.13,1.139a.234.234,0,0,0,.01.082c.01.154.03.318.03.392l.01.011c.01.1.04.369.06.621s.06.55.08.643a2.248,2.248,0,0,1,.03.384.684.684,0,0,0,.15.5.575.575,0,0,0,.17.088l.11.041.13-.065a.653.653,0,0,0,.16-.113,2.827,2.827,0,0,0,.14-.835c.03-.23.07-.56.1-.733s.07-.494.09-.711.05-.44.06-.5c.1-.607.2-1.347.24-1.726v-.035c.02-.161.06-.457.09-.687.01-.078.02-.146.03-.206.05-.344.06-.434.1-.753,0-.046.01-.094.01-.143.02-.117.03-.232.04-.293l.02-.151h.24c.13,0,.64.011,1.13.025a4.049,4.049,0,0,0,1.01-.011,2.039,2.039,0,0,0,.46-.312c.08-.069.15-.127.21-.175.27-.216.3-.245.43-.35.08-.064.18-.143.22-.181s.08-.069.14-.118l.09-.074c.09-.067.31-.243.48-.39l.33-.266.07.045c.03.027.13.108.2.183.14.133,1.11,1,1.23,1.105.04.032.12.1.18.158a1.513,1.513,0,0,0,.2.158l.11.057,1.16.006L1208.63,391.6a1.19,1.19,0,0,1-.88.4,1.174,1.174,0,0,1-.93-.459Zm23.12.054.52-.52c.62.006,1.49.012,2.73.019,2.43.014,2.85.012,2.88-.015a.978.978,0,0,1,.81-.325.7.7,0,0,1,.38.061.883.883,0,0,1,.47.453c.06.1.04.151-.08.332a.71.71,0,0,1-.27.252,1.234,1.234,0,0,1-.93.064,1.064,1.064,0,0,1-.36-.255c-.03-.03-.45-.036-3.67-.052Z" fill="#3fff91" fill-rule="evenodd"/>
    <path id="Path_1088" data-name="Path 1088" d="M1230.07,385.88V393h-1.53v-2.99h-3.3V393h-1.53v-7.12h1.53v2.88h3.3v-2.88Zm7.69,7.12h-1.65l-.91-2.37a.651.651,0,0,0-.34-.39,1.225,1.225,0,0,0-.56-.11h-1.01V393h-1.54v-7.12h3.17a2.83,2.83,0,0,1,1.88.54,1.905,1.905,0,0,1,.64,1.55,1.944,1.944,0,0,1-.38,1.22,1.986,1.986,0,0,1-1.07.73,1.232,1.232,0,0,1,.91.87Zm-3.07-4.06a1.694,1.694,0,0,0,.98-.22.817.817,0,0,0,.31-.71.791.791,0,0,0-.31-.7,1.64,1.64,0,0,0-.98-.23h-1.42v1.86Z" fill="#00ff6d"/>
  </g>
</svg>
