<svg xmlns="http://www.w3.org/2000/svg" width="31.38" height="34.417" viewBox="0 0 31.38 34.417">
  <g id="Group_145" data-name="Group 145" transform="translate(-1198.14 -872.606)">
    <path id="Path_465" data-name="Path 465" d="M1212.63,892.056V878.438a5.8,5.8,0,0,0-11.59,0v13.618a8.5,8.5,0,0,0-2.9,6.392,8.7,8.7,0,0,0,17.39,0A8.5,8.5,0,0,0,1212.63,892.056Zm-5.8,12.109a5.753,5.753,0,0,1-5.79-5.717,5.67,5.67,0,0,1,1.93-4.262l.97-.853v-14.9a2.9,2.9,0,0,1,5.79,0v14.9l.97.853a5.67,5.67,0,0,1,1.93,4.262A5.761,5.761,0,0,1,1206.83,904.165Z" fill="#fff"/>
    <path id="Path_466" data-name="Path 466" d="M1207.81,882.115h-2.48v17.152h2.48Z" fill="#fff"/>
    <path id="Path_467" data-name="Path 467" d="M1206.57,903.224a4.629,4.629,0,1,0-4.96-4.617A4.8,4.8,0,0,0,1206.57,903.224Z" fill="#fff"/>
    <path id="Path_468" data-name="Path 468" d="M1228.63,877.454a1.693,1.693,0,0,1-.64,1.4,2.792,2.792,0,0,1-1.79.513,4.183,4.183,0,0,1-1.86-.4v-1.3a7.426,7.426,0,0,0,1.13.418,3.359,3.359,0,0,0,.84.122,1.17,1.17,0,0,0,.7-.176.588.588,0,0,0,.25-.522.52.52,0,0,0-.11-.342,1.051,1.051,0,0,0-.32-.293,7.073,7.073,0,0,0-.85-.445,4.017,4.017,0,0,1-.9-.545,2.054,2.054,0,0,1-.48-.607,1.741,1.741,0,0,1-.18-.811,1.684,1.684,0,0,1,.59-1.373,2.455,2.455,0,0,1,1.64-.5,3.8,3.8,0,0,1,.97.121,6.849,6.849,0,0,1,.98.342l-.45,1.085a6.487,6.487,0,0,0-.87-.3,2.842,2.842,0,0,0-.68-.086.909.909,0,0,0-.61.185.609.609,0,0,0-.21.481.585.585,0,0,0,.09.324.824.824,0,0,0,.27.266,8.71,8.71,0,0,0,.88.459,3.5,3.5,0,0,1,1.27.887A1.7,1.7,0,0,1,1228.63,877.454Zm.89,11.046h-1.59l-1.72-2.773-.59.423v2.35h-1.4v-6.581h1.4v3.011l.55-.774,1.78-2.237h1.55l-2.3,2.912Zm-3.76,9.219v-6.581h1.39v6.581Zm3.61,9.218h-1.77l-2.86-4.978h-.04c.05.879.08,1.506.08,1.882v3.1h-1.24v-6.58h1.76l2.85,4.928h.04c-.05-.855-.07-1.459-.07-1.814v-3.114h1.25Z" fill="#fff"/>
  </g>
</svg>
