<svg xmlns="http://www.w3.org/2000/svg" width="49.05" height="32" viewBox="0 0 49.05 32">
  <g id="Group_190" data-name="Group 190" transform="translate(761 11144)">
    <path id="Path_1529" data-name="Path 1529" d="M1221.81,766.384a58.708,58.708,0,0,0-5.11-14.438c-1.1-2.161-1.8-3.946-4-3.946-1.93,0-3.5,1.839-3.5,4.107v3.757l-1.64-1.37a1.067,1.067,0,0,1-.27-.36,1.246,1.246,0,0,1-.09-.472V743a.918.918,0,0,0-.8-1h-.8a.918.918,0,0,0-.8,1v10.662a1.064,1.064,0,0,1-.36.832l-1.64,1.37v-3.757c0-2.268-1.57-4.107-3.5-4.107-2.2,0-2.9,1.785-4,3.946a58.708,58.708,0,0,0-5.11,14.438,9.555,9.555,0,0,0-.19,1.852c0,3.827,3.12,6.59,6.26,5.539l2.98-1a5.7,5.7,0,0,0,3.56-5.539v-5.468l-4.29,3.577a.366.366,0,0,1-.15.075.3.3,0,0,1-.15,0,.44.44,0,0,1-.15-.075.531.531,0,0,1-.11-.138l-.44-.832a.538.538,0,0,1-.06-.18.637.637,0,0,1,0-.2.525.525,0,0,1,.17-.318L1206,756.7l8.38,6.982a.525.525,0,0,1,.17.318.637.637,0,0,1,0,.2.538.538,0,0,1-.06.18l-.44.832a.531.531,0,0,1-.11.138.44.44,0,0,1-.15.075.3.3,0,0,1-.15,0,.38.38,0,0,1-.15-.075l-4.29-3.577v5.468a5.7,5.7,0,0,0,3.56,5.539l2.98,1c3.14,1.051,6.26-1.712,6.26-5.539A8.841,8.841,0,0,0,1221.81,766.384Z" transform="translate(-1951 -11886)" fill="#faff00"/>
    <path id="Path_1530" data-name="Path 1530" d="M1231.72,773h-1.65l-.91-2.37a.684.684,0,0,0-.34-.39,1.254,1.254,0,0,0-.56-.11h-1.01V773h-1.54v-7.12h3.17a2.849,2.849,0,0,1,1.88.54,1.906,1.906,0,0,1,.64,1.55,1.956,1.956,0,0,1-1.45,1.95,1.248,1.248,0,0,1,.91.87Zm-3.07-4.06a1.715,1.715,0,0,0,.98-.22.817.817,0,0,0,.31-.71.791.791,0,0,0-.31-.7,1.661,1.661,0,0,0-.98-.23h-1.42v1.86Zm10.4,4.06h-1.65l-.91-2.37a.684.684,0,0,0-.34-.39,1.255,1.255,0,0,0-.56-.11h-1.01V773h-1.54v-7.12h3.17a2.848,2.848,0,0,1,1.88.54,1.905,1.905,0,0,1,.64,1.55,1.956,1.956,0,0,1-1.45,1.95,1.248,1.248,0,0,1,.91.87Zm-3.07-4.06a1.714,1.714,0,0,0,.98-.22.817.817,0,0,0,.31-.71.791.791,0,0,0-.31-.7,1.661,1.661,0,0,0-.98-.23h-1.42v1.86Z" transform="translate(-1951 -11886)" fill="#faff00"/>
  </g>
</svg>
