<svg xmlns="http://www.w3.org/2000/svg" width="12" height="11" viewBox="0 0 12 11">
  <path id="lungs" d="M1154.93,175.382a18.889,18.889,0,0,0-1.92-4.963c-.41-.743-.67-1.357-1.5-1.357a1.367,1.367,0,0,0-1.31,1.412v1.292l-.62-.471a.3.3,0,0,1-.09-.124.309.309,0,0,1-.04-.162v-3.665a.321.321,0,0,0-.3-.344h-.3a.321.321,0,0,0-.3.344v3.665a.368.368,0,0,1-.13.286l-.62.471v-1.292a1.367,1.367,0,0,0-1.31-1.412c-.83,0-1.09.614-1.5,1.357a18.889,18.889,0,0,0-1.92,4.963,2.726,2.726,0,0,0-.07.637,1.873,1.873,0,0,0,2.35,1.9l1.11-.343a1.97,1.97,0,0,0,1.34-1.9V173.8l-1.61,1.23a.17.17,0,0,1-.05.026.135.135,0,0,1-.06,0,.193.193,0,0,1-.06-.025.339.339,0,0,1-.04-.048l-.16-.286c-.01-.019-.02-.04-.03-.062v-.067c.01-.022.02-.043.03-.062a.113.113,0,0,1,.04-.047l3.14-2.4,3.14,2.4a.113.113,0,0,1,.04.047c.01.019.02.04.03.062v.067c-.01.022-.02.043-.03.062l-.16.286a.339.339,0,0,1-.04.048.193.193,0,0,1-.06.025.122.122,0,0,1-.06,0,.145.145,0,0,1-.05-.025l-1.61-1.23v1.88a1.97,1.97,0,0,0,1.34,1.9l1.11.343a1.873,1.873,0,0,0,2.35-1.9A2.726,2.726,0,0,0,1154.93,175.382Z" transform="translate(-1143 -167)" fill="#faff00"/>
</svg>
