<svg xmlns="http://www.w3.org/2000/svg" xmlns:xlink="http://www.w3.org/1999/xlink" width="40" height="28" viewBox="0 0 40 28">
  <defs>
    <clipPath id="clip-Custom_Size_1">
      <rect width="40" height="28"/>
    </clipPath>
  </defs>
  <g id="Custom_Size_1" data-name="Custom Size – 1" clip-path="url(#clip-Custom_Size_1)">
    <g id="Group_117" data-name="Group 117" transform="translate(-248.995 -316)">
      <path id="Path_19" data-name="Path 19" d="M274.535,334.24a34.762,34.762,0,0,0-3.453-9.024c-.749-1.35-1.222-2.466-2.711-2.466A2.475,2.475,0,0,0,266,325.317v2.348l-1.113-.856a.612.612,0,0,1-.177-.226.7.7,0,0,1-.064-.294v-6.664A.588.588,0,0,0,264.1,319h-.541a.588.588,0,0,0-.542.625v6.664a.657.657,0,0,1-.241.52l-1.113.856v-2.348a2.475,2.475,0,0,0-2.372-2.567c-1.489,0-1.961,1.116-2.71,2.466a34.725,34.725,0,0,0-3.453,9.024A5.117,5.117,0,0,0,253,335.4a3.387,3.387,0,0,0,4.24,3.461l2.014-.623a3.571,3.571,0,0,0,2.413-3.461v-3.418l-2.906,2.236a.268.268,0,0,1-.1.046.237.237,0,0,1-.106,0,.244.244,0,0,1-.1-.047.3.3,0,0,1-.075-.086l-.3-.52a.34.34,0,0,1-.041-.113.356.356,0,0,1,0-.122.334.334,0,0,1,.041-.112.285.285,0,0,1,.075-.086l5.673-4.364,5.674,4.364a.284.284,0,0,1,.075.086.334.334,0,0,1,.04.112.356.356,0,0,1,0,.122.318.318,0,0,1-.04.113l-.3.52a.294.294,0,0,1-.074.086.255.255,0,0,1-.1.047.233.233,0,0,1-.105,0,.267.267,0,0,1-.1-.046l-2.9-2.238v3.418a3.571,3.571,0,0,0,2.412,3.461l2.015.623a3.388,3.388,0,0,0,4.24-3.461A5.117,5.117,0,0,0,274.535,334.24Z" fill="#faff00"/>
      <path id="Path_22" data-name="Path 22" d="M276.631,342v-4.794h2.094a1.793,1.793,0,0,1,1.217.374,1.3,1.3,0,0,1,.436,1.04,1.381,1.381,0,0,1-.2.755,1.244,1.244,0,0,1-.55.483,2.045,2.045,0,0,1-.85.163l.1-.129h.231a.9.9,0,0,1,.51.15,1.064,1.064,0,0,1,.367.455l.7,1.5h-.966l-.707-1.557a.515.515,0,0,0-.293-.313,1.263,1.263,0,0,0-.462-.075h-.748V342Zm.877-2.591h1.074a1.1,1.1,0,0,0,.7-.19.692.692,0,0,0,.245-.571.672.672,0,0,0-.245-.565,1.1,1.1,0,0,0-.7-.19h-1.074ZM281.655,342v-4.794h2.1a1.8,1.8,0,0,1,1.217.374,1.3,1.3,0,0,1,.435,1.04,1.389,1.389,0,0,1-.2.755,1.247,1.247,0,0,1-.551.483,2.04,2.04,0,0,1-.85.163l.1-.129h.232a.9.9,0,0,1,.51.15,1.071,1.071,0,0,1,.367.455l.7,1.5h-.965l-.708-1.557a.514.514,0,0,0-.292-.313,1.264,1.264,0,0,0-.462-.075h-.748V342Zm.878-2.591h1.074a1.1,1.1,0,0,0,.7-.19.689.689,0,0,0,.245-.571.669.669,0,0,0-.245-.565,1.1,1.1,0,0,0-.7-.19h-1.074Z" fill="#faff00"/>
    </g>
  </g>
</svg>
