<svg xmlns="http://www.w3.org/2000/svg" width="260.32" height="62.745" viewBox="0 0 260.32 62.745">
  <g id="Group_3" data-name="Group 3" transform="translate(-72.84 -101.887)">
    <path id="Path_60" data-name="Path 60" d="M134.686,162q-.239-.63-.448-1.232t-.434-1.246h-4.4L128.526,162h-1.414q.56-1.54,1.05-2.842t.952-2.492q.476-1.176.938-2.24t.966-2.128h1.246q.5,1.05.966,2.128t.924,2.24q.475,1.176.966,2.492T136.17,162Zm-1.274-3.6q-.448-1.218-.9-2.352t-.91-2.2q-.49,1.05-.938,2.2T129.8,158.4Zm6.977,3.766a4.009,4.009,0,0,1-1.554-.28,3.205,3.205,0,0,1-1.12-.784,3.339,3.339,0,0,1-.672-1.19,5.044,5.044,0,0,1-.224-1.54,4.778,4.778,0,0,1,.238-1.54,3.659,3.659,0,0,1,.7-1.2,3.023,3.023,0,0,1,1.092-.8,3.53,3.53,0,0,1,1.456-.294,5.781,5.781,0,0,1,.98.084,4.511,4.511,0,0,1,.938.266l-.294,1.106a3.12,3.12,0,0,0-.686-.224,3.734,3.734,0,0,0-.812-.084,2.093,2.093,0,0,0-1.68.686,3.052,3.052,0,0,0-.574,2,4.327,4.327,0,0,0,.126,1.078,2.385,2.385,0,0,0,.42.84,2.01,2.01,0,0,0,.742.546,2.914,2.914,0,0,0,1.092.182,4.15,4.15,0,0,0,.938-.1,3.369,3.369,0,0,0,.658-.21l.182,1.092a1.541,1.541,0,0,1-.322.14,4.766,4.766,0,0,1-.476.1,5.1,5.1,0,0,1-.574.084A4.053,4.053,0,0,1,140.389,162.168Zm4.562-7.448h2.758v1.092h-2.758v3.36a4.138,4.138,0,0,0,.084.91,1.418,1.418,0,0,0,.252.56.926.926,0,0,0,.42.28,1.861,1.861,0,0,0,.588.084,2.841,2.841,0,0,0,.938-.126c.243-.093.411-.159.5-.2l.252,1.078a4.43,4.43,0,0,1-.686.238,3.721,3.721,0,0,1-1.12.154,3.587,3.587,0,0,1-1.232-.182,1.847,1.847,0,0,1-.77-.574,2.339,2.339,0,0,1-.42-.924,6.669,6.669,0,0,1-.112-1.288v-6.5l1.3-.224Zm5.717,7.28h-1.3v-7.28h1.3Zm-.658-8.6a.878.878,0,0,1-.6-.224.851.851,0,0,1-.238-.63.8.8,0,0,1,.238-.616.845.845,0,0,1,.6-.238.8.8,0,0,1,.588.238.782.782,0,0,1,.252.616.814.814,0,0,1-.84.854Zm8.581,1.316a35.622,35.622,0,0,1-1.288,3.92q-.728,1.877-1.414,3.36h-1.176q-.686-1.483-1.428-3.36a37.853,37.853,0,0,1-1.274-3.92h1.4q.168.686.392,1.47t.49,1.54q.266.756.532,1.47t.5,1.274q.239-.56.5-1.274t.518-1.47q.266-.77.49-1.54t.406-1.47Zm.746,3.654a4.583,4.583,0,0,1,.28-1.68,3.518,3.518,0,0,1,.742-1.2,3.025,3.025,0,0,1,1.064-.714,3.316,3.316,0,0,1,1.232-.238,2.792,2.792,0,0,1,2.254.924,4.186,4.186,0,0,1,.784,2.786v.224a1.992,1.992,0,0,1-.014.238H160.7a2.663,2.663,0,0,0,.658,1.722,2.409,2.409,0,0,0,1.792.588,4.952,4.952,0,0,0,1.148-.112,4.46,4.46,0,0,0,.714-.238l.182,1.092a3.868,3.868,0,0,1-.84.266,5.847,5.847,0,0,1-1.344.14,4.429,4.429,0,0,1-1.652-.28,3.157,3.157,0,0,1-1.134-.8,3.309,3.309,0,0,1-.672-1.19A5.291,5.291,0,0,1,159.337,158.374Zm5-.714a2.136,2.136,0,0,0-.448-1.442,1.491,1.491,0,0,0-1.246-.574,1.706,1.706,0,0,0-.8.182,1.8,1.8,0,0,0-.574.448,2.2,2.2,0,0,0-.378.644,3.419,3.419,0,0,0-.168.742Zm10.907,3q-.141-.336-.378-.854t-.49-1.12q-.267-.6-.574-1.232t-.56-1.2q-.267-.574-.5-1.022c-.15-.3-.271-.527-.364-.686q-.154,1.652-.252,3.584T171.952,162h-1.33q.056-1.26.126-2.534t.154-2.52q.1-1.246.2-2.422t.238-2.226h1.19q.378.616.812,1.456t.868,1.764q.434.91.84,1.834t.742,1.666q.336-.756.742-1.666t.84-1.834q.434-.924.868-1.764t.812-1.456h1.19q.476,4.69.714,9.7h-1.33q-.07-1.961-.168-3.878t-.252-3.584c-.094.159-.22.387-.378.686s-.313.639-.49,1.022l-.574,1.2q-.294.63-.56,1.232t-.5,1.12q-.225.518-.364.854Zm14.183-2.3a4.605,4.605,0,0,1-.252,1.568,3.522,3.522,0,0,1-.714,1.2,3.126,3.126,0,0,1-1.078.784,3.671,3.671,0,0,1-2.744,0,3.267,3.267,0,0,1-1.092-.784,3.641,3.641,0,0,1-.7-1.2,4.961,4.961,0,0,1,0-3.122,3.619,3.619,0,0,1,.7-1.218,3.1,3.1,0,0,1,1.092-.77,3.5,3.5,0,0,1,2.744,0,2.967,2.967,0,0,1,1.078.77,3.5,3.5,0,0,1,.714,1.218A4.564,4.564,0,0,1,189.425,158.36Zm-1.358,0a3.076,3.076,0,0,0-.56-1.946,1.771,1.771,0,0,0-1.5-.728,1.808,1.808,0,0,0-1.512.728,3.13,3.13,0,0,0-.546,1.946,3.192,3.192,0,0,0,.546,1.96,1.82,1.82,0,0,0,1.512.714,1.782,1.782,0,0,0,1.5-.714A3.137,3.137,0,0,0,188.067,158.36Zm3.19-3.43q.447-.112,1.19-.238a10.29,10.29,0,0,1,1.708-.126,3.6,3.6,0,0,1,1.442.252,2.13,2.13,0,0,1,.91.686,2.551,2.551,0,0,1,.49,1.05,6.152,6.152,0,0,1,.14,1.358V162h-1.3v-3.808a5.805,5.805,0,0,0-.1-1.148,1.874,1.874,0,0,0-.294-.77,1.151,1.151,0,0,0-.56-.42,2.359,2.359,0,0,0-.868-.14c-.14,0-.285,0-.434.014s-.294.023-.434.042-.252.023-.364.042l-.224.042V162h-1.3ZM200.6,162h-1.3v-7.28h1.3Zm-.658-8.6a.876.876,0,0,1-.6-.224.851.851,0,0,1-.238-.63.8.8,0,0,1,.238-.616.844.844,0,0,1,.6-.238.8.8,0,0,1,.588.238.782.782,0,0,1,.252.616.814.814,0,0,1-.84.854Zm4.115,1.316h2.758v1.092h-2.758v3.36a4.137,4.137,0,0,0,.084.91,1.418,1.418,0,0,0,.252.56.926.926,0,0,0,.42.28,1.861,1.861,0,0,0,.588.084,2.845,2.845,0,0,0,.938-.126c.242-.093.41-.159.5-.2l.252,1.078a4.511,4.511,0,0,1-.686.238,3.726,3.726,0,0,1-1.12.154,3.579,3.579,0,0,1-1.232-.182,1.841,1.841,0,0,1-.77-.574,2.339,2.339,0,0,1-.42-.924,6.59,6.59,0,0,1-.112-1.288v-6.5l1.3-.224Zm10.649,3.64a4.605,4.605,0,0,1-.252,1.568,3.522,3.522,0,0,1-.714,1.2,3.116,3.116,0,0,1-1.078.784,3.671,3.671,0,0,1-2.744,0,3.267,3.267,0,0,1-1.092-.784,3.659,3.659,0,0,1-.7-1.2,4.961,4.961,0,0,1,0-3.122,3.636,3.636,0,0,1,.7-1.218,3.1,3.1,0,0,1,1.092-.77,3.5,3.5,0,0,1,2.744,0,2.958,2.958,0,0,1,1.078.77,3.5,3.5,0,0,1,.714,1.218A4.564,4.564,0,0,1,214.7,158.36Zm-1.358,0a3.07,3.07,0,0,0-.56-1.946,1.771,1.771,0,0,0-1.5-.728,1.81,1.81,0,0,0-1.512.728,3.13,3.13,0,0,0-.546,1.946,3.192,3.192,0,0,0,.546,1.96,1.822,1.822,0,0,0,1.512.714,1.782,1.782,0,0,0,1.5-.714A3.131,3.131,0,0,0,213.346,158.36Zm5.878-3.794a2.831,2.831,0,0,1,.378.028,3.2,3.2,0,0,1,.434.056,3.529,3.529,0,0,1,.378.07,1.785,1.785,0,0,1,.266.056l-.224,1.134a3.9,3.9,0,0,0-.518-.126,4.02,4.02,0,0,0-.91-.084,3.228,3.228,0,0,0-.728.084c-.233.047-.387.079-.462.1V162h-1.3v-6.972a8.215,8.215,0,0,1,1.148-.308A7.031,7.031,0,0,1,219.224,154.566ZM223.238,162h-1.3v-7.28h1.3Zm-.658-8.6a.878.878,0,0,1-.6-.224.855.855,0,0,1-.238-.63.807.807,0,0,1,.238-.616.845.845,0,0,1,.6-.238.8.8,0,0,1,.588.238.782.782,0,0,1,.252.616.814.814,0,0,1-.84.854Zm2.9,1.526q.448-.112,1.19-.238a10.3,10.3,0,0,1,1.708-.126,3.594,3.594,0,0,1,1.442.252,2.124,2.124,0,0,1,.91.686,2.526,2.526,0,0,1,.49,1.05,6.092,6.092,0,0,1,.14,1.358V162h-1.3v-3.808a5.731,5.731,0,0,0-.1-1.148,1.874,1.874,0,0,0-.294-.77,1.146,1.146,0,0,0-.56-.42,2.351,2.351,0,0,0-.868-.14c-.14,0-.284,0-.434.014s-.294.023-.434.042-.252.023-.364.042l-.224.042V162h-1.3Zm12.6,6.342a3.607,3.607,0,0,1-.658.294,3.363,3.363,0,0,1-1.12.168,3.679,3.679,0,0,1-1.246-.21,2.757,2.757,0,0,1-1.008-.644,3.227,3.227,0,0,1-.686-1.106,4.384,4.384,0,0,1-.252-1.568,4.272,4.272,0,0,1,.238-1.456,3.229,3.229,0,0,1,.686-1.148,3.125,3.125,0,0,1,1.12-.756,3.754,3.754,0,0,1,1.484-.28,7.865,7.865,0,0,1,1.582.14q.687.126,1.148.238v6.5a3.071,3.071,0,0,1-.868,2.436,3.919,3.919,0,0,1-2.632.756,7.248,7.248,0,0,1-1.3-.112,7.472,7.472,0,0,1-1.05-.266l.238-1.134a5.707,5.707,0,0,0,.952.266,5.542,5.542,0,0,0,1.19.126,2.434,2.434,0,0,0,1.666-.462,1.874,1.874,0,0,0,.518-1.47Zm-.014-5.4a3.714,3.714,0,0,0-.532-.1,5.442,5.442,0,0,0-.882-.056,2,2,0,0,0-1.624.686,2.791,2.791,0,0,0-.56,1.82,3.352,3.352,0,0,0,.154,1.078,2.293,2.293,0,0,0,.434.742,1.779,1.779,0,0,0,.63.434,2.06,2.06,0,0,0,.742.14,3.092,3.092,0,0,0,.952-.14,2.453,2.453,0,0,0,.686-.35Zm9.444-3.668a5.326,5.326,0,0,1,3.136.784,2.626,2.626,0,0,1,1.106,2.31,3.123,3.123,0,0,1-.308,1.442,2.46,2.46,0,0,1-.868.966,3.961,3.961,0,0,1-1.372.532,9.087,9.087,0,0,1-1.834.168h-1.078V162h-1.358v-9.562a7.257,7.257,0,0,1,1.274-.182Q246.922,152.2,247.51,152.2Zm.112,1.19q-.867,0-1.33.042v3.808h1.022a8.543,8.543,0,0,0,1.26-.084,2.978,2.978,0,0,0,.938-.308,1.548,1.548,0,0,0,.6-.6,1.975,1.975,0,0,0,.21-.966,1.733,1.733,0,0,0-.224-.924,1.51,1.51,0,0,0-.588-.574,2.38,2.38,0,0,0-.854-.308A6.123,6.123,0,0,0,247.622,153.39Zm11.871,4.97a4.605,4.605,0,0,1-.252,1.568,3.522,3.522,0,0,1-.714,1.2,3.117,3.117,0,0,1-1.078.784,3.671,3.671,0,0,1-2.744,0,3.267,3.267,0,0,1-1.092-.784,3.658,3.658,0,0,1-.7-1.2,4.961,4.961,0,0,1,0-3.122,3.636,3.636,0,0,1,.7-1.218,3.1,3.1,0,0,1,1.092-.77,3.5,3.5,0,0,1,2.744,0,2.958,2.958,0,0,1,1.078.77,3.5,3.5,0,0,1,.714,1.218A4.564,4.564,0,0,1,259.493,158.36Zm-1.358,0a3.07,3.07,0,0,0-.56-1.946,1.771,1.771,0,0,0-1.5-.728,1.81,1.81,0,0,0-1.512.728,3.13,3.13,0,0,0-.546,1.946,3.192,3.192,0,0,0,.546,1.96,1.822,1.822,0,0,0,1.512.714,1.782,1.782,0,0,0,1.5-.714A3.131,3.131,0,0,0,258.135,158.36Zm5.878-3.794a2.831,2.831,0,0,1,.378.028,3.2,3.2,0,0,1,.434.056,3.529,3.529,0,0,1,.378.07,1.785,1.785,0,0,1,.266.056l-.224,1.134a3.9,3.9,0,0,0-.518-.126,4.02,4.02,0,0,0-.91-.084,3.228,3.228,0,0,0-.728.084c-.233.047-.387.079-.462.1V162h-1.3v-6.972a8.214,8.214,0,0,1,1.148-.308A7.031,7.031,0,0,1,264.013,154.566Zm3.93.154H270.7v1.092h-2.758v3.36a4.138,4.138,0,0,0,.084.91,1.418,1.418,0,0,0,.252.56.926.926,0,0,0,.42.28,1.861,1.861,0,0,0,.588.084,2.841,2.841,0,0,0,.938-.126c.243-.093.411-.159.5-.2l.252,1.078a4.429,4.429,0,0,1-.686.238,3.721,3.721,0,0,1-1.12.154,3.587,3.587,0,0,1-1.232-.182,1.847,1.847,0,0,1-.77-.574,2.339,2.339,0,0,1-.42-.924,6.669,6.669,0,0,1-.112-1.288v-6.5l1.3-.224Zm6.879,6.342q.462,0,.812-.014a4.126,4.126,0,0,0,.6-.084v-2.17a1.553,1.553,0,0,0-.462-.112,4.342,4.342,0,0,0-.756-.056,5.1,5.1,0,0,0-.63.042,1.9,1.9,0,0,0-.6.182,1.213,1.213,0,0,0-.448.364.928.928,0,0,0-.182.6,1.064,1.064,0,0,0,.448.98A2.387,2.387,0,0,0,274.822,161.062Zm-.112-6.524a3.6,3.6,0,0,1,1.316.21,2,2,0,0,1,.868.574,2.075,2.075,0,0,1,.476.882,4.152,4.152,0,0,1,.14,1.12v4.55l-.476.084q-.294.042-.672.084t-.826.07q-.434.042-.868.042a4.8,4.8,0,0,1-1.134-.126,2.623,2.623,0,0,1-.9-.392,1.883,1.883,0,0,1-.588-.728,2.525,2.525,0,0,1-.21-1.078,2.132,2.132,0,0,1,.238-1.036,2.012,2.012,0,0,1,.672-.7,3.091,3.091,0,0,1,.98-.392,5.352,5.352,0,0,1,1.176-.126,3.014,3.014,0,0,1,.406.028,2.434,2.434,0,0,1,.392.056c.131.019.243.037.336.056s.159.033.2.042v-.364a2.808,2.808,0,0,0-.07-.63,1.378,1.378,0,0,0-.252-.56,1.183,1.183,0,0,0-.5-.392,1.819,1.819,0,0,0-.812-.154,5.863,5.863,0,0,0-1.134.1,3.71,3.71,0,0,0-.714.182l-.154-1.078a3.781,3.781,0,0,1,.84-.21A6.788,6.788,0,0,1,274.71,154.538Zm7.147,7.6a2.5,2.5,0,0,1-1.708-.518,2.045,2.045,0,0,1-.5-1.526V151.36l1.3-.224v8.75a2.078,2.078,0,0,0,.056.532.727.727,0,0,0,.182.336.847.847,0,0,0,.336.2,4.357,4.357,0,0,0,.518.1Z" fill="#fff"/>
    <path id="Path_61" data-name="Path 61" d="M126.793,120.826a15.023,15.023,0,0,1,15.443-15.514,13.675,13.675,0,0,1,11.6,5.947L150.642,113a10.215,10.215,0,0,0-8.406-4.4c-6.516,0-11.533,5.042-11.533,12.217,0,7.111,5.017,12.218,11.533,12.218a10.052,10.052,0,0,0,8.406-4.4l3.193,1.746a13.812,13.812,0,0,1-11.664,5.947A15.046,15.046,0,0,1,126.793,120.826Z" fill="#fff"/>
    <path id="Path_62" data-name="Path 62" d="M158.527,135.759V105.765h3.389v29.994Z" fill="#fff"/>
    <path id="Path_63" data-name="Path 63" d="M168.1,108.092a2.3,2.3,0,0,1,2.281-2.262,2.257,2.257,0,0,1,2.281,2.262,2.3,2.3,0,0,1-2.281,2.263A2.219,2.219,0,0,1,168.1,108.092Zm.587,27.667v-21.72h3.388v21.72Z" fill="#fff"/>
    <path id="Path_64" data-name="Path 64" d="M193.714,135.759V121.538c0-3.814-1.955-5.042-4.888-5.042a8.624,8.624,0,0,0-6.516,3.361v15.9h-3.388v-21.72h3.388v3.168a10.958,10.958,0,0,1,7.82-3.685c4.561,0,6.972,2.262,6.972,7.046v15.256h-3.388Z" fill="#fff"/>
    <path id="Path_65" data-name="Path 65" d="M203.293,108.092a2.3,2.3,0,0,1,2.281-2.262,2.257,2.257,0,0,1,2.28,2.262,2.3,2.3,0,0,1-2.28,2.263A2.219,2.219,0,0,1,203.293,108.092Zm.586,27.667v-21.72h3.389v21.72Z" fill="#fff"/>
    <path id="Path_66" data-name="Path 66" d="M240.76,135.759v-13.7c0-2-.912-3.491-3.258-3.491a5.985,5.985,0,0,0-4.561,2.521v14.674h-5.8v-13.7c0-2-.913-3.491-3.259-3.491a5.964,5.964,0,0,0-4.561,2.586v14.609h-5.734v-21.72h5.734v2.844a9.6,9.6,0,0,1,7.168-3.361c3.193,0,5.278,1.487,6.06,3.943a9.2,9.2,0,0,1,7.559-3.943c4.04,0,6.451,2.133,6.451,6.594v15.708h-5.8Z" fill="#1fc0f3"/>
    <path id="Path_67" data-name="Path 67" d="M265.326,135.759V133.5a9.143,9.143,0,0,1-6.907,2.78c-3.519,0-7.624-2.327-7.624-7.175,0-5.107,4.1-6.917,7.624-6.917,2.932,0,5.473.9,6.907,2.65V121.8c0-2.2-1.89-3.62-4.822-3.62a9.065,9.065,0,0,0-6.386,2.586l-2.15-3.814a14.514,14.514,0,0,1,9.579-3.426c5.017,0,9.578,2,9.578,8.21v14.027Zm0-7.886A5.867,5.867,0,0,0,260.7,126c-2.281,0-4.106,1.228-4.106,3.3,0,2,1.89,3.167,4.106,3.167a5.869,5.869,0,0,0,4.626-1.874Z" fill="#1fc0f3"/>
    <path id="Path_68" data-name="Path 68" d="M277.967,130.394V119.017h-3.649v-4.978h3.649v-5.947h5.8v5.947H288.2v4.978h-4.431v9.826c0,1.357.717,2.391,2.02,2.391a3.242,3.242,0,0,0,2.02-.646l1.238,4.331a7.079,7.079,0,0,1-4.822,1.422C280.118,136.341,277.967,134.272,277.967,130.394Z" fill="#1fc0f3"/>
    <path id="Path_69" data-name="Path 69" d="M302.078,113.522c6.517,0,10.948,4.848,10.948,11.959v1.228H296.735c.391,2.715,2.607,5.042,6.321,5.042a9.431,9.431,0,0,0,5.864-2.133l2.542,3.685a13.622,13.622,0,0,1-8.993,3.038c-6.646,0-11.729-4.461-11.729-11.442A11.089,11.089,0,0,1,302.078,113.522Zm-5.408,9.373h10.817a5.021,5.021,0,0,0-5.409-4.783A5.2,5.2,0,0,0,296.67,122.895Z" fill="#1fc0f3"/>
    <path id="Path_70" data-name="Path 70" d="M318.89,106.928v8.727h-1.238v-8.727h-2.8v-1.163h6.907v1.163Zm12.9,8.727V107.51l-3.389,8.21h-.391l-3.388-8.21v8.21h-1.238v-9.955h1.955l2.932,7.175,2.932-7.175h1.955v9.89Z" fill="#fff"/>
    <path id="Path_71" data-name="Path 71" d="M76.033,108.222a3.168,3.168,0,1,0-3.193-3.168A3.185,3.185,0,0,0,76.033,108.222Z" fill="#1fc0f3"/>
    <path id="Path_72" data-name="Path 72" d="M90.955,108.222a3.168,3.168,0,1,0-3.193-3.168A3.186,3.186,0,0,0,90.955,108.222Z" fill="#fff"/>
    <path id="Path_73" data-name="Path 73" d="M90.955,139.185a3.168,3.168,0,1,0-3.193-3.167A3.185,3.185,0,0,0,90.955,139.185Z" fill="#fff"/>
    <path id="Path_74" data-name="Path 74" d="M105.877,108.222a3.168,3.168,0,1,0-3.193-3.168A3.228,3.228,0,0,0,105.877,108.222Z" fill="#1fc0f3"/>
    <path id="Path_75" data-name="Path 75" d="M76.033,123.671A3.168,3.168,0,1,0,72.84,120.5,3.145,3.145,0,0,0,76.033,123.671Z" fill="#fff"/>
    <path id="Path_76" data-name="Path 76" d="M105.877,123.671a3.168,3.168,0,1,0-3.193-3.168A3.227,3.227,0,0,0,105.877,123.671Z" fill="#fff"/>
    <path id="Path_77" data-name="Path 77" d="M76.033,139.185a3.168,3.168,0,1,0-3.193-3.167A3.185,3.185,0,0,0,76.033,139.185Z" fill="#1fc0f3"/>
    <path id="Path_78" data-name="Path 78" d="M105.877,139.185a3.168,3.168,0,1,0-3.193-3.167A3.228,3.228,0,0,0,105.877,139.185Z" fill="#1fc0f3"/>
    <path id="Path_79" data-name="Path 79" d="M90.955,123.671a3.168,3.168,0,1,0-3.193-3.168A3.186,3.186,0,0,0,90.955,123.671Z" fill="#1fc0f3"/>
  </g>
</svg>
