<svg xmlns="http://www.w3.org/2000/svg" width="10.114" height="13" viewBox="0 0 10.114 13">
  <path id="Path_1571" data-name="Path 1571" d="M1133.33,316.333a1.33,1.33,0,1,1-2.66,0Zm2.67-6v3.334l.86.86a.668.668,0,0,1-.47,1.14h-8.78a.666.666,0,0,1-.47-1.14l.86-.86v-3.334a4.053,4.053,0,0,1,3-4.213v-.453a1,1,0,0,1,2,0v.453A4.058,4.058,0,0,1,1136,310.333Zm-2.12,4.4V310.86h-.55l-1.32,3.03-1.34-3.03h-.55v3.873h.62v-2.377l1.03,2.377h.46l1.03-2.4v2.4Z" transform="translate(-1126.942 -304.667)" fill="#f44" fill-rule="evenodd"/>
</svg>
