<svg xmlns="http://www.w3.org/2000/svg" xmlns:xlink="http://www.w3.org/1999/xlink" width="24" height="24" viewBox="0 0 24 24">
  <defs>
    <clipPath id="clip-path">
      <rect id="Rectangle_55" data-name="Rectangle 55" width="24" height="24" transform="translate(35 24)" fill="#fff"/>
    </clipPath>
  </defs>
  <g id="Group_33" data-name="Group 33" transform="translate(-35 -24)" opacity="0.8" clip-path="url(#clip-path)">
    <path id="Path_80" data-name="Path 80" d="M47,46a2.006,2.006,0,0,0,2-2H45A2,2,0,0,0,47,46Zm6-6V35c0-3.07-1.64-5.64-4.5-6.32V28a1.5,1.5,0,0,0-3,0v.68c-2.87.68-4.5,3.24-4.5,6.32v5l-1.29,1.29a1,1,0,0,0,.7,1.71h13.17a1,1,0,0,0,.71-1.71Z" fill="#ca4242"/>
  </g>
</svg>
