<svg xmlns="http://www.w3.org/2000/svg" width="20.8" height="18.5" viewBox="0 0 20.8 18.5">
  <g id="push-notification" transform="translate(-1304.5 -353.5)" opacity="0.8">
    <path id="Path_106" data-name="Path 106" d="M1143,372a1.9,1.9,0,0,0,1.88-1.9h-3.76A1.9,1.9,0,0,0,1143,372Zm5.62-5.692v-4.744c0-2.912-1.52-5.351-4.21-6v-.645a1.41,1.41,0,1,0-2.82,0v.645c-2.68.645-4.21,3.074-4.21,6v4.744l-1.88,1.9v.949h15V368.2Zm-1.87.948h-7.5v-5.692c0-2.353,1.42-4.269,3.75-4.269s3.75,1.916,3.75,4.269Z" transform="translate(169)" fill="#fff"/>
    <path id="Path_107" data-name="Path 107" d="M1152.7,369.5v-4.23h.59l2.45,3.174h-.16V365.27h.72v4.23h-.58l-2.45-3.174h.15V369.5Z" transform="translate(169)" fill="#fff"/>
  </g>
</svg>
