<svg xmlns="http://www.w3.org/2000/svg" width="24" height="24" viewBox="0 0 24 24">
  <g id="Group_3" data-name="Group 3" transform="translate(-92 -434)">
    <path id="Path_25" data-name="Path 25" d="M108.5,443a4.5,4.5,0,1,1-1.318-3.182A4.5,4.5,0,0,1,108.5,443Z" fill="#fff"/>
    <path id="Path_26" data-name="Path 26" d="M92,446a12,12,0,1,1,3.515,8.485A12,12,0,0,1,92,446Zm12-10.5a10.5,10.5,0,0,0-8.2,17.055c1.065-1.716,3.41-3.555,8.2-3.555s7.135,1.837,8.2,3.555A10.5,10.5,0,0,0,104,435.5Z" fill="#fff" fill-rule="evenodd"/>
  </g>
</svg>
