<svg xmlns="http://www.w3.org/2000/svg" xmlns:xlink="http://www.w3.org/1999/xlink" width="40" height="28" viewBox="0 0 40 28">
  <defs>
    <clipPath id="clip-skin-icon">
      <rect width="40" height="28"/>
    </clipPath>
  </defs>
  <g id="skin-icon" clip-path="url(#clip-skin-icon)">
    <g id="Group_72" data-name="Group 72" transform="translate(0 -3)">
      <path id="Path_458" data-name="Path 458" d="M345.051,336.092v-9.925a4.223,4.223,0,0,0-8.446,0v9.924a6.2,6.2,0,0,0-2.112,4.659,6.336,6.336,0,0,0,12.67,0A6.2,6.2,0,0,0,345.051,336.092Zm-4.223,8.825a4.2,4.2,0,0,1-4.223-4.167,4.123,4.123,0,0,1,1.408-3.106l.7-.621V326.167a2.112,2.112,0,0,1,4.224,0v10.856l.7.621a4.123,4.123,0,0,1,1.408,3.106A4.2,4.2,0,0,1,340.828,344.917Z" transform="translate(-325.493 -317.916)" fill="#fff"/>
      <path id="Path_459" data-name="Path 459" d="M341.539,328.847h-1.81v12.5h1.81Z" transform="translate(-325.493 -317.916)" fill="#fff"/>
      <path id="Path_460" data-name="Path 460" d="M340.637,344.231a3.374,3.374,0,1,0-3.619-3.365A3.5,3.5,0,0,0,340.637,344.231Z" transform="translate(-325.493 -317.916)" fill="#fff"/>
      <path id="Path_461" data-name="Path 461" d="M356.714,325.449a1.241,1.241,0,0,1-.469,1.024,2.028,2.028,0,0,1-1.3.374,3.05,3.05,0,0,1-1.358-.289v-.945a5.564,5.564,0,0,0,.82.3,2.415,2.415,0,0,0,.617.089.87.87,0,0,0,.512-.128.436.436,0,0,0,.18-.381.414.414,0,0,0-.078-.249.872.872,0,0,0-.233-.213,5.87,5.87,0,0,0-.62-.325,2.967,2.967,0,0,1-.66-.4,1.5,1.5,0,0,1-.351-.443,1.267,1.267,0,0,1-.131-.59,1.241,1.241,0,0,1,.43-1,1.8,1.8,0,0,1,1.194-.364,2.8,2.8,0,0,1,.712.089,4.9,4.9,0,0,1,.712.249l-.328.791a4.659,4.659,0,0,0-.637-.22,2,2,0,0,0-.492-.063.654.654,0,0,0-.443.135.478.478,0,0,0-.092.587.727.727,0,0,0,.2.194,6.63,6.63,0,0,0,.646.334,2.547,2.547,0,0,1,.922.647A1.246,1.246,0,0,1,356.714,325.449Zm.646,8.051H356.2l-1.256-2.021-.43.308V333.5H353.5v-4.8h1.017V330.9l.4-.564,1.3-1.63h1.129l-1.673,2.122Zm-2.739,6.719v-4.8h1.017v4.8Zm2.634,6.718h-1.293l-2.086-3.628h-.03q.063.962.063,1.371v2.257H353v-4.8h1.283l2.083,3.592h.023q-.05-.935-.049-1.322v-2.27h.915Z" transform="translate(-325.493 -317.916)" fill="#fff"/>
    </g>
  </g>
</svg>
