<svg xmlns="http://www.w3.org/2000/svg" width="260.32" height="60.323" viewBox="0 0 260.32 60.323">
  <g id="Group_4" data-name="Group 4" transform="translate(-404.84 -101.887)">
    <path id="Path_80" data-name="Path 80" d="M464.376,162.21a4.973,4.973,0,0,1-1.862-.336,3.962,3.962,0,0,1-1.442-.98,4.513,4.513,0,0,1-.938-1.582,6.751,6.751,0,0,1-.322-2.17,5.923,5.923,0,0,1,.364-2.156,4.755,4.755,0,0,1,1.008-1.6,4.238,4.238,0,0,1,1.47-.98,4.779,4.779,0,0,1,1.792-.336,6.423,6.423,0,0,1,1.918.28,3.907,3.907,0,0,1,.588.224,3.5,3.5,0,0,1,.308.168l-.392,1.12a2.134,2.134,0,0,0-.364-.182c-.159-.065-.341-.131-.546-.2a4.009,4.009,0,0,0-.658-.154,3.6,3.6,0,0,0-.714-.07,3.471,3.471,0,0,0-1.386.266,2.858,2.858,0,0,0-1.05.77,3.569,3.569,0,0,0-.672,1.232,5.382,5.382,0,0,0-.224,1.61,5.954,5.954,0,0,0,.2,1.582,3.627,3.627,0,0,0,.616,1.232,2.79,2.79,0,0,0,1.008.784,3.417,3.417,0,0,0,1.428.28,5.2,5.2,0,0,0,1.554-.2,6.8,6.8,0,0,0,.924-.35l.35,1.12a2.2,2.2,0,0,1-.35.182,5.773,5.773,0,0,1-.63.2,8.017,8.017,0,0,1-.882.168A7.9,7.9,0,0,1,464.376,162.21Zm3.815-3.836a4.583,4.583,0,0,1,.28-1.68,3.5,3.5,0,0,1,.742-1.2,3.015,3.015,0,0,1,1.064-.714,3.316,3.316,0,0,1,1.232-.238,2.792,2.792,0,0,1,2.254.924,4.192,4.192,0,0,1,.784,2.786v.224a1.992,1.992,0,0,1-.014.238h-4.984a2.663,2.663,0,0,0,.658,1.722,2.408,2.408,0,0,0,1.792.588,4.952,4.952,0,0,0,1.148-.112,4.461,4.461,0,0,0,.714-.238l.182,1.092a3.868,3.868,0,0,1-.84.266,5.847,5.847,0,0,1-1.344.14,4.426,4.426,0,0,1-1.652-.28,3.139,3.139,0,0,1-1.134-.8,3.309,3.309,0,0,1-.672-1.19A5.29,5.29,0,0,1,468.191,158.374Zm5-.714a2.136,2.136,0,0,0-.448-1.442,1.491,1.491,0,0,0-1.246-.574,1.706,1.706,0,0,0-.8.182,1.791,1.791,0,0,0-.574.448,2.2,2.2,0,0,0-.378.644,3.421,3.421,0,0,0-.168.742Zm3.228-2.73q.449-.112,1.19-.238a10.3,10.3,0,0,1,1.708-.126,3.6,3.6,0,0,1,1.442.252,2.124,2.124,0,0,1,.91.686,2.539,2.539,0,0,1,.49,1.05,6.153,6.153,0,0,1,.14,1.358V162h-1.3v-3.808a5.805,5.805,0,0,0-.1-1.148,1.874,1.874,0,0,0-.294-.77,1.15,1.15,0,0,0-.56-.42,2.355,2.355,0,0,0-.868-.14c-.14,0-.285,0-.434.014s-.294.023-.434.042-.252.023-.364.042l-.224.042V162h-1.3Zm9.257-.21h2.758v1.092h-2.758v3.36a4.138,4.138,0,0,0,.084.91,1.418,1.418,0,0,0,.252.56.926.926,0,0,0,.42.28,1.862,1.862,0,0,0,.588.084,2.841,2.841,0,0,0,.938-.126c.243-.093.411-.159.5-.2l.252,1.078a4.471,4.471,0,0,1-.686.238,3.726,3.726,0,0,1-1.12.154,3.583,3.583,0,0,1-1.232-.182,1.847,1.847,0,0,1-.77-.574,2.339,2.339,0,0,1-.42-.924,6.59,6.59,0,0,1-.112-1.288v-6.5l1.3-.224Zm7.1-.154a2.831,2.831,0,0,1,.378.028,3.2,3.2,0,0,1,.434.056,3.528,3.528,0,0,1,.378.07,1.785,1.785,0,0,1,.266.056l-.224,1.134a3.945,3.945,0,0,0-.518-.126,4.026,4.026,0,0,0-.91-.084,3.222,3.222,0,0,0-.728.084c-.234.047-.388.079-.462.1V162h-1.3v-6.972a8.178,8.178,0,0,1,1.148-.308A7.025,7.025,0,0,1,492.777,154.566Zm5.176,6.5q.462,0,.812-.014a4.147,4.147,0,0,0,.6-.084v-2.17a1.553,1.553,0,0,0-.462-.112,4.342,4.342,0,0,0-.756-.056,5.1,5.1,0,0,0-.63.042,1.888,1.888,0,0,0-.6.182,1.2,1.2,0,0,0-.448.364.928.928,0,0,0-.182.6,1.062,1.062,0,0,0,.448.98A2.387,2.387,0,0,0,497.953,161.062Zm-.112-6.524a3.6,3.6,0,0,1,1.316.21,2,2,0,0,1,.868.574,2.075,2.075,0,0,1,.476.882,4.193,4.193,0,0,1,.14,1.12v4.55l-.476.084q-.294.042-.672.084t-.826.07c-.289.028-.579.042-.868.042a4.791,4.791,0,0,1-1.134-.126,2.622,2.622,0,0,1-.9-.392,1.883,1.883,0,0,1-.588-.728,2.525,2.525,0,0,1-.21-1.078,2.12,2.12,0,0,1,.238-1.036,2.012,2.012,0,0,1,.672-.7,3.091,3.091,0,0,1,.98-.392,5.34,5.34,0,0,1,1.176-.126,3.013,3.013,0,0,1,.406.028,2.433,2.433,0,0,1,.392.056c.131.019.243.037.336.056s.159.033.2.042v-.364a2.81,2.81,0,0,0-.07-.63,1.406,1.406,0,0,0-.252-.56,1.183,1.183,0,0,0-.5-.392,1.819,1.819,0,0,0-.812-.154,5.862,5.862,0,0,0-1.134.1,3.71,3.71,0,0,0-.714.182l-.154-1.078a3.781,3.781,0,0,1,.84-.21A6.789,6.789,0,0,1,497.841,154.538Zm7.147,7.6a2.5,2.5,0,0,1-1.708-.518,2.045,2.045,0,0,1-.5-1.526V151.36l1.3-.224v8.75a2.078,2.078,0,0,0,.056.532.726.726,0,0,0,.182.336.847.847,0,0,0,.336.2,4.355,4.355,0,0,0,.518.1Zm7.222-1.106q2.129,0,2.128-1.456a1.376,1.376,0,0,0-.2-.756,1.638,1.638,0,0,0-.5-.546,3.3,3.3,0,0,0-.742-.406q-.406-.168-.868-.336a9.808,9.808,0,0,1-1.008-.406,3.871,3.871,0,0,1-.826-.546,2.506,2.506,0,0,1-.56-.756,2.533,2.533,0,0,1-.2-1.05,2.432,2.432,0,0,1,.868-1.988,3.663,3.663,0,0,1,2.394-.714,6.014,6.014,0,0,1,1.6.2,3.564,3.564,0,0,1,1.064.406l-.434,1.106a3.664,3.664,0,0,0-.882-.35,4.473,4.473,0,0,0-1.344-.182,3,3,0,0,0-.728.084,1.867,1.867,0,0,0-.588.252,1.3,1.3,0,0,0-.406.434,1.226,1.226,0,0,0-.14.6,1.292,1.292,0,0,0,.154.658,1.6,1.6,0,0,0,.434.476,4.139,4.139,0,0,0,.644.364q.378.168.826.336.63.252,1.148.5a3.59,3.59,0,0,1,.91.6,2.354,2.354,0,0,1,.6.84,2.874,2.874,0,0,1,.21,1.162,2.283,2.283,0,0,1-.938,1.96,4.33,4.33,0,0,1-2.618.686,6.307,6.307,0,0,1-1.064-.084,8.346,8.346,0,0,1-.854-.168c-.252-.075-.471-.149-.658-.224s-.317-.154-.42-.21l.406-1.12a6.131,6.131,0,0,0,.98.406A5.046,5.046,0,0,0,512.21,161.034Zm4.707-2.66a4.583,4.583,0,0,1,.28-1.68,3.516,3.516,0,0,1,.742-1.2,3.024,3.024,0,0,1,1.064-.714,3.316,3.316,0,0,1,1.232-.238,2.792,2.792,0,0,1,2.254.924,4.186,4.186,0,0,1,.784,2.786v.224a1.985,1.985,0,0,1-.014.238h-4.984a2.663,2.663,0,0,0,.658,1.722,2.409,2.409,0,0,0,1.792.588,4.952,4.952,0,0,0,1.148-.112,4.46,4.46,0,0,0,.714-.238l.182,1.092a3.868,3.868,0,0,1-.84.266,5.848,5.848,0,0,1-1.344.14,4.43,4.43,0,0,1-1.652-.28,3.157,3.157,0,0,1-1.134-.8,3.309,3.309,0,0,1-.672-1.19A5.29,5.29,0,0,1,516.917,158.374Zm5-.714a2.136,2.136,0,0,0-.448-1.442,1.491,1.491,0,0,0-1.246-.574,1.707,1.707,0,0,0-.8.182,1.8,1.8,0,0,0-.574.448,2.2,2.2,0,0,0-.378.644,3.421,3.421,0,0,0-.168.742Zm5.916-3.094a2.831,2.831,0,0,1,.378.028,3.176,3.176,0,0,1,.434.056,3.528,3.528,0,0,1,.378.07,1.755,1.755,0,0,1,.266.056l-.224,1.134a3.86,3.86,0,0,0-.518-.126,4.014,4.014,0,0,0-.91-.084,3.235,3.235,0,0,0-.728.084c-.233.047-.387.079-.462.1V162h-1.3v-6.972a8.213,8.213,0,0,1,1.148-.308A7.038,7.038,0,0,1,527.831,154.566Zm8.7.154a35.85,35.85,0,0,1-1.288,3.92q-.729,1.877-1.414,3.36h-1.176q-.687-1.483-1.428-3.36a37.613,37.613,0,0,1-1.274-3.92h1.4q.168.686.392,1.47t.49,1.54q.266.756.532,1.47t.5,1.274q.237-.56.5-1.274t.518-1.47q.266-.77.49-1.54t.406-1.47Zm.746,3.654a4.583,4.583,0,0,1,.28-1.68,3.5,3.5,0,0,1,.742-1.2,3.015,3.015,0,0,1,1.064-.714,3.316,3.316,0,0,1,1.232-.238,2.792,2.792,0,0,1,2.254.924,4.192,4.192,0,0,1,.784,2.786v.224a2,2,0,0,1-.014.238h-4.984a2.663,2.663,0,0,0,.658,1.722,2.408,2.408,0,0,0,1.792.588,4.952,4.952,0,0,0,1.148-.112,4.462,4.462,0,0,0,.714-.238l.182,1.092a3.869,3.869,0,0,1-.84.266,5.847,5.847,0,0,1-1.344.14,4.426,4.426,0,0,1-1.652-.28,3.14,3.14,0,0,1-1.134-.8,3.309,3.309,0,0,1-.672-1.19A5.29,5.29,0,0,1,537.275,158.374Zm5-.714a2.137,2.137,0,0,0-.448-1.442,1.491,1.491,0,0,0-1.246-.574,1.706,1.706,0,0,0-.8.182,1.791,1.791,0,0,0-.574.448,2.2,2.2,0,0,0-.378.644,3.421,3.421,0,0,0-.168.742Zm5.916-3.094a2.831,2.831,0,0,1,.378.028,3.2,3.2,0,0,1,.434.056,3.529,3.529,0,0,1,.378.07,1.787,1.787,0,0,1,.266.056l-.224,1.134a3.905,3.905,0,0,0-.518-.126,4.02,4.02,0,0,0-.91-.084,3.228,3.228,0,0,0-.728.084c-.233.047-.387.079-.462.1V162h-1.3v-6.972a8.218,8.218,0,0,1,1.148-.308A7.032,7.032,0,0,1,548.189,154.566Zm8.29,6.468q2.129,0,2.128-1.456a1.376,1.376,0,0,0-.2-.756,1.638,1.638,0,0,0-.5-.546,3.28,3.28,0,0,0-.742-.406c-.27-.112-.56-.224-.868-.336a9.992,9.992,0,0,1-1.008-.406,3.9,3.9,0,0,1-.826-.546,2.506,2.506,0,0,1-.56-.756,2.549,2.549,0,0,1-.2-1.05,2.435,2.435,0,0,1,.868-1.988,3.663,3.663,0,0,1,2.394-.714,6.014,6.014,0,0,1,1.6.2,3.553,3.553,0,0,1,1.064.406l-.434,1.106a3.662,3.662,0,0,0-.882-.35,4.463,4.463,0,0,0-1.344-.182,3,3,0,0,0-.728.084,1.867,1.867,0,0,0-.588.252,1.3,1.3,0,0,0-.406.434,1.226,1.226,0,0,0-.14.6,1.3,1.3,0,0,0,.154.658,1.618,1.618,0,0,0,.434.476,4.186,4.186,0,0,0,.644.364c.252.112.528.224.826.336q.63.252,1.148.5a3.59,3.59,0,0,1,.91.6,2.342,2.342,0,0,1,.6.84,2.873,2.873,0,0,1,.21,1.162,2.28,2.28,0,0,1-.938,1.96,4.328,4.328,0,0,1-2.618.686,6.316,6.316,0,0,1-1.064-.084,8.348,8.348,0,0,1-.854-.168c-.252-.075-.471-.149-.658-.224s-.317-.154-.42-.21l.406-1.12a6.173,6.173,0,0,0,.98.406A5.049,5.049,0,0,0,556.479,161.034Zm11.54-2.674a4.606,4.606,0,0,1-.252,1.568,3.522,3.522,0,0,1-.714,1.2,3.125,3.125,0,0,1-1.078.784,3.671,3.671,0,0,1-2.744,0,3.267,3.267,0,0,1-1.092-.784,3.641,3.641,0,0,1-.7-1.2,4.96,4.96,0,0,1,0-3.122,3.62,3.62,0,0,1,.7-1.218,3.1,3.1,0,0,1,1.092-.77,3.5,3.5,0,0,1,2.744,0,2.966,2.966,0,0,1,1.078.77,3.5,3.5,0,0,1,.714,1.218A4.565,4.565,0,0,1,568.019,158.36Zm-1.358,0a3.076,3.076,0,0,0-.56-1.946,1.772,1.772,0,0,0-1.5-.728,1.808,1.808,0,0,0-1.512.728,3.13,3.13,0,0,0-.546,1.946,3.192,3.192,0,0,0,.546,1.96,1.82,1.82,0,0,0,1.512.714,1.784,1.784,0,0,0,1.5-.714A3.137,3.137,0,0,0,566.661,158.36Zm6.031-7.224a4.907,4.907,0,0,1,.98.084,3.494,3.494,0,0,1,.588.154l-.238,1.12a2.194,2.194,0,0,0-.476-.154,2.912,2.912,0,0,0-.756-.084,1.47,1.47,0,0,0-1.274.5,2.189,2.189,0,0,0-.364,1.33v.63h2.8v1.092h-2.8V162h-1.3v-7.938a3.1,3.1,0,0,1,.686-2.156A2.749,2.749,0,0,1,572.692,151.136Zm3.777,3.584h2.758v1.092h-2.758v3.36a4.14,4.14,0,0,0,.084.91,1.418,1.418,0,0,0,.252.56.926.926,0,0,0,.42.28,1.862,1.862,0,0,0,.588.084,2.841,2.841,0,0,0,.938-.126c.243-.093.411-.159.5-.2l.252,1.078a4.472,4.472,0,0,1-.686.238,3.726,3.726,0,0,1-1.12.154,3.583,3.583,0,0,1-1.232-.182,1.847,1.847,0,0,1-.77-.574,2.339,2.339,0,0,1-.42-.924,6.59,6.59,0,0,1-.112-1.288v-6.5l1.3-.224ZM586.834,162q-.393-1.008-.84-2.3t-.8-2.7q-.364,1.4-.8,2.7t-.826,2.3h-1.134q-.645-1.441-1.26-3.29t-1.162-3.99h1.4q.139.658.336,1.428t.406,1.54q.223.77.462,1.484t.448,1.246q.237-.658.462-1.386t.448-1.484q.21-.756.392-1.47t.336-1.358h1.078q.126.63.308,1.358t.392,1.47q.21.742.434,1.484t.476,1.386q.21-.532.434-1.246t.462-1.484q.224-.77.42-1.54t.336-1.428h1.344q-.546,2.142-1.162,3.99t-1.26,3.29Zm7.4-.938q.462,0,.812-.014a4.126,4.126,0,0,0,.6-.084v-2.17a1.553,1.553,0,0,0-.462-.112,4.342,4.342,0,0,0-.756-.056,5.094,5.094,0,0,0-.63.042,1.9,1.9,0,0,0-.6.182,1.213,1.213,0,0,0-.448.364.928.928,0,0,0-.182.6,1.064,1.064,0,0,0,.448.98A2.387,2.387,0,0,0,594.23,161.062Zm-.112-6.524a3.6,3.6,0,0,1,1.316.21,2,2,0,0,1,.868.574,2.075,2.075,0,0,1,.476.882,4.152,4.152,0,0,1,.14,1.12v4.55l-.476.084q-.294.042-.672.084t-.826.07q-.433.042-.868.042a4.8,4.8,0,0,1-1.134-.126,2.622,2.622,0,0,1-.9-.392,1.883,1.883,0,0,1-.588-.728,2.525,2.525,0,0,1-.21-1.078,2.131,2.131,0,0,1,.238-1.036,2.011,2.011,0,0,1,.672-.7,3.09,3.09,0,0,1,.98-.392,5.353,5.353,0,0,1,1.176-.126,3.013,3.013,0,0,1,.406.028,2.433,2.433,0,0,1,.392.056c.131.019.243.037.336.056s.159.033.2.042v-.364a2.81,2.81,0,0,0-.07-.63,1.379,1.379,0,0,0-.252-.56,1.183,1.183,0,0,0-.5-.392,1.819,1.819,0,0,0-.812-.154,5.862,5.862,0,0,0-1.134.1,3.709,3.709,0,0,0-.714.182L592,154.86a3.78,3.78,0,0,1,.84-.21A6.789,6.789,0,0,1,594.118,154.538Zm7.651.028a2.831,2.831,0,0,1,.378.028,3.2,3.2,0,0,1,.434.056,3.528,3.528,0,0,1,.378.07,1.783,1.783,0,0,1,.266.056L603,155.91a3.9,3.9,0,0,0-.518-.126,4.02,4.02,0,0,0-.91-.084,3.229,3.229,0,0,0-.728.084c-.233.047-.387.079-.462.1V162h-1.3v-6.972a8.213,8.213,0,0,1,1.148-.308A7.031,7.031,0,0,1,601.769,154.566Zm2.306,3.808a4.6,4.6,0,0,1,.28-1.68,3.518,3.518,0,0,1,.742-1.2,3.025,3.025,0,0,1,1.064-.714,3.32,3.32,0,0,1,1.232-.238,2.791,2.791,0,0,1,2.254.924,4.186,4.186,0,0,1,.784,2.786v.224a1.8,1.8,0,0,1-.014.238h-4.984a2.669,2.669,0,0,0,.658,1.722,2.409,2.409,0,0,0,1.792.588,4.946,4.946,0,0,0,1.148-.112,4.392,4.392,0,0,0,.714-.238l.182,1.092a3.83,3.83,0,0,1-.84.266,5.847,5.847,0,0,1-1.344.14,4.433,4.433,0,0,1-1.652-.28,3.156,3.156,0,0,1-1.134-.8,3.34,3.34,0,0,1-.672-1.19A5.292,5.292,0,0,1,604.075,158.374Zm5-.714a2.131,2.131,0,0,0-.448-1.442,1.49,1.49,0,0,0-1.246-.574,1.712,1.712,0,0,0-.8.182,1.8,1.8,0,0,0-.574.448,2.239,2.239,0,0,0-.378.644,3.417,3.417,0,0,0-.168.742Z" fill="#fff"/>
    <path id="Path_81" data-name="Path 81" d="M458.793,120.826a15.023,15.023,0,0,1,15.443-15.514,13.675,13.675,0,0,1,11.6,5.947L482.642,113a10.215,10.215,0,0,0-8.406-4.4c-6.516,0-11.533,5.042-11.533,12.217,0,7.111,5.017,12.218,11.533,12.218a10.052,10.052,0,0,0,8.406-4.4l3.193,1.746a13.812,13.812,0,0,1-11.664,5.947A15.046,15.046,0,0,1,458.793,120.826Z" fill="#fff"/>
    <path id="Path_82" data-name="Path 82" d="M490.527,135.759V105.765h3.389v29.994Z" fill="#fff"/>
    <path id="Path_83" data-name="Path 83" d="M500.105,108.092a2.3,2.3,0,0,1,2.281-2.262,2.257,2.257,0,0,1,2.281,2.262,2.3,2.3,0,0,1-2.281,2.263A2.219,2.219,0,0,1,500.105,108.092Zm.587,27.667v-21.72h3.388v21.72Z" fill="#fff"/>
    <path id="Path_84" data-name="Path 84" d="M525.714,135.759V121.538c0-3.814-1.955-5.042-4.888-5.042a8.624,8.624,0,0,0-6.516,3.361v15.9h-3.388v-21.72h3.388v3.168a10.958,10.958,0,0,1,7.82-3.685c4.561,0,6.972,2.262,6.972,7.046v15.256h-3.388Z" fill="#fff"/>
    <path id="Path_85" data-name="Path 85" d="M535.293,108.092a2.3,2.3,0,0,1,2.281-2.262,2.257,2.257,0,0,1,2.28,2.262,2.3,2.3,0,0,1-2.28,2.263A2.219,2.219,0,0,1,535.293,108.092Zm.586,27.667v-21.72h3.389v21.72Z" fill="#fff"/>
    <path id="Path_86" data-name="Path 86" d="M572.76,135.759v-13.7c0-2-.912-3.491-3.258-3.491a5.985,5.985,0,0,0-4.561,2.521v14.674h-5.8v-13.7c0-2-.913-3.491-3.259-3.491a5.964,5.964,0,0,0-4.561,2.586v14.609h-5.734v-21.72h5.734v2.844a9.6,9.6,0,0,1,7.168-3.361c3.193,0,5.278,1.487,6.06,3.943a9.2,9.2,0,0,1,7.559-3.943c4.04,0,6.451,2.133,6.451,6.594v15.708h-5.8Z" fill="#1fc0f3"/>
    <path id="Path_87" data-name="Path 87" d="M597.326,135.759V133.5a9.143,9.143,0,0,1-6.907,2.78c-3.519,0-7.624-2.327-7.624-7.175,0-5.107,4.105-6.917,7.624-6.917,2.932,0,5.473.9,6.907,2.65V121.8c0-2.2-1.89-3.62-4.822-3.62a9.065,9.065,0,0,0-6.386,2.586l-2.15-3.814a14.514,14.514,0,0,1,9.579-3.426c5.017,0,9.578,2,9.578,8.21v14.027Zm0-7.886A5.867,5.867,0,0,0,592.7,126c-2.281,0-4.106,1.228-4.106,3.3,0,2,1.89,3.167,4.106,3.167a5.869,5.869,0,0,0,4.626-1.874Z" fill="#1fc0f3"/>
    <path id="Path_88" data-name="Path 88" d="M609.967,130.394V119.017h-3.649v-4.978h3.649v-5.947h5.8v5.947H620.2v4.978h-4.431v9.826c0,1.357.717,2.391,2.02,2.391a3.242,3.242,0,0,0,2.02-.646l1.238,4.331a7.079,7.079,0,0,1-4.822,1.422C612.118,136.341,609.967,134.272,609.967,130.394Z" fill="#1fc0f3"/>
    <path id="Path_89" data-name="Path 89" d="M634.078,113.522c6.517,0,10.948,4.848,10.948,11.959v1.228H628.735c.391,2.715,2.607,5.042,6.321,5.042a9.431,9.431,0,0,0,5.864-2.133l2.542,3.685a13.622,13.622,0,0,1-8.993,3.038c-6.646,0-11.729-4.461-11.729-11.442A11.089,11.089,0,0,1,634.078,113.522Zm-5.408,9.373h10.817a5.021,5.021,0,0,0-5.409-4.783A5.2,5.2,0,0,0,628.67,122.895Z" fill="#1fc0f3"/>
    <path id="Path_90" data-name="Path 90" d="M650.89,106.928v8.727h-1.238v-8.727h-2.8v-1.163h6.907v1.163Zm12.9,8.727V107.51l-3.389,8.21h-.391l-3.388-8.21v8.21h-1.238v-9.955h1.955l2.932,7.175,2.932-7.175h1.955v9.89Z" fill="#fff"/>
    <path id="Path_91" data-name="Path 91" d="M408.033,108.222a3.168,3.168,0,1,0-3.193-3.168A3.186,3.186,0,0,0,408.033,108.222Z" fill="#1fc0f3"/>
    <path id="Path_92" data-name="Path 92" d="M422.955,108.222a3.168,3.168,0,1,0-3.193-3.168A3.186,3.186,0,0,0,422.955,108.222Z" fill="#fff"/>
    <path id="Path_93" data-name="Path 93" d="M422.955,139.185a3.168,3.168,0,1,0-3.193-3.167A3.186,3.186,0,0,0,422.955,139.185Z" fill="#fff"/>
    <path id="Path_94" data-name="Path 94" d="M437.877,108.222a3.168,3.168,0,1,0-3.193-3.168A3.228,3.228,0,0,0,437.877,108.222Z" fill="#1fc0f3"/>
    <path id="Path_95" data-name="Path 95" d="M408.033,123.671a3.168,3.168,0,1,0-3.193-3.168A3.145,3.145,0,0,0,408.033,123.671Z" fill="#fff"/>
    <path id="Path_96" data-name="Path 96" d="M437.877,123.671a3.168,3.168,0,1,0-3.193-3.168A3.227,3.227,0,0,0,437.877,123.671Z" fill="#fff"/>
    <path id="Path_97" data-name="Path 97" d="M408.033,139.185a3.168,3.168,0,1,0-3.193-3.167A3.186,3.186,0,0,0,408.033,139.185Z" fill="#1fc0f3"/>
    <path id="Path_98" data-name="Path 98" d="M437.877,139.185a3.168,3.168,0,1,0-3.193-3.167A3.228,3.228,0,0,0,437.877,139.185Z" fill="#1fc0f3"/>
    <path id="Path_99" data-name="Path 99" d="M422.955,123.671a3.168,3.168,0,1,0-3.193-3.168A3.186,3.186,0,0,0,422.955,123.671Z" fill="#1fc0f3"/>
  </g>
</svg>
