<svg xmlns="http://www.w3.org/2000/svg" xmlns:xlink="http://www.w3.org/1999/xlink" width="40" height="28" viewBox="0 0 40 28">
  <defs>
    <clipPath id="clip-spo2-icon">
      <rect width="40" height="28"/>
    </clipPath>
  </defs>
  <g id="spo2-icon" clip-path="url(#clip-spo2-icon)">
    <path id="Path_446" data-name="Path 446" d="M162.73,337.035a9.406,9.406,0,0,1-2.745-.374,6.752,6.752,0,0,1-2.139-1.105l.624-1.462a6.919,6.919,0,0,0,1.248.766,6.821,6.821,0,0,0,1.39.463,8.672,8.672,0,0,0,1.622.143,3.606,3.606,0,0,0,2.192-.535,1.677,1.677,0,0,0,.713-1.408,1.415,1.415,0,0,0-.5-1.159,3.947,3.947,0,0,0-1.711-.659l-1.943-.392a5.286,5.286,0,0,1-2.584-1.159,2.974,2.974,0,0,1-.838-2.228,3.365,3.365,0,0,1,.606-2,3.9,3.9,0,0,1,1.675-1.319,6.414,6.414,0,0,1,2.531-.463,7.415,7.415,0,0,1,2.46.392,4.853,4.853,0,0,1,1.889,1.123l-.606,1.408a5.3,5.3,0,0,0-1.711-1.016,5.9,5.9,0,0,0-2.068-.339,3.6,3.6,0,0,0-2.157.57,1.831,1.831,0,0,0-.766,1.551,1.593,1.593,0,0,0,.481,1.23,3.539,3.539,0,0,0,1.64.677l1.943.374a5.586,5.586,0,0,1,2.656,1.159,2.7,2.7,0,0,1,.856,2.121,3.187,3.187,0,0,1-.588,1.907,3.753,3.753,0,0,1-1.64,1.283A6.556,6.556,0,0,1,162.73,337.035Zm7.125,3.69V330.048q0-.517-.053-1.052-.036-.553-.089-1.105h1.747l.178,2.032h-.2a2.807,2.807,0,0,1,1.141-1.6,3.613,3.613,0,0,1,2.068-.588,3.784,3.784,0,0,1,2.085.57,3.6,3.6,0,0,1,1.372,1.586,5.7,5.7,0,0,1,.5,2.5,5.771,5.771,0,0,1-.5,2.5,3.582,3.582,0,0,1-1.372,1.6,3.876,3.876,0,0,1-2.085.553,3.664,3.664,0,0,1-2.05-.57,2.805,2.805,0,0,1-1.141-1.586h.2v5.846Zm4.349-5.1a2.328,2.328,0,0,0,1.872-.82,3.6,3.6,0,0,0,.713-2.424,3.528,3.528,0,0,0-.713-2.406,2.328,2.328,0,0,0-1.872-.82,2.38,2.38,0,0,0-1.889.82,3.59,3.59,0,0,0-.7,2.406,3.664,3.664,0,0,0,.7,2.424A2.38,2.38,0,0,0,174.2,335.627Zm6.492-5.044a7.817,7.817,0,0,1,.7-3.422,5.1,5.1,0,0,1,2.014-2.228,6.159,6.159,0,0,1,3.173-.784,6.026,6.026,0,0,1,3.137.784,5.206,5.206,0,0,1,2.032,2.228,7.45,7.45,0,0,1,.731,3.4,7.6,7.6,0,0,1-.731,3.44,5.286,5.286,0,0,1-2.05,2.246,5.991,5.991,0,0,1-3.119.784,6.063,6.063,0,0,1-3.155-.784A5.321,5.321,0,0,1,181.391,334,7.89,7.89,0,0,1,180.7,330.582Zm1.943,0a5.677,5.677,0,0,0,1,3.565,3.5,3.5,0,0,0,2.941,1.283,3.561,3.561,0,0,0,2.923-1.265,5.568,5.568,0,0,0,1.034-3.583,5.493,5.493,0,0,0-1.034-3.565,4.029,4.029,0,0,0-5.864,0A5.631,5.631,0,0,0,182.638,330.582Zm11.762,6.292v-.594l1.711-1.735a3.538,3.538,0,0,0,.487-.654,1.323,1.323,0,0,0,.154-.618q0-.772-.879-.772a1.97,1.97,0,0,0-.713.143,2,2,0,0,0-.654.38l-.261-.618a2.522,2.522,0,0,1,.772-.44,2.933,2.933,0,0,1,1-.166,1.708,1.708,0,0,1,1.176.38,1.263,1.263,0,0,1,.428,1.01,1.722,1.722,0,0,1-.2.8,3.13,3.13,0,0,1-.618.82l-1.473,1.485v-.119h2.519v.7Z" transform="translate(-157.846 -318.148)" fill="#00f0ff"/>
  </g>
</svg>
