<svg xmlns="http://www.w3.org/2000/svg" height="13" width="13" xmlns:v="https://vecta.io/nano"><path d="M7.45042 12.99237q-1.80576 0-2.99886-1.27314-1.19309-1.27314-1.19309-3.04094v-.56764Q1.88803 7.93224.96096 6.88616.0339 5.84007.0339 4.41286V.68263h1.93475V.0339h.96737v2.27057h-.96737v-.64873h-.96737v2.75712q0 1.1515.79808 1.95431.79808.80281 1.94281.80281 1.14472 0 1.94281-.80281.79808-.80281.79808-1.95431V1.65574h-.96737v.64873h-.96737V.0339h.96737v.64873h1.93475v3.73022q0 1.42722-.92707 2.4733-.92707 1.04608-2.29751 1.22449v.56764q0 1.37856.91094 2.35977.91094.98121 2.31363.98121 1.30595 0 2.26526-.9731.95931-.9731.95931-2.36788V7.42947q-.5643-.16218-.92707-.63252-.36276-.47033-.36276-1.08663 0-.74605.51593-1.26503.51593-.51899 1.25758-.51899.74165 0 1.25759.51899.51593.51899.51593 1.26503 0 .6163-.36276 1.08663-.36276.47033-.92707.63252v1.24881q0 1.80024-1.2334 3.05716-1.2334 1.25692-2.95855 1.25692zm3.70826-6.47113q.33858 0 .57236-.23517.23378-.23517.23378-.57575 0-.34059-.23378-.57575-.23378-.23517-.57236-.23517-.33858 0-.57236.23517-.23378.23517-.23378.57575 0 .34059.23378.57575.23378.23517.57236.23517zm0-.81092z" fill="#fff"/></svg>