<svg width="33" height="43" viewBox="0 0 33 43" fill="none" xmlns="http://www.w3.org/2000/svg">
<path fill-rule="evenodd" clip-rule="evenodd" d="M13.4677 12.1161C13.4677 1.2235 13.4777 1.13543 14.8078 0.400562C15.7619 -0.126441 30.3757 -0.136621 31.4637 0.388962C31.7605 0.532373 32 0.645005 32.1932 0.809528C33.0079 1.50326 33 3.11962 33 11.8566C33 22.3249 32.9835 22.4821 31.7869 23.3354C31.5021 23.5388 30.8807 23.705 30.4062 23.705H29.5435L29.4698 29.091C29.3963 34.4437 29.3919 34.4853 28.7434 35.8298C28.3792 36.5846 27.6282 37.5974 27.0445 38.1204C25.2427 39.7355 24.5823 39.8718 18.0125 39.9845L12.2098 40.0842L11.3232 41.1098C10.1398 42.4784 8.77466 43 6.37568 43C4.80706 43 4.30666 42.8956 3.18402 42.3343C1.51029 41.4976 0.795041 40.5272 0.795041 39.0936C0.795041 36.7943 3.09101 35.1873 6.37568 35.1873C8.78768 35.1873 10.1387 35.7074 11.342 37.0993L12.2474 38.1466H17.9448C24.3558 38.1466 24.6953 38.0792 26.253 36.4932C27.6856 35.0346 27.907 33.9027 27.8314 28.4205L27.7681 23.8233L24.2693 23.7582L20.7703 23.6931L20.5233 25.4155C20.0634 28.6215 18.4536 30.9464 15.8386 32.1808C14.7408 32.6991 14.1758 32.8072 12.5376 32.8129C10.8793 32.8186 10.351 32.7194 9.25436 32.196C6.49009 30.8763 4.76102 28.3829 4.4792 25.3104C4.33596 23.7488 4.31829 23.7144 3.52211 23.4469C2.42691 23.079 0.932465 21.6658 0.415093 20.5088C-0.407587 18.67 0.0239821 16.1917 1.4317 14.6694C3.34074 12.6047 6.89259 12.4885 8.89674 14.4251C11.7961 17.227 10.6565 22.3595 6.87748 23.5189L5.98411 23.793L6.14153 25.1103C6.57077 28.7015 9.11206 31.1427 12.4214 31.1424C14.2772 31.1424 15.4217 30.7099 16.6806 29.5332C18.0204 28.2811 18.8105 26.5822 18.8135 24.9479L18.8159 23.705H16.9324C15.1005 23.705 15.0273 23.6829 14.2583 22.9L13.4677 22.0951V12.1161ZM8.81721 18.3781C8.81721 16.8932 8.15568 15.7388 6.95235 15.1233C5.27583 14.2655 3.4198 14.7821 2.21159 16.4422C1.54052 17.3643 1.5368 19.3888 2.20462 20.2993C4.44873 23.3598 8.81721 22.0906 8.81721 18.3781ZM4.54454 18.6788C4.33456 18.3393 4.48757 18.0661 5.44093 17.0807C6.62867 15.8532 7.16465 15.6465 7.64226 16.2322C7.99732 16.6678 7.7448 17.1491 6.53613 18.3414C5.5737 19.2908 4.98471 19.3907 4.54454 18.6788ZM30.4062 5.375C30.4062 1.075 26.3149 1.43333 24.2693 2.15C23.7528 2.19862 23.5384 2.21543 23.5384 2.23214C23.5385 2.30762 27.9108 2.38113 28.555 5.375C28.8112 9.31667 29.0125 17.63 27.7681 19.35C26.9471 20.4849 24.2744 20.7446 22.8541 20.8826C21.5838 21.006 21.3153 21.032 24.2693 21.5C29.2748 22.2929 30.4462 18.4585 30.4062 16.4422V5.375Z" fill="#FF983A"/>
</svg>
