<svg xmlns="http://www.w3.org/2000/svg" width="15.17" height="19.5" viewBox="0 0 15.17 19.5">
  <path id="Path_463" data-name="Path 463" d="M308,777a2,2,0,0,1-4,0Zm4-9v5l1.29,1.29a1,1,0,0,1-.71,1.71h-13.17a1,1,0,0,1-.7-1.71L300,773v-5c0-3.08,1.63-5.64,4.5-6.32V761a1.5,1.5,0,0,1,3,0v.68C310.361,762.36,312,764.93,312,768Zm-8.422-.794V772h.795v-3l1.36,3h.524l1.367-3.016V772h.8v-4.794h-.761L306,770.933l-1.656-3.727Z" transform="translate(-298.415 -759.5)" fill="#fff84c" fill-rule="evenodd"/>
</svg>
